<?xml version="1.0" encoding="utf-8" standalone="no"?>
<!DOCTYPE svg PUBLIC "-//W3C//DTD SVG 1.1//EN"
  "http://www.w3.org/Graphics/SVG/1.1/DTD/svg11.dtd">
<svg xmlns:xlink="http://www.w3.org/1999/xlink" width="460.8pt" height="345.6pt" viewBox="0 0 460.8 345.6" xmlns="http://www.w3.org/2000/svg" version="1.1">
 <metadata>
  <rdf:RDF xmlns:dc="http://purl.org/dc/elements/1.1/" xmlns:cc="http://creativecommons.org/ns#" xmlns:rdf="http://www.w3.org/1999/02/22-rdf-syntax-ns#">
   <cc:Work>
    <dc:type rdf:resource="http://purl.org/dc/dcmitype/StillImage"/>
    <dc:date>2023-09-28T13:47:37.955365</dc:date>
    <dc:format>image/svg+xml</dc:format>
    <dc:creator>
     <cc:Agent>
      <dc:title>Matplotlib v3.7.2, https://matplotlib.org/</dc:title>
     </cc:Agent>
    </dc:creator>
   </cc:Work>
  </rdf:RDF>
 </metadata>
 <defs>
  <style type="text/css">*{stroke-linejoin: round; stroke-linecap: butt}</style>
 </defs>
 <g id="figure_1">
  <g id="patch_1">
   <path d="M 0 345.6 
L 460.8 345.6 
L 460.8 0 
L 0 0 
z
" style="fill: #ffffff"/>
  </g>
  <g id="axes_1">
   <g id="patch_2">
    <path d="M 57.6 307.584 
L 414.72 307.584 
L 414.72 41.472 
L 57.6 41.472 
z
" style="fill: #ffffff"/>
   </g>
   <g id="matplotlib.axis_1">
    <g id="xtick_1">
     <g id="line2d_1">
      <defs>
       <path id="m5b0a42083d" d="M 0 0 
L 0 3.5 
" style="stroke: #000000; stroke-width: 0.8"/>
      </defs>
      <g>
       <use xlink:href="#m5b0a42083d" x="73.832727" y="307.584" style="stroke: #000000; stroke-width: 0.8"/>
      </g>
     </g>
     <g id="text_1">
      <!-- 0 -->
      <g transform="translate(70.651477 322.182437) scale(0.1 -0.1)">
       <defs>
        <path id="DejaVuSans-30" d="M 2034 4250 
Q 1547 4250 1301 3770 
Q 1056 3291 1056 2328 
Q 1056 1369 1301 889 
Q 1547 409 2034 409 
Q 2525 409 2770 889 
Q 3016 1369 3016 2328 
Q 3016 3291 2770 3770 
Q 2525 4250 2034 4250 
z
M 2034 4750 
Q 2819 4750 3233 4129 
Q 3647 3509 3647 2328 
Q 3647 1150 3233 529 
Q 2819 -91 2034 -91 
Q 1250 -91 836 529 
Q 422 1150 422 2328 
Q 422 3509 836 4129 
Q 1250 4750 2034 4750 
z
" transform="scale(0.015625)"/>
       </defs>
       <use xlink:href="#DejaVuSans-30"/>
      </g>
     </g>
    </g>
    <g id="xtick_2">
     <g id="line2d_2">
      <g>
       <use xlink:href="#m5b0a42083d" x="126.112042" y="307.584" style="stroke: #000000; stroke-width: 0.8"/>
      </g>
     </g>
     <g id="text_2">
      <!-- 200 -->
      <g transform="translate(116.568292 322.182437) scale(0.1 -0.1)">
       <defs>
        <path id="DejaVuSans-32" d="M 1228 531 
L 3431 531 
L 3431 0 
L 469 0 
L 469 531 
Q 828 903 1448 1529 
Q 2069 2156 2228 2338 
Q 2531 2678 2651 2914 
Q 2772 3150 2772 3378 
Q 2772 3750 2511 3984 
Q 2250 4219 1831 4219 
Q 1534 4219 1204 4116 
Q 875 4013 500 3803 
L 500 4441 
Q 881 4594 1212 4672 
Q 1544 4750 1819 4750 
Q 2544 4750 2975 4387 
Q 3406 4025 3406 3419 
Q 3406 3131 3298 2873 
Q 3191 2616 2906 2266 
Q 2828 2175 2409 1742 
Q 1991 1309 1228 531 
z
" transform="scale(0.015625)"/>
       </defs>
       <use xlink:href="#DejaVuSans-32"/>
       <use xlink:href="#DejaVuSans-30" x="63.623047"/>
       <use xlink:href="#DejaVuSans-30" x="127.246094"/>
      </g>
     </g>
    </g>
    <g id="xtick_3">
     <g id="line2d_3">
      <g>
       <use xlink:href="#m5b0a42083d" x="178.391357" y="307.584" style="stroke: #000000; stroke-width: 0.8"/>
      </g>
     </g>
     <g id="text_3">
      <!-- 400 -->
      <g transform="translate(168.847607 322.182437) scale(0.1 -0.1)">
       <defs>
        <path id="DejaVuSans-34" d="M 2419 4116 
L 825 1625 
L 2419 1625 
L 2419 4116 
z
M 2253 4666 
L 3047 4666 
L 3047 1625 
L 3713 1625 
L 3713 1100 
L 3047 1100 
L 3047 0 
L 2419 0 
L 2419 1100 
L 313 1100 
L 313 1709 
L 2253 4666 
z
" transform="scale(0.015625)"/>
       </defs>
       <use xlink:href="#DejaVuSans-34"/>
       <use xlink:href="#DejaVuSans-30" x="63.623047"/>
       <use xlink:href="#DejaVuSans-30" x="127.246094"/>
      </g>
     </g>
    </g>
    <g id="xtick_4">
     <g id="line2d_4">
      <g>
       <use xlink:href="#m5b0a42083d" x="230.670672" y="307.584" style="stroke: #000000; stroke-width: 0.8"/>
      </g>
     </g>
     <g id="text_4">
      <!-- 600 -->
      <g transform="translate(221.126922 322.182437) scale(0.1 -0.1)">
       <defs>
        <path id="DejaVuSans-36" d="M 2113 2584 
Q 1688 2584 1439 2293 
Q 1191 2003 1191 1497 
Q 1191 994 1439 701 
Q 1688 409 2113 409 
Q 2538 409 2786 701 
Q 3034 994 3034 1497 
Q 3034 2003 2786 2293 
Q 2538 2584 2113 2584 
z
M 3366 4563 
L 3366 3988 
Q 3128 4100 2886 4159 
Q 2644 4219 2406 4219 
Q 1781 4219 1451 3797 
Q 1122 3375 1075 2522 
Q 1259 2794 1537 2939 
Q 1816 3084 2150 3084 
Q 2853 3084 3261 2657 
Q 3669 2231 3669 1497 
Q 3669 778 3244 343 
Q 2819 -91 2113 -91 
Q 1303 -91 875 529 
Q 447 1150 447 2328 
Q 447 3434 972 4092 
Q 1497 4750 2381 4750 
Q 2619 4750 2861 4703 
Q 3103 4656 3366 4563 
z
" transform="scale(0.015625)"/>
       </defs>
       <use xlink:href="#DejaVuSans-36"/>
       <use xlink:href="#DejaVuSans-30" x="63.623047"/>
       <use xlink:href="#DejaVuSans-30" x="127.246094"/>
      </g>
     </g>
    </g>
    <g id="xtick_5">
     <g id="line2d_5">
      <g>
       <use xlink:href="#m5b0a42083d" x="282.949987" y="307.584" style="stroke: #000000; stroke-width: 0.8"/>
      </g>
     </g>
     <g id="text_5">
      <!-- 800 -->
      <g transform="translate(273.406237 322.182437) scale(0.1 -0.1)">
       <defs>
        <path id="DejaVuSans-38" d="M 2034 2216 
Q 1584 2216 1326 1975 
Q 1069 1734 1069 1313 
Q 1069 891 1326 650 
Q 1584 409 2034 409 
Q 2484 409 2743 651 
Q 3003 894 3003 1313 
Q 3003 1734 2745 1975 
Q 2488 2216 2034 2216 
z
M 1403 2484 
Q 997 2584 770 2862 
Q 544 3141 544 3541 
Q 544 4100 942 4425 
Q 1341 4750 2034 4750 
Q 2731 4750 3128 4425 
Q 3525 4100 3525 3541 
Q 3525 3141 3298 2862 
Q 3072 2584 2669 2484 
Q 3125 2378 3379 2068 
Q 3634 1759 3634 1313 
Q 3634 634 3220 271 
Q 2806 -91 2034 -91 
Q 1263 -91 848 271 
Q 434 634 434 1313 
Q 434 1759 690 2068 
Q 947 2378 1403 2484 
z
M 1172 3481 
Q 1172 3119 1398 2916 
Q 1625 2713 2034 2713 
Q 2441 2713 2670 2916 
Q 2900 3119 2900 3481 
Q 2900 3844 2670 4047 
Q 2441 4250 2034 4250 
Q 1625 4250 1398 4047 
Q 1172 3844 1172 3481 
z
" transform="scale(0.015625)"/>
       </defs>
       <use xlink:href="#DejaVuSans-38"/>
       <use xlink:href="#DejaVuSans-30" x="63.623047"/>
       <use xlink:href="#DejaVuSans-30" x="127.246094"/>
      </g>
     </g>
    </g>
    <g id="xtick_6">
     <g id="line2d_6">
      <g>
       <use xlink:href="#m5b0a42083d" x="335.229302" y="307.584" style="stroke: #000000; stroke-width: 0.8"/>
      </g>
     </g>
     <g id="text_6">
      <!-- 1000 -->
      <g transform="translate(322.504302 322.182437) scale(0.1 -0.1)">
       <defs>
        <path id="DejaVuSans-31" d="M 794 531 
L 1825 531 
L 1825 4091 
L 703 3866 
L 703 4441 
L 1819 4666 
L 2450 4666 
L 2450 531 
L 3481 531 
L 3481 0 
L 794 0 
L 794 531 
z
" transform="scale(0.015625)"/>
       </defs>
       <use xlink:href="#DejaVuSans-31"/>
       <use xlink:href="#DejaVuSans-30" x="63.623047"/>
       <use xlink:href="#DejaVuSans-30" x="127.246094"/>
       <use xlink:href="#DejaVuSans-30" x="190.869141"/>
      </g>
     </g>
    </g>
    <g id="xtick_7">
     <g id="line2d_7">
      <g>
       <use xlink:href="#m5b0a42083d" x="387.508617" y="307.584" style="stroke: #000000; stroke-width: 0.8"/>
      </g>
     </g>
     <g id="text_7">
      <!-- 1200 -->
      <g transform="translate(374.783617 322.182437) scale(0.1 -0.1)">
       <use xlink:href="#DejaVuSans-31"/>
       <use xlink:href="#DejaVuSans-32" x="63.623047"/>
       <use xlink:href="#DejaVuSans-30" x="127.246094"/>
       <use xlink:href="#DejaVuSans-30" x="190.869141"/>
      </g>
     </g>
    </g>
    <g id="text_8">
     <!-- Cycle -->
     <g transform="translate(214.295 340.419625) scale(0.16 -0.16)">
      <defs>
       <path id="DejaVuSans-43" d="M 4122 4306 
L 4122 3641 
Q 3803 3938 3442 4084 
Q 3081 4231 2675 4231 
Q 1875 4231 1450 3742 
Q 1025 3253 1025 2328 
Q 1025 1406 1450 917 
Q 1875 428 2675 428 
Q 3081 428 3442 575 
Q 3803 722 4122 1019 
L 4122 359 
Q 3791 134 3420 21 
Q 3050 -91 2638 -91 
Q 1578 -91 968 557 
Q 359 1206 359 2328 
Q 359 3453 968 4101 
Q 1578 4750 2638 4750 
Q 3056 4750 3426 4639 
Q 3797 4528 4122 4306 
z
" transform="scale(0.015625)"/>
       <path id="DejaVuSans-79" d="M 2059 -325 
Q 1816 -950 1584 -1140 
Q 1353 -1331 966 -1331 
L 506 -1331 
L 506 -850 
L 844 -850 
Q 1081 -850 1212 -737 
Q 1344 -625 1503 -206 
L 1606 56 
L 191 3500 
L 800 3500 
L 1894 763 
L 2988 3500 
L 3597 3500 
L 2059 -325 
z
" transform="scale(0.015625)"/>
       <path id="DejaVuSans-63" d="M 3122 3366 
L 3122 2828 
Q 2878 2963 2633 3030 
Q 2388 3097 2138 3097 
Q 1578 3097 1268 2742 
Q 959 2388 959 1747 
Q 959 1106 1268 751 
Q 1578 397 2138 397 
Q 2388 397 2633 464 
Q 2878 531 3122 666 
L 3122 134 
Q 2881 22 2623 -34 
Q 2366 -91 2075 -91 
Q 1284 -91 818 406 
Q 353 903 353 1747 
Q 353 2603 823 3093 
Q 1294 3584 2113 3584 
Q 2378 3584 2631 3529 
Q 2884 3475 3122 3366 
z
" transform="scale(0.015625)"/>
       <path id="DejaVuSans-6c" d="M 603 4863 
L 1178 4863 
L 1178 0 
L 603 0 
L 603 4863 
z
" transform="scale(0.015625)"/>
       <path id="DejaVuSans-65" d="M 3597 1894 
L 3597 1613 
L 953 1613 
Q 991 1019 1311 708 
Q 1631 397 2203 397 
Q 2534 397 2845 478 
Q 3156 559 3463 722 
L 3463 178 
Q 3153 47 2828 -22 
Q 2503 -91 2169 -91 
Q 1331 -91 842 396 
Q 353 884 353 1716 
Q 353 2575 817 3079 
Q 1281 3584 2069 3584 
Q 2775 3584 3186 3129 
Q 3597 2675 3597 1894 
z
M 3022 2063 
Q 3016 2534 2758 2815 
Q 2500 3097 2075 3097 
Q 1594 3097 1305 2825 
Q 1016 2553 972 2059 
L 3022 2063 
z
" transform="scale(0.015625)"/>
      </defs>
      <use xlink:href="#DejaVuSans-43"/>
      <use xlink:href="#DejaVuSans-79" x="69.824219"/>
      <use xlink:href="#DejaVuSans-63" x="129.003906"/>
      <use xlink:href="#DejaVuSans-6c" x="183.984375"/>
      <use xlink:href="#DejaVuSans-65" x="211.767578"/>
     </g>
    </g>
   </g>
   <g id="matplotlib.axis_2">
    <g id="ytick_1">
     <g id="line2d_8">
      <defs>
       <path id="m55a81e8e6d" d="M 0 0 
L -3.5 0 
" style="stroke: #000000; stroke-width: 0.8"/>
      </defs>
      <g>
       <use xlink:href="#m55a81e8e6d" x="57.6" y="282.643391" style="stroke: #000000; stroke-width: 0.8"/>
      </g>
     </g>
     <g id="text_9">
      <!-- 0.1 -->
      <g style="fill: #0000ff" transform="translate(34.696875 286.44261) scale(0.1 -0.1)">
       <defs>
        <path id="DejaVuSans-2e" d="M 684 794 
L 1344 794 
L 1344 0 
L 684 0 
L 684 794 
z
" transform="scale(0.015625)"/>
       </defs>
       <use xlink:href="#DejaVuSans-30"/>
       <use xlink:href="#DejaVuSans-2e" x="63.623047"/>
       <use xlink:href="#DejaVuSans-31" x="95.410156"/>
      </g>
     </g>
    </g>
    <g id="ytick_2">
     <g id="line2d_9">
      <g>
       <use xlink:href="#m55a81e8e6d" x="57.6" y="251.349527" style="stroke: #000000; stroke-width: 0.8"/>
      </g>
     </g>
     <g id="text_10">
      <!-- 0.2 -->
      <g style="fill: #0000ff" transform="translate(34.696875 255.148746) scale(0.1 -0.1)">
       <use xlink:href="#DejaVuSans-30"/>
       <use xlink:href="#DejaVuSans-2e" x="63.623047"/>
       <use xlink:href="#DejaVuSans-32" x="95.410156"/>
      </g>
     </g>
    </g>
    <g id="ytick_3">
     <g id="line2d_10">
      <g>
       <use xlink:href="#m55a81e8e6d" x="57.6" y="220.055663" style="stroke: #000000; stroke-width: 0.8"/>
      </g>
     </g>
     <g id="text_11">
      <!-- 0.3 -->
      <g style="fill: #0000ff" transform="translate(34.696875 223.854882) scale(0.1 -0.1)">
       <defs>
        <path id="DejaVuSans-33" d="M 2597 2516 
Q 3050 2419 3304 2112 
Q 3559 1806 3559 1356 
Q 3559 666 3084 287 
Q 2609 -91 1734 -91 
Q 1441 -91 1130 -33 
Q 819 25 488 141 
L 488 750 
Q 750 597 1062 519 
Q 1375 441 1716 441 
Q 2309 441 2620 675 
Q 2931 909 2931 1356 
Q 2931 1769 2642 2001 
Q 2353 2234 1838 2234 
L 1294 2234 
L 1294 2753 
L 1863 2753 
Q 2328 2753 2575 2939 
Q 2822 3125 2822 3475 
Q 2822 3834 2567 4026 
Q 2313 4219 1838 4219 
Q 1578 4219 1281 4162 
Q 984 4106 628 3988 
L 628 4550 
Q 988 4650 1302 4700 
Q 1616 4750 1894 4750 
Q 2613 4750 3031 4423 
Q 3450 4097 3450 3541 
Q 3450 3153 3228 2886 
Q 3006 2619 2597 2516 
z
" transform="scale(0.015625)"/>
       </defs>
       <use xlink:href="#DejaVuSans-30"/>
       <use xlink:href="#DejaVuSans-2e" x="63.623047"/>
       <use xlink:href="#DejaVuSans-33" x="95.410156"/>
      </g>
     </g>
    </g>
    <g id="ytick_4">
     <g id="line2d_11">
      <g>
       <use xlink:href="#m55a81e8e6d" x="57.6" y="188.761799" style="stroke: #000000; stroke-width: 0.8"/>
      </g>
     </g>
     <g id="text_12">
      <!-- 0.4 -->
      <g style="fill: #0000ff" transform="translate(34.696875 192.561018) scale(0.1 -0.1)">
       <use xlink:href="#DejaVuSans-30"/>
       <use xlink:href="#DejaVuSans-2e" x="63.623047"/>
       <use xlink:href="#DejaVuSans-34" x="95.410156"/>
      </g>
     </g>
    </g>
    <g id="ytick_5">
     <g id="line2d_12">
      <g>
       <use xlink:href="#m55a81e8e6d" x="57.6" y="157.467935" style="stroke: #000000; stroke-width: 0.8"/>
      </g>
     </g>
     <g id="text_13">
      <!-- 0.5 -->
      <g style="fill: #0000ff" transform="translate(34.696875 161.267154) scale(0.1 -0.1)">
       <defs>
        <path id="DejaVuSans-35" d="M 691 4666 
L 3169 4666 
L 3169 4134 
L 1269 4134 
L 1269 2991 
Q 1406 3038 1543 3061 
Q 1681 3084 1819 3084 
Q 2600 3084 3056 2656 
Q 3513 2228 3513 1497 
Q 3513 744 3044 326 
Q 2575 -91 1722 -91 
Q 1428 -91 1123 -41 
Q 819 9 494 109 
L 494 744 
Q 775 591 1075 516 
Q 1375 441 1709 441 
Q 2250 441 2565 725 
Q 2881 1009 2881 1497 
Q 2881 1984 2565 2268 
Q 2250 2553 1709 2553 
Q 1456 2553 1204 2497 
Q 953 2441 691 2322 
L 691 4666 
z
" transform="scale(0.015625)"/>
       </defs>
       <use xlink:href="#DejaVuSans-30"/>
       <use xlink:href="#DejaVuSans-2e" x="63.623047"/>
       <use xlink:href="#DejaVuSans-35" x="95.410156"/>
      </g>
     </g>
    </g>
    <g id="ytick_6">
     <g id="line2d_13">
      <g>
       <use xlink:href="#m55a81e8e6d" x="57.6" y="126.174071" style="stroke: #000000; stroke-width: 0.8"/>
      </g>
     </g>
     <g id="text_14">
      <!-- 0.6 -->
      <g style="fill: #0000ff" transform="translate(34.696875 129.97329) scale(0.1 -0.1)">
       <use xlink:href="#DejaVuSans-30"/>
       <use xlink:href="#DejaVuSans-2e" x="63.623047"/>
       <use xlink:href="#DejaVuSans-36" x="95.410156"/>
      </g>
     </g>
    </g>
    <g id="ytick_7">
     <g id="line2d_14">
      <g>
       <use xlink:href="#m55a81e8e6d" x="57.6" y="94.880207" style="stroke: #000000; stroke-width: 0.8"/>
      </g>
     </g>
     <g id="text_15">
      <!-- 0.7 -->
      <g style="fill: #0000ff" transform="translate(34.696875 98.679426) scale(0.1 -0.1)">
       <defs>
        <path id="DejaVuSans-37" d="M 525 4666 
L 3525 4666 
L 3525 4397 
L 1831 0 
L 1172 0 
L 2766 4134 
L 525 4134 
L 525 4666 
z
" transform="scale(0.015625)"/>
       </defs>
       <use xlink:href="#DejaVuSans-30"/>
       <use xlink:href="#DejaVuSans-2e" x="63.623047"/>
       <use xlink:href="#DejaVuSans-37" x="95.410156"/>
      </g>
     </g>
    </g>
    <g id="ytick_8">
     <g id="line2d_15">
      <g>
       <use xlink:href="#m55a81e8e6d" x="57.6" y="63.586343" style="stroke: #000000; stroke-width: 0.8"/>
      </g>
     </g>
     <g id="text_16">
      <!-- 0.8 -->
      <g style="fill: #0000ff" transform="translate(34.696875 67.385562) scale(0.1 -0.1)">
       <use xlink:href="#DejaVuSans-30"/>
       <use xlink:href="#DejaVuSans-2e" x="63.623047"/>
       <use xlink:href="#DejaVuSans-38" x="95.410156"/>
      </g>
     </g>
    </g>
    <g id="text_17">
     <!-- Fraction of perturbation  -->
     <g style="fill: #0000ff" transform="translate(9.452875 271.89175) rotate(-90) scale(0.16 -0.16)">
      <defs>
       <path id="DejaVuSans-46" d="M 628 4666 
L 3309 4666 
L 3309 4134 
L 1259 4134 
L 1259 2759 
L 3109 2759 
L 3109 2228 
L 1259 2228 
L 1259 0 
L 628 0 
L 628 4666 
z
" transform="scale(0.015625)"/>
       <path id="DejaVuSans-72" d="M 2631 2963 
Q 2534 3019 2420 3045 
Q 2306 3072 2169 3072 
Q 1681 3072 1420 2755 
Q 1159 2438 1159 1844 
L 1159 0 
L 581 0 
L 581 3500 
L 1159 3500 
L 1159 2956 
Q 1341 3275 1631 3429 
Q 1922 3584 2338 3584 
Q 2397 3584 2469 3576 
Q 2541 3569 2628 3553 
L 2631 2963 
z
" transform="scale(0.015625)"/>
       <path id="DejaVuSans-61" d="M 2194 1759 
Q 1497 1759 1228 1600 
Q 959 1441 959 1056 
Q 959 750 1161 570 
Q 1363 391 1709 391 
Q 2188 391 2477 730 
Q 2766 1069 2766 1631 
L 2766 1759 
L 2194 1759 
z
M 3341 1997 
L 3341 0 
L 2766 0 
L 2766 531 
Q 2569 213 2275 61 
Q 1981 -91 1556 -91 
Q 1019 -91 701 211 
Q 384 513 384 1019 
Q 384 1609 779 1909 
Q 1175 2209 1959 2209 
L 2766 2209 
L 2766 2266 
Q 2766 2663 2505 2880 
Q 2244 3097 1772 3097 
Q 1472 3097 1187 3025 
Q 903 2953 641 2809 
L 641 3341 
Q 956 3463 1253 3523 
Q 1550 3584 1831 3584 
Q 2591 3584 2966 3190 
Q 3341 2797 3341 1997 
z
" transform="scale(0.015625)"/>
       <path id="DejaVuSans-74" d="M 1172 4494 
L 1172 3500 
L 2356 3500 
L 2356 3053 
L 1172 3053 
L 1172 1153 
Q 1172 725 1289 603 
Q 1406 481 1766 481 
L 2356 481 
L 2356 0 
L 1766 0 
Q 1100 0 847 248 
Q 594 497 594 1153 
L 594 3053 
L 172 3053 
L 172 3500 
L 594 3500 
L 594 4494 
L 1172 4494 
z
" transform="scale(0.015625)"/>
       <path id="DejaVuSans-69" d="M 603 3500 
L 1178 3500 
L 1178 0 
L 603 0 
L 603 3500 
z
M 603 4863 
L 1178 4863 
L 1178 4134 
L 603 4134 
L 603 4863 
z
" transform="scale(0.015625)"/>
       <path id="DejaVuSans-6f" d="M 1959 3097 
Q 1497 3097 1228 2736 
Q 959 2375 959 1747 
Q 959 1119 1226 758 
Q 1494 397 1959 397 
Q 2419 397 2687 759 
Q 2956 1122 2956 1747 
Q 2956 2369 2687 2733 
Q 2419 3097 1959 3097 
z
M 1959 3584 
Q 2709 3584 3137 3096 
Q 3566 2609 3566 1747 
Q 3566 888 3137 398 
Q 2709 -91 1959 -91 
Q 1206 -91 779 398 
Q 353 888 353 1747 
Q 353 2609 779 3096 
Q 1206 3584 1959 3584 
z
" transform="scale(0.015625)"/>
       <path id="DejaVuSans-6e" d="M 3513 2113 
L 3513 0 
L 2938 0 
L 2938 2094 
Q 2938 2591 2744 2837 
Q 2550 3084 2163 3084 
Q 1697 3084 1428 2787 
Q 1159 2491 1159 1978 
L 1159 0 
L 581 0 
L 581 3500 
L 1159 3500 
L 1159 2956 
Q 1366 3272 1645 3428 
Q 1925 3584 2291 3584 
Q 2894 3584 3203 3211 
Q 3513 2838 3513 2113 
z
" transform="scale(0.015625)"/>
       <path id="DejaVuSans-20" transform="scale(0.015625)"/>
       <path id="DejaVuSans-66" d="M 2375 4863 
L 2375 4384 
L 1825 4384 
Q 1516 4384 1395 4259 
Q 1275 4134 1275 3809 
L 1275 3500 
L 2222 3500 
L 2222 3053 
L 1275 3053 
L 1275 0 
L 697 0 
L 697 3053 
L 147 3053 
L 147 3500 
L 697 3500 
L 697 3744 
Q 697 4328 969 4595 
Q 1241 4863 1831 4863 
L 2375 4863 
z
" transform="scale(0.015625)"/>
       <path id="DejaVuSans-70" d="M 1159 525 
L 1159 -1331 
L 581 -1331 
L 581 3500 
L 1159 3500 
L 1159 2969 
Q 1341 3281 1617 3432 
Q 1894 3584 2278 3584 
Q 2916 3584 3314 3078 
Q 3713 2572 3713 1747 
Q 3713 922 3314 415 
Q 2916 -91 2278 -91 
Q 1894 -91 1617 61 
Q 1341 213 1159 525 
z
M 3116 1747 
Q 3116 2381 2855 2742 
Q 2594 3103 2138 3103 
Q 1681 3103 1420 2742 
Q 1159 2381 1159 1747 
Q 1159 1113 1420 752 
Q 1681 391 2138 391 
Q 2594 391 2855 752 
Q 3116 1113 3116 1747 
z
" transform="scale(0.015625)"/>
       <path id="DejaVuSans-75" d="M 544 1381 
L 544 3500 
L 1119 3500 
L 1119 1403 
Q 1119 906 1312 657 
Q 1506 409 1894 409 
Q 2359 409 2629 706 
Q 2900 1003 2900 1516 
L 2900 3500 
L 3475 3500 
L 3475 0 
L 2900 0 
L 2900 538 
Q 2691 219 2414 64 
Q 2138 -91 1772 -91 
Q 1169 -91 856 284 
Q 544 659 544 1381 
z
M 1991 3584 
L 1991 3584 
z
" transform="scale(0.015625)"/>
       <path id="DejaVuSans-62" d="M 3116 1747 
Q 3116 2381 2855 2742 
Q 2594 3103 2138 3103 
Q 1681 3103 1420 2742 
Q 1159 2381 1159 1747 
Q 1159 1113 1420 752 
Q 1681 391 2138 391 
Q 2594 391 2855 752 
Q 3116 1113 3116 1747 
z
M 1159 2969 
Q 1341 3281 1617 3432 
Q 1894 3584 2278 3584 
Q 2916 3584 3314 3078 
Q 3713 2572 3713 1747 
Q 3713 922 3314 415 
Q 2916 -91 2278 -91 
Q 1894 -91 1617 61 
Q 1341 213 1159 525 
L 1159 0 
L 581 0 
L 581 4863 
L 1159 4863 
L 1159 2969 
z
" transform="scale(0.015625)"/>
      </defs>
      <use xlink:href="#DejaVuSans-46"/>
      <use xlink:href="#DejaVuSans-72" x="50.269531"/>
      <use xlink:href="#DejaVuSans-61" x="91.382812"/>
      <use xlink:href="#DejaVuSans-63" x="152.662109"/>
      <use xlink:href="#DejaVuSans-74" x="207.642578"/>
      <use xlink:href="#DejaVuSans-69" x="246.851562"/>
      <use xlink:href="#DejaVuSans-6f" x="274.634766"/>
      <use xlink:href="#DejaVuSans-6e" x="335.816406"/>
      <use xlink:href="#DejaVuSans-20" x="399.195312"/>
      <use xlink:href="#DejaVuSans-6f" x="430.982422"/>
      <use xlink:href="#DejaVuSans-66" x="492.164062"/>
      <use xlink:href="#DejaVuSans-20" x="527.369141"/>
      <use xlink:href="#DejaVuSans-70" x="559.15625"/>
      <use xlink:href="#DejaVuSans-65" x="622.632812"/>
      <use xlink:href="#DejaVuSans-72" x="684.15625"/>
      <use xlink:href="#DejaVuSans-74" x="725.269531"/>
      <use xlink:href="#DejaVuSans-75" x="764.478516"/>
      <use xlink:href="#DejaVuSans-72" x="827.857422"/>
      <use xlink:href="#DejaVuSans-62" x="868.970703"/>
      <use xlink:href="#DejaVuSans-61" x="932.447266"/>
      <use xlink:href="#DejaVuSans-74" x="993.726562"/>
      <use xlink:href="#DejaVuSans-69" x="1032.935547"/>
      <use xlink:href="#DejaVuSans-6f" x="1060.71875"/>
      <use xlink:href="#DejaVuSans-6e" x="1121.900391"/>
      <use xlink:href="#DejaVuSans-20" x="1185.279297"/>
     </g>
     <!--  effect controlled -->
     <g style="fill: #0000ff" transform="translate(27.369375 242.5755) rotate(-90) scale(0.16 -0.16)">
      <defs>
       <path id="DejaVuSans-64" d="M 2906 2969 
L 2906 4863 
L 3481 4863 
L 3481 0 
L 2906 0 
L 2906 525 
Q 2725 213 2448 61 
Q 2172 -91 1784 -91 
Q 1150 -91 751 415 
Q 353 922 353 1747 
Q 353 2572 751 3078 
Q 1150 3584 1784 3584 
Q 2172 3584 2448 3432 
Q 2725 3281 2906 2969 
z
M 947 1747 
Q 947 1113 1208 752 
Q 1469 391 1925 391 
Q 2381 391 2643 752 
Q 2906 1113 2906 1747 
Q 2906 2381 2643 2742 
Q 2381 3103 1925 3103 
Q 1469 3103 1208 2742 
Q 947 2381 947 1747 
z
" transform="scale(0.015625)"/>
      </defs>
      <use xlink:href="#DejaVuSans-20"/>
      <use xlink:href="#DejaVuSans-65" x="31.787109"/>
      <use xlink:href="#DejaVuSans-66" x="93.310547"/>
      <use xlink:href="#DejaVuSans-66" x="128.515625"/>
      <use xlink:href="#DejaVuSans-65" x="163.720703"/>
      <use xlink:href="#DejaVuSans-63" x="225.244141"/>
      <use xlink:href="#DejaVuSans-74" x="280.224609"/>
      <use xlink:href="#DejaVuSans-20" x="319.433594"/>
      <use xlink:href="#DejaVuSans-63" x="351.220703"/>
      <use xlink:href="#DejaVuSans-6f" x="406.201172"/>
      <use xlink:href="#DejaVuSans-6e" x="467.382812"/>
      <use xlink:href="#DejaVuSans-74" x="530.761719"/>
      <use xlink:href="#DejaVuSans-72" x="569.970703"/>
      <use xlink:href="#DejaVuSans-6f" x="608.833984"/>
      <use xlink:href="#DejaVuSans-6c" x="670.015625"/>
      <use xlink:href="#DejaVuSans-6c" x="697.798828"/>
      <use xlink:href="#DejaVuSans-65" x="725.582031"/>
      <use xlink:href="#DejaVuSans-64" x="787.105469"/>
     </g>
    </g>
   </g>
   <g id="line2d_16">
    <path d="M 73.832727 53.740219 
L 74.094124 53.568 
L 74.616917 53.650919 
L 74.878314 53.749223 
L 75.13971 54.025357 
L 75.401107 54.54335 
L 75.662503 54.54335 
L 76.185296 54.016258 
L 76.446693 53.772678 
L 76.969486 54.204615 
L 77.492279 54.245529 
L 79.322055 54.160588 
L 79.844848 54.066129 
L 81.413228 54.066129 
L 81.674625 54.377645 
L 82.197418 54.045915 
L 82.981607 54.026775 
L 83.504401 54.119327 
L 83.765797 53.773044 
L 84.027194 53.773044 
L 84.28859 53.951653 
L 85.85697 53.890113 
L 86.118366 54.222567 
L 86.379763 56.820962 
L 87.425349 56.892253 
L 87.686746 57.109499 
L 88.209539 57.109499 
L 88.470935 57.346813 
L 89.255125 57.341796 
L 89.516522 57.562595 
L 89.777918 57.617975 
L 90.039315 57.912184 
L 90.300711 60.82833 
L 91.084901 60.838799 
L 91.346298 61.135748 
L 96.574229 61.243363 
L 97.097022 61.382866 
L 98.142609 61.360944 
L 98.404005 62.016958 
L 102.063557 62.04721 
L 102.324954 62.423244 
L 102.847747 62.423244 
L 103.37054 62.538801 
L 104.15473 62.538801 
L 104.416126 62.851084 
L 104.677523 62.851084 
L 104.93892 63.014596 
L 105.200316 63.014596 
L 105.461713 63.333429 
L 105.984506 63.36744 
L 106.507299 63.449682 
L 108.075679 63.510715 
L 108.337075 63.807622 
L 108.598472 64.362298 
L 110.428248 64.448262 
L 111.212437 64.519694 
L 112.258024 64.619776 
L 112.51942 64.646473 
L 112.780817 64.8669 
L 114.610593 64.86785 
L 115.394783 65.141994 
L 117.224559 65.19987 
L 117.485955 66.247973 
L 118.008748 66.399748 
L 119.315731 66.442987 
L 120.099921 66.480831 
L 120.361318 66.748259 
L 121.6683 66.836761 
L 121.929697 68.099404 
L 122.191094 68.617378 
L 122.975283 68.630483 
L 123.23668 69.409587 
L 124.282266 69.506668 
L 124.543663 71.093619 
L 124.805059 71.275737 
L 125.850646 71.376937 
L 128.726008 71.486445 
L 129.771594 71.538974 
L 130.032991 71.538974 
L 130.294387 71.722562 
L 130.555784 71.722562 
L 130.817181 71.884755 
L 131.60137 71.884755 
L 132.38556 72.25279 
L 135.522319 72.271764 
L 135.783715 72.817271 
L 139.443267 72.91495 
L 139.966061 73.458926 
L 141.795837 73.52295 
L 142.31863 73.629553 
L 142.841423 73.658867 
L 143.625613 73.924188 
L 145.193992 74.033861 
L 145.455389 75.519464 
L 146.239578 75.987377 
L 146.500975 76.296413 
L 150.944717 76.383453 
L 151.206113 77.471672 
L 151.990303 77.521284 
L 152.2517 77.685622 
L 153.558682 77.731704 
L 154.342872 77.83678 
L 155.127062 77.888835 
L 156.695441 77.923717 
L 158.525217 77.923717 
L 158.786614 78.162404 
L 160.093597 78.162404 
L 160.354993 78.359465 
L 161.661976 78.359465 
L 162.184769 78.479587 
L 162.968959 78.479587 
L 163.230356 78.762006 
L 164.275942 78.762006 
L 164.537339 79.126517 
L 166.889908 79.20059 
L 167.151304 79.905843 
L 167.412701 79.94372 
L 167.674097 80.39907 
L 169.503874 80.39907 
L 169.76527 81.044429 
L 171.856443 81.113096 
L 172.117839 81.175804 
L 172.379236 81.436906 
L 174.470408 81.436906 
L 174.731805 81.786981 
L 177.607167 81.803726 
L 177.868564 82.28886 
L 178.12996 82.466858 
L 178.391357 82.497788 
L 178.652754 82.662446 
L 180.48253 82.768836 
L 181.005323 82.876166 
L 181.528116 82.876166 
L 181.789513 83.073658 
L 182.050909 83.073658 
L 182.312306 84.162712 
L 183.357892 84.200748 
L 183.619289 84.590048 
L 183.880685 84.744905 
L 184.664875 84.815013 
L 184.926271 85.14454 
L 185.449065 85.164851 
L 186.233254 85.616926 
L 188.06303 85.702157 
L 188.84722 85.740159 
L 189.370013 85.76259 
L 189.63141 85.956649 
L 191.461186 86.058316 
L 191.983979 86.162621 
L 192.245375 86.162621 
L 192.506772 86.425376 
L 194.336548 86.452968 
L 194.597945 86.629505 
L 195.382134 86.629505 
L 195.643531 86.760355 
L 196.166324 86.760355 
L 196.689117 86.871913 
L 196.950514 86.871913 
L 197.21191 87.217707 
L 198.518893 87.261717 
L 199.303083 87.420124 
L 199.56448 87.420124 
L 199.825876 87.662576 
L 201.394256 87.688393 
L 202.439842 88.066832 
L 204.008221 88.066832 
L 204.269618 88.19469 
L 205.315204 88.19469 
L 205.576601 88.436956 
L 206.099394 88.548504 
L 206.360791 88.69364 
L 206.622187 88.69364 
L 206.883584 97.641018 
L 208.451963 97.663046 
L 209.236153 97.663046 
L 209.497549 98.395067 
L 212.895705 98.396746 
L 213.157101 98.862516 
L 214.725481 98.872585 
L 214.986877 99.212487 
L 218.64643 99.387964 
L 218.907826 99.72927 
L 219.430619 99.805186 
L 219.953412 99.805186 
L 220.214809 100.051022 
L 222.305982 100.051022 
L 222.567378 101.298571 
L 223.612964 101.298571 
L 223.874361 103.027784 
L 226.488327 103.134857 
L 227.533913 103.200374 
L 227.79531 103.341192 
L 228.318103 103.389021 
L 228.840896 103.4625 
L 229.886482 103.551387 
L 230.409275 103.675527 
L 231.716258 103.769963 
L 231.977655 103.929668 
L 233.023241 103.962408 
L 233.284638 104.34986 
L 234.591621 104.420979 
L 234.853017 104.756767 
L 235.898603 104.78892 
L 237.989776 104.839269 
L 238.251173 105.133853 
L 238.512569 105.133853 
L 238.773966 105.311634 
L 239.035362 105.311634 
L 239.296759 105.645918 
L 241.649328 105.678718 
L 241.910725 105.975014 
L 246.09307 105.975014 
L 246.87726 106.654428 
L 248.445639 106.770978 
L 249.491225 106.771183 
L 249.752622 128.667848 
L 250.275415 128.667848 
L 250.536812 129.387969 
L 251.321001 129.387969 
L 251.582398 129.673018 
L 252.105191 129.673018 
L 252.366588 130.51962 
L 253.934967 130.571556 
L 254.196364 134.466109 
L 254.719157 134.466109 
L 254.980553 134.606698 
L 255.24195 134.606698 
L 255.503347 134.946146 
L 257.071726 134.98574 
L 257.333123 141.845377 
L 257.594519 141.845377 
L 258.117312 143.301398 
L 259.424295 143.301398 
L 259.685692 143.648761 
L 259.947088 152.195728 
L 261.515468 152.195728 
L 261.776864 152.713587 
L 262.038261 152.776689 
L 262.299657 153.872378 
L 262.822451 153.967686 
L 264.129433 154.064737 
L 264.652227 154.412301 
L 265.959209 154.412301 
L 266.220606 154.797422 
L 267.266192 154.797422 
L 267.527589 154.931967 
L 269.095968 155.011067 
L 269.618762 155.330196 
L 271.187141 155.330196 
L 271.448538 155.689747 
L 272.75552 155.700726 
L 273.016917 156.12802 
L 274.3239 156.232778 
L 275.369486 156.355724 
L 275.630883 156.966468 
L 277.199262 157.190757 
L 277.460659 157.550749 
L 279.290435 157.574708 
L 279.551831 157.91919 
L 280.074625 157.91919 
L 280.336021 158.061949 
L 281.120211 158.061949 
L 281.381607 159.027148 
L 281.904401 159.027148 
L 282.165797 159.524518 
L 283.47278 159.587342 
L 283.995573 159.769587 
L 287.916522 159.805816 
L 288.177918 161.84302 
L 288.962108 161.85917 
L 289.223505 164.329365 
L 289.484901 164.556625 
L 292.098867 164.556625 
L 292.360264 165.328042 
L 292.62166 165.328042 
L 293.667246 166.033952 
L 293.928643 166.033952 
L 294.19004 166.186904 
L 295.497022 166.259501 
L 296.019816 166.431268 
L 296.804005 166.46512 
L 297.065402 166.597424 
L 297.326798 166.597424 
L 298.110988 166.926633 
L 300.463557 166.944189 
L 300.724954 167.274028 
L 301.509144 167.274028 
L 301.77054 167.523796 
L 302.55473 167.583504 
L 302.816126 167.706585 
L 303.861713 167.753678 
L 304.384506 167.85959 
L 304.645903 167.891687 
L 304.907299 170.347127 
L 306.998472 170.394623 
L 307.521265 170.515947 
L 308.828248 170.642807 
L 309.089644 171.119809 
L 310.396627 171.125215 
L 310.658024 171.396509 
L 310.91942 171.396509 
L 311.180817 172.915208 
L 311.70361 172.915208 
L 311.965007 173.456543 
L 312.226403 173.456543 
L 312.749196 173.572442 
L 317.454335 173.62663 
L 317.715731 174.390536 
L 320.329697 174.390536 
L 320.591094 174.58648 
L 321.898076 174.58648 
L 322.159473 188.18614 
L 322.943663 188.333883 
L 323.205059 188.546435 
L 323.466456 188.546435 
L 323.727852 189.331716 
L 323.989249 189.331716 
L 324.250646 189.474457 
L 324.512042 189.967628 
L 325.819025 190.007221 
L 326.080422 190.323754 
L 327.126008 190.326046 
L 327.387404 190.577811 
L 328.955784 190.63469 
L 329.217181 191.865489 
L 329.739974 192.616122 
L 333.399526 192.666005 
L 333.660922 195.103876 
L 334.183715 195.103876 
L 334.445112 195.709126 
L 335.229302 195.709126 
L 335.490698 197.09596 
L 336.536285 197.099565 
L 336.797681 197.300568 
L 338.366061 197.351178 
L 338.627457 197.789695 
L 338.888854 197.956194 
L 339.673043 198.00337 
L 340.195837 198.185395 
L 340.980026 198.253406 
L 341.241423 198.388736 
L 342.025613 198.388736 
L 342.287009 198.848629 
L 342.548406 199.064491 
L 342.809802 199.064491 
L 343.071199 199.706392 
L 345.685165 199.785203 
L 345.946561 200.318008 
L 346.469354 200.318008 
L 346.730751 200.855191 
L 346.992148 200.855191 
L 347.253544 201.196267 
L 347.776337 201.196267 
L 348.037734 202.318194 
L 348.29913 202.318194 
L 348.560527 202.717066 
L 349.606113 202.75068 
L 349.86751 203.772325 
L 350.6517 203.772325 
L 350.913096 204.031927 
L 351.174493 204.031927 
L 351.435889 204.579504 
L 352.220079 204.848862 
L 354.572648 204.945412 
L 354.834045 205.02269 
L 355.095441 205.233735 
L 356.663821 205.244694 
L 356.925217 205.486381 
L 359.01639 205.728506 
L 359.277787 206.622489 
L 360.846166 206.622489 
L 361.107563 209.283762 
L 361.630356 209.283762 
L 361.891752 209.432449 
L 362.153149 210.525867 
L 362.937339 210.525867 
L 363.198735 210.676449 
L 363.721528 210.676449 
L 363.982925 211.336033 
L 364.505718 211.400166 
L 364.767115 213.04097 
L 365.289908 213.04097 
L 365.551304 213.471568 
L 367.642477 213.54588 
L 367.903874 213.7564 
L 368.426667 213.7564 
L 368.688063 214.298094 
L 373.654598 214.326695 
L 373.915995 214.50827 
L 375.484374 214.50827 
L 375.745771 214.64859 
L 376.268564 214.64859 
L 376.52996 218.334107 
L 376.791357 218.334107 
L 377.052754 218.721441 
L 377.31415 218.721441 
L 378.09834 219.065487 
L 378.621133 219.065487 
L 378.88253 219.288637 
L 381.496495 219.291078 
L 381.757892 220.680578 
L 384.633254 220.780836 
L 384.894651 221.200339 
L 385.156047 224.013692 
L 385.417444 224.93204 
L 386.201634 224.93204 
L 386.46303 225.215849 
L 387.24722 225.215849 
L 387.508617 225.889178 
L 388.292806 225.889178 
L 388.554203 226.058948 
L 389.338393 226.118083 
L 389.599789 226.523321 
L 389.861186 226.69246 
L 390.122582 294.351532 
L 394.566324 294.451372 
L 395.089117 294.531098 
L 395.873307 294.531098 
L 396.134704 294.824849 
L 396.3961 294.824849 
L 396.657497 295.17567 
L 398.225876 295.210383 
L 398.487273 295.488 
L 398.487273 295.488 
" clip-path="url(#pc128d7a877)" style="fill: none; stroke: #0000ff; stroke-width: 1.5; stroke-linecap: square"/>
   </g>
   <g id="patch_3">
    <path d="M 57.6 307.584 
L 57.6 41.472 
" style="fill: none; stroke: #000000; stroke-width: 0.8; stroke-linejoin: miter; stroke-linecap: square"/>
   </g>
   <g id="patch_4">
    <path d="M 414.72 307.584 
L 414.72 41.472 
" style="fill: none; stroke: #000000; stroke-width: 0.8; stroke-linejoin: miter; stroke-linecap: square"/>
   </g>
   <g id="patch_5">
    <path d="M 57.6 307.584 
L 414.72 307.584 
" style="fill: none; stroke: #000000; stroke-width: 0.8; stroke-linejoin: miter; stroke-linecap: square"/>
   </g>
   <g id="patch_6">
    <path d="M 57.6 41.472 
L 414.72 41.472 
" style="fill: none; stroke: #000000; stroke-width: 0.8; stroke-linejoin: miter; stroke-linecap: square"/>
   </g>
  </g>
  <g id="axes_2">
   <g id="matplotlib.axis_3">
    <g id="ytick_9">
     <g id="line2d_17">
      <defs>
       <path id="m5e793f33bf" d="M 0 0 
L 3.5 0 
" style="stroke: #000000; stroke-width: 0.8"/>
      </defs>
      <g>
       <use xlink:href="#m5e793f33bf" x="414.72" y="207.043481" style="stroke: #000000; stroke-width: 0.8"/>
      </g>
     </g>
     <g id="text_18">
      <!-- $\mathdefault{10^{1}}$ -->
      <g style="fill: #ffa500" transform="translate(421.72 210.842699) scale(0.1 -0.1)">
       <use xlink:href="#DejaVuSans-31" transform="translate(0 0.684375)"/>
       <use xlink:href="#DejaVuSans-30" transform="translate(63.623047 0.684375)"/>
       <use xlink:href="#DejaVuSans-31" transform="translate(128.203125 38.965625) scale(0.7)"/>
      </g>
     </g>
    </g>
    <g id="ytick_10">
     <g id="line2d_18">
      <g>
       <use xlink:href="#m5e793f33bf" x="414.72" y="67.587778" style="stroke: #000000; stroke-width: 0.8"/>
      </g>
     </g>
     <g id="text_19">
      <!-- $\mathdefault{10^{2}}$ -->
      <g style="fill: #ffa500" transform="translate(421.72 71.386997) scale(0.1 -0.1)">
       <use xlink:href="#DejaVuSans-31" transform="translate(0 0.765625)"/>
       <use xlink:href="#DejaVuSans-30" transform="translate(63.623047 0.765625)"/>
       <use xlink:href="#DejaVuSans-32" transform="translate(128.203125 39.046875) scale(0.7)"/>
      </g>
     </g>
    </g>
    <g id="ytick_11">
     <g id="line2d_19">
      <defs>
       <path id="m84e9525630" d="M 0 0 
L 2 0 
" style="stroke: #000000; stroke-width: 0.6"/>
      </defs>
      <g>
       <use xlink:href="#m84e9525630" x="414.72" y="304.518834" style="stroke: #000000; stroke-width: 0.6"/>
      </g>
     </g>
    </g>
    <g id="ytick_12">
     <g id="line2d_20">
      <g>
       <use xlink:href="#m84e9525630" x="414.72" y="279.961903" style="stroke: #000000; stroke-width: 0.6"/>
      </g>
     </g>
    </g>
    <g id="ytick_13">
     <g id="line2d_21">
      <g>
       <use xlink:href="#m84e9525630" x="414.72" y="262.538484" style="stroke: #000000; stroke-width: 0.6"/>
      </g>
     </g>
    </g>
    <g id="ytick_14">
     <g id="line2d_22">
      <g>
       <use xlink:href="#m84e9525630" x="414.72" y="249.02383" style="stroke: #000000; stroke-width: 0.6"/>
      </g>
     </g>
    </g>
    <g id="ytick_15">
     <g id="line2d_23">
      <g>
       <use xlink:href="#m84e9525630" x="414.72" y="237.981554" style="stroke: #000000; stroke-width: 0.6"/>
      </g>
     </g>
    </g>
    <g id="ytick_16">
     <g id="line2d_24">
      <g>
       <use xlink:href="#m84e9525630" x="414.72" y="228.645442" style="stroke: #000000; stroke-width: 0.6"/>
      </g>
     </g>
    </g>
    <g id="ytick_17">
     <g id="line2d_25">
      <g>
       <use xlink:href="#m84e9525630" x="414.72" y="220.558135" style="stroke: #000000; stroke-width: 0.6"/>
      </g>
     </g>
    </g>
    <g id="ytick_18">
     <g id="line2d_26">
      <g>
       <use xlink:href="#m84e9525630" x="414.72" y="213.424624" style="stroke: #000000; stroke-width: 0.6"/>
      </g>
     </g>
    </g>
    <g id="ytick_19">
     <g id="line2d_27">
      <g>
       <use xlink:href="#m84e9525630" x="414.72" y="165.063131" style="stroke: #000000; stroke-width: 0.6"/>
      </g>
     </g>
    </g>
    <g id="ytick_20">
     <g id="line2d_28">
      <g>
       <use xlink:href="#m84e9525630" x="414.72" y="140.506201" style="stroke: #000000; stroke-width: 0.6"/>
      </g>
     </g>
    </g>
    <g id="ytick_21">
     <g id="line2d_29">
      <g>
       <use xlink:href="#m84e9525630" x="414.72" y="123.082782" style="stroke: #000000; stroke-width: 0.6"/>
      </g>
     </g>
    </g>
    <g id="ytick_22">
     <g id="line2d_30">
      <g>
       <use xlink:href="#m84e9525630" x="414.72" y="109.568128" style="stroke: #000000; stroke-width: 0.6"/>
      </g>
     </g>
    </g>
    <g id="ytick_23">
     <g id="line2d_31">
      <g>
       <use xlink:href="#m84e9525630" x="414.72" y="98.525851" style="stroke: #000000; stroke-width: 0.6"/>
      </g>
     </g>
    </g>
    <g id="ytick_24">
     <g id="line2d_32">
      <g>
       <use xlink:href="#m84e9525630" x="414.72" y="89.18974" style="stroke: #000000; stroke-width: 0.6"/>
      </g>
     </g>
    </g>
    <g id="ytick_25">
     <g id="line2d_33">
      <g>
       <use xlink:href="#m84e9525630" x="414.72" y="81.102432" style="stroke: #000000; stroke-width: 0.6"/>
      </g>
     </g>
    </g>
    <g id="ytick_26">
     <g id="line2d_34">
      <g>
       <use xlink:href="#m84e9525630" x="414.72" y="73.968921" style="stroke: #000000; stroke-width: 0.6"/>
      </g>
     </g>
    </g>
    <g id="text_20">
     <!-- Mode Gap -->
     <g style="fill: #ffa500" transform="translate(455.4775 215.04925) rotate(-90) scale(0.16 -0.16)">
      <defs>
       <path id="DejaVuSans-4d" d="M 628 4666 
L 1569 4666 
L 2759 1491 
L 3956 4666 
L 4897 4666 
L 4897 0 
L 4281 0 
L 4281 4097 
L 3078 897 
L 2444 897 
L 1241 4097 
L 1241 0 
L 628 0 
L 628 4666 
z
" transform="scale(0.015625)"/>
       <path id="DejaVuSans-47" d="M 3809 666 
L 3809 1919 
L 2778 1919 
L 2778 2438 
L 4434 2438 
L 4434 434 
Q 4069 175 3628 42 
Q 3188 -91 2688 -91 
Q 1594 -91 976 548 
Q 359 1188 359 2328 
Q 359 3472 976 4111 
Q 1594 4750 2688 4750 
Q 3144 4750 3555 4637 
Q 3966 4525 4313 4306 
L 4313 3634 
Q 3963 3931 3569 4081 
Q 3175 4231 2741 4231 
Q 1884 4231 1454 3753 
Q 1025 3275 1025 2328 
Q 1025 1384 1454 906 
Q 1884 428 2741 428 
Q 3075 428 3337 486 
Q 3600 544 3809 666 
z
" transform="scale(0.015625)"/>
      </defs>
      <use xlink:href="#DejaVuSans-4d"/>
      <use xlink:href="#DejaVuSans-6f" x="86.279297"/>
      <use xlink:href="#DejaVuSans-64" x="147.460938"/>
      <use xlink:href="#DejaVuSans-65" x="210.9375"/>
      <use xlink:href="#DejaVuSans-20" x="272.460938"/>
      <use xlink:href="#DejaVuSans-47" x="304.248047"/>
      <use xlink:href="#DejaVuSans-61" x="381.738281"/>
      <use xlink:href="#DejaVuSans-70" x="443.017578"/>
     </g>
    </g>
   </g>
   <g id="line2d_35">
    <path d="M 73.832727 295.488 
L 74.094124 294.991278 
L 74.616917 294.918641 
L 74.878314 293.931834 
L 75.13971 293.756187 
L 75.401107 293.294817 
L 75.9239 293.338124 
L 76.446693 293.687428 
L 77.492279 293.563139 
L 79.322055 293.597169 
L 79.583452 294.035132 
L 81.413228 294.035132 
L 81.674625 293.620096 
L 81.936021 293.805154 
L 83.243004 293.774741 
L 84.027194 293.841434 
L 84.28859 293.659077 
L 85.334177 293.655669 
L 85.595573 293.456595 
L 86.118366 293.504576 
L 86.379763 291.796282 
L 87.425349 291.864279 
L 87.686746 291.531589 
L 88.209539 291.531589 
L 88.470935 291.24927 
L 89.255125 291.257846 
L 90.039315 290.89831 
L 90.300711 289.983444 
L 93.43747 289.957758 
L 93.698867 289.820489 
L 94.744453 289.828139 
L 95.00585 289.591041 
L 97.097022 289.541967 
L 97.358419 288.998496 
L 98.142609 288.998496 
L 98.404005 288.410089 
L 104.15473 288.318625 
L 104.416126 288.019275 
L 104.677523 288.019275 
L 105.200316 287.900643 
L 106.768696 288.012294 
L 108.075679 288.013555 
L 108.337075 289.210597 
L 108.598472 288.847309 
L 110.428248 288.747445 
L 110.951041 288.72586 
L 112.258024 288.652825 
L 112.780817 288.346389 
L 114.871989 288.304676 
L 115.133386 288.187404 
L 117.224559 288.178931 
L 117.485955 287.866917 
L 117.747352 288.063714 
L 119.315731 287.973548 
L 120.099921 287.998916 
L 120.361318 287.55604 
L 120.622714 287.595398 
L 121.145507 287.477482 
L 121.6683 287.477482 
L 121.929697 286.90589 
L 122.191094 286.705944 
L 122.45249 286.705944 
L 122.713887 286.471906 
L 122.975283 286.471906 
L 123.23668 285.969417 
L 124.282266 286.061545 
L 124.543663 285.226187 
L 125.327852 285.275191 
L 125.850646 285.201593 
L 127.157628 285.214285 
L 127.419025 284.714129 
L 128.726008 284.807829 
L 128.987404 285.202065 
L 130.032991 285.204693 
L 130.294387 285.335995 
L 130.555784 285.335995 
L 130.817181 285.140495 
L 131.862767 285.075747 
L 132.124163 284.847179 
L 132.646957 284.932934 
L 135.522319 284.883436 
L 135.783715 285.218496 
L 139.443267 285.204023 
L 139.704664 284.790266 
L 141.795837 284.678171 
L 142.057233 284.266285 
L 143.102819 284.313628 
L 143.364216 284.469404 
L 144.409802 284.469404 
L 144.671199 284.118827 
L 145.193992 284.203421 
L 145.455389 283.377692 
L 145.716785 283.005978 
L 148.853544 282.930685 
L 149.376337 283.012332 
L 150.160527 283.012332 
L 150.421924 282.852402 
L 150.944717 282.757622 
L 151.206113 282.171055 
L 155.388458 282.208315 
L 155.911252 282.29887 
L 162.968959 282.19768 
L 163.230356 282.051458 
L 164.275942 282.051458 
L 164.537339 281.706213 
L 166.889908 281.692627 
L 167.151304 281.156704 
L 168.458287 281.019264 
L 169.503874 281.019264 
L 169.76527 280.546625 
L 172.117839 280.533801 
L 172.379236 280.382229 
L 174.470408 280.382229 
L 174.731805 280.156063 
L 177.607167 280.150103 
L 177.868564 279.843959 
L 178.652754 279.510279 
L 181.528116 279.497291 
L 181.789513 279.341702 
L 182.050909 279.341702 
L 182.312306 278.486625 
L 183.357892 278.437354 
L 184.142082 278.284061 
L 184.664875 278.219236 
L 185.187668 278.097779 
L 186.494651 278.033134 
L 188.06303 278.04544 
L 188.324427 277.913797 
L 192.245375 277.830756 
L 192.768169 277.748756 
L 193.290962 277.748756 
L 193.552358 277.409855 
L 194.336548 277.409855 
L 194.597945 277.080838 
L 196.950514 277.001424 
L 197.21191 276.135667 
L 198.518893 276.201731 
L 199.56448 276.386419 
L 200.087273 276.321979 
L 201.394256 276.313298 
L 201.655652 276.091725 
L 204.008221 275.995703 
L 204.531014 275.900829 
L 206.099394 275.90251 
L 206.360791 275.731528 
L 206.622187 275.731528 
L 206.883584 272.948489 
L 207.92917 272.913793 
L 209.236153 272.913793 
L 209.497549 272.571462 
L 212.895705 272.576285 
L 213.157101 272.087576 
L 218.64643 272.001868 
L 218.907826 271.753352 
L 219.430619 271.695554 
L 222.305982 271.685361 
L 222.567378 270.98563 
L 223.612964 270.98563 
L 223.874361 270.073232 
L 227.01112 270.041835 
L 228.056706 269.687447 
L 228.579499 269.776276 
L 229.625086 269.746917 
L 229.886482 269.619568 
L 233.284638 269.653417 
L 234.591621 269.618842 
L 234.853017 269.202123 
L 235.637207 269.159409 
L 237.466983 269.159409 
L 237.728379 269.022266 
L 237.989776 269.022266 
L 238.251173 268.772885 
L 238.512569 268.772885 
L 238.773966 268.584506 
L 241.649328 268.533484 
L 242.172121 268.463776 
L 246.354466 268.421355 
L 246.87726 268.041287 
L 247.661449 267.993658 
L 249.491225 267.996765 
L 249.752622 270.69025 
L 250.275415 270.69025 
L 250.536812 271.113245 
L 252.105191 271.002659 
L 252.366588 270.721223 
L 253.934967 270.677809 
L 254.196364 269.610825 
L 255.24195 269.554271 
L 256.02614 269.458822 
L 257.071726 269.445868 
L 257.333123 267.370315 
L 257.594519 267.370315 
L 258.640105 267.02609 
L 259.685692 267.002689 
L 259.947088 265.351013 
L 261.515468 265.351013 
L 261.776864 265.184421 
L 262.038261 265.154002 
L 262.299657 265.973377 
L 263.083847 265.932567 
L 265.959209 265.853716 
L 266.482003 265.745772 
L 269.357365 265.738276 
L 269.880158 265.619217 
L 271.187141 265.619217 
L 271.709934 265.501808 
L 275.369486 265.579342 
L 275.630883 266.093991 
L 276.676469 266.129894 
L 277.199262 266.032832 
L 281.120211 265.833721 
L 281.381607 266.049067 
L 281.904401 266.049067 
L 282.165797 265.870331 
L 287.916522 265.868894 
L 288.177918 265.145248 
L 288.962108 265.166648 
L 289.223505 264.596326 
L 289.746298 264.507075 
L 292.098867 264.507075 
L 292.360264 264.797464 
L 293.40585 264.834167 
L 293.928643 264.956208 
L 294.451436 265.047126 
L 297.588195 265.02484 
L 297.849592 264.852184 
L 300.202161 264.852184 
L 300.463557 265.114489 
L 300.98635 265.00652 
L 303.861713 264.983573 
L 304.123109 264.62423 
L 304.645903 264.629063 
L 304.907299 263.787101 
L 306.998472 263.730696 
L 307.259868 264.229144 
L 307.521265 264.229144 
L 307.782661 264.595691 
L 308.566851 264.567476 
L 309.089644 264.339316 
L 310.396627 264.337459 
L 310.658024 264.492414 
L 310.91942 264.492414 
L 311.180817 264.04421 
L 311.70361 264.04421 
L 311.965007 263.883989 
L 312.226403 263.883989 
L 312.749196 263.997968 
L 316.147352 263.994748 
L 316.408748 264.657058 
L 317.454335 264.657058 
L 317.715731 264.443801 
L 321.898076 264.358708 
L 322.159473 255.645808 
L 322.943663 255.556269 
L 323.466456 255.501163 
L 323.727852 255.153246 
L 325.819025 255.20537 
L 326.080422 254.943853 
L 328.432991 255.013866 
L 328.955784 255.099482 
L 329.217181 254.686211 
L 329.478577 254.761816 
L 329.739974 254.634235 
L 333.399526 254.631022 
L 333.660922 253.748369 
L 334.183715 253.748369 
L 334.445112 253.460942 
L 335.229302 253.460942 
L 335.490698 253.839035 
L 338.104664 253.751614 
L 338.366061 253.676883 
L 338.627457 253.291452 
L 339.673043 253.175874 
L 340.195837 253.248577 
L 342.809802 253.198559 
L 343.071199 252.941569 
L 345.685165 253.051418 
L 345.946561 252.799441 
L 346.469354 252.799441 
L 346.730751 252.493476 
L 349.344717 252.505933 
L 349.606113 252.610852 
L 349.86751 252.165457 
L 350.6517 252.165457 
L 350.913096 252.007094 
L 351.174493 252.007094 
L 351.435889 251.821459 
L 351.958682 251.811613 
L 352.220079 251.629548 
L 354.834045 251.615529 
L 355.356838 251.490787 
L 356.663821 251.490787 
L 356.925217 251.330791 
L 358.754993 251.287283 
L 359.01639 251.287283 
L 359.277787 250.86412 
L 361.891752 250.830376 
L 362.414545 250.721638 
L 362.937339 250.721638 
L 363.198735 250.594791 
L 365.289908 250.621403 
L 365.551304 250.338387 
L 367.642477 250.33396 
L 367.903874 250.204568 
L 373.654598 250.101078 
L 374.177391 250.004691 
L 376.268564 249.976306 
L 376.52996 248.09959 
L 376.791357 248.09959 
L 377.052754 247.781506 
L 377.31415 247.781506 
L 377.836943 247.561878 
L 378.621133 247.561878 
L 378.88253 247.357805 
L 381.496495 247.381821 
L 381.757892 246.358077 
L 384.633254 246.263893 
L 384.894651 245.928478 
L 385.156047 243.942551 
L 385.417444 243.214088 
L 386.201634 243.214088 
L 386.46303 242.976607 
L 387.24722 242.976607 
L 387.508617 242.507275 
L 388.292806 242.507275 
L 388.554203 242.360369 
L 389.338393 242.301414 
L 389.861186 241.862676 
L 390.122582 107.002583 
L 392.213755 107.002583 
L 392.475152 104.959834 
L 394.566324 104.959834 
L 394.827721 103.219799 
L 395.873307 103.219799 
L 396.134704 95.276905 
L 396.3961 95.276905 
L 396.657497 81.166201 
L 397.18029 81.166201 
L 397.441686 78.959862 
L 398.225876 78.959862 
L 398.487273 53.568 
L 398.487273 53.568 
" clip-path="url(#pc128d7a877)" style="fill: none; stroke: #ffa500; stroke-width: 1.5; stroke-linecap: square"/>
   </g>
   <g id="patch_7">
    <path d="M 57.6 307.584 
L 57.6 41.472 
" style="fill: none; stroke: #000000; stroke-width: 0.8; stroke-linejoin: miter; stroke-linecap: square"/>
   </g>
   <g id="patch_8">
    <path d="M 414.72 307.584 
L 414.72 41.472 
" style="fill: none; stroke: #000000; stroke-width: 0.8; stroke-linejoin: miter; stroke-linecap: square"/>
   </g>
   <g id="patch_9">
    <path d="M 57.6 307.584 
L 414.72 307.584 
" style="fill: none; stroke: #000000; stroke-width: 0.8; stroke-linejoin: miter; stroke-linecap: square"/>
   </g>
   <g id="patch_10">
    <path d="M 57.6 41.472 
L 414.72 41.472 
" style="fill: none; stroke: #000000; stroke-width: 0.8; stroke-linejoin: miter; stroke-linecap: square"/>
   </g>
   <g id="text_21">
    <!-- Evolution of Slow Mode -->
    <g transform="translate(142.9825 35.472) scale(0.16 -0.16)">
     <defs>
      <path id="DejaVuSans-45" d="M 628 4666 
L 3578 4666 
L 3578 4134 
L 1259 4134 
L 1259 2753 
L 3481 2753 
L 3481 2222 
L 1259 2222 
L 1259 531 
L 3634 531 
L 3634 0 
L 628 0 
L 628 4666 
z
" transform="scale(0.015625)"/>
      <path id="DejaVuSans-76" d="M 191 3500 
L 800 3500 
L 1894 563 
L 2988 3500 
L 3597 3500 
L 2284 0 
L 1503 0 
L 191 3500 
z
" transform="scale(0.015625)"/>
      <path id="DejaVuSans-53" d="M 3425 4513 
L 3425 3897 
Q 3066 4069 2747 4153 
Q 2428 4238 2131 4238 
Q 1616 4238 1336 4038 
Q 1056 3838 1056 3469 
Q 1056 3159 1242 3001 
Q 1428 2844 1947 2747 
L 2328 2669 
Q 3034 2534 3370 2195 
Q 3706 1856 3706 1288 
Q 3706 609 3251 259 
Q 2797 -91 1919 -91 
Q 1588 -91 1214 -16 
Q 841 59 441 206 
L 441 856 
Q 825 641 1194 531 
Q 1563 422 1919 422 
Q 2459 422 2753 634 
Q 3047 847 3047 1241 
Q 3047 1584 2836 1778 
Q 2625 1972 2144 2069 
L 1759 2144 
Q 1053 2284 737 2584 
Q 422 2884 422 3419 
Q 422 4038 858 4394 
Q 1294 4750 2059 4750 
Q 2388 4750 2728 4690 
Q 3069 4631 3425 4513 
z
" transform="scale(0.015625)"/>
      <path id="DejaVuSans-77" d="M 269 3500 
L 844 3500 
L 1563 769 
L 2278 3500 
L 2956 3500 
L 3675 769 
L 4391 3500 
L 4966 3500 
L 4050 0 
L 3372 0 
L 2619 2869 
L 1863 0 
L 1184 0 
L 269 3500 
z
" transform="scale(0.015625)"/>
     </defs>
     <use xlink:href="#DejaVuSans-45"/>
     <use xlink:href="#DejaVuSans-76" x="63.183594"/>
     <use xlink:href="#DejaVuSans-6f" x="122.363281"/>
     <use xlink:href="#DejaVuSans-6c" x="183.544922"/>
     <use xlink:href="#DejaVuSans-75" x="211.328125"/>
     <use xlink:href="#DejaVuSans-74" x="274.707031"/>
     <use xlink:href="#DejaVuSans-69" x="313.916016"/>
     <use xlink:href="#DejaVuSans-6f" x="341.699219"/>
     <use xlink:href="#DejaVuSans-6e" x="402.880859"/>
     <use xlink:href="#DejaVuSans-20" x="466.259766"/>
     <use xlink:href="#DejaVuSans-6f" x="498.046875"/>
     <use xlink:href="#DejaVuSans-66" x="559.228516"/>
     <use xlink:href="#DejaVuSans-20" x="594.433594"/>
     <use xlink:href="#DejaVuSans-53" x="626.220703"/>
     <use xlink:href="#DejaVuSans-6c" x="689.697266"/>
     <use xlink:href="#DejaVuSans-6f" x="717.480469"/>
     <use xlink:href="#DejaVuSans-77" x="778.662109"/>
     <use xlink:href="#DejaVuSans-20" x="860.449219"/>
     <use xlink:href="#DejaVuSans-4d" x="892.236328"/>
     <use xlink:href="#DejaVuSans-6f" x="978.515625"/>
     <use xlink:href="#DejaVuSans-64" x="1039.697266"/>
     <use xlink:href="#DejaVuSans-65" x="1103.173828"/>
    </g>
   </g>
  </g>
 </g>
 <defs>
  <clipPath id="pc128d7a877">
   <rect x="57.6" y="41.472" width="357.12" height="266.112"/>
  </clipPath>
 </defs>
</svg>
