<?xml version="1.0" encoding="utf-8" standalone="no"?>
<!DOCTYPE svg PUBLIC "-//W3C//DTD SVG 1.1//EN"
  "http://www.w3.org/Graphics/SVG/1.1/DTD/svg11.dtd">
<svg xmlns:xlink="http://www.w3.org/1999/xlink" width="460.8pt" height="345.6pt" viewBox="0 0 460.8 345.6" xmlns="http://www.w3.org/2000/svg" version="1.1">
 <metadata>
  <rdf:RDF xmlns:dc="http://purl.org/dc/elements/1.1/" xmlns:cc="http://creativecommons.org/ns#" xmlns:rdf="http://www.w3.org/1999/02/22-rdf-syntax-ns#">
   <cc:Work>
    <dc:type rdf:resource="http://purl.org/dc/dcmitype/StillImage"/>
    <dc:date>2023-08-03T21:07:31.615986</dc:date>
    <dc:format>image/svg+xml</dc:format>
    <dc:creator>
     <cc:Agent>
      <dc:title>Matplotlib v3.7.2, https://matplotlib.org/</dc:title>
     </cc:Agent>
    </dc:creator>
   </cc:Work>
  </rdf:RDF>
 </metadata>
 <defs>
  <style type="text/css">*{stroke-linejoin: round; stroke-linecap: butt}</style>
 </defs>
 <g id="figure_1">
  <g id="patch_1">
   <path d="M 0 345.6 
L 460.8 345.6 
L 460.8 0 
L 0 0 
z
" style="fill: #ffffff"/>
  </g>
  <g id="axes_1">
   <g id="patch_2">
    <path d="M 57.6 307.584 
L 414.72 307.584 
L 414.72 41.472 
L 57.6 41.472 
z
" style="fill: #ffffff"/>
   </g>
   <g id="matplotlib.axis_1">
    <g id="xtick_1">
     <g id="line2d_1">
      <defs>
       <path id="ma83af403aa" d="M 0 0 
L 0 3.5 
" style="stroke: #000000; stroke-width: 0.8"/>
      </defs>
      <g>
       <use xlink:href="#ma83af403aa" x="73.832727" y="307.584" style="stroke: #000000; stroke-width: 0.8"/>
      </g>
     </g>
     <g id="text_1">
      <!-- $\mathdefault{10^{-2}}$ -->
      <g transform="translate(50.332727 329.780875) scale(0.2 -0.2)">
       <defs>
        <path id="DejaVuSans-31" d="M 794 531 
L 1825 531 
L 1825 4091 
L 703 3866 
L 703 4441 
L 1819 4666 
L 2450 4666 
L 2450 531 
L 3481 531 
L 3481 0 
L 794 0 
L 794 531 
z
" transform="scale(0.015625)"/>
        <path id="DejaVuSans-30" d="M 2034 4250 
Q 1547 4250 1301 3770 
Q 1056 3291 1056 2328 
Q 1056 1369 1301 889 
Q 1547 409 2034 409 
Q 2525 409 2770 889 
Q 3016 1369 3016 2328 
Q 3016 3291 2770 3770 
Q 2525 4250 2034 4250 
z
M 2034 4750 
Q 2819 4750 3233 4129 
Q 3647 3509 3647 2328 
Q 3647 1150 3233 529 
Q 2819 -91 2034 -91 
Q 1250 -91 836 529 
Q 422 1150 422 2328 
Q 422 3509 836 4129 
Q 1250 4750 2034 4750 
z
" transform="scale(0.015625)"/>
        <path id="DejaVuSans-2212" d="M 678 2272 
L 4684 2272 
L 4684 1741 
L 678 1741 
L 678 2272 
z
" transform="scale(0.015625)"/>
        <path id="DejaVuSans-32" d="M 1228 531 
L 3431 531 
L 3431 0 
L 469 0 
L 469 531 
Q 828 903 1448 1529 
Q 2069 2156 2228 2338 
Q 2531 2678 2651 2914 
Q 2772 3150 2772 3378 
Q 2772 3750 2511 3984 
Q 2250 4219 1831 4219 
Q 1534 4219 1204 4116 
Q 875 4013 500 3803 
L 500 4441 
Q 881 4594 1212 4672 
Q 1544 4750 1819 4750 
Q 2544 4750 2975 4387 
Q 3406 4025 3406 3419 
Q 3406 3131 3298 2873 
Q 3191 2616 2906 2266 
Q 2828 2175 2409 1742 
Q 1991 1309 1228 531 
z
" transform="scale(0.015625)"/>
       </defs>
       <use xlink:href="#DejaVuSans-31" transform="translate(0 0.765625)"/>
       <use xlink:href="#DejaVuSans-30" transform="translate(63.623047 0.765625)"/>
       <use xlink:href="#DejaVuSans-2212" transform="translate(128.203125 39.046875) scale(0.7)"/>
       <use xlink:href="#DejaVuSans-32" transform="translate(186.855469 39.046875) scale(0.7)"/>
      </g>
     </g>
    </g>
    <g id="xtick_2">
     <g id="line2d_2">
      <g>
       <use xlink:href="#ma83af403aa" x="154.996364" y="307.584" style="stroke: #000000; stroke-width: 0.8"/>
      </g>
     </g>
     <g id="text_2">
      <!-- $\mathdefault{10^{-1}}$ -->
      <g transform="translate(131.496364 329.780875) scale(0.2 -0.2)">
       <use xlink:href="#DejaVuSans-31" transform="translate(0 0.684375)"/>
       <use xlink:href="#DejaVuSans-30" transform="translate(63.623047 0.684375)"/>
       <use xlink:href="#DejaVuSans-2212" transform="translate(128.203125 38.965625) scale(0.7)"/>
       <use xlink:href="#DejaVuSans-31" transform="translate(186.855469 38.965625) scale(0.7)"/>
      </g>
     </g>
    </g>
    <g id="xtick_3">
     <g id="line2d_3">
      <g>
       <use xlink:href="#ma83af403aa" x="236.16" y="307.584" style="stroke: #000000; stroke-width: 0.8"/>
      </g>
     </g>
     <g id="text_3">
      <!-- $\mathdefault{10^{0}}$ -->
      <g transform="translate(218.56 329.780875) scale(0.2 -0.2)">
       <use xlink:href="#DejaVuSans-31" transform="translate(0 0.765625)"/>
       <use xlink:href="#DejaVuSans-30" transform="translate(63.623047 0.765625)"/>
       <use xlink:href="#DejaVuSans-30" transform="translate(128.203125 39.046875) scale(0.7)"/>
      </g>
     </g>
    </g>
    <g id="xtick_4">
     <g id="line2d_4">
      <g>
       <use xlink:href="#ma83af403aa" x="317.323636" y="307.584" style="stroke: #000000; stroke-width: 0.8"/>
      </g>
     </g>
     <g id="text_4">
      <!-- $\mathdefault{10^{1}}$ -->
      <g transform="translate(299.723636 329.780875) scale(0.2 -0.2)">
       <use xlink:href="#DejaVuSans-31" transform="translate(0 0.684375)"/>
       <use xlink:href="#DejaVuSans-30" transform="translate(63.623047 0.684375)"/>
       <use xlink:href="#DejaVuSans-31" transform="translate(128.203125 38.965625) scale(0.7)"/>
      </g>
     </g>
    </g>
    <g id="xtick_5">
     <g id="line2d_5">
      <g>
       <use xlink:href="#ma83af403aa" x="398.487273" y="307.584" style="stroke: #000000; stroke-width: 0.8"/>
      </g>
     </g>
     <g id="text_5">
      <!-- $\mathdefault{10^{2}}$ -->
      <g transform="translate(380.887273 329.780875) scale(0.2 -0.2)">
       <use xlink:href="#DejaVuSans-31" transform="translate(0 0.765625)"/>
       <use xlink:href="#DejaVuSans-30" transform="translate(63.623047 0.765625)"/>
       <use xlink:href="#DejaVuSans-32" transform="translate(128.203125 39.046875) scale(0.7)"/>
      </g>
     </g>
    </g>
    <g id="xtick_6">
     <g id="line2d_6">
      <defs>
       <path id="m1c582491a5" d="M 0 0 
L 0 2 
" style="stroke: #000000; stroke-width: 0.6"/>
      </defs>
      <g>
       <use xlink:href="#m1c582491a5" x="61.260321" y="307.584" style="stroke: #000000; stroke-width: 0.6"/>
      </g>
     </g>
    </g>
    <g id="xtick_7">
     <g id="line2d_7">
      <g>
       <use xlink:href="#m1c582491a5" x="65.967158" y="307.584" style="stroke: #000000; stroke-width: 0.6"/>
      </g>
     </g>
    </g>
    <g id="xtick_8">
     <g id="line2d_8">
      <g>
       <use xlink:href="#m1c582491a5" x="70.118883" y="307.584" style="stroke: #000000; stroke-width: 0.6"/>
      </g>
     </g>
    </g>
    <g id="xtick_9">
     <g id="line2d_9">
      <g>
       <use xlink:href="#m1c582491a5" x="98.265416" y="307.584" style="stroke: #000000; stroke-width: 0.6"/>
      </g>
     </g>
    </g>
    <g id="xtick_10">
     <g id="line2d_10">
      <g>
       <use xlink:href="#m1c582491a5" x="112.557623" y="307.584" style="stroke: #000000; stroke-width: 0.6"/>
      </g>
     </g>
    </g>
    <g id="xtick_11">
     <g id="line2d_11">
      <g>
       <use xlink:href="#m1c582491a5" x="122.698105" y="307.584" style="stroke: #000000; stroke-width: 0.6"/>
      </g>
     </g>
    </g>
    <g id="xtick_12">
     <g id="line2d_12">
      <g>
       <use xlink:href="#m1c582491a5" x="130.563675" y="307.584" style="stroke: #000000; stroke-width: 0.6"/>
      </g>
     </g>
    </g>
    <g id="xtick_13">
     <g id="line2d_13">
      <g>
       <use xlink:href="#m1c582491a5" x="136.990312" y="307.584" style="stroke: #000000; stroke-width: 0.6"/>
      </g>
     </g>
    </g>
    <g id="xtick_14">
     <g id="line2d_14">
      <g>
       <use xlink:href="#m1c582491a5" x="142.423957" y="307.584" style="stroke: #000000; stroke-width: 0.6"/>
      </g>
     </g>
    </g>
    <g id="xtick_15">
     <g id="line2d_15">
      <g>
       <use xlink:href="#m1c582491a5" x="147.130795" y="307.584" style="stroke: #000000; stroke-width: 0.6"/>
      </g>
     </g>
    </g>
    <g id="xtick_16">
     <g id="line2d_16">
      <g>
       <use xlink:href="#m1c582491a5" x="151.282519" y="307.584" style="stroke: #000000; stroke-width: 0.6"/>
      </g>
     </g>
    </g>
    <g id="xtick_17">
     <g id="line2d_17">
      <g>
       <use xlink:href="#m1c582491a5" x="179.429053" y="307.584" style="stroke: #000000; stroke-width: 0.6"/>
      </g>
     </g>
    </g>
    <g id="xtick_18">
     <g id="line2d_18">
      <g>
       <use xlink:href="#m1c582491a5" x="193.72126" y="307.584" style="stroke: #000000; stroke-width: 0.6"/>
      </g>
     </g>
    </g>
    <g id="xtick_19">
     <g id="line2d_19">
      <g>
       <use xlink:href="#m1c582491a5" x="203.861742" y="307.584" style="stroke: #000000; stroke-width: 0.6"/>
      </g>
     </g>
    </g>
    <g id="xtick_20">
     <g id="line2d_20">
      <g>
       <use xlink:href="#m1c582491a5" x="211.727311" y="307.584" style="stroke: #000000; stroke-width: 0.6"/>
      </g>
     </g>
    </g>
    <g id="xtick_21">
     <g id="line2d_21">
      <g>
       <use xlink:href="#m1c582491a5" x="218.153949" y="307.584" style="stroke: #000000; stroke-width: 0.6"/>
      </g>
     </g>
    </g>
    <g id="xtick_22">
     <g id="line2d_22">
      <g>
       <use xlink:href="#m1c582491a5" x="223.587594" y="307.584" style="stroke: #000000; stroke-width: 0.6"/>
      </g>
     </g>
    </g>
    <g id="xtick_23">
     <g id="line2d_23">
      <g>
       <use xlink:href="#m1c582491a5" x="228.294431" y="307.584" style="stroke: #000000; stroke-width: 0.6"/>
      </g>
     </g>
    </g>
    <g id="xtick_24">
     <g id="line2d_24">
      <g>
       <use xlink:href="#m1c582491a5" x="232.446156" y="307.584" style="stroke: #000000; stroke-width: 0.6"/>
      </g>
     </g>
    </g>
    <g id="xtick_25">
     <g id="line2d_25">
      <g>
       <use xlink:href="#m1c582491a5" x="260.592689" y="307.584" style="stroke: #000000; stroke-width: 0.6"/>
      </g>
     </g>
    </g>
    <g id="xtick_26">
     <g id="line2d_26">
      <g>
       <use xlink:href="#m1c582491a5" x="274.884896" y="307.584" style="stroke: #000000; stroke-width: 0.6"/>
      </g>
     </g>
    </g>
    <g id="xtick_27">
     <g id="line2d_27">
      <g>
       <use xlink:href="#m1c582491a5" x="285.025378" y="307.584" style="stroke: #000000; stroke-width: 0.6"/>
      </g>
     </g>
    </g>
    <g id="xtick_28">
     <g id="line2d_28">
      <g>
       <use xlink:href="#m1c582491a5" x="292.890947" y="307.584" style="stroke: #000000; stroke-width: 0.6"/>
      </g>
     </g>
    </g>
    <g id="xtick_29">
     <g id="line2d_29">
      <g>
       <use xlink:href="#m1c582491a5" x="299.317585" y="307.584" style="stroke: #000000; stroke-width: 0.6"/>
      </g>
     </g>
    </g>
    <g id="xtick_30">
     <g id="line2d_30">
      <g>
       <use xlink:href="#m1c582491a5" x="304.75123" y="307.584" style="stroke: #000000; stroke-width: 0.6"/>
      </g>
     </g>
    </g>
    <g id="xtick_31">
     <g id="line2d_31">
      <g>
       <use xlink:href="#m1c582491a5" x="309.458067" y="307.584" style="stroke: #000000; stroke-width: 0.6"/>
      </g>
     </g>
    </g>
    <g id="xtick_32">
     <g id="line2d_32">
      <g>
       <use xlink:href="#m1c582491a5" x="313.609792" y="307.584" style="stroke: #000000; stroke-width: 0.6"/>
      </g>
     </g>
    </g>
    <g id="xtick_33">
     <g id="line2d_33">
      <g>
       <use xlink:href="#m1c582491a5" x="341.756325" y="307.584" style="stroke: #000000; stroke-width: 0.6"/>
      </g>
     </g>
    </g>
    <g id="xtick_34">
     <g id="line2d_34">
      <g>
       <use xlink:href="#m1c582491a5" x="356.048532" y="307.584" style="stroke: #000000; stroke-width: 0.6"/>
      </g>
     </g>
    </g>
    <g id="xtick_35">
     <g id="line2d_35">
      <g>
       <use xlink:href="#m1c582491a5" x="366.189015" y="307.584" style="stroke: #000000; stroke-width: 0.6"/>
      </g>
     </g>
    </g>
    <g id="xtick_36">
     <g id="line2d_36">
      <g>
       <use xlink:href="#m1c582491a5" x="374.054584" y="307.584" style="stroke: #000000; stroke-width: 0.6"/>
      </g>
     </g>
    </g>
    <g id="xtick_37">
     <g id="line2d_37">
      <g>
       <use xlink:href="#m1c582491a5" x="380.481221" y="307.584" style="stroke: #000000; stroke-width: 0.6"/>
      </g>
     </g>
    </g>
    <g id="xtick_38">
     <g id="line2d_38">
      <g>
       <use xlink:href="#m1c582491a5" x="385.914866" y="307.584" style="stroke: #000000; stroke-width: 0.6"/>
      </g>
     </g>
    </g>
    <g id="xtick_39">
     <g id="line2d_39">
      <g>
       <use xlink:href="#m1c582491a5" x="390.621704" y="307.584" style="stroke: #000000; stroke-width: 0.6"/>
      </g>
     </g>
    </g>
    <g id="xtick_40">
     <g id="line2d_40">
      <g>
       <use xlink:href="#m1c582491a5" x="394.773428" y="307.584" style="stroke: #000000; stroke-width: 0.6"/>
      </g>
     </g>
    </g>
    <g id="text_6">
     <!-- Mode Gap -->
     <g transform="translate(160.182656 360.735562) scale(0.3 -0.3)">
      <defs>
       <path id="DejaVuSans-4d" d="M 628 4666 
L 1569 4666 
L 2759 1491 
L 3956 4666 
L 4897 4666 
L 4897 0 
L 4281 0 
L 4281 4097 
L 3078 897 
L 2444 897 
L 1241 4097 
L 1241 0 
L 628 0 
L 628 4666 
z
" transform="scale(0.015625)"/>
       <path id="DejaVuSans-6f" d="M 1959 3097 
Q 1497 3097 1228 2736 
Q 959 2375 959 1747 
Q 959 1119 1226 758 
Q 1494 397 1959 397 
Q 2419 397 2687 759 
Q 2956 1122 2956 1747 
Q 2956 2369 2687 2733 
Q 2419 3097 1959 3097 
z
M 1959 3584 
Q 2709 3584 3137 3096 
Q 3566 2609 3566 1747 
Q 3566 888 3137 398 
Q 2709 -91 1959 -91 
Q 1206 -91 779 398 
Q 353 888 353 1747 
Q 353 2609 779 3096 
Q 1206 3584 1959 3584 
z
" transform="scale(0.015625)"/>
       <path id="DejaVuSans-64" d="M 2906 2969 
L 2906 4863 
L 3481 4863 
L 3481 0 
L 2906 0 
L 2906 525 
Q 2725 213 2448 61 
Q 2172 -91 1784 -91 
Q 1150 -91 751 415 
Q 353 922 353 1747 
Q 353 2572 751 3078 
Q 1150 3584 1784 3584 
Q 2172 3584 2448 3432 
Q 2725 3281 2906 2969 
z
M 947 1747 
Q 947 1113 1208 752 
Q 1469 391 1925 391 
Q 2381 391 2643 752 
Q 2906 1113 2906 1747 
Q 2906 2381 2643 2742 
Q 2381 3103 1925 3103 
Q 1469 3103 1208 2742 
Q 947 2381 947 1747 
z
" transform="scale(0.015625)"/>
       <path id="DejaVuSans-65" d="M 3597 1894 
L 3597 1613 
L 953 1613 
Q 991 1019 1311 708 
Q 1631 397 2203 397 
Q 2534 397 2845 478 
Q 3156 559 3463 722 
L 3463 178 
Q 3153 47 2828 -22 
Q 2503 -91 2169 -91 
Q 1331 -91 842 396 
Q 353 884 353 1716 
Q 353 2575 817 3079 
Q 1281 3584 2069 3584 
Q 2775 3584 3186 3129 
Q 3597 2675 3597 1894 
z
M 3022 2063 
Q 3016 2534 2758 2815 
Q 2500 3097 2075 3097 
Q 1594 3097 1305 2825 
Q 1016 2553 972 2059 
L 3022 2063 
z
" transform="scale(0.015625)"/>
       <path id="DejaVuSans-20" transform="scale(0.015625)"/>
       <path id="DejaVuSans-47" d="M 3809 666 
L 3809 1919 
L 2778 1919 
L 2778 2438 
L 4434 2438 
L 4434 434 
Q 4069 175 3628 42 
Q 3188 -91 2688 -91 
Q 1594 -91 976 548 
Q 359 1188 359 2328 
Q 359 3472 976 4111 
Q 1594 4750 2688 4750 
Q 3144 4750 3555 4637 
Q 3966 4525 4313 4306 
L 4313 3634 
Q 3963 3931 3569 4081 
Q 3175 4231 2741 4231 
Q 1884 4231 1454 3753 
Q 1025 3275 1025 2328 
Q 1025 1384 1454 906 
Q 1884 428 2741 428 
Q 3075 428 3337 486 
Q 3600 544 3809 666 
z
" transform="scale(0.015625)"/>
       <path id="DejaVuSans-61" d="M 2194 1759 
Q 1497 1759 1228 1600 
Q 959 1441 959 1056 
Q 959 750 1161 570 
Q 1363 391 1709 391 
Q 2188 391 2477 730 
Q 2766 1069 2766 1631 
L 2766 1759 
L 2194 1759 
z
M 3341 1997 
L 3341 0 
L 2766 0 
L 2766 531 
Q 2569 213 2275 61 
Q 1981 -91 1556 -91 
Q 1019 -91 701 211 
Q 384 513 384 1019 
Q 384 1609 779 1909 
Q 1175 2209 1959 2209 
L 2766 2209 
L 2766 2266 
Q 2766 2663 2505 2880 
Q 2244 3097 1772 3097 
Q 1472 3097 1187 3025 
Q 903 2953 641 2809 
L 641 3341 
Q 956 3463 1253 3523 
Q 1550 3584 1831 3584 
Q 2591 3584 2966 3190 
Q 3341 2797 3341 1997 
z
" transform="scale(0.015625)"/>
       <path id="DejaVuSans-70" d="M 1159 525 
L 1159 -1331 
L 581 -1331 
L 581 3500 
L 1159 3500 
L 1159 2969 
Q 1341 3281 1617 3432 
Q 1894 3584 2278 3584 
Q 2916 3584 3314 3078 
Q 3713 2572 3713 1747 
Q 3713 922 3314 415 
Q 2916 -91 2278 -91 
Q 1894 -91 1617 61 
Q 1341 213 1159 525 
z
M 3116 1747 
Q 3116 2381 2855 2742 
Q 2594 3103 2138 3103 
Q 1681 3103 1420 2742 
Q 1159 2381 1159 1747 
Q 1159 1113 1420 752 
Q 1681 391 2138 391 
Q 2594 391 2855 752 
Q 3116 1113 3116 1747 
z
" transform="scale(0.015625)"/>
      </defs>
      <use xlink:href="#DejaVuSans-4d"/>
      <use xlink:href="#DejaVuSans-6f" x="86.279297"/>
      <use xlink:href="#DejaVuSans-64" x="147.460938"/>
      <use xlink:href="#DejaVuSans-65" x="210.9375"/>
      <use xlink:href="#DejaVuSans-20" x="272.460938"/>
      <use xlink:href="#DejaVuSans-47" x="304.248047"/>
      <use xlink:href="#DejaVuSans-61" x="381.738281"/>
      <use xlink:href="#DejaVuSans-70" x="443.017578"/>
     </g>
    </g>
   </g>
   <g id="matplotlib.axis_2">
    <g id="ytick_1">
     <g id="line2d_41">
      <defs>
       <path id="m2935bc43cc" d="M 0 0 
L -3.5 0 
" style="stroke: #000000; stroke-width: 0.8"/>
      </defs>
      <g>
       <use xlink:href="#m2935bc43cc" x="57.6" y="295.499962" style="stroke: #000000; stroke-width: 0.8"/>
      </g>
     </g>
     <g id="text_7">
      <!-- 0.0 -->
      <g transform="translate(18.79375 303.098399) scale(0.2 -0.2)">
       <defs>
        <path id="DejaVuSans-2e" d="M 684 794 
L 1344 794 
L 1344 0 
L 684 0 
L 684 794 
z
" transform="scale(0.015625)"/>
       </defs>
       <use xlink:href="#DejaVuSans-30"/>
       <use xlink:href="#DejaVuSans-2e" x="63.623047"/>
       <use xlink:href="#DejaVuSans-30" x="95.410156"/>
      </g>
     </g>
    </g>
    <g id="ytick_2">
     <g id="line2d_42">
      <g>
       <use xlink:href="#m2935bc43cc" x="57.6" y="247.113449" style="stroke: #000000; stroke-width: 0.8"/>
      </g>
     </g>
     <g id="text_8">
      <!-- 0.2 -->
      <g transform="translate(18.79375 254.711887) scale(0.2 -0.2)">
       <use xlink:href="#DejaVuSans-30"/>
       <use xlink:href="#DejaVuSans-2e" x="63.623047"/>
       <use xlink:href="#DejaVuSans-32" x="95.410156"/>
      </g>
     </g>
    </g>
    <g id="ytick_3">
     <g id="line2d_43">
      <g>
       <use xlink:href="#m2935bc43cc" x="57.6" y="198.726937" style="stroke: #000000; stroke-width: 0.8"/>
      </g>
     </g>
     <g id="text_9">
      <!-- 0.4 -->
      <g transform="translate(18.79375 206.325375) scale(0.2 -0.2)">
       <defs>
        <path id="DejaVuSans-34" d="M 2419 4116 
L 825 1625 
L 2419 1625 
L 2419 4116 
z
M 2253 4666 
L 3047 4666 
L 3047 1625 
L 3713 1625 
L 3713 1100 
L 3047 1100 
L 3047 0 
L 2419 0 
L 2419 1100 
L 313 1100 
L 313 1709 
L 2253 4666 
z
" transform="scale(0.015625)"/>
       </defs>
       <use xlink:href="#DejaVuSans-30"/>
       <use xlink:href="#DejaVuSans-2e" x="63.623047"/>
       <use xlink:href="#DejaVuSans-34" x="95.410156"/>
      </g>
     </g>
    </g>
    <g id="ytick_4">
     <g id="line2d_44">
      <g>
       <use xlink:href="#m2935bc43cc" x="57.6" y="150.340425" style="stroke: #000000; stroke-width: 0.8"/>
      </g>
     </g>
     <g id="text_10">
      <!-- 0.6 -->
      <g transform="translate(18.79375 157.938862) scale(0.2 -0.2)">
       <defs>
        <path id="DejaVuSans-36" d="M 2113 2584 
Q 1688 2584 1439 2293 
Q 1191 2003 1191 1497 
Q 1191 994 1439 701 
Q 1688 409 2113 409 
Q 2538 409 2786 701 
Q 3034 994 3034 1497 
Q 3034 2003 2786 2293 
Q 2538 2584 2113 2584 
z
M 3366 4563 
L 3366 3988 
Q 3128 4100 2886 4159 
Q 2644 4219 2406 4219 
Q 1781 4219 1451 3797 
Q 1122 3375 1075 2522 
Q 1259 2794 1537 2939 
Q 1816 3084 2150 3084 
Q 2853 3084 3261 2657 
Q 3669 2231 3669 1497 
Q 3669 778 3244 343 
Q 2819 -91 2113 -91 
Q 1303 -91 875 529 
Q 447 1150 447 2328 
Q 447 3434 972 4092 
Q 1497 4750 2381 4750 
Q 2619 4750 2861 4703 
Q 3103 4656 3366 4563 
z
" transform="scale(0.015625)"/>
       </defs>
       <use xlink:href="#DejaVuSans-30"/>
       <use xlink:href="#DejaVuSans-2e" x="63.623047"/>
       <use xlink:href="#DejaVuSans-36" x="95.410156"/>
      </g>
     </g>
    </g>
    <g id="ytick_5">
     <g id="line2d_45">
      <g>
       <use xlink:href="#m2935bc43cc" x="57.6" y="101.953912" style="stroke: #000000; stroke-width: 0.8"/>
      </g>
     </g>
     <g id="text_11">
      <!-- 0.8 -->
      <g transform="translate(18.79375 109.55235) scale(0.2 -0.2)">
       <defs>
        <path id="DejaVuSans-38" d="M 2034 2216 
Q 1584 2216 1326 1975 
Q 1069 1734 1069 1313 
Q 1069 891 1326 650 
Q 1584 409 2034 409 
Q 2484 409 2743 651 
Q 3003 894 3003 1313 
Q 3003 1734 2745 1975 
Q 2488 2216 2034 2216 
z
M 1403 2484 
Q 997 2584 770 2862 
Q 544 3141 544 3541 
Q 544 4100 942 4425 
Q 1341 4750 2034 4750 
Q 2731 4750 3128 4425 
Q 3525 4100 3525 3541 
Q 3525 3141 3298 2862 
Q 3072 2584 2669 2484 
Q 3125 2378 3379 2068 
Q 3634 1759 3634 1313 
Q 3634 634 3220 271 
Q 2806 -91 2034 -91 
Q 1263 -91 848 271 
Q 434 634 434 1313 
Q 434 1759 690 2068 
Q 947 2378 1403 2484 
z
M 1172 3481 
Q 1172 3119 1398 2916 
Q 1625 2713 2034 2713 
Q 2441 2713 2670 2916 
Q 2900 3119 2900 3481 
Q 2900 3844 2670 4047 
Q 2441 4250 2034 4250 
Q 1625 4250 1398 4047 
Q 1172 3844 1172 3481 
z
" transform="scale(0.015625)"/>
       </defs>
       <use xlink:href="#DejaVuSans-30"/>
       <use xlink:href="#DejaVuSans-2e" x="63.623047"/>
       <use xlink:href="#DejaVuSans-38" x="95.410156"/>
      </g>
     </g>
    </g>
    <g id="ytick_6">
     <g id="line2d_46">
      <g>
       <use xlink:href="#m2935bc43cc" x="57.6" y="53.5674" style="stroke: #000000; stroke-width: 0.8"/>
      </g>
     </g>
     <g id="text_12">
      <!-- 1.0 -->
      <g transform="translate(18.79375 61.165837) scale(0.2 -0.2)">
       <use xlink:href="#DejaVuSans-31"/>
       <use xlink:href="#DejaVuSans-2e" x="63.623047"/>
       <use xlink:href="#DejaVuSans-30" x="95.410156"/>
      </g>
     </g>
    </g>
    <g id="text_13">
     <!-- $s \cdot v_1$ -->
     <g transform="translate(7.514844 214.778) rotate(-90) scale(0.35 -0.35)">
      <defs>
       <path id="DejaVuSans-Oblique-73" d="M 3200 3397 
L 3091 2853 
Q 2863 2978 2609 3040 
Q 2356 3103 2088 3103 
Q 1634 3103 1373 2948 
Q 1113 2794 1113 2528 
Q 1113 2219 1719 2053 
Q 1766 2041 1788 2034 
L 1972 1978 
Q 2547 1819 2739 1644 
Q 2931 1469 2931 1166 
Q 2931 609 2489 259 
Q 2047 -91 1331 -91 
Q 1053 -91 747 -37 
Q 441 16 72 128 
L 184 722 
Q 500 559 806 475 
Q 1113 391 1394 391 
Q 1816 391 2080 572 
Q 2344 753 2344 1031 
Q 2344 1331 1650 1516 
L 1591 1531 
L 1394 1581 
Q 956 1697 753 1886 
Q 550 2075 550 2369 
Q 550 2928 970 3256 
Q 1391 3584 2113 3584 
Q 2397 3584 2667 3537 
Q 2938 3491 3200 3397 
z
" transform="scale(0.015625)"/>
       <path id="DejaVuSans-22c5" d="M 684 2619 
L 1344 2619 
L 1344 1825 
L 684 1825 
L 684 2619 
z
" transform="scale(0.015625)"/>
       <path id="DejaVuSans-Oblique-76" d="M 459 3500 
L 1069 3500 
L 1581 525 
L 3256 3500 
L 3866 3500 
L 1875 0 
L 1100 0 
L 459 3500 
z
" transform="scale(0.015625)"/>
      </defs>
      <use xlink:href="#DejaVuSans-Oblique-73"/>
      <use xlink:href="#DejaVuSans-22c5" transform="translate(71.582031 0)"/>
      <use xlink:href="#DejaVuSans-Oblique-76" transform="translate(122.851562 0)"/>
      <use xlink:href="#DejaVuSans-31" transform="translate(182.03125 -16.40625) scale(0.7)"/>
     </g>
    </g>
   </g>
   <g id="line2d_47">
    <path d="M 398.487273 53.568 
L 395.207934 53.568125 
L 391.928595 53.568277 
L 388.649256 53.568462 
L 385.369917 53.568689 
L 382.090579 53.568972 
L 378.81124 53.569304 
L 375.531901 53.569719 
L 372.252562 53.570232 
L 368.973223 53.570863 
L 365.693884 53.571642 
L 362.414545 53.572607 
L 359.135207 53.573804 
L 355.855868 53.575292 
L 352.576529 53.577149 
L 349.29719 53.57947 
L 346.017851 53.582381 
L 342.738512 53.586043 
L 339.459174 53.590662 
L 336.179835 53.59651 
L 332.900496 53.603935 
L 329.621157 53.613398 
L 326.341818 53.625498 
L 323.062479 53.641026 
L 319.78314 53.661024 
L 316.503802 53.686872 
L 313.224463 53.720392 
L 309.945124 53.764143 
L 306.665785 53.820953 
L 303.386446 53.896172 
L 300.107107 53.994526 
L 296.827769 54.124603 
L 293.54843 54.296716 
L 290.269091 54.524967 
L 286.989752 54.828363 
L 283.710413 55.232327 
L 280.431074 55.770889 
L 277.151736 56.48595 
L 273.872397 57.438527 
L 270.593058 58.702459 
L 267.313719 60.373428 
L 264.03438 62.57417 
L 260.755041 65.42837 
L 257.475702 69.1208 
L 254.196364 73.826315 
L 250.917025 79.731601 
L 247.637686 87.009928 
L 244.358347 95.790003 
L 241.079008 106.121083 
L 237.799669 118.004068 
L 234.520331 131.251191 
L 231.240992 145.498283 
L 227.961653 160.426997 
L 224.682314 175.502993 
L 221.402975 190.269644 
L 218.123636 204.229984 
L 214.844298 217.171336 
L 211.564959 228.746578 
L 208.28562 238.992037 
L 205.006281 247.982982 
L 201.726942 255.682094 
L 198.447603 262.086994 
L 195.168264 267.570579 
L 191.888926 272.206452 
L 188.609587 276.150653 
L 185.330248 279.391664 
L 182.050909 282.103916 
L 178.77157 284.364795 
L 175.492231 286.243265 
L 172.212893 287.793363 
L 168.933554 289.112466 
L 165.654215 290.196247 
L 162.374876 291.09523 
L 159.095537 291.835839 
L 155.816198 292.462807 
L 152.53686 292.902173 
L 149.257521 293.400749 
L 145.978182 293.728798 
L 142.698843 294.055156 
L 139.419504 294.274632 
L 136.140165 294.61803 
L 132.860826 294.601297 
L 129.581488 294.786788 
L 126.302149 294.910383 
L 123.02281 295.013511 
L 119.743471 295.095273 
L 116.464132 295.18633 
L 113.184793 295.229457 
L 109.905455 295.357433 
L 106.626116 295.292596 
L 103.346777 295.32897 
L 100.067438 295.367074 
L 96.788099 295.488 
L 93.50876 295.411433 
L 90.229421 295.426406 
L 86.950083 295.438853 
L 83.670744 295.449237 
L 80.391405 295.457829 
L 77.112066 295.464983 
L 73.832727 295.470953 
" clip-path="url(#p6e2483725e)" style="fill: none; stroke: #feedde; stroke-width: 1.5; stroke-linecap: square"/>
   </g>
   <g id="line2d_48">
    <path d="M 398.487273 53.568 
L 395.207934 53.568125 
L 391.928595 53.568277 
L 388.649256 53.568462 
L 385.369917 53.568689 
L 382.090579 53.568972 
L 378.81124 53.569304 
L 375.531901 53.569719 
L 372.252562 53.570232 
L 368.973223 53.570863 
L 365.693884 53.571642 
L 362.414545 53.572607 
L 359.135207 53.573804 
L 355.855868 53.575292 
L 352.576529 53.577149 
L 349.29719 53.57947 
L 346.017851 53.582381 
L 342.738512 53.586043 
L 339.459174 53.590662 
L 336.179835 53.59651 
L 332.900496 53.603935 
L 329.621157 53.613398 
L 326.341818 53.625498 
L 323.062479 53.641026 
L 319.78314 53.661024 
L 316.503802 53.686872 
L 313.224463 53.720392 
L 309.945124 53.764143 
L 306.665785 53.820953 
L 303.386446 53.896172 
L 300.107107 53.994526 
L 296.827769 54.124603 
L 293.54843 54.296716 
L 290.269091 54.524967 
L 286.989752 54.828363 
L 283.710413 55.232327 
L 280.431074 55.770889 
L 277.151736 56.48595 
L 273.872397 57.438527 
L 270.593058 58.702459 
L 267.313719 60.373428 
L 264.03438 62.57417 
L 260.755041 65.42837 
L 257.475702 69.1208 
L 254.196364 73.826315 
L 250.917025 79.731601 
L 247.637686 87.009928 
L 244.358347 95.790003 
L 241.079008 106.121083 
L 237.799669 118.004068 
L 234.520331 131.251191 
L 231.240992 145.498283 
L 227.961653 160.426997 
L 224.682314 175.502993 
L 221.402975 190.269644 
L 218.123636 204.229984 
L 214.844298 217.171336 
L 211.564959 228.746578 
L 208.28562 238.992037 
L 205.006281 247.982982 
L 201.726942 255.682094 
L 198.447603 262.086994 
L 195.168264 267.570579 
L 191.888926 272.206452 
L 188.609587 276.150653 
L 185.330248 279.391664 
L 182.050909 282.103916 
L 178.77157 284.364795 
L 175.492231 286.243265 
L 172.212893 287.793363 
L 168.933554 289.112466 
L 165.654215 290.196247 
L 162.374876 291.09523 
L 159.095537 291.835839 
L 155.816198 292.462807 
L 152.53686 292.902173 
L 149.257521 293.400749 
L 145.978182 293.728798 
L 142.698843 294.055156 
L 139.419504 294.274632 
L 136.140165 294.61803 
L 132.860826 294.601297 
L 129.581488 294.786788 
L 126.302149 294.910383 
L 123.02281 295.013511 
L 119.743471 295.095273 
L 116.464132 295.18633 
L 113.184793 295.229457 
L 109.905455 295.357433 
L 106.626116 295.292596 
L 103.346777 295.32897 
L 100.067438 295.367074 
L 96.788099 295.488 
L 93.50876 295.411433 
L 90.229421 295.426406 
L 86.950083 295.438853 
L 83.670744 295.449237 
L 80.391405 295.457829 
L 77.112066 295.464983 
L 73.832727 295.470953 
" clip-path="url(#p6e2483725e)" style="fill: none; stroke: #fdbe85; stroke-width: 1.5; stroke-linecap: square"/>
   </g>
   <g id="line2d_49">
    <path d="M 398.487273 53.568 
L 395.207934 53.568125 
L 391.928595 53.568277 
L 388.649256 53.568462 
L 385.369917 53.568689 
L 382.090579 53.568972 
L 378.81124 53.569304 
L 375.531901 53.569719 
L 372.252562 53.570232 
L 368.973223 53.570863 
L 365.693884 53.571642 
L 362.414545 53.572607 
L 359.135207 53.573804 
L 355.855868 53.575292 
L 352.576529 53.577149 
L 349.29719 53.57947 
L 346.017851 53.582381 
L 342.738512 53.586043 
L 339.459174 53.590662 
L 336.179835 53.59651 
L 332.900496 53.603935 
L 329.621157 53.613398 
L 326.341818 53.625498 
L 323.062479 53.641026 
L 319.78314 53.661024 
L 316.503802 53.686872 
L 313.224463 53.720392 
L 309.945124 53.764143 
L 306.665785 53.820953 
L 303.386446 53.896172 
L 300.107107 53.994526 
L 296.827769 54.124603 
L 293.54843 54.296716 
L 290.269091 54.524967 
L 286.989752 54.828363 
L 283.710413 55.232327 
L 280.431074 55.770889 
L 277.151736 56.48595 
L 273.872397 57.438527 
L 270.593058 58.702459 
L 267.313719 60.373428 
L 264.03438 62.57417 
L 260.755041 65.42837 
L 257.475702 69.1208 
L 254.196364 73.826315 
L 250.917025 79.731601 
L 247.637686 87.009928 
L 244.358347 95.790003 
L 241.079008 106.121083 
L 237.799669 118.004068 
L 234.520331 131.251191 
L 231.240992 145.498283 
L 227.961653 160.426997 
L 224.682314 175.502993 
L 221.402975 190.269644 
L 218.123636 204.229984 
L 214.844298 217.171336 
L 211.564959 228.746578 
L 208.28562 238.992037 
L 205.006281 247.982982 
L 201.726942 255.682094 
L 198.447603 262.086994 
L 195.168264 267.570579 
L 191.888926 272.206452 
L 188.609587 276.150653 
L 185.330248 279.391664 
L 182.050909 282.103916 
L 178.77157 284.364795 
L 175.492231 286.243265 
L 172.212893 287.793363 
L 168.933554 289.112466 
L 165.654215 290.196247 
L 162.374876 291.09523 
L 159.095537 291.835839 
L 155.816198 292.462807 
L 152.53686 292.902173 
L 149.257521 293.400749 
L 145.978182 293.728798 
L 142.698843 294.055156 
L 139.419504 294.274632 
L 136.140165 294.61803 
L 132.860826 294.601297 
L 129.581488 294.786788 
L 126.302149 294.910383 
L 123.02281 295.013511 
L 119.743471 295.095273 
L 116.464132 295.18633 
L 113.184793 295.229457 
L 109.905455 295.357433 
L 106.626116 295.292596 
L 103.346777 295.32897 
L 100.067438 295.367074 
L 96.788099 295.488 
L 93.50876 295.411433 
L 90.229421 295.426406 
L 86.950083 295.438853 
L 83.670744 295.449237 
L 80.391405 295.457829 
L 77.112066 295.464983 
L 73.832727 295.470953 
" clip-path="url(#p6e2483725e)" style="fill: none; stroke: #fd8d3c; stroke-width: 1.5; stroke-linecap: square"/>
   </g>
   <g id="line2d_50">
    <path d="M 398.487273 53.568 
L 395.207934 53.568125 
L 391.928595 53.568277 
L 388.649256 53.568462 
L 385.369917 53.568689 
L 382.090579 53.568972 
L 378.81124 53.569304 
L 375.531901 53.569719 
L 372.252562 53.570232 
L 368.973223 53.570863 
L 365.693884 53.571642 
L 362.414545 53.572607 
L 359.135207 53.573804 
L 355.855868 53.575292 
L 352.576529 53.577149 
L 349.29719 53.57947 
L 346.017851 53.582381 
L 342.738512 53.586043 
L 339.459174 53.590662 
L 336.179835 53.59651 
L 332.900496 53.603935 
L 329.621157 53.613398 
L 326.341818 53.625498 
L 323.062479 53.641026 
L 319.78314 53.661024 
L 316.503802 53.686872 
L 313.224463 53.720392 
L 309.945124 53.764143 
L 306.665785 53.820953 
L 303.386446 53.896172 
L 300.107107 53.994526 
L 296.827769 54.124603 
L 293.54843 54.296716 
L 290.269091 54.524967 
L 286.989752 54.828363 
L 283.710413 55.232327 
L 280.431074 55.770889 
L 277.151736 56.48595 
L 273.872397 57.438527 
L 270.593058 58.702459 
L 267.313719 60.373428 
L 264.03438 62.57417 
L 260.755041 65.42837 
L 257.475702 69.1208 
L 254.196364 73.826315 
L 250.917025 79.731601 
L 247.637686 87.009928 
L 244.358347 95.790003 
L 241.079008 106.121083 
L 237.799669 118.004068 
L 234.520331 131.251191 
L 231.240992 145.498283 
L 227.961653 160.426997 
L 224.682314 175.502993 
L 221.402975 190.269644 
L 218.123636 204.229984 
L 214.844298 217.171336 
L 211.564959 228.746578 
L 208.28562 238.992037 
L 205.006281 247.982982 
L 201.726942 255.682094 
L 198.447603 262.086994 
L 195.168264 267.570579 
L 191.888926 272.206452 
L 188.609587 276.150653 
L 185.330248 279.391664 
L 182.050909 282.103916 
L 178.77157 284.364795 
L 175.492231 286.243265 
L 172.212893 287.793363 
L 168.933554 289.112466 
L 165.654215 290.196247 
L 162.374876 291.09523 
L 159.095537 291.835839 
L 155.816198 292.462807 
L 152.53686 292.902173 
L 149.257521 293.400749 
L 145.978182 293.728798 
L 142.698843 294.055156 
L 139.419504 294.274632 
L 136.140165 294.61803 
L 132.860826 294.601297 
L 129.581488 294.786788 
L 126.302149 294.910383 
L 123.02281 295.013511 
L 119.743471 295.095273 
L 116.464132 295.18633 
L 113.184793 295.229457 
L 109.905455 295.357433 
L 106.626116 295.292596 
L 103.346777 295.32897 
L 100.067438 295.367074 
L 96.788099 295.488 
L 93.50876 295.411433 
L 90.229421 295.426406 
L 86.950083 295.438853 
L 83.670744 295.449237 
L 80.391405 295.457829 
L 77.112066 295.464983 
L 73.832727 295.470953 
" clip-path="url(#p6e2483725e)" style="fill: none; stroke: #d94701; stroke-width: 1.5; stroke-linecap: square"/>
   </g>
   <g id="line2d_51">
    <path d="M 398.487273 58.90978 
L 395.207934 58.956506 
L 391.928595 59.007983 
L 388.649256 59.064704 
L 385.369917 59.127222 
L 382.090579 59.196126 
L 378.81124 59.271993 
L 375.531901 59.355502 
L 372.252562 59.448717 
L 368.973223 59.551253 
L 365.693884 59.664516 
L 362.414545 59.789772 
L 359.135207 59.928388 
L 355.855868 60.081901 
L 352.576529 60.252024 
L 349.29719 60.440692 
L 346.017851 60.650086 
L 342.738512 60.882661 
L 339.459174 61.141191 
L 336.179835 61.428793 
L 332.900496 61.749004 
L 329.621157 62.105787 
L 326.341818 62.50362 
L 323.062479 62.947536 
L 319.78314 63.443182 
L 316.503802 63.996854 
L 313.224463 64.615579 
L 309.945124 65.310028 
L 306.665785 66.082121 
L 303.386446 66.949596 
L 300.107107 67.917587 
L 296.827769 68.998584 
L 293.54843 70.204935 
L 290.269091 71.550039 
L 286.989752 73.046949 
L 283.710413 74.708396 
L 280.431074 76.545716 
L 277.151736 78.587407 
L 273.872397 80.826199 
L 270.593058 83.280264 
L 267.313719 85.958946 
L 264.03438 88.866591 
L 260.755041 92.022436 
L 257.475702 95.422106 
L 254.196364 99.078289 
L 250.917025 103.002281 
L 247.637686 107.198411 
L 244.358347 111.719045 
L 241.079008 116.572833 
L 237.799669 121.738644 
L 234.520331 127.263334 
L 231.240992 133.219984 
L 227.961653 139.528904 
L 224.682314 146.191204 
L 221.402975 153.192716 
L 218.123636 160.488515 
L 214.844298 167.967387 
L 211.564959 175.508102 
L 208.28562 183.060295 
L 205.006281 190.612955 
L 201.726942 197.956657 
L 198.447603 204.914029 
L 195.168264 211.682137 
L 191.888926 218.131711 
L 188.609587 224.199911 
L 185.330248 230.011876 
L 182.050909 235.369278 
L 178.77157 240.357926 
L 175.492231 244.977435 
L 172.212893 249.243938 
L 168.933554 253.208658 
L 165.654215 256.845543 
L 162.374876 260.186537 
L 159.095537 263.247482 
L 155.816198 266.063383 
L 152.53686 268.749984 
L 149.257521 270.960524 
L 145.978182 273.119347 
L 142.698843 275.114822 
L 139.419504 276.950143 
L 136.140165 278.451358 
L 132.860826 280.094704 
L 129.581488 281.403207 
L 126.302149 282.657694 
L 123.02281 283.800277 
L 119.743471 284.844493 
L 116.464132 285.827622 
L 113.184793 286.645283 
L 109.905455 287.468649 
L 106.626116 288.165049 
L 103.346777 288.813441 
L 100.067438 289.377631 
L 96.788099 289.90906 
L 93.50876 290.430865 
L 90.229421 290.880904 
L 86.950083 291.291051 
L 83.670744 291.664816 
L 80.391405 292.005393 
L 77.112066 292.31567 
L 73.832727 292.598526 
" clip-path="url(#p6e2483725e)" style="fill: none; stroke: #feedde; stroke-width: 1.5; stroke-linecap: square"/>
   </g>
   <g id="line2d_52">
    <path d="M 398.487273 58.90978 
L 395.207934 58.956506 
L 391.928595 59.007983 
L 388.649256 59.064704 
L 385.369917 59.127222 
L 382.090579 59.196126 
L 378.81124 59.271993 
L 375.531901 59.355502 
L 372.252562 59.448717 
L 368.973223 59.551253 
L 365.693884 59.664516 
L 362.414545 59.789772 
L 359.135207 59.928388 
L 355.855868 60.081901 
L 352.576529 60.252024 
L 349.29719 60.440692 
L 346.017851 60.650086 
L 342.738512 60.882661 
L 339.459174 61.141191 
L 336.179835 61.428793 
L 332.900496 61.749004 
L 329.621157 62.105787 
L 326.341818 62.50362 
L 323.062479 62.947536 
L 319.78314 63.443182 
L 316.503802 63.996854 
L 313.224463 64.615579 
L 309.945124 65.310028 
L 306.665785 66.082121 
L 303.386446 66.949596 
L 300.107107 67.917587 
L 296.827769 68.998584 
L 293.54843 70.204935 
L 290.269091 71.550039 
L 286.989752 73.046949 
L 283.710413 74.708396 
L 280.431074 76.545716 
L 277.151736 78.587407 
L 273.872397 80.826199 
L 270.593058 83.280264 
L 267.313719 85.958946 
L 264.03438 88.866591 
L 260.755041 92.022436 
L 257.475702 95.422106 
L 254.196364 99.078289 
L 250.917025 103.002281 
L 247.637686 107.198411 
L 244.358347 111.719045 
L 241.079008 116.572833 
L 237.799669 121.738644 
L 234.520331 127.263334 
L 231.240992 133.219984 
L 227.961653 139.528904 
L 224.682314 146.191204 
L 221.402975 153.192716 
L 218.123636 160.488515 
L 214.844298 167.967387 
L 211.564959 175.508102 
L 208.28562 183.060295 
L 205.006281 190.612955 
L 201.726942 197.956657 
L 198.447603 204.914029 
L 195.168264 211.682137 
L 191.888926 218.131711 
L 188.609587 224.199911 
L 185.330248 230.011876 
L 182.050909 235.369278 
L 178.77157 240.357926 
L 175.492231 244.977435 
L 172.212893 249.243938 
L 168.933554 253.208658 
L 165.654215 256.845543 
L 162.374876 260.186537 
L 159.095537 263.247482 
L 155.816198 266.063383 
L 152.53686 268.749984 
L 149.257521 270.960524 
L 145.978182 273.119347 
L 142.698843 275.114822 
L 139.419504 276.950143 
L 136.140165 278.451358 
L 132.860826 280.094704 
L 129.581488 281.403207 
L 126.302149 282.657694 
L 123.02281 283.800277 
L 119.743471 284.844493 
L 116.464132 285.827622 
L 113.184793 286.645283 
L 109.905455 287.468649 
L 106.626116 288.165049 
L 103.346777 288.813441 
L 100.067438 289.377631 
L 96.788099 289.90906 
L 93.50876 290.430865 
L 90.229421 290.880904 
L 86.950083 291.291051 
L 83.670744 291.664816 
L 80.391405 292.005393 
L 77.112066 292.31567 
L 73.832727 292.598526 
" clip-path="url(#p6e2483725e)" style="fill: none; stroke: #fdbe85; stroke-width: 1.5; stroke-linecap: square"/>
   </g>
   <g id="line2d_53">
    <path d="M 398.487273 58.90978 
L 395.207934 58.956506 
L 391.928595 59.007983 
L 388.649256 59.064704 
L 385.369917 59.127222 
L 382.090579 59.196126 
L 378.81124 59.271993 
L 375.531901 59.355502 
L 372.252562 59.448717 
L 368.973223 59.551253 
L 365.693884 59.664516 
L 362.414545 59.789772 
L 359.135207 59.928388 
L 355.855868 60.081901 
L 352.576529 60.252024 
L 349.29719 60.440692 
L 346.017851 60.650086 
L 342.738512 60.882661 
L 339.459174 61.141191 
L 336.179835 61.428793 
L 332.900496 61.749004 
L 329.621157 62.105787 
L 326.341818 62.50362 
L 323.062479 62.947536 
L 319.78314 63.443182 
L 316.503802 63.996854 
L 313.224463 64.615579 
L 309.945124 65.310028 
L 306.665785 66.082121 
L 303.386446 66.949596 
L 300.107107 67.917587 
L 296.827769 68.998584 
L 293.54843 70.204935 
L 290.269091 71.550039 
L 286.989752 73.046949 
L 283.710413 74.708396 
L 280.431074 76.545716 
L 277.151736 78.587407 
L 273.872397 80.826199 
L 270.593058 83.280264 
L 267.313719 85.958946 
L 264.03438 88.866591 
L 260.755041 92.022436 
L 257.475702 95.422106 
L 254.196364 99.078289 
L 250.917025 103.002281 
L 247.637686 107.198411 
L 244.358347 111.719045 
L 241.079008 116.572833 
L 237.799669 121.738644 
L 234.520331 127.263334 
L 231.240992 133.219984 
L 227.961653 139.528904 
L 224.682314 146.191204 
L 221.402975 153.192716 
L 218.123636 160.488515 
L 214.844298 167.967387 
L 211.564959 175.508102 
L 208.28562 183.060295 
L 205.006281 190.612955 
L 201.726942 197.956657 
L 198.447603 204.914029 
L 195.168264 211.682137 
L 191.888926 218.131711 
L 188.609587 224.199911 
L 185.330248 230.011876 
L 182.050909 235.369278 
L 178.77157 240.357926 
L 175.492231 244.977435 
L 172.212893 249.243938 
L 168.933554 253.208658 
L 165.654215 256.845543 
L 162.374876 260.186537 
L 159.095537 263.247482 
L 155.816198 266.063383 
L 152.53686 268.749984 
L 149.257521 270.960524 
L 145.978182 273.119347 
L 142.698843 275.114822 
L 139.419504 276.950143 
L 136.140165 278.451358 
L 132.860826 280.094704 
L 129.581488 281.403207 
L 126.302149 282.657694 
L 123.02281 283.800277 
L 119.743471 284.844493 
L 116.464132 285.827622 
L 113.184793 286.645283 
L 109.905455 287.468649 
L 106.626116 288.165049 
L 103.346777 288.813441 
L 100.067438 289.377631 
L 96.788099 289.90906 
L 93.50876 290.430865 
L 90.229421 290.880904 
L 86.950083 291.291051 
L 83.670744 291.664816 
L 80.391405 292.005393 
L 77.112066 292.31567 
L 73.832727 292.598526 
" clip-path="url(#p6e2483725e)" style="fill: none; stroke: #fd8d3c; stroke-width: 1.5; stroke-linecap: square"/>
   </g>
   <g id="line2d_54">
    <path d="M 398.487273 58.90978 
L 395.207934 58.956506 
L 391.928595 59.007983 
L 388.649256 59.064704 
L 385.369917 59.127222 
L 382.090579 59.196126 
L 378.81124 59.271993 
L 375.531901 59.355502 
L 372.252562 59.448717 
L 368.973223 59.551253 
L 365.693884 59.664516 
L 362.414545 59.789772 
L 359.135207 59.928388 
L 355.855868 60.081901 
L 352.576529 60.252024 
L 349.29719 60.440692 
L 346.017851 60.650086 
L 342.738512 60.882661 
L 339.459174 61.141191 
L 336.179835 61.428793 
L 332.900496 61.749004 
L 329.621157 62.105787 
L 326.341818 62.50362 
L 323.062479 62.947536 
L 319.78314 63.443182 
L 316.503802 63.996854 
L 313.224463 64.615579 
L 309.945124 65.310028 
L 306.665785 66.082121 
L 303.386446 66.949596 
L 300.107107 67.917587 
L 296.827769 68.998584 
L 293.54843 70.204935 
L 290.269091 71.550039 
L 286.989752 73.046949 
L 283.710413 74.708396 
L 280.431074 76.545716 
L 277.151736 78.587407 
L 273.872397 80.826199 
L 270.593058 83.280264 
L 267.313719 85.958946 
L 264.03438 88.866591 
L 260.755041 92.022436 
L 257.475702 95.422106 
L 254.196364 99.078289 
L 250.917025 103.002281 
L 247.637686 107.198411 
L 244.358347 111.719045 
L 241.079008 116.572833 
L 237.799669 121.738644 
L 234.520331 127.263334 
L 231.240992 133.219984 
L 227.961653 139.528904 
L 224.682314 146.191204 
L 221.402975 153.192716 
L 218.123636 160.488515 
L 214.844298 167.967387 
L 211.564959 175.508102 
L 208.28562 183.060295 
L 205.006281 190.612955 
L 201.726942 197.956657 
L 198.447603 204.914029 
L 195.168264 211.682137 
L 191.888926 218.131711 
L 188.609587 224.199911 
L 185.330248 230.011876 
L 182.050909 235.369278 
L 178.77157 240.357926 
L 175.492231 244.977435 
L 172.212893 249.243938 
L 168.933554 253.208658 
L 165.654215 256.845543 
L 162.374876 260.186537 
L 159.095537 263.247482 
L 155.816198 266.063383 
L 152.53686 268.749984 
L 149.257521 270.960524 
L 145.978182 273.119347 
L 142.698843 275.114822 
L 139.419504 276.950143 
L 136.140165 278.451358 
L 132.860826 280.094704 
L 129.581488 281.403207 
L 126.302149 282.657694 
L 123.02281 283.800277 
L 119.743471 284.844493 
L 116.464132 285.827622 
L 113.184793 286.645283 
L 109.905455 287.468649 
L 106.626116 288.165049 
L 103.346777 288.813441 
L 100.067438 289.377631 
L 96.788099 289.90906 
L 93.50876 290.430865 
L 90.229421 290.880904 
L 86.950083 291.291051 
L 83.670744 291.664816 
L 80.391405 292.005393 
L 77.112066 292.31567 
L 73.832727 292.598526 
" clip-path="url(#p6e2483725e)" style="fill: none; stroke: #d94701; stroke-width: 1.5; stroke-linecap: square"/>
   </g>
   <g id="patch_3">
    <path d="M 57.6 307.584 
L 57.6 41.472 
" style="fill: none; stroke: #000000; stroke-width: 0.8; stroke-linejoin: miter; stroke-linecap: square"/>
   </g>
   <g id="patch_4">
    <path d="M 414.72 307.584 
L 414.72 41.472 
" style="fill: none; stroke: #000000; stroke-width: 0.8; stroke-linejoin: miter; stroke-linecap: square"/>
   </g>
   <g id="patch_5">
    <path d="M 57.6 307.584 
L 414.72 307.584 
" style="fill: none; stroke: #000000; stroke-width: 0.8; stroke-linejoin: miter; stroke-linecap: square"/>
   </g>
   <g id="patch_6">
    <path d="M 57.6 41.472 
L 414.72 41.472 
" style="fill: none; stroke: #000000; stroke-width: 0.8; stroke-linejoin: miter; stroke-linecap: square"/>
   </g>
  </g>
  <g id="axes_2">
   <g id="patch_7">
    <path d="M 69.12 276.48 
L 82.944 276.48 
L 82.944 138.24 
L 69.12 138.24 
z
" style="fill: #ffffff"/>
   </g>
   <g id="QuadMesh_1">
    <path d="M 69.12 276.48 
L 82.944 276.48 
L 82.944 241.92 
L 69.12 241.92 
L 69.12 276.48 
" clip-path="url(#pb12b3b92a1)" style="fill: #feedde"/>
    <path d="M 69.12 241.92 
L 82.944 241.92 
L 82.944 207.36 
L 69.12 207.36 
L 69.12 241.92 
" clip-path="url(#pb12b3b92a1)" style="fill: #fdbe85"/>
    <path d="M 69.12 207.36 
L 82.944 207.36 
L 82.944 172.8 
L 69.12 172.8 
L 69.12 207.36 
" clip-path="url(#pb12b3b92a1)" style="fill: #fd8d3c"/>
    <path d="M 69.12 172.8 
L 82.944 172.8 
L 82.944 138.24 
L 69.12 138.24 
L 69.12 172.8 
" clip-path="url(#pb12b3b92a1)" style="fill: #d94701"/>
   </g>
   <g id="matplotlib.axis_3"/>
   <g id="matplotlib.axis_4">
    <g id="ytick_7">
     <g id="line2d_55">
      <defs>
       <path id="mc902f388dc" d="M 0 0 
L 3.5 0 
" style="stroke: #000000; stroke-width: 0.8"/>
      </defs>
      <g>
       <use xlink:href="#mc902f388dc" x="82.944" y="259.212097" style="stroke: #000000; stroke-width: 0.8"/>
      </g>
     </g>
     <g id="text_14">
      <!-- 0.10 -->
      <g transform="translate(89.944 266.050691) scale(0.18 -0.18)">
       <use xlink:href="#DejaVuSans-30"/>
       <use xlink:href="#DejaVuSans-2e" x="63.623047"/>
       <use xlink:href="#DejaVuSans-31" x="95.410156"/>
       <use xlink:href="#DejaVuSans-30" x="159.033203"/>
      </g>
     </g>
    </g>
    <g id="ytick_8">
     <g id="line2d_56">
      <g>
       <use xlink:href="#mc902f388dc" x="82.944" y="224.648641" style="stroke: #000000; stroke-width: 0.8"/>
      </g>
     </g>
     <g id="text_15">
      <!-- 0.25 -->
      <g transform="translate(89.944 231.487235) scale(0.18 -0.18)">
       <defs>
        <path id="DejaVuSans-35" d="M 691 4666 
L 3169 4666 
L 3169 4134 
L 1269 4134 
L 1269 2991 
Q 1406 3038 1543 3061 
Q 1681 3084 1819 3084 
Q 2600 3084 3056 2656 
Q 3513 2228 3513 1497 
Q 3513 744 3044 326 
Q 2575 -91 1722 -91 
Q 1428 -91 1123 -41 
Q 819 9 494 109 
L 494 744 
Q 775 591 1075 516 
Q 1375 441 1709 441 
Q 2250 441 2565 725 
Q 2881 1009 2881 1497 
Q 2881 1984 2565 2268 
Q 2250 2553 1709 2553 
Q 1456 2553 1204 2497 
Q 953 2441 691 2322 
L 691 4666 
z
" transform="scale(0.015625)"/>
       </defs>
       <use xlink:href="#DejaVuSans-30"/>
       <use xlink:href="#DejaVuSans-2e" x="63.623047"/>
       <use xlink:href="#DejaVuSans-32" x="95.410156"/>
       <use xlink:href="#DejaVuSans-35" x="159.033203"/>
      </g>
     </g>
    </g>
    <g id="ytick_9">
     <g id="line2d_57">
      <g>
       <use xlink:href="#mc902f388dc" x="82.944" y="190.085185" style="stroke: #000000; stroke-width: 0.8"/>
      </g>
     </g>
     <g id="text_16">
      <!-- 0.75 -->
      <g transform="translate(89.944 196.923778) scale(0.18 -0.18)">
       <defs>
        <path id="DejaVuSans-37" d="M 525 4666 
L 3525 4666 
L 3525 4397 
L 1831 0 
L 1172 0 
L 2766 4134 
L 525 4134 
L 525 4666 
z
" transform="scale(0.015625)"/>
       </defs>
       <use xlink:href="#DejaVuSans-30"/>
       <use xlink:href="#DejaVuSans-2e" x="63.623047"/>
       <use xlink:href="#DejaVuSans-37" x="95.410156"/>
       <use xlink:href="#DejaVuSans-35" x="159.033203"/>
      </g>
     </g>
    </g>
    <g id="ytick_10">
     <g id="line2d_58">
      <g>
       <use xlink:href="#mc902f388dc" x="82.944" y="155.521728" style="stroke: #000000; stroke-width: 0.8"/>
      </g>
     </g>
     <g id="text_17">
      <!-- 1.00 -->
      <g transform="translate(89.944 162.360322) scale(0.18 -0.18)">
       <use xlink:href="#DejaVuSans-31"/>
       <use xlink:href="#DejaVuSans-2e" x="63.623047"/>
       <use xlink:href="#DejaVuSans-30" x="95.410156"/>
       <use xlink:href="#DejaVuSans-30" x="159.033203"/>
      </g>
     </g>
    </g>
   </g>
   <g id="LineCollection_1"/>
   <g id="patch_8">
    <path d="M 69.12 276.48 
L 76.032 276.48 
L 82.944 276.48 
L 82.944 138.24 
L 76.032 138.24 
L 69.12 138.24 
L 69.12 276.48 
z
" style="fill: none; stroke: #000000; stroke-width: 0.8; stroke-linejoin: miter; stroke-linecap: square"/>
   </g>
   <g id="text_18">
    <!-- $\sigma$ -->
    <g transform="translate(66.432 132.000937) scale(0.3 -0.3)">
     <defs>
      <path id="DejaVuSans-Oblique-3c3" d="M 2219 3044 
Q 1744 3044 1422 2700 
Q 1081 2341 969 1747 
Q 844 1119 1044 756 
Q 1241 397 1706 397 
Q 2166 397 2503 759 
Q 2844 1122 2966 1747 
Q 3075 2319 2881 2700 
Q 2700 3044 2219 3044 
z
M 2309 3503 
L 4219 3500 
L 4106 2925 
L 3463 2925 
Q 3706 2438 3575 1747 
Q 3406 888 2884 400 
Q 2359 -91 1609 -91 
Q 856 -91 525 400 
Q 194 888 363 1747 
Q 528 2609 1050 3097 
Q 1484 3503 2309 3503 
z
" transform="scale(0.015625)"/>
     </defs>
     <use xlink:href="#DejaVuSans-Oblique-3c3" transform="translate(0 0.265625)"/>
    </g>
   </g>
  </g>
 </g>
 <defs>
  <clipPath id="p6e2483725e">
   <rect x="57.6" y="41.472" width="357.12" height="266.112"/>
  </clipPath>
  <clipPath id="pb12b3b92a1">
   <rect x="69.12" y="138.24" width="13.824" height="138.24"/>
  </clipPath>
 </defs>
</svg>
