<?xml version="1.0" encoding="utf-8" standalone="no"?>
<!DOCTYPE svg PUBLIC "-//W3C//DTD SVG 1.1//EN"
  "http://www.w3.org/Graphics/SVG/1.1/DTD/svg11.dtd">
<svg xmlns:xlink="http://www.w3.org/1999/xlink" width="460.8pt" height="345.6pt" viewBox="0 0 460.8 345.6" xmlns="http://www.w3.org/2000/svg" version="1.1">
 <metadata>
  <rdf:RDF xmlns:dc="http://purl.org/dc/elements/1.1/" xmlns:cc="http://creativecommons.org/ns#" xmlns:rdf="http://www.w3.org/1999/02/22-rdf-syntax-ns#">
   <cc:Work>
    <dc:type rdf:resource="http://purl.org/dc/dcmitype/StillImage"/>
    <dc:date>2023-08-24T17:26:40.862683</dc:date>
    <dc:format>image/svg+xml</dc:format>
    <dc:creator>
     <cc:Agent>
      <dc:title>Matplotlib v3.7.2, https://matplotlib.org/</dc:title>
     </cc:Agent>
    </dc:creator>
   </cc:Work>
  </rdf:RDF>
 </metadata>
 <defs>
  <style type="text/css">*{stroke-linejoin: round; stroke-linecap: butt}</style>
 </defs>
 <g id="figure_1">
  <g id="patch_1">
   <path d="M 0 345.6 
L 460.8 345.6 
L 460.8 0 
L 0 0 
z
" style="fill: #ffffff"/>
  </g>
  <g id="axes_1">
   <g id="patch_2">
    <path d="M 57.6 307.584 
L 414.72 307.584 
L 414.72 41.472 
L 57.6 41.472 
z
" style="fill: #ffffff"/>
   </g>
   <g id="matplotlib.axis_1">
    <g id="xtick_1">
     <g id="line2d_1">
      <defs>
       <path id="m870df7bee5" d="M 0 0 
L 0 3.5 
" style="stroke: #000000; stroke-width: 0.8"/>
      </defs>
      <g>
       <use xlink:href="#m870df7bee5" x="118.838544" y="307.584" style="stroke: #000000; stroke-width: 0.8"/>
      </g>
     </g>
     <g id="text_1">
      <!-- $\mathdefault{10^{-1}}$ -->
      <g transform="translate(95.338544 329.780875) scale(0.2 -0.2)">
       <defs>
        <path id="DejaVuSans-31" d="M 794 531 
L 1825 531 
L 1825 4091 
L 703 3866 
L 703 4441 
L 1819 4666 
L 2450 4666 
L 2450 531 
L 3481 531 
L 3481 0 
L 794 0 
L 794 531 
z
" transform="scale(0.015625)"/>
        <path id="DejaVuSans-30" d="M 2034 4250 
Q 1547 4250 1301 3770 
Q 1056 3291 1056 2328 
Q 1056 1369 1301 889 
Q 1547 409 2034 409 
Q 2525 409 2770 889 
Q 3016 1369 3016 2328 
Q 3016 3291 2770 3770 
Q 2525 4250 2034 4250 
z
M 2034 4750 
Q 2819 4750 3233 4129 
Q 3647 3509 3647 2328 
Q 3647 1150 3233 529 
Q 2819 -91 2034 -91 
Q 1250 -91 836 529 
Q 422 1150 422 2328 
Q 422 3509 836 4129 
Q 1250 4750 2034 4750 
z
" transform="scale(0.015625)"/>
        <path id="DejaVuSans-2212" d="M 678 2272 
L 4684 2272 
L 4684 1741 
L 678 1741 
L 678 2272 
z
" transform="scale(0.015625)"/>
       </defs>
       <use xlink:href="#DejaVuSans-31" transform="translate(0 0.684375)"/>
       <use xlink:href="#DejaVuSans-30" transform="translate(63.623047 0.684375)"/>
       <use xlink:href="#DejaVuSans-2212" transform="translate(128.203125 38.965625) scale(0.7)"/>
       <use xlink:href="#DejaVuSans-31" transform="translate(186.855469 38.965625) scale(0.7)"/>
      </g>
     </g>
    </g>
    <g id="xtick_2">
     <g id="line2d_2">
      <g>
       <use xlink:href="#m870df7bee5" x="180.884309" y="307.584" style="stroke: #000000; stroke-width: 0.8"/>
      </g>
     </g>
     <g id="text_2">
      <!-- $\mathdefault{10^{0}}$ -->
      <g transform="translate(163.284309 329.780875) scale(0.2 -0.2)">
       <use xlink:href="#DejaVuSans-31" transform="translate(0 0.765625)"/>
       <use xlink:href="#DejaVuSans-30" transform="translate(63.623047 0.765625)"/>
       <use xlink:href="#DejaVuSans-30" transform="translate(128.203125 39.046875) scale(0.7)"/>
      </g>
     </g>
    </g>
    <g id="xtick_3">
     <g id="line2d_3">
      <g>
       <use xlink:href="#m870df7bee5" x="242.930073" y="307.584" style="stroke: #000000; stroke-width: 0.8"/>
      </g>
     </g>
     <g id="text_3">
      <!-- $\mathdefault{10^{1}}$ -->
      <g transform="translate(225.330073 329.780875) scale(0.2 -0.2)">
       <use xlink:href="#DejaVuSans-31" transform="translate(0 0.684375)"/>
       <use xlink:href="#DejaVuSans-30" transform="translate(63.623047 0.684375)"/>
       <use xlink:href="#DejaVuSans-31" transform="translate(128.203125 38.965625) scale(0.7)"/>
      </g>
     </g>
    </g>
    <g id="xtick_4">
     <g id="line2d_4">
      <g>
       <use xlink:href="#m870df7bee5" x="304.975838" y="307.584" style="stroke: #000000; stroke-width: 0.8"/>
      </g>
     </g>
     <g id="text_4">
      <!-- $\mathdefault{10^{2}}$ -->
      <g transform="translate(287.375838 329.780875) scale(0.2 -0.2)">
       <defs>
        <path id="DejaVuSans-32" d="M 1228 531 
L 3431 531 
L 3431 0 
L 469 0 
L 469 531 
Q 828 903 1448 1529 
Q 2069 2156 2228 2338 
Q 2531 2678 2651 2914 
Q 2772 3150 2772 3378 
Q 2772 3750 2511 3984 
Q 2250 4219 1831 4219 
Q 1534 4219 1204 4116 
Q 875 4013 500 3803 
L 500 4441 
Q 881 4594 1212 4672 
Q 1544 4750 1819 4750 
Q 2544 4750 2975 4387 
Q 3406 4025 3406 3419 
Q 3406 3131 3298 2873 
Q 3191 2616 2906 2266 
Q 2828 2175 2409 1742 
Q 1991 1309 1228 531 
z
" transform="scale(0.015625)"/>
       </defs>
       <use xlink:href="#DejaVuSans-31" transform="translate(0 0.765625)"/>
       <use xlink:href="#DejaVuSans-30" transform="translate(63.623047 0.765625)"/>
       <use xlink:href="#DejaVuSans-32" transform="translate(128.203125 39.046875) scale(0.7)"/>
      </g>
     </g>
    </g>
    <g id="xtick_5">
     <g id="line2d_5">
      <g>
       <use xlink:href="#m870df7bee5" x="367.021602" y="307.584" style="stroke: #000000; stroke-width: 0.8"/>
      </g>
     </g>
     <g id="text_5">
      <!-- $\mathdefault{10^{3}}$ -->
      <g transform="translate(349.421602 329.780875) scale(0.2 -0.2)">
       <defs>
        <path id="DejaVuSans-33" d="M 2597 2516 
Q 3050 2419 3304 2112 
Q 3559 1806 3559 1356 
Q 3559 666 3084 287 
Q 2609 -91 1734 -91 
Q 1441 -91 1130 -33 
Q 819 25 488 141 
L 488 750 
Q 750 597 1062 519 
Q 1375 441 1716 441 
Q 2309 441 2620 675 
Q 2931 909 2931 1356 
Q 2931 1769 2642 2001 
Q 2353 2234 1838 2234 
L 1294 2234 
L 1294 2753 
L 1863 2753 
Q 2328 2753 2575 2939 
Q 2822 3125 2822 3475 
Q 2822 3834 2567 4026 
Q 2313 4219 1838 4219 
Q 1578 4219 1281 4162 
Q 984 4106 628 3988 
L 628 4550 
Q 988 4650 1302 4700 
Q 1616 4750 1894 4750 
Q 2613 4750 3031 4423 
Q 3450 4097 3450 3541 
Q 3450 3153 3228 2886 
Q 3006 2619 2597 2516 
z
" transform="scale(0.015625)"/>
       </defs>
       <use xlink:href="#DejaVuSans-31" transform="translate(0 0.765625)"/>
       <use xlink:href="#DejaVuSans-30" transform="translate(63.623047 0.765625)"/>
       <use xlink:href="#DejaVuSans-33" transform="translate(128.203125 39.046875) scale(0.7)"/>
      </g>
     </g>
    </g>
    <g id="xtick_6">
     <g id="line2d_6">
      <defs>
       <path id="me2c53e24f2" d="M 0 0 
L 0 2 
" style="stroke: #000000; stroke-width: 0.6"/>
      </defs>
      <g>
       <use xlink:href="#me2c53e24f2" x="75.470416" y="307.584" style="stroke: #000000; stroke-width: 0.6"/>
      </g>
     </g>
    </g>
    <g id="xtick_7">
     <g id="line2d_7">
      <g>
       <use xlink:href="#me2c53e24f2" x="86.396133" y="307.584" style="stroke: #000000; stroke-width: 0.6"/>
      </g>
     </g>
    </g>
    <g id="xtick_8">
     <g id="line2d_8">
      <g>
       <use xlink:href="#me2c53e24f2" x="94.148052" y="307.584" style="stroke: #000000; stroke-width: 0.6"/>
      </g>
     </g>
    </g>
    <g id="xtick_9">
     <g id="line2d_9">
      <g>
       <use xlink:href="#me2c53e24f2" x="100.160908" y="307.584" style="stroke: #000000; stroke-width: 0.6"/>
      </g>
     </g>
    </g>
    <g id="xtick_10">
     <g id="line2d_10">
      <g>
       <use xlink:href="#me2c53e24f2" x="105.073769" y="307.584" style="stroke: #000000; stroke-width: 0.6"/>
      </g>
     </g>
    </g>
    <g id="xtick_11">
     <g id="line2d_11">
      <g>
       <use xlink:href="#me2c53e24f2" x="109.227534" y="307.584" style="stroke: #000000; stroke-width: 0.6"/>
      </g>
     </g>
    </g>
    <g id="xtick_12">
     <g id="line2d_12">
      <g>
       <use xlink:href="#me2c53e24f2" x="112.825688" y="307.584" style="stroke: #000000; stroke-width: 0.6"/>
      </g>
     </g>
    </g>
    <g id="xtick_13">
     <g id="line2d_13">
      <g>
       <use xlink:href="#me2c53e24f2" x="115.999486" y="307.584" style="stroke: #000000; stroke-width: 0.6"/>
      </g>
     </g>
    </g>
    <g id="xtick_14">
     <g id="line2d_14">
      <g>
       <use xlink:href="#me2c53e24f2" x="137.51618" y="307.584" style="stroke: #000000; stroke-width: 0.6"/>
      </g>
     </g>
    </g>
    <g id="xtick_15">
     <g id="line2d_15">
      <g>
       <use xlink:href="#me2c53e24f2" x="148.441897" y="307.584" style="stroke: #000000; stroke-width: 0.6"/>
      </g>
     </g>
    </g>
    <g id="xtick_16">
     <g id="line2d_16">
      <g>
       <use xlink:href="#me2c53e24f2" x="156.193817" y="307.584" style="stroke: #000000; stroke-width: 0.6"/>
      </g>
     </g>
    </g>
    <g id="xtick_17">
     <g id="line2d_17">
      <g>
       <use xlink:href="#me2c53e24f2" x="162.206672" y="307.584" style="stroke: #000000; stroke-width: 0.6"/>
      </g>
     </g>
    </g>
    <g id="xtick_18">
     <g id="line2d_18">
      <g>
       <use xlink:href="#me2c53e24f2" x="167.119533" y="307.584" style="stroke: #000000; stroke-width: 0.6"/>
      </g>
     </g>
    </g>
    <g id="xtick_19">
     <g id="line2d_19">
      <g>
       <use xlink:href="#me2c53e24f2" x="171.273298" y="307.584" style="stroke: #000000; stroke-width: 0.6"/>
      </g>
     </g>
    </g>
    <g id="xtick_20">
     <g id="line2d_20">
      <g>
       <use xlink:href="#me2c53e24f2" x="174.871453" y="307.584" style="stroke: #000000; stroke-width: 0.6"/>
      </g>
     </g>
    </g>
    <g id="xtick_21">
     <g id="line2d_21">
      <g>
       <use xlink:href="#me2c53e24f2" x="178.04525" y="307.584" style="stroke: #000000; stroke-width: 0.6"/>
      </g>
     </g>
    </g>
    <g id="xtick_22">
     <g id="line2d_22">
      <g>
       <use xlink:href="#me2c53e24f2" x="199.561945" y="307.584" style="stroke: #000000; stroke-width: 0.6"/>
      </g>
     </g>
    </g>
    <g id="xtick_23">
     <g id="line2d_23">
      <g>
       <use xlink:href="#me2c53e24f2" x="210.487662" y="307.584" style="stroke: #000000; stroke-width: 0.6"/>
      </g>
     </g>
    </g>
    <g id="xtick_24">
     <g id="line2d_24">
      <g>
       <use xlink:href="#me2c53e24f2" x="218.239581" y="307.584" style="stroke: #000000; stroke-width: 0.6"/>
      </g>
     </g>
    </g>
    <g id="xtick_25">
     <g id="line2d_25">
      <g>
       <use xlink:href="#me2c53e24f2" x="224.252437" y="307.584" style="stroke: #000000; stroke-width: 0.6"/>
      </g>
     </g>
    </g>
    <g id="xtick_26">
     <g id="line2d_26">
      <g>
       <use xlink:href="#me2c53e24f2" x="229.165298" y="307.584" style="stroke: #000000; stroke-width: 0.6"/>
      </g>
     </g>
    </g>
    <g id="xtick_27">
     <g id="line2d_27">
      <g>
       <use xlink:href="#me2c53e24f2" x="233.319063" y="307.584" style="stroke: #000000; stroke-width: 0.6"/>
      </g>
     </g>
    </g>
    <g id="xtick_28">
     <g id="line2d_28">
      <g>
       <use xlink:href="#me2c53e24f2" x="236.917217" y="307.584" style="stroke: #000000; stroke-width: 0.6"/>
      </g>
     </g>
    </g>
    <g id="xtick_29">
     <g id="line2d_29">
      <g>
       <use xlink:href="#me2c53e24f2" x="240.091015" y="307.584" style="stroke: #000000; stroke-width: 0.6"/>
      </g>
     </g>
    </g>
    <g id="xtick_30">
     <g id="line2d_30">
      <g>
       <use xlink:href="#me2c53e24f2" x="261.607709" y="307.584" style="stroke: #000000; stroke-width: 0.6"/>
      </g>
     </g>
    </g>
    <g id="xtick_31">
     <g id="line2d_31">
      <g>
       <use xlink:href="#me2c53e24f2" x="272.533426" y="307.584" style="stroke: #000000; stroke-width: 0.6"/>
      </g>
     </g>
    </g>
    <g id="xtick_32">
     <g id="line2d_32">
      <g>
       <use xlink:href="#me2c53e24f2" x="280.285345" y="307.584" style="stroke: #000000; stroke-width: 0.6"/>
      </g>
     </g>
    </g>
    <g id="xtick_33">
     <g id="line2d_33">
      <g>
       <use xlink:href="#me2c53e24f2" x="286.298201" y="307.584" style="stroke: #000000; stroke-width: 0.6"/>
      </g>
     </g>
    </g>
    <g id="xtick_34">
     <g id="line2d_34">
      <g>
       <use xlink:href="#me2c53e24f2" x="291.211062" y="307.584" style="stroke: #000000; stroke-width: 0.6"/>
      </g>
     </g>
    </g>
    <g id="xtick_35">
     <g id="line2d_35">
      <g>
       <use xlink:href="#me2c53e24f2" x="295.364827" y="307.584" style="stroke: #000000; stroke-width: 0.6"/>
      </g>
     </g>
    </g>
    <g id="xtick_36">
     <g id="line2d_36">
      <g>
       <use xlink:href="#me2c53e24f2" x="298.962982" y="307.584" style="stroke: #000000; stroke-width: 0.6"/>
      </g>
     </g>
    </g>
    <g id="xtick_37">
     <g id="line2d_37">
      <g>
       <use xlink:href="#me2c53e24f2" x="302.136779" y="307.584" style="stroke: #000000; stroke-width: 0.6"/>
      </g>
     </g>
    </g>
    <g id="xtick_38">
     <g id="line2d_38">
      <g>
       <use xlink:href="#me2c53e24f2" x="323.653474" y="307.584" style="stroke: #000000; stroke-width: 0.6"/>
      </g>
     </g>
    </g>
    <g id="xtick_39">
     <g id="line2d_39">
      <g>
       <use xlink:href="#me2c53e24f2" x="334.57919" y="307.584" style="stroke: #000000; stroke-width: 0.6"/>
      </g>
     </g>
    </g>
    <g id="xtick_40">
     <g id="line2d_40">
      <g>
       <use xlink:href="#me2c53e24f2" x="342.33111" y="307.584" style="stroke: #000000; stroke-width: 0.6"/>
      </g>
     </g>
    </g>
    <g id="xtick_41">
     <g id="line2d_41">
      <g>
       <use xlink:href="#me2c53e24f2" x="348.343966" y="307.584" style="stroke: #000000; stroke-width: 0.6"/>
      </g>
     </g>
    </g>
    <g id="xtick_42">
     <g id="line2d_42">
      <g>
       <use xlink:href="#me2c53e24f2" x="353.256827" y="307.584" style="stroke: #000000; stroke-width: 0.6"/>
      </g>
     </g>
    </g>
    <g id="xtick_43">
     <g id="line2d_43">
      <g>
       <use xlink:href="#me2c53e24f2" x="357.410591" y="307.584" style="stroke: #000000; stroke-width: 0.6"/>
      </g>
     </g>
    </g>
    <g id="xtick_44">
     <g id="line2d_44">
      <g>
       <use xlink:href="#me2c53e24f2" x="361.008746" y="307.584" style="stroke: #000000; stroke-width: 0.6"/>
      </g>
     </g>
    </g>
    <g id="xtick_45">
     <g id="line2d_45">
      <g>
       <use xlink:href="#me2c53e24f2" x="364.182543" y="307.584" style="stroke: #000000; stroke-width: 0.6"/>
      </g>
     </g>
    </g>
    <g id="xtick_46">
     <g id="line2d_46">
      <g>
       <use xlink:href="#me2c53e24f2" x="385.699238" y="307.584" style="stroke: #000000; stroke-width: 0.6"/>
      </g>
     </g>
    </g>
    <g id="xtick_47">
     <g id="line2d_47">
      <g>
       <use xlink:href="#me2c53e24f2" x="396.624955" y="307.584" style="stroke: #000000; stroke-width: 0.6"/>
      </g>
     </g>
    </g>
    <g id="xtick_48">
     <g id="line2d_48">
      <g>
       <use xlink:href="#me2c53e24f2" x="404.376874" y="307.584" style="stroke: #000000; stroke-width: 0.6"/>
      </g>
     </g>
    </g>
    <g id="xtick_49">
     <g id="line2d_49">
      <g>
       <use xlink:href="#me2c53e24f2" x="410.38973" y="307.584" style="stroke: #000000; stroke-width: 0.6"/>
      </g>
     </g>
    </g>
    <g id="text_6">
     <!-- $\frac{(\delta f \cdot v_2) / \lambda_2}{(\delta f \cdot v_1) / \lambda_1}$ -->
     <g transform="translate(191.535 365.19025) scale(0.25 -0.25)">
      <defs>
       <path id="DejaVuSans-28" d="M 1984 4856 
Q 1566 4138 1362 3434 
Q 1159 2731 1159 2009 
Q 1159 1288 1364 580 
Q 1569 -128 1984 -844 
L 1484 -844 
Q 1016 -109 783 600 
Q 550 1309 550 2009 
Q 550 2706 781 3412 
Q 1013 4119 1484 4856 
L 1984 4856 
z
" transform="scale(0.015625)"/>
       <path id="DejaVuSans-Oblique-3b4" d="M 3472 4053 
Q 3197 4272 2450 4272 
Q 1659 4272 1588 3906 
Q 1531 3619 2328 3469 
Q 2953 3353 3253 3003 
Q 3616 2581 3447 1716 
Q 3284 888 2763 400 
Q 2238 -91 1488 -91 
Q 741 -91 406 400 
Q 72 888 241 1747 
Q 363 2384 891 2900 
Q 1097 3100 1353 3213 
Q 913 3459 1000 3900 
Q 1166 4750 2544 4750 
Q 3234 4750 3566 4531 
L 3472 4053 
z
M 1753 3056 
Q 1525 2966 1306 2738 
Q 969 2384 847 1747 
Q 722 1113 919 756 
Q 1119 397 1584 397 
Q 2044 397 2381 759 
Q 2722 1122 2838 1716 
Q 2956 2338 2731 2638 
Q 2491 2959 2103 2994 
Q 1906 3013 1753 3056 
z
" transform="scale(0.015625)"/>
       <path id="DejaVuSans-Oblique-66" d="M 3059 4863 
L 2969 4384 
L 2419 4384 
Q 2106 4384 1964 4261 
Q 1822 4138 1753 3809 
L 1691 3500 
L 2638 3500 
L 2553 3053 
L 1606 3053 
L 1013 0 
L 434 0 
L 1031 3053 
L 481 3053 
L 563 3500 
L 1113 3500 
L 1159 3744 
Q 1278 4363 1576 4613 
Q 1875 4863 2516 4863 
L 3059 4863 
z
" transform="scale(0.015625)"/>
       <path id="DejaVuSans-22c5" d="M 684 2619 
L 1344 2619 
L 1344 1825 
L 684 1825 
L 684 2619 
z
" transform="scale(0.015625)"/>
       <path id="DejaVuSans-Oblique-76" d="M 459 3500 
L 1069 3500 
L 1581 525 
L 3256 3500 
L 3866 3500 
L 1875 0 
L 1100 0 
L 459 3500 
z
" transform="scale(0.015625)"/>
       <path id="DejaVuSans-29" d="M 513 4856 
L 1013 4856 
Q 1481 4119 1714 3412 
Q 1947 2706 1947 2009 
Q 1947 1309 1714 600 
Q 1481 -109 1013 -844 
L 513 -844 
Q 928 -128 1133 580 
Q 1338 1288 1338 2009 
Q 1338 2731 1133 3434 
Q 928 4138 513 4856 
z
" transform="scale(0.015625)"/>
       <path id="DejaVuSans-2f" d="M 1625 4666 
L 2156 4666 
L 531 -594 
L 0 -594 
L 1625 4666 
z
" transform="scale(0.015625)"/>
       <path id="DejaVuSans-Oblique-3bb" d="M 2350 4316 
L 3125 0 
L 2516 0 
L 2038 2588 
L 328 0 
L -281 0 
L 1903 3356 
L 1794 3975 
Q 1725 4369 1391 4369 
L 1091 4369 
L 1184 4863 
L 1550 4856 
Q 2253 4847 2350 4316 
z
" transform="scale(0.015625)"/>
      </defs>
      <use xlink:href="#DejaVuSans-28" transform="translate(0 55.810938) scale(0.7)"/>
      <use xlink:href="#DejaVuSans-Oblique-3b4" transform="translate(27.30957 55.810938) scale(0.7)"/>
      <use xlink:href="#DejaVuSans-Oblique-66" transform="translate(70.136719 55.810938) scale(0.7)"/>
      <use xlink:href="#DejaVuSans-22c5" transform="translate(108.417969 55.810938) scale(0.7)"/>
      <use xlink:href="#DejaVuSans-Oblique-76" transform="translate(144.306641 55.810938) scale(0.7)"/>
      <use xlink:href="#DejaVuSans-32" transform="translate(185.732422 44.326562) scale(0.49)"/>
      <use xlink:href="#DejaVuSans-29" transform="translate(218.821777 55.810938) scale(0.7)"/>
      <use xlink:href="#DejaVuSans-2f" transform="translate(246.131348 55.810938) scale(0.7)"/>
      <use xlink:href="#DejaVuSans-Oblique-3bb" transform="translate(269.715332 55.810938) scale(0.7)"/>
      <use xlink:href="#DejaVuSans-32" transform="translate(311.141113 44.326562) scale(0.49)"/>
      <use xlink:href="#DejaVuSans-28" transform="translate(0 -40.1125) scale(0.7)"/>
      <use xlink:href="#DejaVuSans-Oblique-3b4" transform="translate(27.30957 -40.1125) scale(0.7)"/>
      <use xlink:href="#DejaVuSans-Oblique-66" transform="translate(70.136719 -40.1125) scale(0.7)"/>
      <use xlink:href="#DejaVuSans-22c5" transform="translate(108.417969 -40.1125) scale(0.7)"/>
      <use xlink:href="#DejaVuSans-Oblique-76" transform="translate(144.306641 -40.1125) scale(0.7)"/>
      <use xlink:href="#DejaVuSans-31" transform="translate(185.732422 -51.596875) scale(0.49)"/>
      <use xlink:href="#DejaVuSans-29" transform="translate(218.821777 -40.1125) scale(0.7)"/>
      <use xlink:href="#DejaVuSans-2f" transform="translate(246.131348 -40.1125) scale(0.7)"/>
      <use xlink:href="#DejaVuSans-Oblique-3bb" transform="translate(269.715332 -40.1125) scale(0.7)"/>
      <use xlink:href="#DejaVuSans-31" transform="translate(311.141113 -51.596875) scale(0.49)"/>
      <path d="M 0 19.326562 
L 0 25.576562 
L 344.230469 25.576562 
L 344.230469 19.326562 
L 0 19.326562 
z
"/>
     </g>
    </g>
   </g>
   <g id="matplotlib.axis_2">
    <g id="ytick_1">
     <g id="line2d_50">
      <defs>
       <path id="m72b1ff2e11" d="M 0 0 
L -3.5 0 
" style="stroke: #000000; stroke-width: 0.8"/>
      </defs>
      <g>
       <use xlink:href="#m72b1ff2e11" x="57.6" y="296.0148" style="stroke: #000000; stroke-width: 0.8"/>
      </g>
     </g>
     <g id="text_7">
      <!-- $0$ -->
      <g transform="translate(37.8 303.613237) scale(0.2 -0.2)">
       <use xlink:href="#DejaVuSans-30" transform="translate(0 0.78125)"/>
      </g>
     </g>
    </g>
    <g id="ytick_2">
     <g id="line2d_51">
      <g>
       <use xlink:href="#m72b1ff2e11" x="57.6" y="174.616485" style="stroke: #000000; stroke-width: 0.8"/>
      </g>
     </g>
     <g id="text_8">
      <!-- $\pi/4$ -->
      <g transform="translate(19 182.214923) scale(0.2 -0.2)">
       <defs>
        <path id="DejaVuSans-Oblique-3c0" d="M 584 3500 
L 3938 3500 
L 3825 2925 
L 3384 2925 
L 2966 775 
Q 2922 550 2981 450 
Q 3038 353 3209 353 
Q 3256 353 3325 363 
Q 3397 369 3419 372 
L 3338 -44 
Q 3222 -84 3103 -103 
Q 2981 -122 2866 -122 
Q 2491 -122 2388 81 
Q 2284 288 2391 838 
L 2797 2925 
L 1506 2925 
L 938 0 
L 350 0 
L 919 2925 
L 472 2925 
L 584 3500 
z
" transform="scale(0.015625)"/>
        <path id="DejaVuSans-34" d="M 2419 4116 
L 825 1625 
L 2419 1625 
L 2419 4116 
z
M 2253 4666 
L 3047 4666 
L 3047 1625 
L 3713 1625 
L 3713 1100 
L 3047 1100 
L 3047 0 
L 2419 0 
L 2419 1100 
L 313 1100 
L 313 1709 
L 2253 4666 
z
" transform="scale(0.015625)"/>
       </defs>
       <use xlink:href="#DejaVuSans-Oblique-3c0" transform="translate(0 0.09375)"/>
       <use xlink:href="#DejaVuSans-2f" transform="translate(60.205078 0.09375)"/>
       <use xlink:href="#DejaVuSans-34" transform="translate(93.896484 0.09375)"/>
      </g>
     </g>
    </g>
    <g id="ytick_3">
     <g id="line2d_52">
      <g>
       <use xlink:href="#m72b1ff2e11" x="57.6" y="53.218171" style="stroke: #000000; stroke-width: 0.8"/>
      </g>
     </g>
     <g id="text_9">
      <!-- $\pi/2$ -->
      <g transform="translate(19.8 60.816608) scale(0.2 -0.2)">
       <use xlink:href="#DejaVuSans-Oblique-3c0" transform="translate(0 0.78125)"/>
       <use xlink:href="#DejaVuSans-2f" transform="translate(60.205078 0.78125)"/>
       <use xlink:href="#DejaVuSans-32" transform="translate(90.271484 0.78125)"/>
      </g>
     </g>
    </g>
    <g id="text_10">
     <!-- $\theta_{s,v_1}$ in Radians -->
     <g transform="translate(7.16 281.628) rotate(-90) scale(0.28 -0.28)">
      <defs>
       <path id="DejaVuSans-Oblique-3b8" d="M 2913 2219 
L 925 2219 
Q 791 1284 928 888 
Q 1100 400 1566 400 
Q 2034 400 2391 891 
Q 2703 1322 2913 2219 
z
M 3009 2750 
Q 3094 3638 2984 3950 
Q 2813 4444 2353 4444 
Q 1875 4444 1525 3956 
Q 1250 3563 1034 2750 
L 3009 2750 
z
M 2444 4913 
Q 3194 4913 3494 4250 
Q 3794 3591 3566 2422 
Q 3341 1256 2781 594 
Q 2225 -72 1475 -72 
Q 722 -72 425 594 
Q 128 1256 353 2422 
Q 581 3591 1134 4250 
Q 1691 4913 2444 4913 
z
" transform="scale(0.015625)"/>
       <path id="DejaVuSans-Oblique-73" d="M 3200 3397 
L 3091 2853 
Q 2863 2978 2609 3040 
Q 2356 3103 2088 3103 
Q 1634 3103 1373 2948 
Q 1113 2794 1113 2528 
Q 1113 2219 1719 2053 
Q 1766 2041 1788 2034 
L 1972 1978 
Q 2547 1819 2739 1644 
Q 2931 1469 2931 1166 
Q 2931 609 2489 259 
Q 2047 -91 1331 -91 
Q 1053 -91 747 -37 
Q 441 16 72 128 
L 184 722 
Q 500 559 806 475 
Q 1113 391 1394 391 
Q 1816 391 2080 572 
Q 2344 753 2344 1031 
Q 2344 1331 1650 1516 
L 1591 1531 
L 1394 1581 
Q 956 1697 753 1886 
Q 550 2075 550 2369 
Q 550 2928 970 3256 
Q 1391 3584 2113 3584 
Q 2397 3584 2667 3537 
Q 2938 3491 3200 3397 
z
" transform="scale(0.015625)"/>
       <path id="DejaVuSans-2c" d="M 750 794 
L 1409 794 
L 1409 256 
L 897 -744 
L 494 -744 
L 750 256 
L 750 794 
z
" transform="scale(0.015625)"/>
       <path id="DejaVuSans-20" transform="scale(0.015625)"/>
       <path id="DejaVuSans-69" d="M 603 3500 
L 1178 3500 
L 1178 0 
L 603 0 
L 603 3500 
z
M 603 4863 
L 1178 4863 
L 1178 4134 
L 603 4134 
L 603 4863 
z
" transform="scale(0.015625)"/>
       <path id="DejaVuSans-6e" d="M 3513 2113 
L 3513 0 
L 2938 0 
L 2938 2094 
Q 2938 2591 2744 2837 
Q 2550 3084 2163 3084 
Q 1697 3084 1428 2787 
Q 1159 2491 1159 1978 
L 1159 0 
L 581 0 
L 581 3500 
L 1159 3500 
L 1159 2956 
Q 1366 3272 1645 3428 
Q 1925 3584 2291 3584 
Q 2894 3584 3203 3211 
Q 3513 2838 3513 2113 
z
" transform="scale(0.015625)"/>
       <path id="DejaVuSans-52" d="M 2841 2188 
Q 3044 2119 3236 1894 
Q 3428 1669 3622 1275 
L 4263 0 
L 3584 0 
L 2988 1197 
Q 2756 1666 2539 1819 
Q 2322 1972 1947 1972 
L 1259 1972 
L 1259 0 
L 628 0 
L 628 4666 
L 2053 4666 
Q 2853 4666 3247 4331 
Q 3641 3997 3641 3322 
Q 3641 2881 3436 2590 
Q 3231 2300 2841 2188 
z
M 1259 4147 
L 1259 2491 
L 2053 2491 
Q 2509 2491 2742 2702 
Q 2975 2913 2975 3322 
Q 2975 3731 2742 3939 
Q 2509 4147 2053 4147 
L 1259 4147 
z
" transform="scale(0.015625)"/>
       <path id="DejaVuSans-61" d="M 2194 1759 
Q 1497 1759 1228 1600 
Q 959 1441 959 1056 
Q 959 750 1161 570 
Q 1363 391 1709 391 
Q 2188 391 2477 730 
Q 2766 1069 2766 1631 
L 2766 1759 
L 2194 1759 
z
M 3341 1997 
L 3341 0 
L 2766 0 
L 2766 531 
Q 2569 213 2275 61 
Q 1981 -91 1556 -91 
Q 1019 -91 701 211 
Q 384 513 384 1019 
Q 384 1609 779 1909 
Q 1175 2209 1959 2209 
L 2766 2209 
L 2766 2266 
Q 2766 2663 2505 2880 
Q 2244 3097 1772 3097 
Q 1472 3097 1187 3025 
Q 903 2953 641 2809 
L 641 3341 
Q 956 3463 1253 3523 
Q 1550 3584 1831 3584 
Q 2591 3584 2966 3190 
Q 3341 2797 3341 1997 
z
" transform="scale(0.015625)"/>
       <path id="DejaVuSans-64" d="M 2906 2969 
L 2906 4863 
L 3481 4863 
L 3481 0 
L 2906 0 
L 2906 525 
Q 2725 213 2448 61 
Q 2172 -91 1784 -91 
Q 1150 -91 751 415 
Q 353 922 353 1747 
Q 353 2572 751 3078 
Q 1150 3584 1784 3584 
Q 2172 3584 2448 3432 
Q 2725 3281 2906 2969 
z
M 947 1747 
Q 947 1113 1208 752 
Q 1469 391 1925 391 
Q 2381 391 2643 752 
Q 2906 1113 2906 1747 
Q 2906 2381 2643 2742 
Q 2381 3103 1925 3103 
Q 1469 3103 1208 2742 
Q 947 2381 947 1747 
z
" transform="scale(0.015625)"/>
       <path id="DejaVuSans-73" d="M 2834 3397 
L 2834 2853 
Q 2591 2978 2328 3040 
Q 2066 3103 1784 3103 
Q 1356 3103 1142 2972 
Q 928 2841 928 2578 
Q 928 2378 1081 2264 
Q 1234 2150 1697 2047 
L 1894 2003 
Q 2506 1872 2764 1633 
Q 3022 1394 3022 966 
Q 3022 478 2636 193 
Q 2250 -91 1575 -91 
Q 1294 -91 989 -36 
Q 684 19 347 128 
L 347 722 
Q 666 556 975 473 
Q 1284 391 1588 391 
Q 1994 391 2212 530 
Q 2431 669 2431 922 
Q 2431 1156 2273 1281 
Q 2116 1406 1581 1522 
L 1381 1569 
Q 847 1681 609 1914 
Q 372 2147 372 2553 
Q 372 3047 722 3315 
Q 1072 3584 1716 3584 
Q 2034 3584 2315 3537 
Q 2597 3491 2834 3397 
z
" transform="scale(0.015625)"/>
      </defs>
      <use xlink:href="#DejaVuSans-Oblique-3b8" transform="translate(0 0.234375)"/>
      <use xlink:href="#DejaVuSans-Oblique-73" transform="translate(61.181641 -16.171875) scale(0.7)"/>
      <use xlink:href="#DejaVuSans-2c" transform="translate(97.651367 -16.171875) scale(0.7)"/>
      <use xlink:href="#DejaVuSans-Oblique-76" transform="translate(133.540039 -16.171875) scale(0.7)"/>
      <use xlink:href="#DejaVuSans-31" transform="translate(174.96582 -27.65625) scale(0.49)"/>
      <use xlink:href="#DejaVuSans-20" transform="translate(210.789551 0.234375)"/>
      <use xlink:href="#DejaVuSans-69" transform="translate(242.57666 0.234375)"/>
      <use xlink:href="#DejaVuSans-6e" transform="translate(270.359863 0.234375)"/>
      <use xlink:href="#DejaVuSans-20" transform="translate(333.73877 0.234375)"/>
      <use xlink:href="#DejaVuSans-52" transform="translate(365.525879 0.234375)"/>
      <use xlink:href="#DejaVuSans-61" transform="translate(435.008301 0.234375)"/>
      <use xlink:href="#DejaVuSans-64" transform="translate(496.287598 0.234375)"/>
      <use xlink:href="#DejaVuSans-69" transform="translate(559.76416 0.234375)"/>
      <use xlink:href="#DejaVuSans-61" transform="translate(587.547363 0.234375)"/>
      <use xlink:href="#DejaVuSans-6e" transform="translate(648.82666 0.234375)"/>
      <use xlink:href="#DejaVuSans-73" transform="translate(712.205566 0.234375)"/>
     </g>
    </g>
   </g>
   <g id="line2d_53">
    <path d="M 293.07338 293.605622 
L 285.185337 292.790599 
L 278.455582 291.878698 
L 272.313975 290.82188 
L 266.799676 289.644285 
L 261.880096 288.370355 
L 257.28511 286.951995 
L 254.238835 285.813089 
L 249.979642 284.10064 
L 246.440699 282.459867 
L 246.201214 282.298928 
L 243.093749 280.697212 
L 242.966306 280.560279 
L 242.629318 280.553869 
L 242.46236 280.348365 
L 239.655758 278.698682 
L 239.431157 278.512573 
L 236.131151 276.277197 
L 233.722412 274.469559 
L 233.540795 274.259241 
L 230.430471 271.639033 
L 227.384124 268.780409 
L 224.34467 265.619195 
L 221.23601 262.039354 
L 218.872667 258.994396 
L 215.96046 254.955674 
L 213.144915 250.67671 
L 210.262267 245.893304 
L 207.324638 240.588871 
L 204.092512 234.271042 
L 201.066582 227.762317 
L 197.685379 219.937788 
L 194.230946 211.364263 
L 189.695408 199.448959 
L 184.659924 185.410128 
L 170.096706 144.457946 
L 166.056817 134.086304 
L 162.590701 125.76393 
L 159.256692 118.340937 
L 156.186492 112.018183 
L 153.118926 106.200397 
L 148.834987 98.900829 
L 145.692135 94.108226 
L 145.592344 93.998991 
L 144.455672 92.353845 
L 141.595441 88.558052 
L 140.493236 87.185343 
L 137.922472 84.180789 
L 137.83638 84.130959 
L 132.76097 78.891745 
L 132.657981 78.844999 
L 129.840105 76.31826 
L 126.549238 73.675589 
L 123.036898 71.180159 
L 117.007216 67.617832 
L 112.384801 65.357528 
L 108.473759 63.723399 
L 104.267734 62.209075 
L 99.803514 60.83887 
L 94.968941 59.588581 
L 89.703184 58.459123 
L 85.422719 57.68931 
L 85.131246 57.641699 
L 77.955798 56.607829 
L 73.832727 56.127876 
L 73.832727 56.127876 
" clip-path="url(#p60a482ca62)" style="fill: none; stroke: #fdd0a2; stroke-width: 1.5; stroke-linecap: square"/>
   </g>
   <g id="line2d_54">
    <path d="M 295.912439 293.767765 
L 287.823993 292.985475 
L 280.828475 292.090765 
L 274.535915 291.061012 
L 268.935371 289.918537 
L 263.883437 288.663544 
L 259.208483 287.27365 
L 255.643548 285.997414 
L 251.482896 284.356837 
L 247.736536 282.648615 
L 244.684196 281.079515 
L 241.570778 279.239321 
L 238.60845 277.333319 
L 235.990338 275.423648 
L 232.840474 272.905853 
L 229.813318 270.206022 
L 226.857641 267.279248 
L 223.918105 264.062702 
L 220.904208 260.429428 
L 218.535932 257.254318 
L 215.65257 253.086271 
L 212.81117 248.590811 
L 209.884271 243.536491 
L 206.884849 237.898956 
L 203.775705 231.560346 
L 200.685733 224.744654 
L 197.353618 216.832897 
L 193.753715 207.684443 
L 189.69748 196.759351 
L 183.966436 180.618041 
L 183.798801 180.094726 
L 170.38616 142.58507 
L 166.589033 132.895702 
L 163.225429 124.89423 
L 163.214502 124.923622 
L 163.159823 124.79278 
L 161.002954 119.918304 
L 157.902455 113.408076 
L 154.827633 107.460935 
L 151.824125 102.129352 
L 148.927203 97.429328 
L 145.934388 92.994138 
L 144.377489 90.842289 
L 141.441304 87.088772 
L 138.64482 83.838899 
L 135.625717 80.664262 
L 132.564971 77.766695 
L 129.770118 75.421193 
L 126.380257 72.793768 
L 122.88434 70.412022 
L 115.911643 66.529726 
L 112.105238 64.782638 
L 108.099372 63.190393 
L 103.890496 61.75158 
L 99.293425 60.415405 
L 94.3368 59.207183 
L 88.976981 58.129804 
L 82.819768 57.12725 
L 76.671786 56.328062 
L 76.671786 56.328062 
" clip-path="url(#p60a482ca62)" style="fill: none; stroke: #fdae6b; stroke-width: 1.5; stroke-linecap: square"/>
   </g>
   <g id="line2d_55">
    <path d="M 300.825299 294.022093 
L 292.340462 293.288973 
L 284.832489 292.416558 
L 278.372296 291.444376 
L 272.683458 290.372339 
L 267.510567 289.180466 
L 263.437407 288.030784 
L 258.906529 286.597228 
L 254.385727 284.923797 
L 250.93096 283.416915 
L 248.015693 281.954823 
L 244.182591 279.839569 
L 239.73747 276.940591 
L 236.452816 274.501219 
L 233.645517 272.167295 
L 230.584216 269.349014 
L 227.604065 266.299242 
L 224.704085 263.015283 
L 221.833937 259.437416 
L 218.828789 255.324563 
L 216.481135 251.766862 
L 213.553494 246.991609 
L 210.658801 241.836739 
L 207.726345 236.159565 
L 204.638664 229.684806 
L 201.644323 222.903716 
L 198.264031 214.698986 
L 194.65329 205.340846 
L 190.347215 193.535067 
L 185.570365 179.851625 
L 176.206767 152.953646 
L 171.694054 140.705812 
L 167.919202 131.089586 
L 164.981327 124.127853 
L 161.746803 116.970414 
L 158.627978 110.608423 
L 155.625041 104.985284 
L 152.70471 99.975721 
L 152.619568 99.836991 
L 149.176004 94.494931 
L 146.667471 90.953653 
L 146.417094 90.62199 
L 143.696032 87.147727 
L 143.626939 87.061484 
L 141.572406 84.645016 
L 138.406382 81.182513 
L 138.323219 81.14662 
L 134.460885 77.460996 
L 130.459707 74.168721 
L 127.878103 72.295328 
L 122.838239 69.019361 
L 120.509218 67.720349 
L 119.650199 67.287739 
L 119.540894 67.228731 
L 116.225678 65.613195 
L 112.306972 63.940253 
L 108.14496 62.409676 
L 103.720154 61.020291 
L 99.133663 59.800581 
L 96.058917 59.090099 
L 90.107746 57.904568 
L 81.584647 56.645244 
L 81.584647 56.645244 
" clip-path="url(#p60a482ca62)" style="fill: none; stroke: #fd8d3c; stroke-width: 1.5; stroke-linecap: square"/>
   </g>
   <g id="line2d_56">
    <path d="M 311.751016 294.4803 
L 301.922962 293.807605 
L 293.749507 293.027551 
L 286.727357 292.139929 
L 280.47299 291.129021 
L 275.116411 290.04639 
L 269.88948 288.792048 
L 265.701799 287.571608 
L 261.348852 286.094305 
L 257.228192 284.459479 
L 253.452062 282.727484 
L 249.847205 280.834482 
L 246.207827 278.66674 
L 242.097081 275.815117 
L 238.94589 273.335745 
L 235.921536 270.677717 
L 232.915924 267.737055 
L 229.997076 264.572191 
L 227.234778 261.258635 
L 224.418122 257.546275 
L 221.550512 253.389936 
L 218.747334 248.937386 
L 216.022022 244.199386 
L 213.135362 238.738564 
L 210.177572 232.646111 
L 207.179694 225.946816 
L 204.049924 218.392693 
L 200.802854 209.97183 
L 197.220548 200.055964 
L 193.019653 187.744708 
L 186.516329 167.878543 
L 179.401355 146.415839 
L 179.357977 146.31142 
L 177.720404 141.585276 
L 172.737025 128.113203 
L 169.694785 120.626905 
L 166.003663 112.321103 
L 163.219591 106.656696 
L 160.424577 101.470442 
L 157.634712 96.757892 
L 154.850873 92.504784 
L 152.398891 89.041901 
L 152.37403 89.060335 
L 152.349146 89.080032 
L 152.324241 88.99368 
L 152.099116 88.696151 
L 149.332099 85.232748 
L 146.723842 82.291857 
L 146.571591 82.111634 
L 143.303901 78.805831 
L 140.297507 76.100217 
L 137.352505 73.734299 
L 136.487433 73.080122 
L 134.951177 71.970772 
L 134.717815 71.821969 
L 131.329025 69.615357 
L 127.943815 67.691807 
L 123.728289 65.572221 
L 118.052061 63.22988 
L 113.849412 61.783129 
L 109.352729 60.467188 
L 104.531747 59.278836 
L 104.24492 59.214123 
L 98.658345 58.075292 
L 92.510363 57.098213 
L 92.510363 57.098213 
" clip-path="url(#p60a482ca62)" style="fill: none; stroke: #f16913; stroke-width: 1.5; stroke-linecap: square"/>
   </g>
   <g id="line2d_57">
    <path d="M 355.119145 295.307767 
L 341.296643 294.83273 
L 330.417242 294.244444 
L 321.183722 293.526525 
L 314.012817 292.763995 
L 307.171549 291.826444 
L 301.180264 290.7818 
L 295.768176 289.617203 
L 290.874073 288.342877 
L 286.390435 286.954005 
L 282.162039 285.414657 
L 278.222038 283.745879 
L 274.560905 281.960736 
L 271.041384 280.000389 
L 267.664375 277.863006 
L 264.423161 275.543044 
L 261.72509 273.3892 
L 258.72496 270.726443 
L 255.807029 267.83662 
L 252.96939 264.710625 
L 250.208373 261.337826 
L 247.503055 257.682218 
L 244.834271 253.699863 
L 242.225942 249.405479 
L 239.610995 244.668961 
L 237.033232 239.53274 
L 234.454002 233.881581 
L 231.906457 227.751024 
L 229.375588 221.072619 
L 226.878095 213.850283 
L 224.376009 205.925094 
L 221.804666 197.020574 
L 219.275172 187.431487 
L 216.781818 177.102779 
L 214.198112 165.458153 
L 211.506489 152.277354 
L 208.50878 136.434868 
L 201.496612 98.811296 
L 199.903691 91.886715 
L 198.536763 86.872563 
L 197.220616 82.836361 
L 195.940449 79.563942 
L 194.522616 76.567498 
L 193.194137 74.268829 
L 191.685728 72.059149 
L 190.182925 70.234936 
L 188.46656 68.491656 
L 186.568857 66.884054 
L 183.280334 64.671421 
L 180.291503 63.086544 
L 179.987072 62.955151 
L 177.517625 61.886205 
L 177.034843 61.719495 
L 173.448684 60.460903 
L 164.676424 58.253104 
L 158.306726 57.135764 
L 158.013999 57.077182 
L 156.912715 56.926122 
L 150.482713 56.114645 
L 148.324481 55.886614 
L 147.756843 55.827093 
L 143.744051 55.45538 
L 142.553325 55.346245 
L 141.489127 55.288462 
L 140.755598 55.208382 
L 138.829447 55.092926 
L 135.878492 54.886436 
L 135.878492 54.886436 
" clip-path="url(#p60a482ca62)" style="fill: none; stroke: #d94801; stroke-width: 1.5; stroke-linecap: square"/>
   </g>
   <g id="line2d_58">
    <path d="M 398.487273 295.488 
L 382.643827 295.066376 
L 370.53611 294.528365 
L 360.763766 293.878543 
L 352.487244 293.110412 
L 345.258222 292.216588 
L 338.984876 291.220733 
L 333.337269 290.102325 
L 328.18397 288.856258 
L 323.496757 287.496081 
L 319.216534 286.026811 
L 315.166585 284.404926 
L 311.362492 282.641637 
L 307.768911 280.729598 
L 304.384511 278.678235 
L 301.154749 276.462644 
L 298.043957 274.059042 
L 295.03866 271.45375 
L 292.152134 268.657129 
L 289.347194 265.629165 
L 286.58318 262.313842 
L 286.004841 261.571441 
L 283.325115 257.920565 
L 280.761341 254.050649 
L 278.217244 249.808657 
L 275.727762 245.222552 
L 273.271349 240.224646 
L 270.866963 234.821766 
L 268.5211 229.000483 
L 266.202596 222.647269 
L 263.945402 215.804706 
L 261.721743 208.342737 
L 259.576246 200.350413 
L 257.511737 191.801763 
L 255.503101 182.533311 
L 253.580137 172.596397 
L 251.747025 161.941456 
L 250.024701 150.597826 
L 248.418757 138.517404 
L 246.952323 125.792197 
L 245.57036 111.80724 
L 244.287863 96.5283 
L 242.308395 72.596266 
L 241.678275 68.098886 
L 241.080638 65.331256 
L 240.422896 63.289905 
L 239.701091 61.763895 
L 238.885553 60.556553 
L 238.507028 60.116833 
L 238.25186 59.855332 
L 237.603762 59.262322 
L 237.234273 58.987355 
L 235.846041 58.136738 
L 235.818128 58.163175 
L 235.76222 58.097751 
L 233.852125 57.305616 
L 232.154694 56.784051 
L 231.445775 56.605337 
L 229.239196 56.141086 
L 229.097507 56.11356 
L 228.631954 56.031032 
L 226.218323 55.664784 
L 225.459174 55.564249 
L 225.337373 55.548574 
L 223.917913 55.381002 
L 223.572995 55.343041 
L 217.691326 54.82183 
L 215.970666 54.703034 
L 206.055711 54.198719 
L 205.217406 54.171692 
L 203.458666 54.102407 
L 202.815074 54.08015 
L 200.686518 54.010914 
L 186.7773 53.683186 
L 179.468453 53.571434 
L 179.24662 53.568 
L 179.24662 53.568 
" clip-path="url(#p60a482ca62)" style="fill: none; stroke: #8c2d04; stroke-width: 1.5; stroke-linecap: square"/>
   </g>
   <g id="patch_3">
    <path d="M 57.6 307.584 
L 57.6 41.472 
" style="fill: none; stroke: #000000; stroke-width: 0.8; stroke-linejoin: miter; stroke-linecap: square"/>
   </g>
   <g id="patch_4">
    <path d="M 414.72 307.584 
L 414.72 41.472 
" style="fill: none; stroke: #000000; stroke-width: 0.8; stroke-linejoin: miter; stroke-linecap: square"/>
   </g>
   <g id="patch_5">
    <path d="M 57.6 307.584 
L 414.72 307.584 
" style="fill: none; stroke: #000000; stroke-width: 0.8; stroke-linejoin: miter; stroke-linecap: square"/>
   </g>
   <g id="patch_6">
    <path d="M 57.6 41.472 
L 414.72 41.472 
" style="fill: none; stroke: #000000; stroke-width: 0.8; stroke-linejoin: miter; stroke-linecap: square"/>
   </g>
  </g>
  <g id="axes_2">
   <g id="patch_7">
    <path d="M 322.56 259.2 
L 336.384 259.2 
L 336.384 120.96 
L 322.56 120.96 
z
" style="fill: #ffffff"/>
   </g>
   <g id="QuadMesh_1">
    <path d="M 322.56 259.2 
L 336.384 259.2 
L 336.384 236.16 
L 322.56 236.16 
L 322.56 259.2 
" clip-path="url(#pabc1c4c4ad)" style="fill: #fdd0a2"/>
    <path d="M 322.56 236.16 
L 336.384 236.16 
L 336.384 213.12 
L 322.56 213.12 
L 322.56 236.16 
" clip-path="url(#pabc1c4c4ad)" style="fill: #fdae6b"/>
    <path d="M 322.56 213.12 
L 336.384 213.12 
L 336.384 190.08 
L 322.56 190.08 
L 322.56 213.12 
" clip-path="url(#pabc1c4c4ad)" style="fill: #fd8d3c"/>
    <path d="M 322.56 190.08 
L 336.384 190.08 
L 336.384 167.04 
L 322.56 167.04 
L 322.56 190.08 
" clip-path="url(#pabc1c4c4ad)" style="fill: #f16913"/>
    <path d="M 322.56 167.04 
L 336.384 167.04 
L 336.384 144 
L 322.56 144 
L 322.56 167.04 
" clip-path="url(#pabc1c4c4ad)" style="fill: #d94801"/>
    <path d="M 322.56 144 
L 336.384 144 
L 336.384 120.96 
L 322.56 120.96 
L 322.56 144 
" clip-path="url(#pabc1c4c4ad)" style="fill: #8c2d04"/>
   </g>
   <g id="matplotlib.axis_3"/>
   <g id="matplotlib.axis_4">
    <g id="ytick_4">
     <g id="line2d_59">
      <defs>
       <path id="meb9ea1d183" d="M 0 0 
L 3.5 0 
" style="stroke: #000000; stroke-width: 0.8"/>
      </defs>
      <g>
       <use xlink:href="#meb9ea1d183" x="336.384" y="250.266122" style="stroke: #000000; stroke-width: 0.8"/>
      </g>
     </g>
     <g id="text_11">
      <!-- 1.00 -->
      <g transform="translate(343.384 255.964951) scale(0.15 -0.15)">
       <defs>
        <path id="DejaVuSans-2e" d="M 684 794 
L 1344 794 
L 1344 0 
L 684 0 
L 684 794 
z
" transform="scale(0.015625)"/>
       </defs>
       <use xlink:href="#DejaVuSans-31"/>
       <use xlink:href="#DejaVuSans-2e" x="63.623047"/>
       <use xlink:href="#DejaVuSans-30" x="95.410156"/>
       <use xlink:href="#DejaVuSans-30" x="159.033203"/>
      </g>
     </g>
    </g>
    <g id="ytick_5">
     <g id="line2d_60">
      <g>
       <use xlink:href="#meb9ea1d183" x="336.384" y="226.755918" style="stroke: #000000; stroke-width: 0.8"/>
      </g>
     </g>
     <g id="text_12">
      <!-- 1.11 -->
      <g transform="translate(343.384 232.454746) scale(0.15 -0.15)">
       <use xlink:href="#DejaVuSans-31"/>
       <use xlink:href="#DejaVuSans-2e" x="63.623047"/>
       <use xlink:href="#DejaVuSans-31" x="95.410156"/>
       <use xlink:href="#DejaVuSans-31" x="159.033203"/>
      </g>
     </g>
    </g>
    <g id="ytick_6">
     <g id="line2d_61">
      <g>
       <use xlink:href="#meb9ea1d183" x="336.384" y="203.245714" style="stroke: #000000; stroke-width: 0.8"/>
      </g>
     </g>
     <g id="text_13">
      <!-- 1.33 -->
      <g transform="translate(343.384 208.944542) scale(0.15 -0.15)">
       <use xlink:href="#DejaVuSans-31"/>
       <use xlink:href="#DejaVuSans-2e" x="63.623047"/>
       <use xlink:href="#DejaVuSans-33" x="95.410156"/>
       <use xlink:href="#DejaVuSans-33" x="159.033203"/>
      </g>
     </g>
    </g>
    <g id="ytick_7">
     <g id="line2d_62">
      <g>
       <use xlink:href="#meb9ea1d183" x="336.384" y="179.73551" style="stroke: #000000; stroke-width: 0.8"/>
      </g>
     </g>
     <g id="text_14">
      <!-- 2.00 -->
      <g transform="translate(343.384 185.434338) scale(0.15 -0.15)">
       <use xlink:href="#DejaVuSans-32"/>
       <use xlink:href="#DejaVuSans-2e" x="63.623047"/>
       <use xlink:href="#DejaVuSans-30" x="95.410156"/>
       <use xlink:href="#DejaVuSans-30" x="159.033203"/>
      </g>
     </g>
    </g>
    <g id="ytick_8">
     <g id="line2d_63">
      <g>
       <use xlink:href="#meb9ea1d183" x="336.384" y="156.225306" style="stroke: #000000; stroke-width: 0.8"/>
      </g>
     </g>
     <g id="text_15">
      <!-- 10.00 -->
      <g transform="translate(343.384 161.924134) scale(0.15 -0.15)">
       <use xlink:href="#DejaVuSans-31"/>
       <use xlink:href="#DejaVuSans-30" x="63.623047"/>
       <use xlink:href="#DejaVuSans-2e" x="127.246094"/>
       <use xlink:href="#DejaVuSans-30" x="159.033203"/>
       <use xlink:href="#DejaVuSans-30" x="222.65625"/>
      </g>
     </g>
    </g>
    <g id="ytick_9">
     <g id="line2d_64">
      <g>
       <use xlink:href="#meb9ea1d183" x="336.384" y="132.715102" style="stroke: #000000; stroke-width: 0.8"/>
      </g>
     </g>
     <g id="text_16">
      <!-- 50.00 -->
      <g transform="translate(343.384 138.41393) scale(0.15 -0.15)">
       <defs>
        <path id="DejaVuSans-35" d="M 691 4666 
L 3169 4666 
L 3169 4134 
L 1269 4134 
L 1269 2991 
Q 1406 3038 1543 3061 
Q 1681 3084 1819 3084 
Q 2600 3084 3056 2656 
Q 3513 2228 3513 1497 
Q 3513 744 3044 326 
Q 2575 -91 1722 -91 
Q 1428 -91 1123 -41 
Q 819 9 494 109 
L 494 744 
Q 775 591 1075 516 
Q 1375 441 1709 441 
Q 2250 441 2565 725 
Q 2881 1009 2881 1497 
Q 2881 1984 2565 2268 
Q 2250 2553 1709 2553 
Q 1456 2553 1204 2497 
Q 953 2441 691 2322 
L 691 4666 
z
" transform="scale(0.015625)"/>
       </defs>
       <use xlink:href="#DejaVuSans-35"/>
       <use xlink:href="#DejaVuSans-30" x="63.623047"/>
       <use xlink:href="#DejaVuSans-2e" x="127.246094"/>
       <use xlink:href="#DejaVuSans-30" x="159.033203"/>
       <use xlink:href="#DejaVuSans-30" x="222.65625"/>
      </g>
     </g>
    </g>
   </g>
   <g id="LineCollection_1"/>
   <g id="patch_8">
    <path d="M 322.56 259.2 
L 329.472 259.2 
L 336.384 259.2 
L 336.384 120.96 
L 329.472 120.96 
L 322.56 120.96 
L 322.56 259.2 
z
" style="fill: none; stroke: #000000; stroke-width: 0.8; stroke-linejoin: miter; stroke-linecap: square"/>
   </g>
   <g id="text_17">
    <!--             Mode Gap -->
    <g transform="translate(267.319656 114.96) scale(0.14 -0.14)">
     <defs>
      <path id="DejaVuSans-4d" d="M 628 4666 
L 1569 4666 
L 2759 1491 
L 3956 4666 
L 4897 4666 
L 4897 0 
L 4281 0 
L 4281 4097 
L 3078 897 
L 2444 897 
L 1241 4097 
L 1241 0 
L 628 0 
L 628 4666 
z
" transform="scale(0.015625)"/>
      <path id="DejaVuSans-6f" d="M 1959 3097 
Q 1497 3097 1228 2736 
Q 959 2375 959 1747 
Q 959 1119 1226 758 
Q 1494 397 1959 397 
Q 2419 397 2687 759 
Q 2956 1122 2956 1747 
Q 2956 2369 2687 2733 
Q 2419 3097 1959 3097 
z
M 1959 3584 
Q 2709 3584 3137 3096 
Q 3566 2609 3566 1747 
Q 3566 888 3137 398 
Q 2709 -91 1959 -91 
Q 1206 -91 779 398 
Q 353 888 353 1747 
Q 353 2609 779 3096 
Q 1206 3584 1959 3584 
z
" transform="scale(0.015625)"/>
      <path id="DejaVuSans-65" d="M 3597 1894 
L 3597 1613 
L 953 1613 
Q 991 1019 1311 708 
Q 1631 397 2203 397 
Q 2534 397 2845 478 
Q 3156 559 3463 722 
L 3463 178 
Q 3153 47 2828 -22 
Q 2503 -91 2169 -91 
Q 1331 -91 842 396 
Q 353 884 353 1716 
Q 353 2575 817 3079 
Q 1281 3584 2069 3584 
Q 2775 3584 3186 3129 
Q 3597 2675 3597 1894 
z
M 3022 2063 
Q 3016 2534 2758 2815 
Q 2500 3097 2075 3097 
Q 1594 3097 1305 2825 
Q 1016 2553 972 2059 
L 3022 2063 
z
" transform="scale(0.015625)"/>
      <path id="DejaVuSans-47" d="M 3809 666 
L 3809 1919 
L 2778 1919 
L 2778 2438 
L 4434 2438 
L 4434 434 
Q 4069 175 3628 42 
Q 3188 -91 2688 -91 
Q 1594 -91 976 548 
Q 359 1188 359 2328 
Q 359 3472 976 4111 
Q 1594 4750 2688 4750 
Q 3144 4750 3555 4637 
Q 3966 4525 4313 4306 
L 4313 3634 
Q 3963 3931 3569 4081 
Q 3175 4231 2741 4231 
Q 1884 4231 1454 3753 
Q 1025 3275 1025 2328 
Q 1025 1384 1454 906 
Q 1884 428 2741 428 
Q 3075 428 3337 486 
Q 3600 544 3809 666 
z
" transform="scale(0.015625)"/>
      <path id="DejaVuSans-70" d="M 1159 525 
L 1159 -1331 
L 581 -1331 
L 581 3500 
L 1159 3500 
L 1159 2969 
Q 1341 3281 1617 3432 
Q 1894 3584 2278 3584 
Q 2916 3584 3314 3078 
Q 3713 2572 3713 1747 
Q 3713 922 3314 415 
Q 2916 -91 2278 -91 
Q 1894 -91 1617 61 
Q 1341 213 1159 525 
z
M 3116 1747 
Q 3116 2381 2855 2742 
Q 2594 3103 2138 3103 
Q 1681 3103 1420 2742 
Q 1159 2381 1159 1747 
Q 1159 1113 1420 752 
Q 1681 391 2138 391 
Q 2594 391 2855 752 
Q 3116 1113 3116 1747 
z
" transform="scale(0.015625)"/>
     </defs>
     <use xlink:href="#DejaVuSans-20"/>
     <use xlink:href="#DejaVuSans-20" x="31.787109"/>
     <use xlink:href="#DejaVuSans-20" x="63.574219"/>
     <use xlink:href="#DejaVuSans-20" x="95.361328"/>
     <use xlink:href="#DejaVuSans-20" x="127.148438"/>
     <use xlink:href="#DejaVuSans-20" x="158.935547"/>
     <use xlink:href="#DejaVuSans-20" x="190.722656"/>
     <use xlink:href="#DejaVuSans-20" x="222.509766"/>
     <use xlink:href="#DejaVuSans-20" x="254.296875"/>
     <use xlink:href="#DejaVuSans-20" x="286.083984"/>
     <use xlink:href="#DejaVuSans-20" x="317.871094"/>
     <use xlink:href="#DejaVuSans-20" x="349.658203"/>
     <use xlink:href="#DejaVuSans-4d" x="381.445312"/>
     <use xlink:href="#DejaVuSans-6f" x="467.724609"/>
     <use xlink:href="#DejaVuSans-64" x="528.90625"/>
     <use xlink:href="#DejaVuSans-65" x="592.382812"/>
     <use xlink:href="#DejaVuSans-20" x="653.90625"/>
     <use xlink:href="#DejaVuSans-47" x="685.693359"/>
     <use xlink:href="#DejaVuSans-61" x="763.183594"/>
     <use xlink:href="#DejaVuSans-70" x="824.462891"/>
    </g>
   </g>
  </g>
 </g>
 <defs>
  <clipPath id="p60a482ca62">
   <rect x="57.6" y="41.472" width="357.12" height="266.112"/>
  </clipPath>
  <clipPath id="pabc1c4c4ad">
   <rect x="322.56" y="120.96" width="13.824" height="138.24"/>
  </clipPath>
 </defs>
</svg>
