<?xml version="1.0" encoding="utf-8" standalone="no"?>
<!DOCTYPE svg PUBLIC "-//W3C//DTD SVG 1.1//EN"
  "http://www.w3.org/Graphics/SVG/1.1/DTD/svg11.dtd">
<svg xmlns:xlink="http://www.w3.org/1999/xlink" width="460.8pt" height="345.6pt" viewBox="0 0 460.8 345.6" xmlns="http://www.w3.org/2000/svg" version="1.1">
 <metadata>
  <rdf:RDF xmlns:dc="http://purl.org/dc/elements/1.1/" xmlns:cc="http://creativecommons.org/ns#" xmlns:rdf="http://www.w3.org/1999/02/22-rdf-syntax-ns#">
   <cc:Work>
    <dc:type rdf:resource="http://purl.org/dc/dcmitype/StillImage"/>
    <dc:date>2023-08-06T18:12:44.454621</dc:date>
    <dc:format>image/svg+xml</dc:format>
    <dc:creator>
     <cc:Agent>
      <dc:title>Matplotlib v3.7.2, https://matplotlib.org/</dc:title>
     </cc:Agent>
    </dc:creator>
   </cc:Work>
  </rdf:RDF>
 </metadata>
 <defs>
  <style type="text/css">*{stroke-linejoin: round; stroke-linecap: butt}</style>
 </defs>
 <g id="figure_1">
  <g id="patch_1">
   <path d="M 0 345.6 
L 460.8 345.6 
L 460.8 0 
L 0 0 
z
" style="fill: #ffffff"/>
  </g>
  <g id="axes_1">
   <g id="patch_2">
    <path d="M 57.6 307.584 
L 414.72 307.584 
L 414.72 41.472 
L 57.6 41.472 
z
" style="fill: #ffffff"/>
   </g>
   <g id="matplotlib.axis_1">
    <g id="xtick_1">
     <g id="line2d_1">
      <defs>
       <path id="md89425df30" d="M 0 0 
L 0 3.5 
" style="stroke: #000000; stroke-width: 0.8"/>
      </defs>
      <g>
       <use xlink:href="#md89425df30" x="73.832727" y="307.584" style="stroke: #000000; stroke-width: 0.8"/>
      </g>
     </g>
     <g id="text_1">
      <!-- $\mathdefault{10^{0}}$ -->
      <g transform="translate(56.232727 329.780875) scale(0.2 -0.2)">
       <defs>
        <path id="DejaVuSans-31" d="M 794 531 
L 1825 531 
L 1825 4091 
L 703 3866 
L 703 4441 
L 1819 4666 
L 2450 4666 
L 2450 531 
L 3481 531 
L 3481 0 
L 794 0 
L 794 531 
z
" transform="scale(0.015625)"/>
        <path id="DejaVuSans-30" d="M 2034 4250 
Q 1547 4250 1301 3770 
Q 1056 3291 1056 2328 
Q 1056 1369 1301 889 
Q 1547 409 2034 409 
Q 2525 409 2770 889 
Q 3016 1369 3016 2328 
Q 3016 3291 2770 3770 
Q 2525 4250 2034 4250 
z
M 2034 4750 
Q 2819 4750 3233 4129 
Q 3647 3509 3647 2328 
Q 3647 1150 3233 529 
Q 2819 -91 2034 -91 
Q 1250 -91 836 529 
Q 422 1150 422 2328 
Q 422 3509 836 4129 
Q 1250 4750 2034 4750 
z
" transform="scale(0.015625)"/>
       </defs>
       <use xlink:href="#DejaVuSans-31" transform="translate(0 0.765625)"/>
       <use xlink:href="#DejaVuSans-30" transform="translate(63.623047 0.765625)"/>
       <use xlink:href="#DejaVuSans-30" transform="translate(128.203125 39.046875) scale(0.7)"/>
      </g>
     </g>
    </g>
    <g id="xtick_2">
     <g id="line2d_2">
      <g>
       <use xlink:href="#md89425df30" x="236.16" y="307.584" style="stroke: #000000; stroke-width: 0.8"/>
      </g>
     </g>
     <g id="text_2">
      <!-- $\mathdefault{10^{1}}$ -->
      <g transform="translate(218.56 329.780875) scale(0.2 -0.2)">
       <use xlink:href="#DejaVuSans-31" transform="translate(0 0.684375)"/>
       <use xlink:href="#DejaVuSans-30" transform="translate(63.623047 0.684375)"/>
       <use xlink:href="#DejaVuSans-31" transform="translate(128.203125 38.965625) scale(0.7)"/>
      </g>
     </g>
    </g>
    <g id="xtick_3">
     <g id="line2d_3">
      <g>
       <use xlink:href="#md89425df30" x="398.487273" y="307.584" style="stroke: #000000; stroke-width: 0.8"/>
      </g>
     </g>
     <g id="text_3">
      <!-- $\mathdefault{10^{2}}$ -->
      <g transform="translate(380.887273 329.780875) scale(0.2 -0.2)">
       <defs>
        <path id="DejaVuSans-32" d="M 1228 531 
L 3431 531 
L 3431 0 
L 469 0 
L 469 531 
Q 828 903 1448 1529 
Q 2069 2156 2228 2338 
Q 2531 2678 2651 2914 
Q 2772 3150 2772 3378 
Q 2772 3750 2511 3984 
Q 2250 4219 1831 4219 
Q 1534 4219 1204 4116 
Q 875 4013 500 3803 
L 500 4441 
Q 881 4594 1212 4672 
Q 1544 4750 1819 4750 
Q 2544 4750 2975 4387 
Q 3406 4025 3406 3419 
Q 3406 3131 3298 2873 
Q 3191 2616 2906 2266 
Q 2828 2175 2409 1742 
Q 1991 1309 1228 531 
z
" transform="scale(0.015625)"/>
       </defs>
       <use xlink:href="#DejaVuSans-31" transform="translate(0 0.765625)"/>
       <use xlink:href="#DejaVuSans-30" transform="translate(63.623047 0.765625)"/>
       <use xlink:href="#DejaVuSans-32" transform="translate(128.203125 39.046875) scale(0.7)"/>
      </g>
     </g>
    </g>
    <g id="xtick_4">
     <g id="line2d_4">
      <defs>
       <path id="m1572634604" d="M 0 0 
L 0 2 
" style="stroke: #000000; stroke-width: 0.6"/>
      </defs>
      <g>
       <use xlink:href="#m1572634604" x="58.101589" y="307.584" style="stroke: #000000; stroke-width: 0.6"/>
      </g>
     </g>
    </g>
    <g id="xtick_5">
     <g id="line2d_5">
      <g>
       <use xlink:href="#m1572634604" x="66.405039" y="307.584" style="stroke: #000000; stroke-width: 0.6"/>
      </g>
     </g>
    </g>
    <g id="xtick_6">
     <g id="line2d_6">
      <g>
       <use xlink:href="#m1572634604" x="122.698105" y="307.584" style="stroke: #000000; stroke-width: 0.6"/>
      </g>
     </g>
    </g>
    <g id="xtick_7">
     <g id="line2d_7">
      <g>
       <use xlink:href="#m1572634604" x="151.282519" y="307.584" style="stroke: #000000; stroke-width: 0.6"/>
      </g>
     </g>
    </g>
    <g id="xtick_8">
     <g id="line2d_8">
      <g>
       <use xlink:href="#m1572634604" x="171.563484" y="307.584" style="stroke: #000000; stroke-width: 0.6"/>
      </g>
     </g>
    </g>
    <g id="xtick_9">
     <g id="line2d_9">
      <g>
       <use xlink:href="#m1572634604" x="187.294622" y="307.584" style="stroke: #000000; stroke-width: 0.6"/>
      </g>
     </g>
    </g>
    <g id="xtick_10">
     <g id="line2d_10">
      <g>
       <use xlink:href="#m1572634604" x="200.147898" y="307.584" style="stroke: #000000; stroke-width: 0.6"/>
      </g>
     </g>
    </g>
    <g id="xtick_11">
     <g id="line2d_11">
      <g>
       <use xlink:href="#m1572634604" x="211.015187" y="307.584" style="stroke: #000000; stroke-width: 0.6"/>
      </g>
     </g>
    </g>
    <g id="xtick_12">
     <g id="line2d_12">
      <g>
       <use xlink:href="#m1572634604" x="220.428862" y="307.584" style="stroke: #000000; stroke-width: 0.6"/>
      </g>
     </g>
    </g>
    <g id="xtick_13">
     <g id="line2d_13">
      <g>
       <use xlink:href="#m1572634604" x="228.732311" y="307.584" style="stroke: #000000; stroke-width: 0.6"/>
      </g>
     </g>
    </g>
    <g id="xtick_14">
     <g id="line2d_14">
      <g>
       <use xlink:href="#m1572634604" x="285.025378" y="307.584" style="stroke: #000000; stroke-width: 0.6"/>
      </g>
     </g>
    </g>
    <g id="xtick_15">
     <g id="line2d_15">
      <g>
       <use xlink:href="#m1572634604" x="313.609792" y="307.584" style="stroke: #000000; stroke-width: 0.6"/>
      </g>
     </g>
    </g>
    <g id="xtick_16">
     <g id="line2d_16">
      <g>
       <use xlink:href="#m1572634604" x="333.890756" y="307.584" style="stroke: #000000; stroke-width: 0.6"/>
      </g>
     </g>
    </g>
    <g id="xtick_17">
     <g id="line2d_17">
      <g>
       <use xlink:href="#m1572634604" x="349.621895" y="307.584" style="stroke: #000000; stroke-width: 0.6"/>
      </g>
     </g>
    </g>
    <g id="xtick_18">
     <g id="line2d_18">
      <g>
       <use xlink:href="#m1572634604" x="362.47517" y="307.584" style="stroke: #000000; stroke-width: 0.6"/>
      </g>
     </g>
    </g>
    <g id="xtick_19">
     <g id="line2d_19">
      <g>
       <use xlink:href="#m1572634604" x="373.34246" y="307.584" style="stroke: #000000; stroke-width: 0.6"/>
      </g>
     </g>
    </g>
    <g id="xtick_20">
     <g id="line2d_20">
      <g>
       <use xlink:href="#m1572634604" x="382.756135" y="307.584" style="stroke: #000000; stroke-width: 0.6"/>
      </g>
     </g>
    </g>
    <g id="xtick_21">
     <g id="line2d_21">
      <g>
       <use xlink:href="#m1572634604" x="391.059584" y="307.584" style="stroke: #000000; stroke-width: 0.6"/>
      </g>
     </g>
    </g>
    <g id="text_4">
     <!-- Mode Gap -->
     <g transform="translate(160.182656 360.735562) scale(0.3 -0.3)">
      <defs>
       <path id="DejaVuSans-4d" d="M 628 4666 
L 1569 4666 
L 2759 1491 
L 3956 4666 
L 4897 4666 
L 4897 0 
L 4281 0 
L 4281 4097 
L 3078 897 
L 2444 897 
L 1241 4097 
L 1241 0 
L 628 0 
L 628 4666 
z
" transform="scale(0.015625)"/>
       <path id="DejaVuSans-6f" d="M 1959 3097 
Q 1497 3097 1228 2736 
Q 959 2375 959 1747 
Q 959 1119 1226 758 
Q 1494 397 1959 397 
Q 2419 397 2687 759 
Q 2956 1122 2956 1747 
Q 2956 2369 2687 2733 
Q 2419 3097 1959 3097 
z
M 1959 3584 
Q 2709 3584 3137 3096 
Q 3566 2609 3566 1747 
Q 3566 888 3137 398 
Q 2709 -91 1959 -91 
Q 1206 -91 779 398 
Q 353 888 353 1747 
Q 353 2609 779 3096 
Q 1206 3584 1959 3584 
z
" transform="scale(0.015625)"/>
       <path id="DejaVuSans-64" d="M 2906 2969 
L 2906 4863 
L 3481 4863 
L 3481 0 
L 2906 0 
L 2906 525 
Q 2725 213 2448 61 
Q 2172 -91 1784 -91 
Q 1150 -91 751 415 
Q 353 922 353 1747 
Q 353 2572 751 3078 
Q 1150 3584 1784 3584 
Q 2172 3584 2448 3432 
Q 2725 3281 2906 2969 
z
M 947 1747 
Q 947 1113 1208 752 
Q 1469 391 1925 391 
Q 2381 391 2643 752 
Q 2906 1113 2906 1747 
Q 2906 2381 2643 2742 
Q 2381 3103 1925 3103 
Q 1469 3103 1208 2742 
Q 947 2381 947 1747 
z
" transform="scale(0.015625)"/>
       <path id="DejaVuSans-65" d="M 3597 1894 
L 3597 1613 
L 953 1613 
Q 991 1019 1311 708 
Q 1631 397 2203 397 
Q 2534 397 2845 478 
Q 3156 559 3463 722 
L 3463 178 
Q 3153 47 2828 -22 
Q 2503 -91 2169 -91 
Q 1331 -91 842 396 
Q 353 884 353 1716 
Q 353 2575 817 3079 
Q 1281 3584 2069 3584 
Q 2775 3584 3186 3129 
Q 3597 2675 3597 1894 
z
M 3022 2063 
Q 3016 2534 2758 2815 
Q 2500 3097 2075 3097 
Q 1594 3097 1305 2825 
Q 1016 2553 972 2059 
L 3022 2063 
z
" transform="scale(0.015625)"/>
       <path id="DejaVuSans-20" transform="scale(0.015625)"/>
       <path id="DejaVuSans-47" d="M 3809 666 
L 3809 1919 
L 2778 1919 
L 2778 2438 
L 4434 2438 
L 4434 434 
Q 4069 175 3628 42 
Q 3188 -91 2688 -91 
Q 1594 -91 976 548 
Q 359 1188 359 2328 
Q 359 3472 976 4111 
Q 1594 4750 2688 4750 
Q 3144 4750 3555 4637 
Q 3966 4525 4313 4306 
L 4313 3634 
Q 3963 3931 3569 4081 
Q 3175 4231 2741 4231 
Q 1884 4231 1454 3753 
Q 1025 3275 1025 2328 
Q 1025 1384 1454 906 
Q 1884 428 2741 428 
Q 3075 428 3337 486 
Q 3600 544 3809 666 
z
" transform="scale(0.015625)"/>
       <path id="DejaVuSans-61" d="M 2194 1759 
Q 1497 1759 1228 1600 
Q 959 1441 959 1056 
Q 959 750 1161 570 
Q 1363 391 1709 391 
Q 2188 391 2477 730 
Q 2766 1069 2766 1631 
L 2766 1759 
L 2194 1759 
z
M 3341 1997 
L 3341 0 
L 2766 0 
L 2766 531 
Q 2569 213 2275 61 
Q 1981 -91 1556 -91 
Q 1019 -91 701 211 
Q 384 513 384 1019 
Q 384 1609 779 1909 
Q 1175 2209 1959 2209 
L 2766 2209 
L 2766 2266 
Q 2766 2663 2505 2880 
Q 2244 3097 1772 3097 
Q 1472 3097 1187 3025 
Q 903 2953 641 2809 
L 641 3341 
Q 956 3463 1253 3523 
Q 1550 3584 1831 3584 
Q 2591 3584 2966 3190 
Q 3341 2797 3341 1997 
z
" transform="scale(0.015625)"/>
       <path id="DejaVuSans-70" d="M 1159 525 
L 1159 -1331 
L 581 -1331 
L 581 3500 
L 1159 3500 
L 1159 2969 
Q 1341 3281 1617 3432 
Q 1894 3584 2278 3584 
Q 2916 3584 3314 3078 
Q 3713 2572 3713 1747 
Q 3713 922 3314 415 
Q 2916 -91 2278 -91 
Q 1894 -91 1617 61 
Q 1341 213 1159 525 
z
M 3116 1747 
Q 3116 2381 2855 2742 
Q 2594 3103 2138 3103 
Q 1681 3103 1420 2742 
Q 1159 2381 1159 1747 
Q 1159 1113 1420 752 
Q 1681 391 2138 391 
Q 2594 391 2855 752 
Q 3116 1113 3116 1747 
z
" transform="scale(0.015625)"/>
      </defs>
      <use xlink:href="#DejaVuSans-4d"/>
      <use xlink:href="#DejaVuSans-6f" x="86.279297"/>
      <use xlink:href="#DejaVuSans-64" x="147.460938"/>
      <use xlink:href="#DejaVuSans-65" x="210.9375"/>
      <use xlink:href="#DejaVuSans-20" x="272.460938"/>
      <use xlink:href="#DejaVuSans-47" x="304.248047"/>
      <use xlink:href="#DejaVuSans-61" x="381.738281"/>
      <use xlink:href="#DejaVuSans-70" x="443.017578"/>
     </g>
    </g>
   </g>
   <g id="matplotlib.axis_2">
    <g id="ytick_1">
     <g id="line2d_22">
      <defs>
       <path id="mfbec1ab1be" d="M 0 0 
L -3.5 0 
" style="stroke: #000000; stroke-width: 0.8"/>
      </defs>
      <g>
       <use xlink:href="#mfbec1ab1be" x="57.6" y="295.795219" style="stroke: #000000; stroke-width: 0.8"/>
      </g>
     </g>
     <g id="text_5">
      <!-- 0.0 -->
      <g transform="translate(18.79375 303.393656) scale(0.2 -0.2)">
       <defs>
        <path id="DejaVuSans-2e" d="M 684 794 
L 1344 794 
L 1344 0 
L 684 0 
L 684 794 
z
" transform="scale(0.015625)"/>
       </defs>
       <use xlink:href="#DejaVuSans-30"/>
       <use xlink:href="#DejaVuSans-2e" x="63.623047"/>
       <use xlink:href="#DejaVuSans-30" x="95.410156"/>
      </g>
     </g>
    </g>
    <g id="ytick_2">
     <g id="line2d_23">
      <g>
       <use xlink:href="#mfbec1ab1be" x="57.6" y="266.19783" style="stroke: #000000; stroke-width: 0.8"/>
      </g>
     </g>
     <g id="text_6">
      <!-- 0.1 -->
      <g transform="translate(18.79375 273.796267) scale(0.2 -0.2)">
       <use xlink:href="#DejaVuSans-30"/>
       <use xlink:href="#DejaVuSans-2e" x="63.623047"/>
       <use xlink:href="#DejaVuSans-31" x="95.410156"/>
      </g>
     </g>
    </g>
    <g id="ytick_3">
     <g id="line2d_24">
      <g>
       <use xlink:href="#mfbec1ab1be" x="57.6" y="236.600441" style="stroke: #000000; stroke-width: 0.8"/>
      </g>
     </g>
     <g id="text_7">
      <!-- 0.2 -->
      <g transform="translate(18.79375 244.198878) scale(0.2 -0.2)">
       <use xlink:href="#DejaVuSans-30"/>
       <use xlink:href="#DejaVuSans-2e" x="63.623047"/>
       <use xlink:href="#DejaVuSans-32" x="95.410156"/>
      </g>
     </g>
    </g>
    <g id="ytick_4">
     <g id="line2d_25">
      <g>
       <use xlink:href="#mfbec1ab1be" x="57.6" y="207.003052" style="stroke: #000000; stroke-width: 0.8"/>
      </g>
     </g>
     <g id="text_8">
      <!-- 0.3 -->
      <g transform="translate(18.79375 214.601489) scale(0.2 -0.2)">
       <defs>
        <path id="DejaVuSans-33" d="M 2597 2516 
Q 3050 2419 3304 2112 
Q 3559 1806 3559 1356 
Q 3559 666 3084 287 
Q 2609 -91 1734 -91 
Q 1441 -91 1130 -33 
Q 819 25 488 141 
L 488 750 
Q 750 597 1062 519 
Q 1375 441 1716 441 
Q 2309 441 2620 675 
Q 2931 909 2931 1356 
Q 2931 1769 2642 2001 
Q 2353 2234 1838 2234 
L 1294 2234 
L 1294 2753 
L 1863 2753 
Q 2328 2753 2575 2939 
Q 2822 3125 2822 3475 
Q 2822 3834 2567 4026 
Q 2313 4219 1838 4219 
Q 1578 4219 1281 4162 
Q 984 4106 628 3988 
L 628 4550 
Q 988 4650 1302 4700 
Q 1616 4750 1894 4750 
Q 2613 4750 3031 4423 
Q 3450 4097 3450 3541 
Q 3450 3153 3228 2886 
Q 3006 2619 2597 2516 
z
" transform="scale(0.015625)"/>
       </defs>
       <use xlink:href="#DejaVuSans-30"/>
       <use xlink:href="#DejaVuSans-2e" x="63.623047"/>
       <use xlink:href="#DejaVuSans-33" x="95.410156"/>
      </g>
     </g>
    </g>
    <g id="ytick_5">
     <g id="line2d_26">
      <g>
       <use xlink:href="#mfbec1ab1be" x="57.6" y="177.405663" style="stroke: #000000; stroke-width: 0.8"/>
      </g>
     </g>
     <g id="text_9">
      <!-- 0.4 -->
      <g transform="translate(18.79375 185.0041) scale(0.2 -0.2)">
       <defs>
        <path id="DejaVuSans-34" d="M 2419 4116 
L 825 1625 
L 2419 1625 
L 2419 4116 
z
M 2253 4666 
L 3047 4666 
L 3047 1625 
L 3713 1625 
L 3713 1100 
L 3047 1100 
L 3047 0 
L 2419 0 
L 2419 1100 
L 313 1100 
L 313 1709 
L 2253 4666 
z
" transform="scale(0.015625)"/>
       </defs>
       <use xlink:href="#DejaVuSans-30"/>
       <use xlink:href="#DejaVuSans-2e" x="63.623047"/>
       <use xlink:href="#DejaVuSans-34" x="95.410156"/>
      </g>
     </g>
    </g>
    <g id="ytick_6">
     <g id="line2d_27">
      <g>
       <use xlink:href="#mfbec1ab1be" x="57.6" y="147.808273" style="stroke: #000000; stroke-width: 0.8"/>
      </g>
     </g>
     <g id="text_10">
      <!-- 0.5 -->
      <g transform="translate(18.79375 155.406711) scale(0.2 -0.2)">
       <defs>
        <path id="DejaVuSans-35" d="M 691 4666 
L 3169 4666 
L 3169 4134 
L 1269 4134 
L 1269 2991 
Q 1406 3038 1543 3061 
Q 1681 3084 1819 3084 
Q 2600 3084 3056 2656 
Q 3513 2228 3513 1497 
Q 3513 744 3044 326 
Q 2575 -91 1722 -91 
Q 1428 -91 1123 -41 
Q 819 9 494 109 
L 494 744 
Q 775 591 1075 516 
Q 1375 441 1709 441 
Q 2250 441 2565 725 
Q 2881 1009 2881 1497 
Q 2881 1984 2565 2268 
Q 2250 2553 1709 2553 
Q 1456 2553 1204 2497 
Q 953 2441 691 2322 
L 691 4666 
z
" transform="scale(0.015625)"/>
       </defs>
       <use xlink:href="#DejaVuSans-30"/>
       <use xlink:href="#DejaVuSans-2e" x="63.623047"/>
       <use xlink:href="#DejaVuSans-35" x="95.410156"/>
      </g>
     </g>
    </g>
    <g id="ytick_7">
     <g id="line2d_28">
      <g>
       <use xlink:href="#mfbec1ab1be" x="57.6" y="118.210884" style="stroke: #000000; stroke-width: 0.8"/>
      </g>
     </g>
     <g id="text_11">
      <!-- 0.6 -->
      <g transform="translate(18.79375 125.809322) scale(0.2 -0.2)">
       <defs>
        <path id="DejaVuSans-36" d="M 2113 2584 
Q 1688 2584 1439 2293 
Q 1191 2003 1191 1497 
Q 1191 994 1439 701 
Q 1688 409 2113 409 
Q 2538 409 2786 701 
Q 3034 994 3034 1497 
Q 3034 2003 2786 2293 
Q 2538 2584 2113 2584 
z
M 3366 4563 
L 3366 3988 
Q 3128 4100 2886 4159 
Q 2644 4219 2406 4219 
Q 1781 4219 1451 3797 
Q 1122 3375 1075 2522 
Q 1259 2794 1537 2939 
Q 1816 3084 2150 3084 
Q 2853 3084 3261 2657 
Q 3669 2231 3669 1497 
Q 3669 778 3244 343 
Q 2819 -91 2113 -91 
Q 1303 -91 875 529 
Q 447 1150 447 2328 
Q 447 3434 972 4092 
Q 1497 4750 2381 4750 
Q 2619 4750 2861 4703 
Q 3103 4656 3366 4563 
z
" transform="scale(0.015625)"/>
       </defs>
       <use xlink:href="#DejaVuSans-30"/>
       <use xlink:href="#DejaVuSans-2e" x="63.623047"/>
       <use xlink:href="#DejaVuSans-36" x="95.410156"/>
      </g>
     </g>
    </g>
    <g id="ytick_8">
     <g id="line2d_29">
      <g>
       <use xlink:href="#mfbec1ab1be" x="57.6" y="88.613495" style="stroke: #000000; stroke-width: 0.8"/>
      </g>
     </g>
     <g id="text_12">
      <!-- 0.7 -->
      <g transform="translate(18.79375 96.211933) scale(0.2 -0.2)">
       <defs>
        <path id="DejaVuSans-37" d="M 525 4666 
L 3525 4666 
L 3525 4397 
L 1831 0 
L 1172 0 
L 2766 4134 
L 525 4134 
L 525 4666 
z
" transform="scale(0.015625)"/>
       </defs>
       <use xlink:href="#DejaVuSans-30"/>
       <use xlink:href="#DejaVuSans-2e" x="63.623047"/>
       <use xlink:href="#DejaVuSans-37" x="95.410156"/>
      </g>
     </g>
    </g>
    <g id="ytick_9">
     <g id="line2d_30">
      <g>
       <use xlink:href="#mfbec1ab1be" x="57.6" y="59.016106" style="stroke: #000000; stroke-width: 0.8"/>
      </g>
     </g>
     <g id="text_13">
      <!-- 0.8 -->
      <g transform="translate(18.79375 66.614544) scale(0.2 -0.2)">
       <defs>
        <path id="DejaVuSans-38" d="M 2034 2216 
Q 1584 2216 1326 1975 
Q 1069 1734 1069 1313 
Q 1069 891 1326 650 
Q 1584 409 2034 409 
Q 2484 409 2743 651 
Q 3003 894 3003 1313 
Q 3003 1734 2745 1975 
Q 2488 2216 2034 2216 
z
M 1403 2484 
Q 997 2584 770 2862 
Q 544 3141 544 3541 
Q 544 4100 942 4425 
Q 1341 4750 2034 4750 
Q 2731 4750 3128 4425 
Q 3525 4100 3525 3541 
Q 3525 3141 3298 2862 
Q 3072 2584 2669 2484 
Q 3125 2378 3379 2068 
Q 3634 1759 3634 1313 
Q 3634 634 3220 271 
Q 2806 -91 2034 -91 
Q 1263 -91 848 271 
Q 434 634 434 1313 
Q 434 1759 690 2068 
Q 947 2378 1403 2484 
z
M 1172 3481 
Q 1172 3119 1398 2916 
Q 1625 2713 2034 2713 
Q 2441 2713 2670 2916 
Q 2900 3119 2900 3481 
Q 2900 3844 2670 4047 
Q 2441 4250 2034 4250 
Q 1625 4250 1398 4047 
Q 1172 3844 1172 3481 
z
" transform="scale(0.015625)"/>
       </defs>
       <use xlink:href="#DejaVuSans-30"/>
       <use xlink:href="#DejaVuSans-2e" x="63.623047"/>
       <use xlink:href="#DejaVuSans-38" x="95.410156"/>
      </g>
     </g>
    </g>
    <g id="text_14">
     <!-- Angle between $g$ and $v_1$ -->
     <g transform="translate(10.59375 294.828) rotate(-90) scale(0.2 -0.2)">
      <defs>
       <path id="DejaVuSans-41" d="M 2188 4044 
L 1331 1722 
L 3047 1722 
L 2188 4044 
z
M 1831 4666 
L 2547 4666 
L 4325 0 
L 3669 0 
L 3244 1197 
L 1141 1197 
L 716 0 
L 50 0 
L 1831 4666 
z
" transform="scale(0.015625)"/>
       <path id="DejaVuSans-6e" d="M 3513 2113 
L 3513 0 
L 2938 0 
L 2938 2094 
Q 2938 2591 2744 2837 
Q 2550 3084 2163 3084 
Q 1697 3084 1428 2787 
Q 1159 2491 1159 1978 
L 1159 0 
L 581 0 
L 581 3500 
L 1159 3500 
L 1159 2956 
Q 1366 3272 1645 3428 
Q 1925 3584 2291 3584 
Q 2894 3584 3203 3211 
Q 3513 2838 3513 2113 
z
" transform="scale(0.015625)"/>
       <path id="DejaVuSans-67" d="M 2906 1791 
Q 2906 2416 2648 2759 
Q 2391 3103 1925 3103 
Q 1463 3103 1205 2759 
Q 947 2416 947 1791 
Q 947 1169 1205 825 
Q 1463 481 1925 481 
Q 2391 481 2648 825 
Q 2906 1169 2906 1791 
z
M 3481 434 
Q 3481 -459 3084 -895 
Q 2688 -1331 1869 -1331 
Q 1566 -1331 1297 -1286 
Q 1028 -1241 775 -1147 
L 775 -588 
Q 1028 -725 1275 -790 
Q 1522 -856 1778 -856 
Q 2344 -856 2625 -561 
Q 2906 -266 2906 331 
L 2906 616 
Q 2728 306 2450 153 
Q 2172 0 1784 0 
Q 1141 0 747 490 
Q 353 981 353 1791 
Q 353 2603 747 3093 
Q 1141 3584 1784 3584 
Q 2172 3584 2450 3431 
Q 2728 3278 2906 2969 
L 2906 3500 
L 3481 3500 
L 3481 434 
z
" transform="scale(0.015625)"/>
       <path id="DejaVuSans-6c" d="M 603 4863 
L 1178 4863 
L 1178 0 
L 603 0 
L 603 4863 
z
" transform="scale(0.015625)"/>
       <path id="DejaVuSans-62" d="M 3116 1747 
Q 3116 2381 2855 2742 
Q 2594 3103 2138 3103 
Q 1681 3103 1420 2742 
Q 1159 2381 1159 1747 
Q 1159 1113 1420 752 
Q 1681 391 2138 391 
Q 2594 391 2855 752 
Q 3116 1113 3116 1747 
z
M 1159 2969 
Q 1341 3281 1617 3432 
Q 1894 3584 2278 3584 
Q 2916 3584 3314 3078 
Q 3713 2572 3713 1747 
Q 3713 922 3314 415 
Q 2916 -91 2278 -91 
Q 1894 -91 1617 61 
Q 1341 213 1159 525 
L 1159 0 
L 581 0 
L 581 4863 
L 1159 4863 
L 1159 2969 
z
" transform="scale(0.015625)"/>
       <path id="DejaVuSans-74" d="M 1172 4494 
L 1172 3500 
L 2356 3500 
L 2356 3053 
L 1172 3053 
L 1172 1153 
Q 1172 725 1289 603 
Q 1406 481 1766 481 
L 2356 481 
L 2356 0 
L 1766 0 
Q 1100 0 847 248 
Q 594 497 594 1153 
L 594 3053 
L 172 3053 
L 172 3500 
L 594 3500 
L 594 4494 
L 1172 4494 
z
" transform="scale(0.015625)"/>
       <path id="DejaVuSans-77" d="M 269 3500 
L 844 3500 
L 1563 769 
L 2278 3500 
L 2956 3500 
L 3675 769 
L 4391 3500 
L 4966 3500 
L 4050 0 
L 3372 0 
L 2619 2869 
L 1863 0 
L 1184 0 
L 269 3500 
z
" transform="scale(0.015625)"/>
       <path id="DejaVuSans-Oblique-67" d="M 3816 3500 
L 3219 434 
Q 3047 -456 2561 -893 
Q 2075 -1331 1253 -1331 
Q 950 -1331 690 -1286 
Q 431 -1241 206 -1147 
L 313 -588 
Q 525 -725 762 -790 
Q 1000 -856 1269 -856 
Q 1816 -856 2167 -557 
Q 2519 -259 2631 300 
L 2681 563 
Q 2441 288 2122 144 
Q 1803 0 1434 0 
Q 903 0 598 351 
Q 294 703 294 1319 
Q 294 1803 478 2267 
Q 663 2731 997 3091 
Q 1219 3328 1514 3456 
Q 1809 3584 2131 3584 
Q 2484 3584 2746 3420 
Q 3009 3256 3138 2956 
L 3238 3500 
L 3816 3500 
z
M 2950 2216 
Q 2950 2641 2750 2872 
Q 2550 3103 2181 3103 
Q 1953 3103 1747 3012 
Q 1541 2922 1394 2759 
Q 1156 2491 1023 2127 
Q 891 1763 891 1375 
Q 891 944 1092 712 
Q 1294 481 1672 481 
Q 2219 481 2584 976 
Q 2950 1472 2950 2216 
z
" transform="scale(0.015625)"/>
       <path id="DejaVuSans-Oblique-76" d="M 459 3500 
L 1069 3500 
L 1581 525 
L 3256 3500 
L 3866 3500 
L 1875 0 
L 1100 0 
L 459 3500 
z
" transform="scale(0.015625)"/>
      </defs>
      <use xlink:href="#DejaVuSans-41" transform="translate(0 0.015625)"/>
      <use xlink:href="#DejaVuSans-6e" transform="translate(68.408203 0.015625)"/>
      <use xlink:href="#DejaVuSans-67" transform="translate(131.787109 0.015625)"/>
      <use xlink:href="#DejaVuSans-6c" transform="translate(195.263672 0.015625)"/>
      <use xlink:href="#DejaVuSans-65" transform="translate(223.046875 0.015625)"/>
      <use xlink:href="#DejaVuSans-20" transform="translate(284.570312 0.015625)"/>
      <use xlink:href="#DejaVuSans-62" transform="translate(316.357422 0.015625)"/>
      <use xlink:href="#DejaVuSans-65" transform="translate(379.833984 0.015625)"/>
      <use xlink:href="#DejaVuSans-74" transform="translate(441.357422 0.015625)"/>
      <use xlink:href="#DejaVuSans-77" transform="translate(480.566406 0.015625)"/>
      <use xlink:href="#DejaVuSans-65" transform="translate(562.353516 0.015625)"/>
      <use xlink:href="#DejaVuSans-65" transform="translate(623.876953 0.015625)"/>
      <use xlink:href="#DejaVuSans-6e" transform="translate(685.400391 0.015625)"/>
      <use xlink:href="#DejaVuSans-20" transform="translate(748.779297 0.015625)"/>
      <use xlink:href="#DejaVuSans-Oblique-67" transform="translate(780.566406 0.015625)"/>
      <use xlink:href="#DejaVuSans-20" transform="translate(844.042969 0.015625)"/>
      <use xlink:href="#DejaVuSans-61" transform="translate(875.830078 0.015625)"/>
      <use xlink:href="#DejaVuSans-6e" transform="translate(937.109375 0.015625)"/>
      <use xlink:href="#DejaVuSans-64" transform="translate(1000.488281 0.015625)"/>
      <use xlink:href="#DejaVuSans-20" transform="translate(1063.964844 0.015625)"/>
      <use xlink:href="#DejaVuSans-Oblique-76" transform="translate(1095.751953 0.015625)"/>
      <use xlink:href="#DejaVuSans-31" transform="translate(1154.931641 -16.390625) scale(0.7)"/>
     </g>
    </g>
   </g>
   <g id="line2d_31">
    <path d="M 398.487273 295.135246 
L 395.207934 295.103354 
L 391.928595 295.069796 
L 388.649256 295.034479 
L 385.369917 294.997301 
L 382.090579 294.958152 
L 378.81124 294.916909 
L 375.531901 294.873375 
L 372.252562 294.827317 
L 368.973223 294.778056 
L 365.693884 294.724671 
L 362.414545 294.671717 
L 359.135207 294.622051 
L 355.855868 294.559858 
L 352.576529 294.496718 
L 349.29719 294.430343 
L 346.017851 294.360423 
L 342.738512 294.286592 
L 339.459174 294.208598 
L 336.179835 294.126191 
L 332.900496 294.039068 
L 329.621157 293.946965 
L 326.341818 293.84956 
L 323.062479 293.746513 
L 319.78314 293.637436 
L 316.503802 293.521951 
L 313.224463 293.39964 
L 309.945124 293.270041 
L 306.665785 293.132672 
L 303.386446 292.987008 
L 300.107107 292.832494 
L 296.827769 292.6685 
L 293.54843 292.494384 
L 290.269091 292.309448 
L 286.989752 292.112937 
L 283.710413 291.904019 
L 280.431074 291.681816 
L 277.151736 291.445386 
L 273.872397 291.193687 
L 270.593058 290.925605 
L 267.313719 290.639953 
L 264.03438 290.33543 
L 260.755041 290.010624 
L 257.475702 289.66403 
L 254.196364 289.294007 
L 250.917025 288.898789 
L 247.637686 288.476435 
L 244.358347 288.024902 
L 241.079008 287.541915 
L 237.799669 287.025095 
L 234.520331 286.471788 
L 231.240992 285.879236 
L 227.961653 285.244411 
L 224.682314 284.561081 
L 221.402975 283.830066 
L 218.123636 283.045617 
L 214.844298 282.211517 
L 211.564959 281.303239 
L 208.28562 280.326592 
L 205.006281 279.28401 
L 201.726942 278.163442 
L 198.447603 276.955538 
L 195.168264 275.6556 
L 191.888926 274.257224 
L 188.609587 272.752613 
L 185.330248 271.133113 
L 182.050909 269.38958 
L 178.77157 267.512203 
L 175.492231 265.490397 
L 172.212893 263.312983 
L 168.933554 260.967809 
L 165.654215 258.441901 
L 162.374876 255.7213 
L 159.095537 252.808654 
L 155.816198 249.664269 
L 152.53686 246.283223 
L 149.257521 242.649604 
L 145.978182 238.747191 
L 142.698843 234.559385 
L 139.419504 230.068958 
L 136.140165 225.257103 
L 132.860826 220.103633 
L 129.581488 214.589766 
L 126.302149 208.76077 
L 123.02281 202.519393 
L 119.743471 195.885834 
L 116.464132 188.850039 
L 113.184793 181.404564 
L 109.905455 173.544966 
L 106.626116 165.270423 
L 103.346777 156.584039 
L 100.067438 147.49286 
L 96.788099 138.008968 
L 93.50876 128.149998 
L 90.229421 117.95323 
L 86.950083 107.359742 
L 83.670744 96.646269 
L 80.391405 85.60399 
L 77.112066 74.316108 
L 73.832727 62.922492 
" clip-path="url(#pa14d7e7f04)" style="fill: none; stroke: #feedde; stroke-width: 1.5; stroke-linecap: square"/>
   </g>
   <g id="line2d_32">
    <path d="M 398.487273 294.992022 
L 395.207934 294.960023 
L 391.928595 294.926364 
L 388.649256 294.890937 
L 385.369917 294.853664 
L 382.090579 294.814426 
L 378.81124 294.773098 
L 375.531901 294.729596 
L 372.252562 294.683775 
L 368.973223 294.635486 
L 365.693884 294.584619 
L 362.414545 294.530992 
L 359.135207 294.474445 
L 355.855868 294.41482 
L 352.576529 294.351906 
L 349.29719 294.285458 
L 346.017851 294.214968 
L 342.738512 294.138655 
L 339.459174 294.063974 
L 336.179835 293.981921 
L 332.900496 293.893724 
L 329.621157 293.801577 
L 326.341818 293.704167 
L 323.062479 293.601101 
L 319.78314 293.492048 
L 316.503802 293.376591 
L 313.224463 293.254344 
L 309.945124 293.124831 
L 306.665785 292.987585 
L 303.386446 292.842104 
L 300.107107 292.687781 
L 296.827769 292.524063 
L 293.54843 292.350284 
L 290.269091 292.165748 
L 286.989752 291.969706 
L 283.710413 291.76137 
L 280.431074 291.539821 
L 277.151736 291.304173 
L 273.872397 291.053388 
L 270.593058 290.786386 
L 267.313719 290.50196 
L 264.03438 290.198852 
L 260.755041 289.875676 
L 257.475702 289.530956 
L 254.196364 289.16307 
L 250.917025 288.770272 
L 247.637686 288.350691 
L 244.358347 287.902297 
L 241.079008 287.422867 
L 237.799669 286.910046 
L 234.520331 286.361218 
L 231.240992 285.773656 
L 227.961653 285.144312 
L 224.682314 284.470021 
L 221.402975 283.747253 
L 218.123636 282.972411 
L 214.844298 282.141474 
L 211.564959 281.249502 
L 208.28562 280.289003 
L 205.006281 279.254337 
L 201.726942 278.147869 
L 198.447603 276.959135 
L 195.168264 275.679015 
L 191.888926 274.302386 
L 188.609587 272.822005 
L 185.330248 271.229609 
L 182.050909 269.516318 
L 178.77157 267.672609 
L 175.492231 265.68838 
L 172.212893 263.552784 
L 168.933554 261.254342 
L 165.654215 258.780676 
L 162.374876 256.118622 
L 159.095537 253.254189 
L 155.816198 250.172546 
L 152.53686 246.875551 
L 149.257521 243.321963 
L 145.978182 239.506312 
L 142.698843 235.412118 
L 139.419504 231.022687 
L 136.140165 226.320445 
L 132.860826 221.287082 
L 129.581488 215.904997 
L 126.302149 210.158911 
L 123.02281 204.035555 
L 119.743471 197.523067 
L 116.464132 190.61066 
L 113.184793 183.289215 
L 109.905455 175.55215 
L 106.626116 167.396368 
L 103.346777 158.822942 
L 100.067438 149.837929 
L 96.788099 140.452309 
L 93.50876 130.680654 
L 90.229421 120.470987 
L 86.950083 110.019644 
L 83.670744 99.249924 
L 80.391405 88.103472 
L 77.112066 76.785794 
L 73.832727 65.242 
" clip-path="url(#pa14d7e7f04)" style="fill: none; stroke: #fdbe85; stroke-width: 1.5; stroke-linecap: square"/>
   </g>
   <g id="line2d_33">
    <path d="M 398.487273 295.154412 
L 395.207934 295.139723 
L 391.928595 295.124258 
L 388.649256 295.107982 
L 385.369917 295.090874 
L 382.090579 295.072858 
L 378.81124 295.053877 
L 375.531901 295.033888 
L 372.252562 295.012867 
L 368.973223 294.990693 
L 365.693884 294.967359 
L 362.414545 294.942741 
L 359.135207 294.916799 
L 355.855868 294.889433 
L 352.576529 294.860584 
L 349.29719 294.830157 
L 346.017851 294.798031 
L 342.738512 294.764143 
L 339.459174 294.728336 
L 336.179835 294.690512 
L 332.900496 294.650559 
L 329.621157 294.608341 
L 326.341818 294.563687 
L 323.062479 294.516455 
L 319.78314 294.466499 
L 316.503802 294.413615 
L 313.224463 294.357647 
L 309.945124 294.298341 
L 306.665785 294.235505 
L 303.386446 294.168891 
L 300.107107 294.098253 
L 296.827769 294.023312 
L 293.54843 293.943768 
L 290.269091 293.85928 
L 286.989752 293.769581 
L 283.710413 293.674199 
L 280.431074 293.572818 
L 277.151736 293.464943 
L 273.872397 293.350141 
L 270.593058 293.227887 
L 267.313719 293.097662 
L 264.03438 292.95883 
L 260.755041 292.810802 
L 257.475702 292.652861 
L 254.196364 292.484247 
L 250.917025 292.304152 
L 247.637686 292.111704 
L 244.358347 291.905953 
L 241.079008 291.685843 
L 237.799669 291.450246 
L 234.520331 291.197953 
L 231.240992 290.927636 
L 227.961653 290.637866 
L 224.682314 290.326906 
L 221.402975 289.993322 
L 218.123636 289.634974 
L 214.844298 289.249947 
L 211.564959 288.836195 
L 208.28562 288.391567 
L 205.006281 287.913686 
L 201.726942 287.40002 
L 198.447603 286.841956 
L 195.168264 286.243336 
L 191.888926 285.597751 
L 188.609587 284.901166 
L 185.330248 284.149055 
L 182.050909 283.336584 
L 178.77157 282.458369 
L 175.492231 281.508556 
L 172.212893 280.499364 
L 168.933554 279.373905 
L 165.654215 278.156792 
L 162.374876 276.842475 
L 159.095537 275.422176 
L 155.816198 273.883184 
L 152.53686 272.210412 
L 149.257521 270.422389 
L 145.978182 268.406428 
L 142.698843 266.231723 
L 139.419504 263.861127 
L 136.140165 261.266722 
L 132.860826 258.422905 
L 129.581488 255.301117 
L 126.302149 251.869027 
L 123.02281 248.02178 
L 119.743471 243.786978 
L 116.464132 239.067671 
L 113.184793 233.783404 
L 109.905455 227.835181 
L 106.626116 221.100242 
L 103.346777 213.426588 
L 100.067438 204.585172 
L 96.788099 194.38981 
L 93.50876 182.538744 
L 90.229421 168.703585 
L 86.950083 152.557099 
L 83.670744 133.870475 
L 80.391405 112.558888 
L 77.112066 88.985222 
L 73.832727 63.990023 
" clip-path="url(#pa14d7e7f04)" style="fill: none; stroke: #fd8d3c; stroke-width: 1.5; stroke-linecap: square"/>
   </g>
   <g id="line2d_34">
    <path d="M 398.487273 295.488 
L 395.207934 295.481243 
L 391.928595 295.474113 
L 388.649256 295.466622 
L 385.369917 295.45875 
L 382.090579 295.450458 
L 378.81124 295.441725 
L 375.531901 295.432524 
L 372.252562 295.422847 
L 368.973223 295.412655 
L 365.693884 295.4019 
L 362.414545 295.390588 
L 359.135207 295.378642 
L 355.855868 295.366053 
L 352.576529 295.352807 
L 349.29719 295.338796 
L 346.017851 295.32401 
L 342.738512 295.308425 
L 339.459174 295.291968 
L 336.179835 295.274567 
L 332.900496 295.256215 
L 329.621157 295.236791 
L 326.341818 295.216286 
L 323.062479 295.194588 
L 319.78314 295.17162 
L 316.503802 295.147324 
L 313.224463 295.12162 
L 309.945124 295.094358 
L 306.665785 295.065515 
L 303.386446 295.034932 
L 300.107107 295.002515 
L 296.827769 294.968126 
L 293.54843 294.931613 
L 290.269091 294.892877 
L 286.989752 294.8517 
L 283.710413 294.807969 
L 280.431074 294.761472 
L 277.151736 294.712035 
L 273.872397 294.659404 
L 270.593058 294.603409 
L 267.313719 294.543737 
L 264.03438 294.480172 
L 260.755041 294.412379 
L 257.475702 294.340082 
L 254.196364 294.262919 
L 250.917025 294.180528 
L 247.637686 294.092512 
L 244.358347 293.998421 
L 241.079008 293.897804 
L 237.799669 293.790123 
L 234.520331 293.674866 
L 231.240992 293.551379 
L 227.961653 293.419055 
L 224.682314 293.277137 
L 221.402975 293.12484 
L 218.123636 292.961378 
L 214.844298 292.785805 
L 211.564959 292.597084 
L 208.28562 292.394123 
L 205.006281 292.175742 
L 201.726942 291.940639 
L 198.447603 291.687365 
L 195.168264 291.414375 
L 191.888926 291.119921 
L 188.609587 290.802127 
L 185.330248 290.458899 
L 182.050909 290.087996 
L 178.77157 289.686902 
L 175.492231 289.252808 
L 172.212893 288.782702 
L 168.933554 288.259018 
L 165.654215 287.709523 
L 162.374876 287.112056 
L 159.095537 286.461754 
L 155.816198 285.753189 
L 152.53686 284.980224 
L 149.257521 284.135903 
L 145.978182 283.212184 
L 142.698843 282.164347 
L 139.419504 281.057178 
L 136.140165 279.836368 
L 132.860826 278.487873 
L 129.581488 276.99584 
L 126.302149 275.33367 
L 123.02281 273.476339 
L 119.743471 271.365031 
L 116.464132 269.01698 
L 113.184793 266.284663 
L 109.905455 263.11302 
L 106.626116 259.393156 
L 103.346777 254.987173 
L 100.067438 249.645485 
L 96.788099 243.022092 
L 93.50876 234.58238 
L 90.229421 223.489542 
L 86.950083 208.350111 
L 83.670744 186.630976 
L 80.391405 155.07559 
L 77.112066 109.63992 
L 73.832727 53.568 
" clip-path="url(#pa14d7e7f04)" style="fill: none; stroke: #d94701; stroke-width: 1.5; stroke-linecap: square"/>
   </g>
   <g id="patch_3">
    <path d="M 57.6 307.584 
L 57.6 41.472 
" style="fill: none; stroke: #000000; stroke-width: 0.8; stroke-linejoin: miter; stroke-linecap: square"/>
   </g>
   <g id="patch_4">
    <path d="M 414.72 307.584 
L 414.72 41.472 
" style="fill: none; stroke: #000000; stroke-width: 0.8; stroke-linejoin: miter; stroke-linecap: square"/>
   </g>
   <g id="patch_5">
    <path d="M 57.6 307.584 
L 414.72 307.584 
" style="fill: none; stroke: #000000; stroke-width: 0.8; stroke-linejoin: miter; stroke-linecap: square"/>
   </g>
   <g id="patch_6">
    <path d="M 57.6 41.472 
L 414.72 41.472 
" style="fill: none; stroke: #000000; stroke-width: 0.8; stroke-linejoin: miter; stroke-linecap: square"/>
   </g>
  </g>
  <g id="axes_2">
   <g id="patch_7">
    <path d="M 345.6 207.36 
L 359.424 207.36 
L 359.424 69.12 
L 345.6 69.12 
z
" style="fill: #ffffff"/>
   </g>
   <g id="QuadMesh_1">
    <path d="M 345.6 207.36 
L 359.424 207.36 
L 359.424 172.8 
L 345.6 172.8 
L 345.6 207.36 
" clip-path="url(#pc406f8d3b4)" style="fill: #feedde"/>
    <path d="M 345.6 172.8 
L 359.424 172.8 
L 359.424 138.24 
L 345.6 138.24 
L 345.6 172.8 
" clip-path="url(#pc406f8d3b4)" style="fill: #fdbe85"/>
    <path d="M 345.6 138.24 
L 359.424 138.24 
L 359.424 103.68 
L 345.6 103.68 
L 345.6 138.24 
" clip-path="url(#pc406f8d3b4)" style="fill: #fd8d3c"/>
    <path d="M 345.6 103.68 
L 359.424 103.68 
L 359.424 69.12 
L 345.6 69.12 
L 345.6 103.68 
" clip-path="url(#pc406f8d3b4)" style="fill: #d94701"/>
   </g>
   <g id="matplotlib.axis_3"/>
   <g id="matplotlib.axis_4">
    <g id="ytick_10">
     <g id="line2d_35">
      <defs>
       <path id="m49c87e6fd9" d="M 0 0 
L 3.5 0 
" style="stroke: #000000; stroke-width: 0.8"/>
      </defs>
      <g>
       <use xlink:href="#m49c87e6fd9" x="359.424" y="190.08" style="stroke: #000000; stroke-width: 0.8"/>
      </g>
     </g>
     <g id="text_15">
      <!-- 0.10 -->
      <g transform="translate(366.424 196.918594) scale(0.18 -0.18)">
       <use xlink:href="#DejaVuSans-30"/>
       <use xlink:href="#DejaVuSans-2e" x="63.623047"/>
       <use xlink:href="#DejaVuSans-31" x="95.410156"/>
       <use xlink:href="#DejaVuSans-30" x="159.033203"/>
      </g>
     </g>
    </g>
    <g id="ytick_11">
     <g id="line2d_36">
      <g>
       <use xlink:href="#m49c87e6fd9" x="359.424" y="155.52" style="stroke: #000000; stroke-width: 0.8"/>
      </g>
     </g>
     <g id="text_16">
      <!-- 0.25 -->
      <g transform="translate(366.424 162.358594) scale(0.18 -0.18)">
       <use xlink:href="#DejaVuSans-30"/>
       <use xlink:href="#DejaVuSans-2e" x="63.623047"/>
       <use xlink:href="#DejaVuSans-32" x="95.410156"/>
       <use xlink:href="#DejaVuSans-35" x="159.033203"/>
      </g>
     </g>
    </g>
    <g id="ytick_12">
     <g id="line2d_37">
      <g>
       <use xlink:href="#m49c87e6fd9" x="359.424" y="120.96" style="stroke: #000000; stroke-width: 0.8"/>
      </g>
     </g>
     <g id="text_17">
      <!-- 0.75 -->
      <g transform="translate(366.424 127.798594) scale(0.18 -0.18)">
       <use xlink:href="#DejaVuSans-30"/>
       <use xlink:href="#DejaVuSans-2e" x="63.623047"/>
       <use xlink:href="#DejaVuSans-37" x="95.410156"/>
       <use xlink:href="#DejaVuSans-35" x="159.033203"/>
      </g>
     </g>
    </g>
    <g id="ytick_13">
     <g id="line2d_38">
      <g>
       <use xlink:href="#m49c87e6fd9" x="359.424" y="86.4" style="stroke: #000000; stroke-width: 0.8"/>
      </g>
     </g>
     <g id="text_18">
      <!-- 1.00 -->
      <g transform="translate(366.424 93.238594) scale(0.18 -0.18)">
       <use xlink:href="#DejaVuSans-31"/>
       <use xlink:href="#DejaVuSans-2e" x="63.623047"/>
       <use xlink:href="#DejaVuSans-30" x="95.410156"/>
       <use xlink:href="#DejaVuSans-30" x="159.033203"/>
      </g>
     </g>
    </g>
   </g>
   <g id="LineCollection_1"/>
   <g id="patch_8">
    <path d="M 345.6 207.36 
L 352.512 207.36 
L 359.424 207.36 
L 359.424 69.12 
L 352.512 69.12 
L 345.6 69.12 
L 345.6 207.36 
z
" style="fill: none; stroke: #000000; stroke-width: 0.8; stroke-linejoin: miter; stroke-linecap: square"/>
   </g>
   <g id="text_19">
    <!-- $\sigma$ -->
    <g transform="translate(342.912 62.880938) scale(0.3 -0.3)">
     <defs>
      <path id="DejaVuSans-Oblique-3c3" d="M 2219 3044 
Q 1744 3044 1422 2700 
Q 1081 2341 969 1747 
Q 844 1119 1044 756 
Q 1241 397 1706 397 
Q 2166 397 2503 759 
Q 2844 1122 2966 1747 
Q 3075 2319 2881 2700 
Q 2700 3044 2219 3044 
z
M 2309 3503 
L 4219 3500 
L 4106 2925 
L 3463 2925 
Q 3706 2438 3575 1747 
Q 3406 888 2884 400 
Q 2359 -91 1609 -91 
Q 856 -91 525 400 
Q 194 888 363 1747 
Q 528 2609 1050 3097 
Q 1484 3503 2309 3503 
z
" transform="scale(0.015625)"/>
     </defs>
     <use xlink:href="#DejaVuSans-Oblique-3c3" transform="translate(0 0.265625)"/>
    </g>
   </g>
  </g>
 </g>
 <defs>
  <clipPath id="pa14d7e7f04">
   <rect x="57.6" y="41.472" width="357.12" height="266.112"/>
  </clipPath>
  <clipPath id="pc406f8d3b4">
   <rect x="345.6" y="69.12" width="13.824" height="138.24"/>
  </clipPath>
 </defs>
</svg>
