<?xml version="1.0" encoding="utf-8" standalone="no"?>
<!DOCTYPE svg PUBLIC "-//W3C//DTD SVG 1.1//EN"
  "http://www.w3.org/Graphics/SVG/1.1/DTD/svg11.dtd">
<svg xmlns:xlink="http://www.w3.org/1999/xlink" width="460.8pt" height="345.6pt" viewBox="0 0 460.8 345.6" xmlns="http://www.w3.org/2000/svg" version="1.1">
 <metadata>
  <rdf:RDF xmlns:dc="http://purl.org/dc/elements/1.1/" xmlns:cc="http://creativecommons.org/ns#" xmlns:rdf="http://www.w3.org/1999/02/22-rdf-syntax-ns#">
   <cc:Work>
    <dc:type rdf:resource="http://purl.org/dc/dcmitype/StillImage"/>
    <dc:date>2023-08-31T17:07:17.973178</dc:date>
    <dc:format>image/svg+xml</dc:format>
    <dc:creator>
     <cc:Agent>
      <dc:title>Matplotlib v3.7.2, https://matplotlib.org/</dc:title>
     </cc:Agent>
    </dc:creator>
   </cc:Work>
  </rdf:RDF>
 </metadata>
 <defs>
  <style type="text/css">*{stroke-linejoin: round; stroke-linecap: butt}</style>
 </defs>
 <g id="figure_1">
  <g id="patch_1">
   <path d="M 0 345.6 
L 460.8 345.6 
L 460.8 0 
L 0 0 
z
" style="fill: #ffffff"/>
  </g>
  <g id="axes_1">
   <g id="patch_2">
    <path d="M 57.6 307.584 
L 414.72 307.584 
L 414.72 41.472 
L 57.6 41.472 
z
" style="fill: #ffffff"/>
   </g>
   <g id="matplotlib.axis_1">
    <g id="xtick_1">
     <g id="line2d_1">
      <defs>
       <path id="med22692e0a" d="M 0 0 
L 0 3.5 
" style="stroke: #000000; stroke-width: 0.8"/>
      </defs>
      <g>
       <use xlink:href="#med22692e0a" x="73.832727" y="307.584" style="stroke: #000000; stroke-width: 0.8"/>
      </g>
     </g>
     <g id="text_1">
      <!-- $\mathdefault{10^{0}}$ -->
      <g transform="translate(56.232727 329.780875) scale(0.2 -0.2)">
       <defs>
        <path id="DejaVuSans-31" d="M 794 531 
L 1825 531 
L 1825 4091 
L 703 3866 
L 703 4441 
L 1819 4666 
L 2450 4666 
L 2450 531 
L 3481 531 
L 3481 0 
L 794 0 
L 794 531 
z
" transform="scale(0.015625)"/>
        <path id="DejaVuSans-30" d="M 2034 4250 
Q 1547 4250 1301 3770 
Q 1056 3291 1056 2328 
Q 1056 1369 1301 889 
Q 1547 409 2034 409 
Q 2525 409 2770 889 
Q 3016 1369 3016 2328 
Q 3016 3291 2770 3770 
Q 2525 4250 2034 4250 
z
M 2034 4750 
Q 2819 4750 3233 4129 
Q 3647 3509 3647 2328 
Q 3647 1150 3233 529 
Q 2819 -91 2034 -91 
Q 1250 -91 836 529 
Q 422 1150 422 2328 
Q 422 3509 836 4129 
Q 1250 4750 2034 4750 
z
" transform="scale(0.015625)"/>
       </defs>
       <use xlink:href="#DejaVuSans-31" transform="translate(0 0.765625)"/>
       <use xlink:href="#DejaVuSans-30" transform="translate(63.623047 0.765625)"/>
       <use xlink:href="#DejaVuSans-30" transform="translate(128.203125 39.046875) scale(0.7)"/>
      </g>
     </g>
    </g>
    <g id="xtick_2">
     <g id="line2d_2">
      <g>
       <use xlink:href="#med22692e0a" x="236.16" y="307.584" style="stroke: #000000; stroke-width: 0.8"/>
      </g>
     </g>
     <g id="text_2">
      <!-- $\mathdefault{10^{1}}$ -->
      <g transform="translate(218.56 329.780875) scale(0.2 -0.2)">
       <use xlink:href="#DejaVuSans-31" transform="translate(0 0.684375)"/>
       <use xlink:href="#DejaVuSans-30" transform="translate(63.623047 0.684375)"/>
       <use xlink:href="#DejaVuSans-31" transform="translate(128.203125 38.965625) scale(0.7)"/>
      </g>
     </g>
    </g>
    <g id="xtick_3">
     <g id="line2d_3">
      <g>
       <use xlink:href="#med22692e0a" x="398.487273" y="307.584" style="stroke: #000000; stroke-width: 0.8"/>
      </g>
     </g>
     <g id="text_3">
      <!-- $\mathdefault{10^{2}}$ -->
      <g transform="translate(380.887273 329.780875) scale(0.2 -0.2)">
       <defs>
        <path id="DejaVuSans-32" d="M 1228 531 
L 3431 531 
L 3431 0 
L 469 0 
L 469 531 
Q 828 903 1448 1529 
Q 2069 2156 2228 2338 
Q 2531 2678 2651 2914 
Q 2772 3150 2772 3378 
Q 2772 3750 2511 3984 
Q 2250 4219 1831 4219 
Q 1534 4219 1204 4116 
Q 875 4013 500 3803 
L 500 4441 
Q 881 4594 1212 4672 
Q 1544 4750 1819 4750 
Q 2544 4750 2975 4387 
Q 3406 4025 3406 3419 
Q 3406 3131 3298 2873 
Q 3191 2616 2906 2266 
Q 2828 2175 2409 1742 
Q 1991 1309 1228 531 
z
" transform="scale(0.015625)"/>
       </defs>
       <use xlink:href="#DejaVuSans-31" transform="translate(0 0.765625)"/>
       <use xlink:href="#DejaVuSans-30" transform="translate(63.623047 0.765625)"/>
       <use xlink:href="#DejaVuSans-32" transform="translate(128.203125 39.046875) scale(0.7)"/>
      </g>
     </g>
    </g>
    <g id="xtick_4">
     <g id="line2d_4">
      <defs>
       <path id="mee8f193718" d="M 0 0 
L 0 2 
" style="stroke: #000000; stroke-width: 0.6"/>
      </defs>
      <g>
       <use xlink:href="#mee8f193718" x="58.101589" y="307.584" style="stroke: #000000; stroke-width: 0.6"/>
      </g>
     </g>
    </g>
    <g id="xtick_5">
     <g id="line2d_5">
      <g>
       <use xlink:href="#mee8f193718" x="66.405039" y="307.584" style="stroke: #000000; stroke-width: 0.6"/>
      </g>
     </g>
    </g>
    <g id="xtick_6">
     <g id="line2d_6">
      <g>
       <use xlink:href="#mee8f193718" x="122.698105" y="307.584" style="stroke: #000000; stroke-width: 0.6"/>
      </g>
     </g>
    </g>
    <g id="xtick_7">
     <g id="line2d_7">
      <g>
       <use xlink:href="#mee8f193718" x="151.282519" y="307.584" style="stroke: #000000; stroke-width: 0.6"/>
      </g>
     </g>
    </g>
    <g id="xtick_8">
     <g id="line2d_8">
      <g>
       <use xlink:href="#mee8f193718" x="171.563484" y="307.584" style="stroke: #000000; stroke-width: 0.6"/>
      </g>
     </g>
    </g>
    <g id="xtick_9">
     <g id="line2d_9">
      <g>
       <use xlink:href="#mee8f193718" x="187.294622" y="307.584" style="stroke: #000000; stroke-width: 0.6"/>
      </g>
     </g>
    </g>
    <g id="xtick_10">
     <g id="line2d_10">
      <g>
       <use xlink:href="#mee8f193718" x="200.147898" y="307.584" style="stroke: #000000; stroke-width: 0.6"/>
      </g>
     </g>
    </g>
    <g id="xtick_11">
     <g id="line2d_11">
      <g>
       <use xlink:href="#mee8f193718" x="211.015187" y="307.584" style="stroke: #000000; stroke-width: 0.6"/>
      </g>
     </g>
    </g>
    <g id="xtick_12">
     <g id="line2d_12">
      <g>
       <use xlink:href="#mee8f193718" x="220.428862" y="307.584" style="stroke: #000000; stroke-width: 0.6"/>
      </g>
     </g>
    </g>
    <g id="xtick_13">
     <g id="line2d_13">
      <g>
       <use xlink:href="#mee8f193718" x="228.732311" y="307.584" style="stroke: #000000; stroke-width: 0.6"/>
      </g>
     </g>
    </g>
    <g id="xtick_14">
     <g id="line2d_14">
      <g>
       <use xlink:href="#mee8f193718" x="285.025378" y="307.584" style="stroke: #000000; stroke-width: 0.6"/>
      </g>
     </g>
    </g>
    <g id="xtick_15">
     <g id="line2d_15">
      <g>
       <use xlink:href="#mee8f193718" x="313.609792" y="307.584" style="stroke: #000000; stroke-width: 0.6"/>
      </g>
     </g>
    </g>
    <g id="xtick_16">
     <g id="line2d_16">
      <g>
       <use xlink:href="#mee8f193718" x="333.890756" y="307.584" style="stroke: #000000; stroke-width: 0.6"/>
      </g>
     </g>
    </g>
    <g id="xtick_17">
     <g id="line2d_17">
      <g>
       <use xlink:href="#mee8f193718" x="349.621895" y="307.584" style="stroke: #000000; stroke-width: 0.6"/>
      </g>
     </g>
    </g>
    <g id="xtick_18">
     <g id="line2d_18">
      <g>
       <use xlink:href="#mee8f193718" x="362.47517" y="307.584" style="stroke: #000000; stroke-width: 0.6"/>
      </g>
     </g>
    </g>
    <g id="xtick_19">
     <g id="line2d_19">
      <g>
       <use xlink:href="#mee8f193718" x="373.34246" y="307.584" style="stroke: #000000; stroke-width: 0.6"/>
      </g>
     </g>
    </g>
    <g id="xtick_20">
     <g id="line2d_20">
      <g>
       <use xlink:href="#mee8f193718" x="382.756135" y="307.584" style="stroke: #000000; stroke-width: 0.6"/>
      </g>
     </g>
    </g>
    <g id="xtick_21">
     <g id="line2d_21">
      <g>
       <use xlink:href="#mee8f193718" x="391.059584" y="307.584" style="stroke: #000000; stroke-width: 0.6"/>
      </g>
     </g>
    </g>
    <g id="text_4">
     <!-- Mode Gap -->
     <g transform="translate(160.182656 360.735562) scale(0.3 -0.3)">
      <defs>
       <path id="DejaVuSans-4d" d="M 628 4666 
L 1569 4666 
L 2759 1491 
L 3956 4666 
L 4897 4666 
L 4897 0 
L 4281 0 
L 4281 4097 
L 3078 897 
L 2444 897 
L 1241 4097 
L 1241 0 
L 628 0 
L 628 4666 
z
" transform="scale(0.015625)"/>
       <path id="DejaVuSans-6f" d="M 1959 3097 
Q 1497 3097 1228 2736 
Q 959 2375 959 1747 
Q 959 1119 1226 758 
Q 1494 397 1959 397 
Q 2419 397 2687 759 
Q 2956 1122 2956 1747 
Q 2956 2369 2687 2733 
Q 2419 3097 1959 3097 
z
M 1959 3584 
Q 2709 3584 3137 3096 
Q 3566 2609 3566 1747 
Q 3566 888 3137 398 
Q 2709 -91 1959 -91 
Q 1206 -91 779 398 
Q 353 888 353 1747 
Q 353 2609 779 3096 
Q 1206 3584 1959 3584 
z
" transform="scale(0.015625)"/>
       <path id="DejaVuSans-64" d="M 2906 2969 
L 2906 4863 
L 3481 4863 
L 3481 0 
L 2906 0 
L 2906 525 
Q 2725 213 2448 61 
Q 2172 -91 1784 -91 
Q 1150 -91 751 415 
Q 353 922 353 1747 
Q 353 2572 751 3078 
Q 1150 3584 1784 3584 
Q 2172 3584 2448 3432 
Q 2725 3281 2906 2969 
z
M 947 1747 
Q 947 1113 1208 752 
Q 1469 391 1925 391 
Q 2381 391 2643 752 
Q 2906 1113 2906 1747 
Q 2906 2381 2643 2742 
Q 2381 3103 1925 3103 
Q 1469 3103 1208 2742 
Q 947 2381 947 1747 
z
" transform="scale(0.015625)"/>
       <path id="DejaVuSans-65" d="M 3597 1894 
L 3597 1613 
L 953 1613 
Q 991 1019 1311 708 
Q 1631 397 2203 397 
Q 2534 397 2845 478 
Q 3156 559 3463 722 
L 3463 178 
Q 3153 47 2828 -22 
Q 2503 -91 2169 -91 
Q 1331 -91 842 396 
Q 353 884 353 1716 
Q 353 2575 817 3079 
Q 1281 3584 2069 3584 
Q 2775 3584 3186 3129 
Q 3597 2675 3597 1894 
z
M 3022 2063 
Q 3016 2534 2758 2815 
Q 2500 3097 2075 3097 
Q 1594 3097 1305 2825 
Q 1016 2553 972 2059 
L 3022 2063 
z
" transform="scale(0.015625)"/>
       <path id="DejaVuSans-20" transform="scale(0.015625)"/>
       <path id="DejaVuSans-47" d="M 3809 666 
L 3809 1919 
L 2778 1919 
L 2778 2438 
L 4434 2438 
L 4434 434 
Q 4069 175 3628 42 
Q 3188 -91 2688 -91 
Q 1594 -91 976 548 
Q 359 1188 359 2328 
Q 359 3472 976 4111 
Q 1594 4750 2688 4750 
Q 3144 4750 3555 4637 
Q 3966 4525 4313 4306 
L 4313 3634 
Q 3963 3931 3569 4081 
Q 3175 4231 2741 4231 
Q 1884 4231 1454 3753 
Q 1025 3275 1025 2328 
Q 1025 1384 1454 906 
Q 1884 428 2741 428 
Q 3075 428 3337 486 
Q 3600 544 3809 666 
z
" transform="scale(0.015625)"/>
       <path id="DejaVuSans-61" d="M 2194 1759 
Q 1497 1759 1228 1600 
Q 959 1441 959 1056 
Q 959 750 1161 570 
Q 1363 391 1709 391 
Q 2188 391 2477 730 
Q 2766 1069 2766 1631 
L 2766 1759 
L 2194 1759 
z
M 3341 1997 
L 3341 0 
L 2766 0 
L 2766 531 
Q 2569 213 2275 61 
Q 1981 -91 1556 -91 
Q 1019 -91 701 211 
Q 384 513 384 1019 
Q 384 1609 779 1909 
Q 1175 2209 1959 2209 
L 2766 2209 
L 2766 2266 
Q 2766 2663 2505 2880 
Q 2244 3097 1772 3097 
Q 1472 3097 1187 3025 
Q 903 2953 641 2809 
L 641 3341 
Q 956 3463 1253 3523 
Q 1550 3584 1831 3584 
Q 2591 3584 2966 3190 
Q 3341 2797 3341 1997 
z
" transform="scale(0.015625)"/>
       <path id="DejaVuSans-70" d="M 1159 525 
L 1159 -1331 
L 581 -1331 
L 581 3500 
L 1159 3500 
L 1159 2969 
Q 1341 3281 1617 3432 
Q 1894 3584 2278 3584 
Q 2916 3584 3314 3078 
Q 3713 2572 3713 1747 
Q 3713 922 3314 415 
Q 2916 -91 2278 -91 
Q 1894 -91 1617 61 
Q 1341 213 1159 525 
z
M 3116 1747 
Q 3116 2381 2855 2742 
Q 2594 3103 2138 3103 
Q 1681 3103 1420 2742 
Q 1159 2381 1159 1747 
Q 1159 1113 1420 752 
Q 1681 391 2138 391 
Q 2594 391 2855 752 
Q 3116 1113 3116 1747 
z
" transform="scale(0.015625)"/>
      </defs>
      <use xlink:href="#DejaVuSans-4d"/>
      <use xlink:href="#DejaVuSans-6f" x="86.279297"/>
      <use xlink:href="#DejaVuSans-64" x="147.460938"/>
      <use xlink:href="#DejaVuSans-65" x="210.9375"/>
      <use xlink:href="#DejaVuSans-20" x="272.460938"/>
      <use xlink:href="#DejaVuSans-47" x="304.248047"/>
      <use xlink:href="#DejaVuSans-61" x="381.738281"/>
      <use xlink:href="#DejaVuSans-70" x="443.017578"/>
     </g>
    </g>
   </g>
   <g id="matplotlib.axis_2">
    <g id="ytick_1">
     <g id="line2d_22">
      <defs>
       <path id="ma802b3a20e" d="M 0 0 
L -3.5 0 
" style="stroke: #000000; stroke-width: 0.8"/>
      </defs>
      <g>
       <use xlink:href="#ma802b3a20e" x="57.6" y="295.535855" style="stroke: #000000; stroke-width: 0.8"/>
      </g>
     </g>
     <g id="text_5">
      <!-- $0$ -->
      <g transform="translate(37.8 303.134292) scale(0.2 -0.2)">
       <use xlink:href="#DejaVuSans-30" transform="translate(0 0.78125)"/>
      </g>
     </g>
    </g>
    <g id="ytick_2">
     <g id="line2d_23">
      <g>
       <use xlink:href="#ma802b3a20e" x="57.6" y="178.192669" style="stroke: #000000; stroke-width: 0.8"/>
      </g>
     </g>
     <g id="text_6">
      <!-- $\pi/4$ -->
      <g transform="translate(19 185.791106) scale(0.2 -0.2)">
       <defs>
        <path id="DejaVuSans-Oblique-3c0" d="M 584 3500 
L 3938 3500 
L 3825 2925 
L 3384 2925 
L 2966 775 
Q 2922 550 2981 450 
Q 3038 353 3209 353 
Q 3256 353 3325 363 
Q 3397 369 3419 372 
L 3338 -44 
Q 3222 -84 3103 -103 
Q 2981 -122 2866 -122 
Q 2491 -122 2388 81 
Q 2284 288 2391 838 
L 2797 2925 
L 1506 2925 
L 938 0 
L 350 0 
L 919 2925 
L 472 2925 
L 584 3500 
z
" transform="scale(0.015625)"/>
        <path id="DejaVuSans-2f" d="M 1625 4666 
L 2156 4666 
L 531 -594 
L 0 -594 
L 1625 4666 
z
" transform="scale(0.015625)"/>
        <path id="DejaVuSans-34" d="M 2419 4116 
L 825 1625 
L 2419 1625 
L 2419 4116 
z
M 2253 4666 
L 3047 4666 
L 3047 1625 
L 3713 1625 
L 3713 1100 
L 3047 1100 
L 3047 0 
L 2419 0 
L 2419 1100 
L 313 1100 
L 313 1709 
L 2253 4666 
z
" transform="scale(0.015625)"/>
       </defs>
       <use xlink:href="#DejaVuSans-Oblique-3c0" transform="translate(0 0.09375)"/>
       <use xlink:href="#DejaVuSans-2f" transform="translate(60.205078 0.09375)"/>
       <use xlink:href="#DejaVuSans-34" transform="translate(93.896484 0.09375)"/>
      </g>
     </g>
    </g>
    <g id="ytick_3">
     <g id="line2d_24">
      <g>
       <use xlink:href="#ma802b3a20e" x="57.6" y="60.849483" style="stroke: #000000; stroke-width: 0.8"/>
      </g>
     </g>
     <g id="text_7">
      <!-- $\pi/2$ -->
      <g transform="translate(19.8 68.44792) scale(0.2 -0.2)">
       <use xlink:href="#DejaVuSans-Oblique-3c0" transform="translate(0 0.78125)"/>
       <use xlink:href="#DejaVuSans-2f" transform="translate(60.205078 0.78125)"/>
       <use xlink:href="#DejaVuSans-32" transform="translate(90.271484 0.78125)"/>
      </g>
     </g>
    </g>
    <g id="text_8">
     <!-- $\theta$ in radians -->
     <g transform="translate(8.760937 262.578) rotate(-90) scale(0.3 -0.3)">
      <defs>
       <path id="DejaVuSans-Oblique-3b8" d="M 2913 2219 
L 925 2219 
Q 791 1284 928 888 
Q 1100 400 1566 400 
Q 2034 400 2391 891 
Q 2703 1322 2913 2219 
z
M 3009 2750 
Q 3094 3638 2984 3950 
Q 2813 4444 2353 4444 
Q 1875 4444 1525 3956 
Q 1250 3563 1034 2750 
L 3009 2750 
z
M 2444 4913 
Q 3194 4913 3494 4250 
Q 3794 3591 3566 2422 
Q 3341 1256 2781 594 
Q 2225 -72 1475 -72 
Q 722 -72 425 594 
Q 128 1256 353 2422 
Q 581 3591 1134 4250 
Q 1691 4913 2444 4913 
z
" transform="scale(0.015625)"/>
       <path id="DejaVuSans-69" d="M 603 3500 
L 1178 3500 
L 1178 0 
L 603 0 
L 603 3500 
z
M 603 4863 
L 1178 4863 
L 1178 4134 
L 603 4134 
L 603 4863 
z
" transform="scale(0.015625)"/>
       <path id="DejaVuSans-6e" d="M 3513 2113 
L 3513 0 
L 2938 0 
L 2938 2094 
Q 2938 2591 2744 2837 
Q 2550 3084 2163 3084 
Q 1697 3084 1428 2787 
Q 1159 2491 1159 1978 
L 1159 0 
L 581 0 
L 581 3500 
L 1159 3500 
L 1159 2956 
Q 1366 3272 1645 3428 
Q 1925 3584 2291 3584 
Q 2894 3584 3203 3211 
Q 3513 2838 3513 2113 
z
" transform="scale(0.015625)"/>
       <path id="DejaVuSans-72" d="M 2631 2963 
Q 2534 3019 2420 3045 
Q 2306 3072 2169 3072 
Q 1681 3072 1420 2755 
Q 1159 2438 1159 1844 
L 1159 0 
L 581 0 
L 581 3500 
L 1159 3500 
L 1159 2956 
Q 1341 3275 1631 3429 
Q 1922 3584 2338 3584 
Q 2397 3584 2469 3576 
Q 2541 3569 2628 3553 
L 2631 2963 
z
" transform="scale(0.015625)"/>
       <path id="DejaVuSans-73" d="M 2834 3397 
L 2834 2853 
Q 2591 2978 2328 3040 
Q 2066 3103 1784 3103 
Q 1356 3103 1142 2972 
Q 928 2841 928 2578 
Q 928 2378 1081 2264 
Q 1234 2150 1697 2047 
L 1894 2003 
Q 2506 1872 2764 1633 
Q 3022 1394 3022 966 
Q 3022 478 2636 193 
Q 2250 -91 1575 -91 
Q 1294 -91 989 -36 
Q 684 19 347 128 
L 347 722 
Q 666 556 975 473 
Q 1284 391 1588 391 
Q 1994 391 2212 530 
Q 2431 669 2431 922 
Q 2431 1156 2273 1281 
Q 2116 1406 1581 1522 
L 1381 1569 
Q 847 1681 609 1914 
Q 372 2147 372 2553 
Q 372 3047 722 3315 
Q 1072 3584 1716 3584 
Q 2034 3584 2315 3537 
Q 2597 3491 2834 3397 
z
" transform="scale(0.015625)"/>
      </defs>
      <use xlink:href="#DejaVuSans-Oblique-3b8" transform="translate(0 0.234375)"/>
      <use xlink:href="#DejaVuSans-20" transform="translate(61.181641 0.234375)"/>
      <use xlink:href="#DejaVuSans-69" transform="translate(92.96875 0.234375)"/>
      <use xlink:href="#DejaVuSans-6e" transform="translate(120.751953 0.234375)"/>
      <use xlink:href="#DejaVuSans-20" transform="translate(184.130859 0.234375)"/>
      <use xlink:href="#DejaVuSans-72" transform="translate(215.917969 0.234375)"/>
      <use xlink:href="#DejaVuSans-61" transform="translate(257.03125 0.234375)"/>
      <use xlink:href="#DejaVuSans-64" transform="translate(318.310547 0.234375)"/>
      <use xlink:href="#DejaVuSans-69" transform="translate(381.787109 0.234375)"/>
      <use xlink:href="#DejaVuSans-61" transform="translate(409.570312 0.234375)"/>
      <use xlink:href="#DejaVuSans-6e" transform="translate(470.849609 0.234375)"/>
      <use xlink:href="#DejaVuSans-73" transform="translate(534.228516 0.234375)"/>
     </g>
    </g>
   </g>
   <g id="line2d_25">
    <path d="M 398.487273 120.141402 
L 395.207934 120.144151 
L 391.928595 120.147167 
L 388.649256 120.150472 
L 385.369917 120.154106 
L 382.090579 120.158091 
L 378.81124 120.162455 
L 375.531901 120.167259 
L 372.252562 120.172525 
L 368.973223 120.178288 
L 365.693884 120.184628 
L 362.414545 120.191602 
L 359.135207 120.199225 
L 355.855868 120.207615 
L 352.576529 120.216822 
L 349.29719 120.226909 
L 346.017851 120.237987 
L 342.738512 120.250152 
L 339.459174 120.263505 
L 336.179835 120.278142 
L 332.900496 120.294213 
L 329.621157 120.31185 
L 326.341818 120.331203 
L 323.062479 120.352453 
L 319.78314 120.375759 
L 316.503802 120.401338 
L 313.224463 120.429425 
L 309.945124 120.460235 
L 306.665785 120.494048 
L 303.386446 120.531166 
L 300.107107 120.571893 
L 296.827769 120.616582 
L 293.54843 120.665621 
L 290.269091 120.719433 
L 286.989752 120.778489 
L 283.710413 120.84329 
L 280.431074 120.914406 
L 277.151736 120.992437 
L 273.872397 121.078073 
L 270.593058 121.172018 
L 267.313719 121.275114 
L 264.03438 121.388229 
L 260.755041 121.51233 
L 257.475702 121.648494 
L 254.196364 121.797882 
L 250.917025 121.96179 
L 247.637686 122.144877 
L 244.358347 122.338876 
L 241.079008 122.555292 
L 237.799669 122.792702 
L 234.520331 123.053122 
L 231.240992 123.338738 
L 227.961653 123.651958 
L 224.682314 123.995413 
L 221.402975 124.371975 
L 218.123636 124.784808 
L 214.844298 125.237373 
L 211.564959 125.733406 
L 208.28562 126.277053 
L 205.006281 126.872777 
L 201.726942 127.525491 
L 198.447603 128.240517 
L 195.168264 129.023662 
L 191.888926 129.881247 
L 188.609587 130.820148 
L 185.330248 131.847756 
L 182.050909 132.972154 
L 178.77157 134.202044 
L 175.492231 135.546815 
L 172.212893 137.016604 
L 168.933554 138.62224 
L 165.654215 140.382378 
L 162.374876 142.296743 
L 159.095537 144.384329 
L 155.816198 146.659005 
L 152.53686 149.135395 
L 149.257521 151.82868 
L 145.978182 154.754544 
L 142.698843 157.928997 
L 139.419504 161.368064 
L 136.140165 165.087616 
L 132.860826 169.102913 
L 129.581488 173.428065 
L 126.302149 178.055912 
L 123.02281 183.043019 
L 119.743471 188.378783 
L 116.464132 194.072044 
L 113.184793 200.092529 
L 109.905455 206.405714 
L 106.626116 213.092137 
L 103.346777 220.102541 
L 100.067438 227.393115 
L 96.788099 235.035204 
L 93.50876 242.937966 
L 90.229421 251.122264 
L 86.950083 259.59007 
L 83.670744 268.355584 
L 80.391405 277.420351 
L 77.112066 286.83698 
L 73.832727 294.793788 
" clip-path="url(#p5f8b03a322)" style="fill: none; stroke: #f2f0f7; stroke-width: 1.5; stroke-linecap: square"/>
   </g>
   <g id="line2d_26">
    <path d="M 398.487273 113.119476 
L 395.207934 113.121869 
L 391.928595 113.124514 
L 388.649256 113.127418 
L 385.369917 113.130588 
L 382.090579 113.134077 
L 378.81124 113.137892 
L 375.531901 113.142108 
L 372.252562 113.146713 
L 368.973223 113.151769 
L 365.693884 113.157312 
L 362.414545 113.163417 
L 359.135207 113.170094 
L 355.855868 113.177426 
L 352.576529 113.185471 
L 349.29719 113.194313 
L 346.017851 113.204013 
L 342.738512 113.214659 
L 339.459174 113.226349 
L 336.179835 113.239153 
L 332.900496 113.253226 
L 329.621157 113.268658 
L 326.341818 113.2856 
L 323.062479 113.304195 
L 319.78314 113.324611 
L 316.503802 113.347002 
L 313.224463 113.371574 
L 309.945124 113.398552 
L 306.665785 113.428133 
L 303.386446 113.460625 
L 300.107107 113.496262 
L 296.827769 113.532149 
L 293.54843 113.576462 
L 290.269091 113.624917 
L 286.989752 113.677883 
L 283.710413 113.735776 
L 280.431074 113.796043 
L 277.151736 113.864327 
L 273.872397 113.93927 
L 270.593058 114.021495 
L 267.313719 114.111706 
L 264.03438 114.2107 
L 260.755041 114.319307 
L 257.475702 114.438471 
L 254.196364 114.569196 
L 250.917025 114.712611 
L 247.637686 114.86995 
L 244.358347 115.044851 
L 241.079008 115.232266 
L 237.799669 115.439594 
L 234.520331 115.667402 
L 231.240992 115.917264 
L 227.961653 116.19128 
L 224.682314 116.491744 
L 221.402975 116.821166 
L 218.123636 117.182311 
L 214.844298 117.57819 
L 211.564959 118.0121 
L 208.28562 118.487634 
L 205.006281 119.008695 
L 201.726942 119.579601 
L 198.447603 120.204957 
L 195.168264 120.889876 
L 191.888926 121.639875 
L 188.609587 122.460956 
L 185.330248 123.359598 
L 182.050909 124.342849 
L 178.77157 125.418354 
L 175.492231 126.594315 
L 172.212893 127.879607 
L 168.933554 129.283771 
L 165.654215 130.817046 
L 162.374876 132.490382 
L 159.095537 134.315485 
L 155.816198 136.304764 
L 152.53686 138.471337 
L 149.257521 140.838014 
L 145.978182 143.402194 
L 142.698843 146.186961 
L 139.419504 149.207826 
L 136.140165 152.468306 
L 132.860826 156.009122 
L 129.581488 159.835496 
L 126.302149 163.964895 
L 123.02281 168.415655 
L 119.743471 173.207493 
L 116.464132 178.362282 
L 113.184793 183.889612 
L 109.905455 189.752447 
L 106.626116 196.155286 
L 103.346777 202.994954 
L 100.067438 210.354889 
L 96.788099 218.268052 
L 93.50876 226.851056 
L 90.229421 236.226819 
L 86.950083 246.518043 
L 83.670744 257.677634 
L 80.391405 269.570855 
L 77.112066 282.475373 
L 73.832727 295.488 
" clip-path="url(#p5f8b03a322)" style="fill: none; stroke: #cbc9e2; stroke-width: 1.5; stroke-linecap: square"/>
   </g>
   <g id="line2d_27">
    <path d="M 398.487273 79.932285 
L 395.207934 79.933149 
L 391.928595 79.934084 
L 388.649256 79.93512 
L 385.369917 79.936251 
L 382.090579 79.937497 
L 378.81124 79.938853 
L 375.531901 79.940353 
L 372.252562 79.94199 
L 368.973223 79.943791 
L 365.693884 79.945771 
L 362.414545 79.947947 
L 359.135207 79.950323 
L 355.855868 79.952945 
L 352.576529 79.955815 
L 349.29719 79.958958 
L 346.017851 79.962411 
L 342.738512 79.96621 
L 339.459174 79.970364 
L 336.179835 79.974939 
L 332.900496 79.979946 
L 329.621157 79.98545 
L 326.341818 79.991492 
L 323.062479 79.998111 
L 319.78314 80.005386 
L 316.503802 80.013354 
L 313.224463 80.022113 
L 309.945124 80.031721 
L 306.665785 80.042261 
L 303.386446 80.053839 
L 300.107107 80.066531 
L 296.827769 80.080462 
L 293.54843 80.095746 
L 290.269091 80.112524 
L 286.989752 80.130932 
L 283.710413 80.151133 
L 280.431074 80.17062 
L 277.151736 80.195683 
L 273.872397 80.223052 
L 270.593058 80.252876 
L 267.313719 80.285411 
L 264.03438 80.320943 
L 260.755041 80.359769 
L 257.475702 80.402248 
L 254.196364 80.448778 
L 250.917025 80.499823 
L 247.637686 80.555777 
L 244.358347 80.617104 
L 241.079008 80.684162 
L 237.799669 80.757355 
L 234.520331 80.837199 
L 231.240992 80.928172 
L 227.961653 81.025607 
L 224.682314 81.132446 
L 221.402975 81.249552 
L 218.123636 81.377948 
L 214.844298 81.518662 
L 211.564959 81.672884 
L 208.28562 81.841876 
L 205.006281 82.027544 
L 201.726942 82.229839 
L 198.447603 82.451962 
L 195.168264 82.695202 
L 191.888926 82.961495 
L 188.609587 83.252956 
L 185.330248 83.571897 
L 182.050909 83.920821 
L 178.77157 84.30241 
L 175.492231 84.719593 
L 172.212893 85.17553 
L 168.933554 85.673656 
L 165.654215 86.217612 
L 162.374876 86.811433 
L 159.095537 87.45935 
L 155.816198 88.16606 
L 152.53686 88.936522 
L 149.257521 89.776164 
L 145.978182 90.690932 
L 142.698843 91.687251 
L 139.419504 92.772437 
L 136.140165 93.954542 
L 132.860826 95.243064 
L 129.581488 96.649186 
L 126.302149 98.186708 
L 123.02281 99.873141 
L 119.743471 101.731801 
L 116.464132 103.794449 
L 113.184793 106.106026 
L 109.905455 108.731409 
L 106.626116 111.723747 
L 103.346777 115.326067 
L 100.067438 119.712064 
L 96.788099 125.209146 
L 93.50876 132.335301 
L 90.229421 141.921274 
L 86.950083 155.734078 
L 83.670744 175.747347 
L 80.391405 205.703654 
L 77.112066 248.771758 
L 73.832727 288.254372 
" clip-path="url(#p5f8b03a322)" style="fill: none; stroke: #9e9ac8; stroke-width: 1.5; stroke-linecap: square"/>
   </g>
   <g id="line2d_28">
    <path d="M 398.487273 66.095299 
L 395.207934 66.095545 
L 391.928595 66.095795 
L 388.649256 66.096078 
L 385.369917 66.096389 
L 382.090579 66.096729 
L 378.81124 66.097111 
L 375.531901 66.097517 
L 372.252562 66.097975 
L 368.973223 66.098468 
L 365.693884 66.099004 
L 362.414545 66.099609 
L 359.135207 66.10026 
L 355.855868 66.10099 
L 352.576529 66.101773 
L 349.29719 66.102637 
L 346.017851 66.103592 
L 342.738512 66.104625 
L 339.459174 66.105783 
L 336.179835 66.107027 
L 332.900496 66.10841 
L 329.621157 66.109919 
L 326.341818 66.111581 
L 323.062479 66.113396 
L 319.78314 66.115397 
L 316.503802 66.117595 
L 313.224463 66.120002 
L 309.945124 66.122647 
L 306.665785 66.125548 
L 303.386446 66.128722 
L 300.107107 66.132227 
L 296.827769 66.136055 
L 293.54843 66.14025 
L 290.269091 66.144864 
L 286.989752 66.149925 
L 283.710413 66.155484 
L 280.431074 66.161583 
L 277.151736 66.168266 
L 273.872397 66.175599 
L 270.593058 66.180625 
L 267.313719 66.190059 
L 264.03438 66.200339 
L 260.755041 66.211509 
L 257.475702 66.223637 
L 254.196364 66.236793 
L 250.917025 66.251085 
L 247.637686 66.266609 
L 244.358347 66.283546 
L 241.079008 66.30208 
L 237.799669 66.322383 
L 234.520331 66.344637 
L 231.240992 66.368956 
L 227.961653 66.395452 
L 224.682314 66.424341 
L 221.402975 66.455963 
L 218.123636 66.49083 
L 214.844298 66.531405 
L 211.564959 66.573804 
L 208.28562 66.619143 
L 205.006281 66.670702 
L 201.726942 66.727034 
L 198.447603 66.788466 
L 195.168264 66.854911 
L 191.888926 66.928147 
L 188.609587 67.008303 
L 185.330248 67.096038 
L 182.050909 67.192012 
L 178.77157 67.296982 
L 175.492231 67.411765 
L 172.212893 67.537206 
L 168.933554 67.67431 
L 165.654215 67.824034 
L 162.374876 67.987519 
L 159.095537 68.165935 
L 155.816198 68.36059 
L 152.53686 68.572877 
L 149.257521 68.804313 
L 145.978182 69.056569 
L 142.698843 69.331456 
L 139.419504 69.631015 
L 136.140165 69.957588 
L 132.860826 70.313857 
L 129.581488 70.702974 
L 126.302149 71.129012 
L 123.02281 71.596997 
L 119.743471 72.09666 
L 116.464132 72.674117 
L 113.184793 73.323662 
L 109.905455 74.064244 
L 106.626116 74.901471 
L 103.346777 75.944767 
L 100.067438 77.214617 
L 96.788099 78.809722 
L 93.50876 80.969334 
L 90.229421 84.073158 
L 86.950083 88.514749 
L 83.670744 96.041979 
L 80.391405 110.360177 
L 77.112066 144.33225 
L 73.832727 262.954845 
" clip-path="url(#p5f8b03a322)" style="fill: none; stroke: #6a51a3; stroke-width: 1.5; stroke-linecap: square"/>
   </g>
   <g id="line2d_29">
    <path d="M 398.487273 236.243935 
L 395.207934 236.241186 
L 391.928595 236.238171 
L 388.649256 236.234865 
L 385.369917 236.231231 
L 382.090579 236.227247 
L 378.81124 236.222882 
L 375.531901 236.218078 
L 372.252562 236.212813 
L 368.973223 236.207049 
L 365.693884 236.200709 
L 362.414545 236.193735 
L 359.135207 236.186113 
L 355.855868 236.177723 
L 352.576529 236.168515 
L 349.29719 236.158428 
L 346.017851 236.14735 
L 342.738512 236.135185 
L 339.459174 236.121833 
L 336.179835 236.107195 
L 332.900496 236.091125 
L 329.621157 236.073487 
L 326.341818 236.054134 
L 323.062479 236.032885 
L 319.78314 236.009578 
L 316.503802 235.984 
L 313.224463 235.955912 
L 309.945124 235.925103 
L 306.665785 235.891289 
L 303.386446 235.854171 
L 300.107107 235.813444 
L 296.827769 235.768755 
L 293.54843 235.719717 
L 290.269091 235.665904 
L 286.989752 235.606849 
L 283.710413 235.542047 
L 280.431074 235.470932 
L 277.151736 235.392901 
L 273.872397 235.307264 
L 270.593058 235.213319 
L 267.313719 235.110223 
L 264.03438 234.997108 
L 260.755041 234.873007 
L 257.475702 234.736843 
L 254.196364 234.587456 
L 250.917025 234.423548 
L 247.637686 234.240461 
L 244.358347 234.046462 
L 241.079008 233.830045 
L 237.799669 233.592636 
L 234.520331 233.332215 
L 231.240992 233.046599 
L 227.961653 232.733379 
L 224.682314 232.389925 
L 221.402975 232.013363 
L 218.123636 231.600529 
L 214.844298 231.147964 
L 211.564959 230.651932 
L 208.28562 230.108285 
L 205.006281 229.51256 
L 201.726942 228.859846 
L 198.447603 228.14482 
L 195.168264 227.361675 
L 191.888926 226.50409 
L 188.609587 225.56519 
L 185.330248 224.537581 
L 182.050909 223.413184 
L 178.77157 222.183293 
L 175.492231 220.838522 
L 172.212893 219.368734 
L 168.933554 217.763098 
L 165.654215 216.00296 
L 162.374876 214.088595 
L 159.095537 212.001008 
L 155.816198 209.726333 
L 152.53686 207.249942 
L 149.257521 204.556658 
L 145.978182 201.630794 
L 142.698843 198.456341 
L 139.419504 195.017273 
L 136.140165 191.297721 
L 132.860826 187.282424 
L 129.581488 182.957273 
L 126.302149 178.329425 
L 123.02281 173.342318 
L 119.743471 168.006555 
L 116.464132 162.313293 
L 113.184793 156.292809 
L 109.905455 149.979623 
L 106.626116 143.2932 
L 103.346777 136.282796 
L 100.067438 128.992223 
L 96.788099 121.350134 
L 93.50876 113.447372 
L 90.229421 105.263074 
L 86.950083 96.795267 
L 83.670744 88.029753 
L 80.391405 78.964987 
L 77.112066 69.548357 
L 73.832727 60.107416 
" clip-path="url(#p5f8b03a322)" style="fill: none; stroke: #feedde; stroke-width: 1.5; stroke-linecap: square"/>
   </g>
   <g id="line2d_30">
    <path d="M 398.487273 243.265861 
L 395.207934 243.263469 
L 391.928595 243.260823 
L 388.649256 243.257919 
L 385.369917 243.254749 
L 382.090579 243.251261 
L 378.81124 243.247445 
L 375.531901 243.24323 
L 372.252562 243.238625 
L 368.973223 243.233568 
L 365.693884 243.228025 
L 362.414545 243.22192 
L 359.135207 243.215243 
L 355.855868 243.207911 
L 352.576529 243.199866 
L 349.29719 243.191024 
L 346.017851 243.181325 
L 342.738512 243.170679 
L 339.459174 243.158989 
L 336.179835 243.146185 
L 332.900496 243.132112 
L 329.621157 243.116679 
L 326.341818 243.099737 
L 323.062479 243.081143 
L 319.78314 243.060726 
L 316.503802 243.038335 
L 313.224463 243.013764 
L 309.945124 242.986786 
L 306.665785 242.957204 
L 303.386446 242.924712 
L 300.107107 242.889075 
L 296.827769 242.853188 
L 293.54843 242.808875 
L 290.269091 242.76042 
L 286.989752 242.707454 
L 283.710413 242.649562 
L 280.431074 242.589294 
L 277.151736 242.52101 
L 273.872397 242.446067 
L 270.593058 242.363842 
L 267.313719 242.273631 
L 264.03438 242.174638 
L 260.755041 242.06603 
L 257.475702 241.946867 
L 254.196364 241.816141 
L 250.917025 241.672726 
L 247.637686 241.515387 
L 244.358347 241.340486 
L 241.079008 241.153071 
L 237.799669 240.945743 
L 234.520331 240.717936 
L 231.240992 240.468073 
L 227.961653 240.194057 
L 224.682314 239.893593 
L 221.402975 239.564171 
L 218.123636 239.203027 
L 214.844298 238.807147 
L 211.564959 238.373237 
L 208.28562 237.897703 
L 205.006281 237.376642 
L 201.726942 236.805737 
L 198.447603 236.18038 
L 195.168264 235.495462 
L 191.888926 234.745463 
L 188.609587 233.924382 
L 185.330248 233.025739 
L 182.050909 232.042488 
L 178.77157 230.966983 
L 175.492231 229.791023 
L 172.212893 228.50573 
L 168.933554 227.101567 
L 165.654215 225.568291 
L 162.374876 223.894955 
L 159.095537 222.069853 
L 155.816198 220.080574 
L 152.53686 217.914001 
L 149.257521 215.547323 
L 145.978182 212.983143 
L 142.698843 210.198376 
L 139.419504 207.177511 
L 136.140165 203.917032 
L 132.860826 200.376215 
L 129.581488 196.549841 
L 126.302149 192.420442 
L 123.02281 187.969683 
L 119.743471 183.177844 
L 116.464132 178.023055 
L 113.184793 172.495726 
L 109.905455 166.632891 
L 106.626116 160.230052 
L 103.346777 153.390383 
L 100.067438 146.030449 
L 96.788099 138.117285 
L 93.50876 129.534281 
L 90.229421 120.158518 
L 86.950083 109.867294 
L 83.670744 98.707703 
L 80.391405 86.814482 
L 77.112066 73.909964 
L 73.832727 60.801628 
" clip-path="url(#p5f8b03a322)" style="fill: none; stroke: #fdbe85; stroke-width: 1.5; stroke-linecap: square"/>
   </g>
   <g id="line2d_31">
    <path d="M 398.487273 276.453052 
L 395.207934 276.452189 
L 391.928595 276.451254 
L 388.649256 276.450218 
L 385.369917 276.449086 
L 382.090579 276.44784 
L 378.81124 276.446484 
L 375.531901 276.444984 
L 372.252562 276.443348 
L 368.973223 276.441546 
L 365.693884 276.439566 
L 362.414545 276.437391 
L 359.135207 276.435014 
L 355.855868 276.432392 
L 352.576529 276.429522 
L 349.29719 276.426379 
L 346.017851 276.422926 
L 342.738512 276.419128 
L 339.459174 276.414973 
L 336.179835 276.410398 
L 332.900496 276.405391 
L 329.621157 276.399887 
L 326.341818 276.393846 
L 323.062479 276.387226 
L 319.78314 276.379951 
L 316.503802 276.371983 
L 313.224463 276.363225 
L 309.945124 276.353617 
L 306.665785 276.343077 
L 303.386446 276.331499 
L 300.107107 276.318806 
L 296.827769 276.304876 
L 293.54843 276.289591 
L 290.269091 276.272813 
L 286.989752 276.254405 
L 283.710413 276.234204 
L 280.431074 276.214717 
L 277.151736 276.189654 
L 273.872397 276.162285 
L 270.593058 276.132461 
L 267.313719 276.099926 
L 264.03438 276.064394 
L 260.755041 276.025568 
L 257.475702 275.983089 
L 254.196364 275.936559 
L 250.917025 275.885514 
L 247.637686 275.82956 
L 244.358347 275.768233 
L 241.079008 275.701175 
L 237.799669 275.627983 
L 234.520331 275.548138 
L 231.240992 275.457165 
L 227.961653 275.35973 
L 224.682314 275.252892 
L 221.402975 275.135785 
L 218.123636 275.007389 
L 214.844298 274.866675 
L 211.564959 274.712453 
L 208.28562 274.543461 
L 205.006281 274.357794 
L 201.726942 274.155498 
L 198.447603 273.933375 
L 195.168264 273.690135 
L 191.888926 273.423843 
L 188.609587 273.132381 
L 185.330248 272.81344 
L 182.050909 272.464517 
L 178.77157 272.082927 
L 175.492231 271.665745 
L 172.212893 271.209808 
L 168.933554 270.711681 
L 165.654215 270.167725 
L 162.374876 269.573904 
L 159.095537 268.925987 
L 155.816198 268.219278 
L 152.53686 267.448816 
L 149.257521 266.609173 
L 145.978182 265.694406 
L 142.698843 264.698086 
L 139.419504 263.612901 
L 136.140165 262.430795 
L 132.860826 261.142273 
L 129.581488 259.736152 
L 126.302149 258.19863 
L 123.02281 256.512196 
L 119.743471 254.653536 
L 116.464132 252.590888 
L 113.184793 250.279311 
L 109.905455 247.653928 
L 106.626116 244.661591 
L 103.346777 241.05927 
L 100.067438 236.673273 
L 96.788099 231.176192 
L 93.50876 224.050036 
L 90.229421 214.464064 
L 86.950083 200.651259 
L 83.670744 180.637991 
L 80.391405 150.681683 
L 77.112066 107.61358 
L 73.832727 53.568 
" clip-path="url(#p5f8b03a322)" style="fill: none; stroke: #fd8d3c; stroke-width: 1.5; stroke-linecap: square"/>
   </g>
   <g id="line2d_32">
    <path d="M 398.487273 290.290038 
L 395.207934 290.289792 
L 391.928595 290.289542 
L 388.649256 290.28926 
L 385.369917 290.288948 
L 382.090579 290.288608 
L 378.81124 290.288226 
L 375.531901 290.28782 
L 372.252562 290.287362 
L 368.973223 290.286869 
L 365.693884 290.286333 
L 362.414545 290.285728 
L 359.135207 290.285077 
L 355.855868 290.284347 
L 352.576529 290.283565 
L 349.29719 290.2827 
L 346.017851 290.281745 
L 342.738512 290.280712 
L 339.459174 290.279554 
L 336.179835 290.278311 
L 332.900496 290.276927 
L 329.621157 290.275419 
L 326.341818 290.273756 
L 323.062479 290.271941 
L 319.78314 290.26994 
L 316.503802 290.267742 
L 313.224463 290.265336 
L 309.945124 290.262691 
L 306.665785 290.259789 
L 303.386446 290.256615 
L 300.107107 290.253111 
L 296.827769 290.249282 
L 293.54843 290.245087 
L 290.269091 290.240474 
L 286.989752 290.235412 
L 283.710413 290.229854 
L 280.431074 290.223754 
L 277.151736 290.217072 
L 273.872397 290.209739 
L 270.593058 290.204712 
L 267.313719 290.195279 
L 264.03438 290.184999 
L 260.755041 290.173828 
L 257.475702 290.1617 
L 254.196364 290.148544 
L 250.917025 290.134252 
L 247.637686 290.118728 
L 244.358347 290.101791 
L 241.079008 290.083257 
L 237.799669 290.062954 
L 234.520331 290.040701 
L 231.240992 290.016381 
L 227.961653 289.989886 
L 224.682314 289.960996 
L 221.402975 289.929375 
L 218.123636 289.894507 
L 214.844298 289.853932 
L 211.564959 289.811534 
L 208.28562 289.766195 
L 205.006281 289.714635 
L 201.726942 289.658304 
L 198.447603 289.596872 
L 195.168264 289.530426 
L 191.888926 289.457191 
L 188.609587 289.377035 
L 185.330248 289.2893 
L 182.050909 289.193325 
L 178.77157 289.088355 
L 175.492231 288.973573 
L 172.212893 288.848131 
L 168.933554 288.711027 
L 165.654215 288.561303 
L 162.374876 288.397819 
L 159.095537 288.219402 
L 155.816198 288.024748 
L 152.53686 287.81246 
L 149.257521 287.581024 
L 145.978182 287.328769 
L 142.698843 287.053882 
L 139.419504 286.754322 
L 136.140165 286.42775 
L 132.860826 286.07148 
L 129.581488 285.682363 
L 126.302149 285.256325 
L 123.02281 284.788341 
L 119.743471 284.288678 
L 116.464132 283.711221 
L 113.184793 283.061676 
L 109.905455 282.321093 
L 106.626116 281.483866 
L 103.346777 280.440571 
L 100.067438 279.17072 
L 96.788099 277.575615 
L 93.50876 275.416003 
L 90.229421 272.312179 
L 86.950083 267.870588 
L 83.670744 260.343359 
L 80.391405 246.025161 
L 77.112066 212.053087 
L 73.832727 93.430492 
" clip-path="url(#p5f8b03a322)" style="fill: none; stroke: #d94701; stroke-width: 1.5; stroke-linecap: square"/>
   </g>
   <g id="patch_3">
    <path d="M 57.6 307.584 
L 57.6 41.472 
" style="fill: none; stroke: #000000; stroke-width: 0.8; stroke-linejoin: miter; stroke-linecap: square"/>
   </g>
   <g id="patch_4">
    <path d="M 414.72 307.584 
L 414.72 41.472 
" style="fill: none; stroke: #000000; stroke-width: 0.8; stroke-linejoin: miter; stroke-linecap: square"/>
   </g>
   <g id="patch_5">
    <path d="M 57.6 307.584 
L 414.72 307.584 
" style="fill: none; stroke: #000000; stroke-width: 0.8; stroke-linejoin: miter; stroke-linecap: square"/>
   </g>
   <g id="patch_6">
    <path d="M 57.6 41.472 
L 414.72 41.472 
" style="fill: none; stroke: #000000; stroke-width: 0.8; stroke-linejoin: miter; stroke-linecap: square"/>
   </g>
   <g id="legend_1">
    <g id="patch_7">
     <path d="M 440.976 87.912 
L 504.696 87.912 
Q 507.096 87.912 507.096 85.512 
L 507.096 49.872 
Q 507.096 47.472 504.696 47.472 
L 440.976 47.472 
Q 438.576 47.472 438.576 49.872 
L 438.576 85.512 
Q 438.576 87.912 440.976 87.912 
z
" style="fill: #ffffff; opacity: 0.8; stroke: #cccccc; stroke-linejoin: miter"/>
    </g>
    <g id="line2d_33">
     <path d="M 443.376 57.312 
L 455.376 57.312 
L 461.8 57.312 
" style="fill: none; stroke: #6a51a3; stroke-width: 1.5; stroke-linecap: square"/>
    </g>
    <g id="text_9">
     <!-- $\theta_{s,\delta f}$ -->
     <g transform="translate(476.976 61.512) scale(0.12 -0.12)">
      <defs>
       <path id="DejaVuSans-Oblique-73" d="M 3200 3397 
L 3091 2853 
Q 2863 2978 2609 3040 
Q 2356 3103 2088 3103 
Q 1634 3103 1373 2948 
Q 1113 2794 1113 2528 
Q 1113 2219 1719 2053 
Q 1766 2041 1788 2034 
L 1972 1978 
Q 2547 1819 2739 1644 
Q 2931 1469 2931 1166 
Q 2931 609 2489 259 
Q 2047 -91 1331 -91 
Q 1053 -91 747 -37 
Q 441 16 72 128 
L 184 722 
Q 500 559 806 475 
Q 1113 391 1394 391 
Q 1816 391 2080 572 
Q 2344 753 2344 1031 
Q 2344 1331 1650 1516 
L 1591 1531 
L 1394 1581 
Q 956 1697 753 1886 
Q 550 2075 550 2369 
Q 550 2928 970 3256 
Q 1391 3584 2113 3584 
Q 2397 3584 2667 3537 
Q 2938 3491 3200 3397 
z
" transform="scale(0.015625)"/>
       <path id="DejaVuSans-2c" d="M 750 794 
L 1409 794 
L 1409 256 
L 897 -744 
L 494 -744 
L 750 256 
L 750 794 
z
" transform="scale(0.015625)"/>
       <path id="DejaVuSans-Oblique-3b4" d="M 3472 4053 
Q 3197 4272 2450 4272 
Q 1659 4272 1588 3906 
Q 1531 3619 2328 3469 
Q 2953 3353 3253 3003 
Q 3616 2581 3447 1716 
Q 3284 888 2763 400 
Q 2238 -91 1488 -91 
Q 741 -91 406 400 
Q 72 888 241 1747 
Q 363 2384 891 2900 
Q 1097 3100 1353 3213 
Q 913 3459 1000 3900 
Q 1166 4750 2544 4750 
Q 3234 4750 3566 4531 
L 3472 4053 
z
M 1753 3056 
Q 1525 2966 1306 2738 
Q 969 2384 847 1747 
Q 722 1113 919 756 
Q 1119 397 1584 397 
Q 2044 397 2381 759 
Q 2722 1122 2838 1716 
Q 2956 2338 2731 2638 
Q 2491 2959 2103 2994 
Q 1906 3013 1753 3056 
z
" transform="scale(0.015625)"/>
       <path id="DejaVuSans-Oblique-66" d="M 3059 4863 
L 2969 4384 
L 2419 4384 
Q 2106 4384 1964 4261 
Q 1822 4138 1753 3809 
L 1691 3500 
L 2638 3500 
L 2553 3053 
L 1606 3053 
L 1013 0 
L 434 0 
L 1031 3053 
L 481 3053 
L 563 3500 
L 1113 3500 
L 1159 3744 
Q 1278 4363 1576 4613 
Q 1875 4863 2516 4863 
L 3059 4863 
z
" transform="scale(0.015625)"/>
      </defs>
      <use xlink:href="#DejaVuSans-Oblique-3b8" transform="translate(0 0.234375)"/>
      <use xlink:href="#DejaVuSans-Oblique-73" transform="translate(61.181641 -16.171875) scale(0.7)"/>
      <use xlink:href="#DejaVuSans-2c" transform="translate(97.651367 -16.171875) scale(0.7)"/>
      <use xlink:href="#DejaVuSans-Oblique-3b4" transform="translate(133.540039 -16.171875) scale(0.7)"/>
      <use xlink:href="#DejaVuSans-Oblique-66" transform="translate(176.367188 -16.171875) scale(0.7)"/>
     </g>
    </g>
    <g id="line2d_34">
     <path d="M 443.376 75.552 
L 455.376 75.552 
L 461.8 75.552 
" style="fill: none; stroke: #d94701; stroke-width: 1.5; stroke-linecap: square"/>
    </g>
    <g id="text_10">
     <!-- $\theta_{s,v_1}$ -->
     <g transform="translate(476.976 79.752) scale(0.12 -0.12)">
      <defs>
       <path id="DejaVuSans-Oblique-76" d="M 459 3500 
L 1069 3500 
L 1581 525 
L 3256 3500 
L 3866 3500 
L 1875 0 
L 1100 0 
L 459 3500 
z
" transform="scale(0.015625)"/>
      </defs>
      <use xlink:href="#DejaVuSans-Oblique-3b8" transform="translate(0 0.234375)"/>
      <use xlink:href="#DejaVuSans-Oblique-73" transform="translate(61.181641 -16.171875) scale(0.7)"/>
      <use xlink:href="#DejaVuSans-2c" transform="translate(97.651367 -16.171875) scale(0.7)"/>
      <use xlink:href="#DejaVuSans-Oblique-76" transform="translate(133.540039 -16.171875) scale(0.7)"/>
      <use xlink:href="#DejaVuSans-31" transform="translate(174.96582 -27.65625) scale(0.49)"/>
     </g>
    </g>
   </g>
  </g>
  <g id="axes_2">
   <g id="patch_8">
    <path d="M 483.84 286.848 
L 497.664 286.848 
L 497.664 148.608 
L 483.84 148.608 
z
" style="fill: #ffffff"/>
   </g>
   <g id="QuadMesh_1">
    <path d="M 483.84 286.848 
L 497.664 286.848 
L 497.664 252.288 
L 483.84 252.288 
L 483.84 286.848 
" clip-path="url(#pc2ba3fed81)" style="fill: #f2f0f7"/>
    <path d="M 483.84 252.288 
L 497.664 252.288 
L 497.664 217.728 
L 483.84 217.728 
L 483.84 252.288 
" clip-path="url(#pc2ba3fed81)" style="fill: #cbc9e2"/>
    <path d="M 483.84 217.728 
L 497.664 217.728 
L 497.664 183.168 
L 483.84 183.168 
L 483.84 217.728 
" clip-path="url(#pc2ba3fed81)" style="fill: #9e9ac8"/>
    <path d="M 483.84 183.168 
L 497.664 183.168 
L 497.664 148.608 
L 483.84 148.608 
L 483.84 183.168 
" clip-path="url(#pc2ba3fed81)" style="fill: #6a51a3"/>
   </g>
   <g id="matplotlib.axis_3"/>
   <g id="matplotlib.axis_4">
    <g id="ytick_4">
     <g id="line2d_35">
      <defs>
       <path id="mcd14b3eb3b" d="M 0 0 
L 3.5 0 
" style="stroke: #000000; stroke-width: 0.8"/>
      </defs>
      <g>
       <use xlink:href="#mcd14b3eb3b" x="497.664" y="269.568" style="stroke: #000000; stroke-width: 0.8"/>
      </g>
     </g>
     <g id="text_11">
      <!-- 0.10 -->
      <g transform="translate(504.664 273.367219) scale(0.1 -0.1)">
       <defs>
        <path id="DejaVuSans-2e" d="M 684 794 
L 1344 794 
L 1344 0 
L 684 0 
L 684 794 
z
" transform="scale(0.015625)"/>
       </defs>
       <use xlink:href="#DejaVuSans-30"/>
       <use xlink:href="#DejaVuSans-2e" x="63.623047"/>
       <use xlink:href="#DejaVuSans-31" x="95.410156"/>
       <use xlink:href="#DejaVuSans-30" x="159.033203"/>
      </g>
     </g>
    </g>
    <g id="ytick_5">
     <g id="line2d_36">
      <g>
       <use xlink:href="#mcd14b3eb3b" x="497.664" y="235.008" style="stroke: #000000; stroke-width: 0.8"/>
      </g>
     </g>
     <g id="text_12">
      <!-- 0.25 -->
      <g transform="translate(504.664 238.807219) scale(0.1 -0.1)">
       <defs>
        <path id="DejaVuSans-35" d="M 691 4666 
L 3169 4666 
L 3169 4134 
L 1269 4134 
L 1269 2991 
Q 1406 3038 1543 3061 
Q 1681 3084 1819 3084 
Q 2600 3084 3056 2656 
Q 3513 2228 3513 1497 
Q 3513 744 3044 326 
Q 2575 -91 1722 -91 
Q 1428 -91 1123 -41 
Q 819 9 494 109 
L 494 744 
Q 775 591 1075 516 
Q 1375 441 1709 441 
Q 2250 441 2565 725 
Q 2881 1009 2881 1497 
Q 2881 1984 2565 2268 
Q 2250 2553 1709 2553 
Q 1456 2553 1204 2497 
Q 953 2441 691 2322 
L 691 4666 
z
" transform="scale(0.015625)"/>
       </defs>
       <use xlink:href="#DejaVuSans-30"/>
       <use xlink:href="#DejaVuSans-2e" x="63.623047"/>
       <use xlink:href="#DejaVuSans-32" x="95.410156"/>
       <use xlink:href="#DejaVuSans-35" x="159.033203"/>
      </g>
     </g>
    </g>
    <g id="ytick_6">
     <g id="line2d_37">
      <g>
       <use xlink:href="#mcd14b3eb3b" x="497.664" y="200.448" style="stroke: #000000; stroke-width: 0.8"/>
      </g>
     </g>
     <g id="text_13">
      <!-- 0.75 -->
      <g transform="translate(504.664 204.247219) scale(0.1 -0.1)">
       <defs>
        <path id="DejaVuSans-37" d="M 525 4666 
L 3525 4666 
L 3525 4397 
L 1831 0 
L 1172 0 
L 2766 4134 
L 525 4134 
L 525 4666 
z
" transform="scale(0.015625)"/>
       </defs>
       <use xlink:href="#DejaVuSans-30"/>
       <use xlink:href="#DejaVuSans-2e" x="63.623047"/>
       <use xlink:href="#DejaVuSans-37" x="95.410156"/>
       <use xlink:href="#DejaVuSans-35" x="159.033203"/>
      </g>
     </g>
    </g>
    <g id="ytick_7">
     <g id="line2d_38">
      <g>
       <use xlink:href="#mcd14b3eb3b" x="497.664" y="165.888" style="stroke: #000000; stroke-width: 0.8"/>
      </g>
     </g>
     <g id="text_14">
      <!-- 1.00 -->
      <g transform="translate(504.664 169.687219) scale(0.1 -0.1)">
       <use xlink:href="#DejaVuSans-31"/>
       <use xlink:href="#DejaVuSans-2e" x="63.623047"/>
       <use xlink:href="#DejaVuSans-30" x="95.410156"/>
       <use xlink:href="#DejaVuSans-30" x="159.033203"/>
      </g>
     </g>
    </g>
   </g>
   <g id="LineCollection_1"/>
   <g id="patch_9">
    <path style="fill: none; stroke: #000000; stroke-width: 0.8; stroke-linejoin: miter; stroke-linecap: square"/>
   </g>
   <g id="text_15">
    <!-- $\sigma$    -->
    <g transform="translate(466.902 142.368937) scale(0.3 -0.3)">
     <defs>
      <path id="DejaVuSans-Oblique-3c3" d="M 2219 3044 
Q 1744 3044 1422 2700 
Q 1081 2341 969 1747 
Q 844 1119 1044 756 
Q 1241 397 1706 397 
Q 2166 397 2503 759 
Q 2844 1122 2966 1747 
Q 3075 2319 2881 2700 
Q 2700 3044 2219 3044 
z
M 2309 3503 
L 4219 3500 
L 4106 2925 
L 3463 2925 
Q 3706 2438 3575 1747 
Q 3406 888 2884 400 
Q 2359 -91 1609 -91 
Q 856 -91 525 400 
Q 194 888 363 1747 
Q 528 2609 1050 3097 
Q 1484 3503 2309 3503 
z
" transform="scale(0.015625)"/>
     </defs>
     <use xlink:href="#DejaVuSans-Oblique-3c3" transform="translate(0 0.265625)"/>
     <use xlink:href="#DejaVuSans-20" transform="translate(63.378906 0.265625)"/>
     <use xlink:href="#DejaVuSans-20" transform="translate(95.166016 0.265625)"/>
     <use xlink:href="#DejaVuSans-20" transform="translate(126.953125 0.265625)"/>
    </g>
   </g>
  </g>
  <g id="axes_3">
   <g id="patch_10">
    <path d="M 460.8 286.848 
L 474.624 286.848 
L 474.624 148.608 
L 460.8 148.608 
z
" style="fill: #ffffff"/>
   </g>
   <g id="QuadMesh_2">
    <path d="M 460.8 286.848 
L 474.624 286.848 
L 474.624 252.288 
L 460.8 252.288 
L 460.8 286.848 
" clip-path="url(#p2c4159e0c8)" style="fill: #feedde"/>
    <path d="M 460.8 252.288 
L 474.624 252.288 
L 474.624 217.728 
L 460.8 217.728 
L 460.8 252.288 
" clip-path="url(#p2c4159e0c8)" style="fill: #fdbe85"/>
    <path d="M 460.8 217.728 
L 474.624 217.728 
L 474.624 183.168 
L 460.8 183.168 
L 460.8 217.728 
" clip-path="url(#p2c4159e0c8)" style="fill: #fd8d3c"/>
    <path d="M 460.8 183.168 
L 474.624 183.168 
L 474.624 148.608 
L 460.8 148.608 
L 460.8 183.168 
" clip-path="url(#p2c4159e0c8)" style="fill: #d94701"/>
   </g>
   <g id="matplotlib.axis_5"/>
   <g id="matplotlib.axis_6"/>
   <g id="LineCollection_2"/>
   <g id="patch_11">
    <path d="M 460.8 286.848 
L 461.8 286.848 
M 461.8 148.608 
L 460.8 148.608 
L 460.8 286.848 
" style="fill: none; stroke: #000000; stroke-width: 0.8; stroke-linejoin: miter; stroke-linecap: square"/>
   </g>
  </g>
 </g>
 <defs>
  <clipPath id="p5f8b03a322">
   <rect x="57.6" y="41.472" width="357.12" height="266.112"/>
  </clipPath>
  <clipPath id="pc2ba3fed81">
   <rect x="483.84" y="148.608" width="13.824" height="138.24"/>
  </clipPath>
  <clipPath id="p2c4159e0c8">
   <rect x="460.8" y="148.608" width="13.824" height="138.24"/>
  </clipPath>
 </defs>
</svg>
