<?xml version="1.0" encoding="utf-8" standalone="no"?>
<!DOCTYPE svg PUBLIC "-//W3C//DTD SVG 1.1//EN"
  "http://www.w3.org/Graphics/SVG/1.1/DTD/svg11.dtd">
<svg xmlns:xlink="http://www.w3.org/1999/xlink" width="460.8pt" height="345.6pt" viewBox="0 0 460.8 345.6" xmlns="http://www.w3.org/2000/svg" version="1.1">
 <metadata>
  <rdf:RDF xmlns:dc="http://purl.org/dc/elements/1.1/" xmlns:cc="http://creativecommons.org/ns#" xmlns:rdf="http://www.w3.org/1999/02/22-rdf-syntax-ns#">
   <cc:Work>
    <dc:type rdf:resource="http://purl.org/dc/dcmitype/StillImage"/>
    <dc:date>2023-08-06T18:15:04.329908</dc:date>
    <dc:format>image/svg+xml</dc:format>
    <dc:creator>
     <cc:Agent>
      <dc:title>Matplotlib v3.7.2, https://matplotlib.org/</dc:title>
     </cc:Agent>
    </dc:creator>
   </cc:Work>
  </rdf:RDF>
 </metadata>
 <defs>
  <style type="text/css">*{stroke-linejoin: round; stroke-linecap: butt}</style>
 </defs>
 <g id="figure_1">
  <g id="patch_1">
   <path d="M 0 345.6 
L 460.8 345.6 
L 460.8 0 
L 0 0 
z
" style="fill: #ffffff"/>
  </g>
  <g id="axes_1">
   <g id="patch_2">
    <path d="M 57.6 307.584 
L 414.72 307.584 
L 414.72 41.472 
L 57.6 41.472 
z
" style="fill: #ffffff"/>
   </g>
   <g id="matplotlib.axis_1">
    <g id="xtick_1">
     <g id="line2d_1">
      <defs>
       <path id="mdeccc46665" d="M 0 0 
L 0 3.5 
" style="stroke: #000000; stroke-width: 0.8"/>
      </defs>
      <g>
       <use xlink:href="#mdeccc46665" x="73.832727" y="307.584" style="stroke: #000000; stroke-width: 0.8"/>
      </g>
     </g>
     <g id="text_1">
      <!-- $\mathdefault{10^{0}}$ -->
      <g transform="translate(56.232727 329.780875) scale(0.2 -0.2)">
       <defs>
        <path id="DejaVuSans-31" d="M 794 531 
L 1825 531 
L 1825 4091 
L 703 3866 
L 703 4441 
L 1819 4666 
L 2450 4666 
L 2450 531 
L 3481 531 
L 3481 0 
L 794 0 
L 794 531 
z
" transform="scale(0.015625)"/>
        <path id="DejaVuSans-30" d="M 2034 4250 
Q 1547 4250 1301 3770 
Q 1056 3291 1056 2328 
Q 1056 1369 1301 889 
Q 1547 409 2034 409 
Q 2525 409 2770 889 
Q 3016 1369 3016 2328 
Q 3016 3291 2770 3770 
Q 2525 4250 2034 4250 
z
M 2034 4750 
Q 2819 4750 3233 4129 
Q 3647 3509 3647 2328 
Q 3647 1150 3233 529 
Q 2819 -91 2034 -91 
Q 1250 -91 836 529 
Q 422 1150 422 2328 
Q 422 3509 836 4129 
Q 1250 4750 2034 4750 
z
" transform="scale(0.015625)"/>
       </defs>
       <use xlink:href="#DejaVuSans-31" transform="translate(0 0.765625)"/>
       <use xlink:href="#DejaVuSans-30" transform="translate(63.623047 0.765625)"/>
       <use xlink:href="#DejaVuSans-30" transform="translate(128.203125 39.046875) scale(0.7)"/>
      </g>
     </g>
    </g>
    <g id="xtick_2">
     <g id="line2d_2">
      <g>
       <use xlink:href="#mdeccc46665" x="236.16" y="307.584" style="stroke: #000000; stroke-width: 0.8"/>
      </g>
     </g>
     <g id="text_2">
      <!-- $\mathdefault{10^{1}}$ -->
      <g transform="translate(218.56 329.780875) scale(0.2 -0.2)">
       <use xlink:href="#DejaVuSans-31" transform="translate(0 0.684375)"/>
       <use xlink:href="#DejaVuSans-30" transform="translate(63.623047 0.684375)"/>
       <use xlink:href="#DejaVuSans-31" transform="translate(128.203125 38.965625) scale(0.7)"/>
      </g>
     </g>
    </g>
    <g id="xtick_3">
     <g id="line2d_3">
      <g>
       <use xlink:href="#mdeccc46665" x="398.487273" y="307.584" style="stroke: #000000; stroke-width: 0.8"/>
      </g>
     </g>
     <g id="text_3">
      <!-- $\mathdefault{10^{2}}$ -->
      <g transform="translate(380.887273 329.780875) scale(0.2 -0.2)">
       <defs>
        <path id="DejaVuSans-32" d="M 1228 531 
L 3431 531 
L 3431 0 
L 469 0 
L 469 531 
Q 828 903 1448 1529 
Q 2069 2156 2228 2338 
Q 2531 2678 2651 2914 
Q 2772 3150 2772 3378 
Q 2772 3750 2511 3984 
Q 2250 4219 1831 4219 
Q 1534 4219 1204 4116 
Q 875 4013 500 3803 
L 500 4441 
Q 881 4594 1212 4672 
Q 1544 4750 1819 4750 
Q 2544 4750 2975 4387 
Q 3406 4025 3406 3419 
Q 3406 3131 3298 2873 
Q 3191 2616 2906 2266 
Q 2828 2175 2409 1742 
Q 1991 1309 1228 531 
z
" transform="scale(0.015625)"/>
       </defs>
       <use xlink:href="#DejaVuSans-31" transform="translate(0 0.765625)"/>
       <use xlink:href="#DejaVuSans-30" transform="translate(63.623047 0.765625)"/>
       <use xlink:href="#DejaVuSans-32" transform="translate(128.203125 39.046875) scale(0.7)"/>
      </g>
     </g>
    </g>
    <g id="xtick_4">
     <g id="line2d_4">
      <defs>
       <path id="m1d26f514f2" d="M 0 0 
L 0 2 
" style="stroke: #000000; stroke-width: 0.6"/>
      </defs>
      <g>
       <use xlink:href="#m1d26f514f2" x="58.101589" y="307.584" style="stroke: #000000; stroke-width: 0.6"/>
      </g>
     </g>
    </g>
    <g id="xtick_5">
     <g id="line2d_5">
      <g>
       <use xlink:href="#m1d26f514f2" x="66.405039" y="307.584" style="stroke: #000000; stroke-width: 0.6"/>
      </g>
     </g>
    </g>
    <g id="xtick_6">
     <g id="line2d_6">
      <g>
       <use xlink:href="#m1d26f514f2" x="122.698105" y="307.584" style="stroke: #000000; stroke-width: 0.6"/>
      </g>
     </g>
    </g>
    <g id="xtick_7">
     <g id="line2d_7">
      <g>
       <use xlink:href="#m1d26f514f2" x="151.282519" y="307.584" style="stroke: #000000; stroke-width: 0.6"/>
      </g>
     </g>
    </g>
    <g id="xtick_8">
     <g id="line2d_8">
      <g>
       <use xlink:href="#m1d26f514f2" x="171.563484" y="307.584" style="stroke: #000000; stroke-width: 0.6"/>
      </g>
     </g>
    </g>
    <g id="xtick_9">
     <g id="line2d_9">
      <g>
       <use xlink:href="#m1d26f514f2" x="187.294622" y="307.584" style="stroke: #000000; stroke-width: 0.6"/>
      </g>
     </g>
    </g>
    <g id="xtick_10">
     <g id="line2d_10">
      <g>
       <use xlink:href="#m1d26f514f2" x="200.147898" y="307.584" style="stroke: #000000; stroke-width: 0.6"/>
      </g>
     </g>
    </g>
    <g id="xtick_11">
     <g id="line2d_11">
      <g>
       <use xlink:href="#m1d26f514f2" x="211.015187" y="307.584" style="stroke: #000000; stroke-width: 0.6"/>
      </g>
     </g>
    </g>
    <g id="xtick_12">
     <g id="line2d_12">
      <g>
       <use xlink:href="#m1d26f514f2" x="220.428862" y="307.584" style="stroke: #000000; stroke-width: 0.6"/>
      </g>
     </g>
    </g>
    <g id="xtick_13">
     <g id="line2d_13">
      <g>
       <use xlink:href="#m1d26f514f2" x="228.732311" y="307.584" style="stroke: #000000; stroke-width: 0.6"/>
      </g>
     </g>
    </g>
    <g id="xtick_14">
     <g id="line2d_14">
      <g>
       <use xlink:href="#m1d26f514f2" x="285.025378" y="307.584" style="stroke: #000000; stroke-width: 0.6"/>
      </g>
     </g>
    </g>
    <g id="xtick_15">
     <g id="line2d_15">
      <g>
       <use xlink:href="#m1d26f514f2" x="313.609792" y="307.584" style="stroke: #000000; stroke-width: 0.6"/>
      </g>
     </g>
    </g>
    <g id="xtick_16">
     <g id="line2d_16">
      <g>
       <use xlink:href="#m1d26f514f2" x="333.890756" y="307.584" style="stroke: #000000; stroke-width: 0.6"/>
      </g>
     </g>
    </g>
    <g id="xtick_17">
     <g id="line2d_17">
      <g>
       <use xlink:href="#m1d26f514f2" x="349.621895" y="307.584" style="stroke: #000000; stroke-width: 0.6"/>
      </g>
     </g>
    </g>
    <g id="xtick_18">
     <g id="line2d_18">
      <g>
       <use xlink:href="#m1d26f514f2" x="362.47517" y="307.584" style="stroke: #000000; stroke-width: 0.6"/>
      </g>
     </g>
    </g>
    <g id="xtick_19">
     <g id="line2d_19">
      <g>
       <use xlink:href="#m1d26f514f2" x="373.34246" y="307.584" style="stroke: #000000; stroke-width: 0.6"/>
      </g>
     </g>
    </g>
    <g id="xtick_20">
     <g id="line2d_20">
      <g>
       <use xlink:href="#m1d26f514f2" x="382.756135" y="307.584" style="stroke: #000000; stroke-width: 0.6"/>
      </g>
     </g>
    </g>
    <g id="xtick_21">
     <g id="line2d_21">
      <g>
       <use xlink:href="#m1d26f514f2" x="391.059584" y="307.584" style="stroke: #000000; stroke-width: 0.6"/>
      </g>
     </g>
    </g>
    <g id="text_4">
     <!-- Mode Gap -->
     <g transform="translate(160.182656 360.735562) scale(0.3 -0.3)">
      <defs>
       <path id="DejaVuSans-4d" d="M 628 4666 
L 1569 4666 
L 2759 1491 
L 3956 4666 
L 4897 4666 
L 4897 0 
L 4281 0 
L 4281 4097 
L 3078 897 
L 2444 897 
L 1241 4097 
L 1241 0 
L 628 0 
L 628 4666 
z
" transform="scale(0.015625)"/>
       <path id="DejaVuSans-6f" d="M 1959 3097 
Q 1497 3097 1228 2736 
Q 959 2375 959 1747 
Q 959 1119 1226 758 
Q 1494 397 1959 397 
Q 2419 397 2687 759 
Q 2956 1122 2956 1747 
Q 2956 2369 2687 2733 
Q 2419 3097 1959 3097 
z
M 1959 3584 
Q 2709 3584 3137 3096 
Q 3566 2609 3566 1747 
Q 3566 888 3137 398 
Q 2709 -91 1959 -91 
Q 1206 -91 779 398 
Q 353 888 353 1747 
Q 353 2609 779 3096 
Q 1206 3584 1959 3584 
z
" transform="scale(0.015625)"/>
       <path id="DejaVuSans-64" d="M 2906 2969 
L 2906 4863 
L 3481 4863 
L 3481 0 
L 2906 0 
L 2906 525 
Q 2725 213 2448 61 
Q 2172 -91 1784 -91 
Q 1150 -91 751 415 
Q 353 922 353 1747 
Q 353 2572 751 3078 
Q 1150 3584 1784 3584 
Q 2172 3584 2448 3432 
Q 2725 3281 2906 2969 
z
M 947 1747 
Q 947 1113 1208 752 
Q 1469 391 1925 391 
Q 2381 391 2643 752 
Q 2906 1113 2906 1747 
Q 2906 2381 2643 2742 
Q 2381 3103 1925 3103 
Q 1469 3103 1208 2742 
Q 947 2381 947 1747 
z
" transform="scale(0.015625)"/>
       <path id="DejaVuSans-65" d="M 3597 1894 
L 3597 1613 
L 953 1613 
Q 991 1019 1311 708 
Q 1631 397 2203 397 
Q 2534 397 2845 478 
Q 3156 559 3463 722 
L 3463 178 
Q 3153 47 2828 -22 
Q 2503 -91 2169 -91 
Q 1331 -91 842 396 
Q 353 884 353 1716 
Q 353 2575 817 3079 
Q 1281 3584 2069 3584 
Q 2775 3584 3186 3129 
Q 3597 2675 3597 1894 
z
M 3022 2063 
Q 3016 2534 2758 2815 
Q 2500 3097 2075 3097 
Q 1594 3097 1305 2825 
Q 1016 2553 972 2059 
L 3022 2063 
z
" transform="scale(0.015625)"/>
       <path id="DejaVuSans-20" transform="scale(0.015625)"/>
       <path id="DejaVuSans-47" d="M 3809 666 
L 3809 1919 
L 2778 1919 
L 2778 2438 
L 4434 2438 
L 4434 434 
Q 4069 175 3628 42 
Q 3188 -91 2688 -91 
Q 1594 -91 976 548 
Q 359 1188 359 2328 
Q 359 3472 976 4111 
Q 1594 4750 2688 4750 
Q 3144 4750 3555 4637 
Q 3966 4525 4313 4306 
L 4313 3634 
Q 3963 3931 3569 4081 
Q 3175 4231 2741 4231 
Q 1884 4231 1454 3753 
Q 1025 3275 1025 2328 
Q 1025 1384 1454 906 
Q 1884 428 2741 428 
Q 3075 428 3337 486 
Q 3600 544 3809 666 
z
" transform="scale(0.015625)"/>
       <path id="DejaVuSans-61" d="M 2194 1759 
Q 1497 1759 1228 1600 
Q 959 1441 959 1056 
Q 959 750 1161 570 
Q 1363 391 1709 391 
Q 2188 391 2477 730 
Q 2766 1069 2766 1631 
L 2766 1759 
L 2194 1759 
z
M 3341 1997 
L 3341 0 
L 2766 0 
L 2766 531 
Q 2569 213 2275 61 
Q 1981 -91 1556 -91 
Q 1019 -91 701 211 
Q 384 513 384 1019 
Q 384 1609 779 1909 
Q 1175 2209 1959 2209 
L 2766 2209 
L 2766 2266 
Q 2766 2663 2505 2880 
Q 2244 3097 1772 3097 
Q 1472 3097 1187 3025 
Q 903 2953 641 2809 
L 641 3341 
Q 956 3463 1253 3523 
Q 1550 3584 1831 3584 
Q 2591 3584 2966 3190 
Q 3341 2797 3341 1997 
z
" transform="scale(0.015625)"/>
       <path id="DejaVuSans-70" d="M 1159 525 
L 1159 -1331 
L 581 -1331 
L 581 3500 
L 1159 3500 
L 1159 2969 
Q 1341 3281 1617 3432 
Q 1894 3584 2278 3584 
Q 2916 3584 3314 3078 
Q 3713 2572 3713 1747 
Q 3713 922 3314 415 
Q 2916 -91 2278 -91 
Q 1894 -91 1617 61 
Q 1341 213 1159 525 
z
M 3116 1747 
Q 3116 2381 2855 2742 
Q 2594 3103 2138 3103 
Q 1681 3103 1420 2742 
Q 1159 2381 1159 1747 
Q 1159 1113 1420 752 
Q 1681 391 2138 391 
Q 2594 391 2855 752 
Q 3116 1113 3116 1747 
z
" transform="scale(0.015625)"/>
      </defs>
      <use xlink:href="#DejaVuSans-4d"/>
      <use xlink:href="#DejaVuSans-6f" x="86.279297"/>
      <use xlink:href="#DejaVuSans-64" x="147.460938"/>
      <use xlink:href="#DejaVuSans-65" x="210.9375"/>
      <use xlink:href="#DejaVuSans-20" x="272.460938"/>
      <use xlink:href="#DejaVuSans-47" x="304.248047"/>
      <use xlink:href="#DejaVuSans-61" x="381.738281"/>
      <use xlink:href="#DejaVuSans-70" x="443.017578"/>
     </g>
    </g>
   </g>
   <g id="matplotlib.axis_2">
    <g id="ytick_1">
     <g id="line2d_22">
      <defs>
       <path id="m7737f20554" d="M 0 0 
L -3.5 0 
" style="stroke: #000000; stroke-width: 0.8"/>
      </defs>
      <g>
       <use xlink:href="#m7737f20554" x="57.6" y="295.921634" style="stroke: #000000; stroke-width: 0.8"/>
      </g>
     </g>
     <g id="text_5">
      <!-- 0.0 -->
      <g transform="translate(18.79375 303.520071) scale(0.2 -0.2)">
       <defs>
        <path id="DejaVuSans-2e" d="M 684 794 
L 1344 794 
L 1344 0 
L 684 0 
L 684 794 
z
" transform="scale(0.015625)"/>
       </defs>
       <use xlink:href="#DejaVuSans-30"/>
       <use xlink:href="#DejaVuSans-2e" x="63.623047"/>
       <use xlink:href="#DejaVuSans-30" x="95.410156"/>
      </g>
     </g>
    </g>
    <g id="ytick_2">
     <g id="line2d_23">
      <g>
       <use xlink:href="#m7737f20554" x="57.6" y="265.023375" style="stroke: #000000; stroke-width: 0.8"/>
      </g>
     </g>
     <g id="text_6">
      <!-- 0.1 -->
      <g transform="translate(18.79375 272.621813) scale(0.2 -0.2)">
       <use xlink:href="#DejaVuSans-30"/>
       <use xlink:href="#DejaVuSans-2e" x="63.623047"/>
       <use xlink:href="#DejaVuSans-31" x="95.410156"/>
      </g>
     </g>
    </g>
    <g id="ytick_3">
     <g id="line2d_24">
      <g>
       <use xlink:href="#m7737f20554" x="57.6" y="234.125116" style="stroke: #000000; stroke-width: 0.8"/>
      </g>
     </g>
     <g id="text_7">
      <!-- 0.2 -->
      <g transform="translate(18.79375 241.723554) scale(0.2 -0.2)">
       <use xlink:href="#DejaVuSans-30"/>
       <use xlink:href="#DejaVuSans-2e" x="63.623047"/>
       <use xlink:href="#DejaVuSans-32" x="95.410156"/>
      </g>
     </g>
    </g>
    <g id="ytick_4">
     <g id="line2d_25">
      <g>
       <use xlink:href="#m7737f20554" x="57.6" y="203.226858" style="stroke: #000000; stroke-width: 0.8"/>
      </g>
     </g>
     <g id="text_8">
      <!-- 0.3 -->
      <g transform="translate(18.79375 210.825295) scale(0.2 -0.2)">
       <defs>
        <path id="DejaVuSans-33" d="M 2597 2516 
Q 3050 2419 3304 2112 
Q 3559 1806 3559 1356 
Q 3559 666 3084 287 
Q 2609 -91 1734 -91 
Q 1441 -91 1130 -33 
Q 819 25 488 141 
L 488 750 
Q 750 597 1062 519 
Q 1375 441 1716 441 
Q 2309 441 2620 675 
Q 2931 909 2931 1356 
Q 2931 1769 2642 2001 
Q 2353 2234 1838 2234 
L 1294 2234 
L 1294 2753 
L 1863 2753 
Q 2328 2753 2575 2939 
Q 2822 3125 2822 3475 
Q 2822 3834 2567 4026 
Q 2313 4219 1838 4219 
Q 1578 4219 1281 4162 
Q 984 4106 628 3988 
L 628 4550 
Q 988 4650 1302 4700 
Q 1616 4750 1894 4750 
Q 2613 4750 3031 4423 
Q 3450 4097 3450 3541 
Q 3450 3153 3228 2886 
Q 3006 2619 2597 2516 
z
" transform="scale(0.015625)"/>
       </defs>
       <use xlink:href="#DejaVuSans-30"/>
       <use xlink:href="#DejaVuSans-2e" x="63.623047"/>
       <use xlink:href="#DejaVuSans-33" x="95.410156"/>
      </g>
     </g>
    </g>
    <g id="ytick_5">
     <g id="line2d_26">
      <g>
       <use xlink:href="#m7737f20554" x="57.6" y="172.328599" style="stroke: #000000; stroke-width: 0.8"/>
      </g>
     </g>
     <g id="text_9">
      <!-- 0.4 -->
      <g transform="translate(18.79375 179.927037) scale(0.2 -0.2)">
       <defs>
        <path id="DejaVuSans-34" d="M 2419 4116 
L 825 1625 
L 2419 1625 
L 2419 4116 
z
M 2253 4666 
L 3047 4666 
L 3047 1625 
L 3713 1625 
L 3713 1100 
L 3047 1100 
L 3047 0 
L 2419 0 
L 2419 1100 
L 313 1100 
L 313 1709 
L 2253 4666 
z
" transform="scale(0.015625)"/>
       </defs>
       <use xlink:href="#DejaVuSans-30"/>
       <use xlink:href="#DejaVuSans-2e" x="63.623047"/>
       <use xlink:href="#DejaVuSans-34" x="95.410156"/>
      </g>
     </g>
    </g>
    <g id="ytick_6">
     <g id="line2d_27">
      <g>
       <use xlink:href="#m7737f20554" x="57.6" y="141.430341" style="stroke: #000000; stroke-width: 0.8"/>
      </g>
     </g>
     <g id="text_10">
      <!-- 0.5 -->
      <g transform="translate(18.79375 149.028778) scale(0.2 -0.2)">
       <defs>
        <path id="DejaVuSans-35" d="M 691 4666 
L 3169 4666 
L 3169 4134 
L 1269 4134 
L 1269 2991 
Q 1406 3038 1543 3061 
Q 1681 3084 1819 3084 
Q 2600 3084 3056 2656 
Q 3513 2228 3513 1497 
Q 3513 744 3044 326 
Q 2575 -91 1722 -91 
Q 1428 -91 1123 -41 
Q 819 9 494 109 
L 494 744 
Q 775 591 1075 516 
Q 1375 441 1709 441 
Q 2250 441 2565 725 
Q 2881 1009 2881 1497 
Q 2881 1984 2565 2268 
Q 2250 2553 1709 2553 
Q 1456 2553 1204 2497 
Q 953 2441 691 2322 
L 691 4666 
z
" transform="scale(0.015625)"/>
       </defs>
       <use xlink:href="#DejaVuSans-30"/>
       <use xlink:href="#DejaVuSans-2e" x="63.623047"/>
       <use xlink:href="#DejaVuSans-35" x="95.410156"/>
      </g>
     </g>
    </g>
    <g id="ytick_7">
     <g id="line2d_28">
      <g>
       <use xlink:href="#m7737f20554" x="57.6" y="110.532082" style="stroke: #000000; stroke-width: 0.8"/>
      </g>
     </g>
     <g id="text_11">
      <!-- 0.6 -->
      <g transform="translate(18.79375 118.13052) scale(0.2 -0.2)">
       <defs>
        <path id="DejaVuSans-36" d="M 2113 2584 
Q 1688 2584 1439 2293 
Q 1191 2003 1191 1497 
Q 1191 994 1439 701 
Q 1688 409 2113 409 
Q 2538 409 2786 701 
Q 3034 994 3034 1497 
Q 3034 2003 2786 2293 
Q 2538 2584 2113 2584 
z
M 3366 4563 
L 3366 3988 
Q 3128 4100 2886 4159 
Q 2644 4219 2406 4219 
Q 1781 4219 1451 3797 
Q 1122 3375 1075 2522 
Q 1259 2794 1537 2939 
Q 1816 3084 2150 3084 
Q 2853 3084 3261 2657 
Q 3669 2231 3669 1497 
Q 3669 778 3244 343 
Q 2819 -91 2113 -91 
Q 1303 -91 875 529 
Q 447 1150 447 2328 
Q 447 3434 972 4092 
Q 1497 4750 2381 4750 
Q 2619 4750 2861 4703 
Q 3103 4656 3366 4563 
z
" transform="scale(0.015625)"/>
       </defs>
       <use xlink:href="#DejaVuSans-30"/>
       <use xlink:href="#DejaVuSans-2e" x="63.623047"/>
       <use xlink:href="#DejaVuSans-36" x="95.410156"/>
      </g>
     </g>
    </g>
    <g id="ytick_8">
     <g id="line2d_29">
      <g>
       <use xlink:href="#m7737f20554" x="57.6" y="79.633824" style="stroke: #000000; stroke-width: 0.8"/>
      </g>
     </g>
     <g id="text_12">
      <!-- 0.7 -->
      <g transform="translate(18.79375 87.232261) scale(0.2 -0.2)">
       <defs>
        <path id="DejaVuSans-37" d="M 525 4666 
L 3525 4666 
L 3525 4397 
L 1831 0 
L 1172 0 
L 2766 4134 
L 525 4134 
L 525 4666 
z
" transform="scale(0.015625)"/>
       </defs>
       <use xlink:href="#DejaVuSans-30"/>
       <use xlink:href="#DejaVuSans-2e" x="63.623047"/>
       <use xlink:href="#DejaVuSans-37" x="95.410156"/>
      </g>
     </g>
    </g>
    <g id="ytick_9">
     <g id="line2d_30">
      <g>
       <use xlink:href="#m7737f20554" x="57.6" y="48.735565" style="stroke: #000000; stroke-width: 0.8"/>
      </g>
     </g>
     <g id="text_13">
      <!-- 0.8 -->
      <g transform="translate(18.79375 56.334003) scale(0.2 -0.2)">
       <defs>
        <path id="DejaVuSans-38" d="M 2034 2216 
Q 1584 2216 1326 1975 
Q 1069 1734 1069 1313 
Q 1069 891 1326 650 
Q 1584 409 2034 409 
Q 2484 409 2743 651 
Q 3003 894 3003 1313 
Q 3003 1734 2745 1975 
Q 2488 2216 2034 2216 
z
M 1403 2484 
Q 997 2584 770 2862 
Q 544 3141 544 3541 
Q 544 4100 942 4425 
Q 1341 4750 2034 4750 
Q 2731 4750 3128 4425 
Q 3525 4100 3525 3541 
Q 3525 3141 3298 2862 
Q 3072 2584 2669 2484 
Q 3125 2378 3379 2068 
Q 3634 1759 3634 1313 
Q 3634 634 3220 271 
Q 2806 -91 2034 -91 
Q 1263 -91 848 271 
Q 434 634 434 1313 
Q 434 1759 690 2068 
Q 947 2378 1403 2484 
z
M 1172 3481 
Q 1172 3119 1398 2916 
Q 1625 2713 2034 2713 
Q 2441 2713 2670 2916 
Q 2900 3119 2900 3481 
Q 2900 3844 2670 4047 
Q 2441 4250 2034 4250 
Q 1625 4250 1398 4047 
Q 1172 3844 1172 3481 
z
" transform="scale(0.015625)"/>
       </defs>
       <use xlink:href="#DejaVuSans-30"/>
       <use xlink:href="#DejaVuSans-2e" x="63.623047"/>
       <use xlink:href="#DejaVuSans-38" x="95.410156"/>
      </g>
     </g>
    </g>
    <g id="text_14">
     <!-- Angle between $g$ and $\delta f$ -->
     <g transform="translate(10.59375 293.828) rotate(-90) scale(0.2 -0.2)">
      <defs>
       <path id="DejaVuSans-41" d="M 2188 4044 
L 1331 1722 
L 3047 1722 
L 2188 4044 
z
M 1831 4666 
L 2547 4666 
L 4325 0 
L 3669 0 
L 3244 1197 
L 1141 1197 
L 716 0 
L 50 0 
L 1831 4666 
z
" transform="scale(0.015625)"/>
       <path id="DejaVuSans-6e" d="M 3513 2113 
L 3513 0 
L 2938 0 
L 2938 2094 
Q 2938 2591 2744 2837 
Q 2550 3084 2163 3084 
Q 1697 3084 1428 2787 
Q 1159 2491 1159 1978 
L 1159 0 
L 581 0 
L 581 3500 
L 1159 3500 
L 1159 2956 
Q 1366 3272 1645 3428 
Q 1925 3584 2291 3584 
Q 2894 3584 3203 3211 
Q 3513 2838 3513 2113 
z
" transform="scale(0.015625)"/>
       <path id="DejaVuSans-67" d="M 2906 1791 
Q 2906 2416 2648 2759 
Q 2391 3103 1925 3103 
Q 1463 3103 1205 2759 
Q 947 2416 947 1791 
Q 947 1169 1205 825 
Q 1463 481 1925 481 
Q 2391 481 2648 825 
Q 2906 1169 2906 1791 
z
M 3481 434 
Q 3481 -459 3084 -895 
Q 2688 -1331 1869 -1331 
Q 1566 -1331 1297 -1286 
Q 1028 -1241 775 -1147 
L 775 -588 
Q 1028 -725 1275 -790 
Q 1522 -856 1778 -856 
Q 2344 -856 2625 -561 
Q 2906 -266 2906 331 
L 2906 616 
Q 2728 306 2450 153 
Q 2172 0 1784 0 
Q 1141 0 747 490 
Q 353 981 353 1791 
Q 353 2603 747 3093 
Q 1141 3584 1784 3584 
Q 2172 3584 2450 3431 
Q 2728 3278 2906 2969 
L 2906 3500 
L 3481 3500 
L 3481 434 
z
" transform="scale(0.015625)"/>
       <path id="DejaVuSans-6c" d="M 603 4863 
L 1178 4863 
L 1178 0 
L 603 0 
L 603 4863 
z
" transform="scale(0.015625)"/>
       <path id="DejaVuSans-62" d="M 3116 1747 
Q 3116 2381 2855 2742 
Q 2594 3103 2138 3103 
Q 1681 3103 1420 2742 
Q 1159 2381 1159 1747 
Q 1159 1113 1420 752 
Q 1681 391 2138 391 
Q 2594 391 2855 752 
Q 3116 1113 3116 1747 
z
M 1159 2969 
Q 1341 3281 1617 3432 
Q 1894 3584 2278 3584 
Q 2916 3584 3314 3078 
Q 3713 2572 3713 1747 
Q 3713 922 3314 415 
Q 2916 -91 2278 -91 
Q 1894 -91 1617 61 
Q 1341 213 1159 525 
L 1159 0 
L 581 0 
L 581 4863 
L 1159 4863 
L 1159 2969 
z
" transform="scale(0.015625)"/>
       <path id="DejaVuSans-74" d="M 1172 4494 
L 1172 3500 
L 2356 3500 
L 2356 3053 
L 1172 3053 
L 1172 1153 
Q 1172 725 1289 603 
Q 1406 481 1766 481 
L 2356 481 
L 2356 0 
L 1766 0 
Q 1100 0 847 248 
Q 594 497 594 1153 
L 594 3053 
L 172 3053 
L 172 3500 
L 594 3500 
L 594 4494 
L 1172 4494 
z
" transform="scale(0.015625)"/>
       <path id="DejaVuSans-77" d="M 269 3500 
L 844 3500 
L 1563 769 
L 2278 3500 
L 2956 3500 
L 3675 769 
L 4391 3500 
L 4966 3500 
L 4050 0 
L 3372 0 
L 2619 2869 
L 1863 0 
L 1184 0 
L 269 3500 
z
" transform="scale(0.015625)"/>
       <path id="DejaVuSans-Oblique-67" d="M 3816 3500 
L 3219 434 
Q 3047 -456 2561 -893 
Q 2075 -1331 1253 -1331 
Q 950 -1331 690 -1286 
Q 431 -1241 206 -1147 
L 313 -588 
Q 525 -725 762 -790 
Q 1000 -856 1269 -856 
Q 1816 -856 2167 -557 
Q 2519 -259 2631 300 
L 2681 563 
Q 2441 288 2122 144 
Q 1803 0 1434 0 
Q 903 0 598 351 
Q 294 703 294 1319 
Q 294 1803 478 2267 
Q 663 2731 997 3091 
Q 1219 3328 1514 3456 
Q 1809 3584 2131 3584 
Q 2484 3584 2746 3420 
Q 3009 3256 3138 2956 
L 3238 3500 
L 3816 3500 
z
M 2950 2216 
Q 2950 2641 2750 2872 
Q 2550 3103 2181 3103 
Q 1953 3103 1747 3012 
Q 1541 2922 1394 2759 
Q 1156 2491 1023 2127 
Q 891 1763 891 1375 
Q 891 944 1092 712 
Q 1294 481 1672 481 
Q 2219 481 2584 976 
Q 2950 1472 2950 2216 
z
" transform="scale(0.015625)"/>
       <path id="DejaVuSans-Oblique-3b4" d="M 3472 4053 
Q 3197 4272 2450 4272 
Q 1659 4272 1588 3906 
Q 1531 3619 2328 3469 
Q 2953 3353 3253 3003 
Q 3616 2581 3447 1716 
Q 3284 888 2763 400 
Q 2238 -91 1488 -91 
Q 741 -91 406 400 
Q 72 888 241 1747 
Q 363 2384 891 2900 
Q 1097 3100 1353 3213 
Q 913 3459 1000 3900 
Q 1166 4750 2544 4750 
Q 3234 4750 3566 4531 
L 3472 4053 
z
M 1753 3056 
Q 1525 2966 1306 2738 
Q 969 2384 847 1747 
Q 722 1113 919 756 
Q 1119 397 1584 397 
Q 2044 397 2381 759 
Q 2722 1122 2838 1716 
Q 2956 2338 2731 2638 
Q 2491 2959 2103 2994 
Q 1906 3013 1753 3056 
z
" transform="scale(0.015625)"/>
       <path id="DejaVuSans-Oblique-66" d="M 3059 4863 
L 2969 4384 
L 2419 4384 
Q 2106 4384 1964 4261 
Q 1822 4138 1753 3809 
L 1691 3500 
L 2638 3500 
L 2553 3053 
L 1606 3053 
L 1013 0 
L 434 0 
L 1031 3053 
L 481 3053 
L 563 3500 
L 1113 3500 
L 1159 3744 
Q 1278 4363 1576 4613 
Q 1875 4863 2516 4863 
L 3059 4863 
z
" transform="scale(0.015625)"/>
      </defs>
      <use xlink:href="#DejaVuSans-41" transform="translate(0 0.015625)"/>
      <use xlink:href="#DejaVuSans-6e" transform="translate(68.408203 0.015625)"/>
      <use xlink:href="#DejaVuSans-67" transform="translate(131.787109 0.015625)"/>
      <use xlink:href="#DejaVuSans-6c" transform="translate(195.263672 0.015625)"/>
      <use xlink:href="#DejaVuSans-65" transform="translate(223.046875 0.015625)"/>
      <use xlink:href="#DejaVuSans-20" transform="translate(284.570312 0.015625)"/>
      <use xlink:href="#DejaVuSans-62" transform="translate(316.357422 0.015625)"/>
      <use xlink:href="#DejaVuSans-65" transform="translate(379.833984 0.015625)"/>
      <use xlink:href="#DejaVuSans-74" transform="translate(441.357422 0.015625)"/>
      <use xlink:href="#DejaVuSans-77" transform="translate(480.566406 0.015625)"/>
      <use xlink:href="#DejaVuSans-65" transform="translate(562.353516 0.015625)"/>
      <use xlink:href="#DejaVuSans-65" transform="translate(623.876953 0.015625)"/>
      <use xlink:href="#DejaVuSans-6e" transform="translate(685.400391 0.015625)"/>
      <use xlink:href="#DejaVuSans-20" transform="translate(748.779297 0.015625)"/>
      <use xlink:href="#DejaVuSans-Oblique-67" transform="translate(780.566406 0.015625)"/>
      <use xlink:href="#DejaVuSans-20" transform="translate(844.042969 0.015625)"/>
      <use xlink:href="#DejaVuSans-61" transform="translate(875.830078 0.015625)"/>
      <use xlink:href="#DejaVuSans-6e" transform="translate(937.109375 0.015625)"/>
      <use xlink:href="#DejaVuSans-64" transform="translate(1000.488281 0.015625)"/>
      <use xlink:href="#DejaVuSans-20" transform="translate(1063.964844 0.015625)"/>
      <use xlink:href="#DejaVuSans-Oblique-3b4" transform="translate(1095.751953 0.015625)"/>
      <use xlink:href="#DejaVuSans-Oblique-66" transform="translate(1156.933594 0.015625)"/>
     </g>
    </g>
   </g>
   <g id="line2d_31">
    <path d="M 398.487273 53.936258 
L 395.207934 53.969552 
L 391.928595 54.004585 
L 388.649256 54.041454 
L 385.369917 54.080266 
L 382.090579 54.121136 
L 378.81124 54.164192 
L 375.531901 54.20964 
L 372.252562 54.257722 
L 368.973223 54.309148 
L 365.693884 54.364879 
L 362.414545 54.420161 
L 359.135207 54.47201 
L 355.855868 54.536935 
L 352.576529 54.602851 
L 349.29719 54.672144 
L 346.017851 54.745136 
L 342.738512 54.822213 
L 339.459174 54.903634 
L 336.179835 54.989663 
L 332.900496 55.080616 
L 329.621157 55.176767 
L 326.341818 55.278453 
L 323.062479 55.386029 
L 319.78314 55.4999 
L 316.503802 55.620461 
L 313.224463 55.748148 
L 309.945124 55.883443 
L 306.665785 56.02685 
L 303.386446 56.178916 
L 300.107107 56.340221 
L 296.827769 56.511423 
L 293.54843 56.693192 
L 290.269091 56.886257 
L 286.989752 57.091405 
L 283.710413 57.309505 
L 280.431074 57.541474 
L 277.151736 57.788295 
L 273.872397 58.051057 
L 270.593058 58.330923 
L 267.313719 58.629129 
L 264.03438 58.947037 
L 260.755041 59.286119 
L 257.475702 59.647946 
L 254.196364 60.034233 
L 250.917025 60.446821 
L 247.637686 60.887739 
L 244.358347 61.359117 
L 241.079008 61.863333 
L 237.799669 62.402868 
L 234.520331 62.980494 
L 231.240992 63.59909 
L 227.961653 64.261817 
L 224.682314 64.975181 
L 221.402975 65.738326 
L 218.123636 66.557253 
L 214.844298 67.428013 
L 211.564959 68.376212 
L 208.28562 69.395785 
L 205.006281 70.484191 
L 201.726942 71.65401 
L 198.447603 72.915004 
L 195.168264 74.272077 
L 191.888926 75.731914 
L 188.609587 77.302656 
L 185.330248 78.993337 
L 182.050909 80.813502 
L 178.77157 82.773394 
L 175.492231 84.884063 
L 172.212893 87.157179 
L 168.933554 89.605428 
L 165.654215 92.242355 
L 162.374876 95.082532 
L 159.095537 98.123196 
L 155.816198 101.405783 
L 152.53686 104.935434 
L 149.257521 108.728758 
L 145.978182 112.802691 
L 142.698843 117.17456 
L 139.419504 121.86235 
L 136.140165 126.885698 
L 132.860826 132.265674 
L 129.581488 138.021887 
L 126.302149 144.10708 
L 123.02281 150.622779 
L 119.743471 157.547898 
L 116.464132 164.892931 
L 113.184793 172.665651 
L 109.905455 180.870695 
L 106.626116 189.508923 
L 103.346777 198.577092 
L 100.067438 208.067847 
L 96.788099 217.968578 
L 93.50876 228.260871 
L 90.229421 238.905809 
L 86.950083 249.964903 
L 83.670744 261.149257 
L 80.391405 272.676867 
L 77.112066 284.460876 
L 73.832727 295.488 
" clip-path="url(#p5e6d821c4e)" style="fill: none; stroke: #f2f0f7; stroke-width: 1.5; stroke-linecap: square"/>
   </g>
   <g id="line2d_32">
    <path d="M 398.487273 54.085778 
L 395.207934 54.119183 
L 391.928595 54.154321 
L 388.649256 54.191305 
L 385.369917 54.230216 
L 382.090579 54.271179 
L 378.81124 54.314323 
L 375.531901 54.359738 
L 372.252562 54.407573 
L 368.973223 54.457984 
L 365.693884 54.511086 
L 362.414545 54.56707 
L 359.135207 54.626103 
L 355.855868 54.688348 
L 352.576529 54.754027 
L 349.29719 54.823397 
L 346.017851 54.896984 
L 342.738512 54.976651 
L 339.459174 55.054615 
L 336.179835 55.140274 
L 332.900496 55.232348 
L 329.621157 55.328545 
L 326.341818 55.430236 
L 323.062479 55.537832 
L 319.78314 55.651678 
L 316.503802 55.77221 
L 313.224463 55.89983 
L 309.945124 56.035036 
L 306.665785 56.178314 
L 303.386446 56.330189 
L 300.107107 56.491295 
L 296.827769 56.662208 
L 293.54843 56.843626 
L 290.269091 57.036273 
L 286.989752 57.24093 
L 283.710413 57.458424 
L 280.431074 57.68971 
L 277.151736 57.935715 
L 273.872397 58.197523 
L 270.593058 58.47626 
L 267.313719 58.773187 
L 264.03438 59.089618 
L 260.755041 59.426997 
L 257.475702 59.78687 
L 254.196364 60.170925 
L 250.917025 60.580986 
L 247.637686 61.019009 
L 244.358347 61.487111 
L 241.079008 61.987613 
L 237.799669 62.522974 
L 234.520331 63.095924 
L 231.240992 63.70931 
L 227.961653 64.366315 
L 224.682314 65.070244 
L 221.402975 65.824779 
L 218.123636 66.633676 
L 214.844298 67.501135 
L 211.564959 68.43231 
L 208.28562 69.435026 
L 205.006281 70.515167 
L 201.726942 71.670268 
L 198.447603 72.911249 
L 195.168264 74.247633 
L 191.888926 75.684768 
L 188.609587 77.230214 
L 185.330248 78.8926 
L 182.050909 80.681193 
L 178.77157 82.605938 
L 175.492231 84.677378 
L 172.212893 86.906838 
L 168.933554 89.306301 
L 165.654215 91.88869 
L 162.374876 94.667748 
L 159.095537 97.658079 
L 155.816198 100.875167 
L 152.53686 104.317071 
L 149.257521 108.026847 
L 145.978182 112.010205 
L 142.698843 116.284348 
L 139.419504 120.866704 
L 136.140165 125.77562 
L 132.860826 131.030209 
L 129.581488 136.648848 
L 126.302149 142.647488 
L 123.02281 149.039978 
L 119.743471 155.838704 
L 116.464132 163.054927 
L 113.184793 170.698165 
L 109.905455 178.775291 
L 106.626116 187.289538 
L 103.346777 196.239784 
L 100.067438 205.619708 
L 96.788099 215.417846 
L 93.50876 225.618987 
L 90.229421 236.277391 
L 86.950083 247.188093 
L 83.670744 258.431166 
L 80.391405 270.067528 
L 77.112066 281.882643 
L 73.832727 293.933811 
" clip-path="url(#p5e6d821c4e)" style="fill: none; stroke: #cbc9e2; stroke-width: 1.5; stroke-linecap: square"/>
   </g>
   <g id="line2d_33">
    <path d="M 398.487273 53.91625 
L 395.207934 53.931585 
L 391.928595 53.947729 
L 388.649256 53.964721 
L 385.369917 53.982581 
L 382.090579 54.001389 
L 378.81124 54.021203 
L 375.531901 54.042071 
L 372.252562 54.064016 
L 368.973223 54.087164 
L 365.693884 54.111524 
L 362.414545 54.137224 
L 359.135207 54.164306 
L 355.855868 54.192876 
L 352.576529 54.222992 
L 349.29719 54.254756 
L 346.017851 54.288294 
L 342.738512 54.323673 
L 339.459174 54.361053 
L 336.179835 54.400539 
L 332.900496 54.442249 
L 329.621157 54.486322 
L 326.341818 54.532939 
L 323.062479 54.582246 
L 319.78314 54.634398 
L 316.503802 54.689606 
L 313.224463 54.748034 
L 309.945124 54.809947 
L 306.665785 54.875544 
L 303.386446 54.945087 
L 300.107107 55.01883 
L 296.827769 55.097064 
L 293.54843 55.180104 
L 290.269091 55.268306 
L 286.989752 55.361947 
L 283.710413 55.461522 
L 280.431074 55.567358 
L 277.151736 55.679975 
L 273.872397 55.799823 
L 270.593058 55.92745 
L 267.313719 56.063399 
L 264.03438 56.208332 
L 260.755041 56.362866 
L 257.475702 56.52775 
L 254.196364 56.703775 
L 250.917025 56.891785 
L 247.637686 57.092691 
L 244.358347 57.307485 
L 241.079008 57.53727 
L 237.799669 57.783222 
L 234.520331 58.046604 
L 231.240992 58.328802 
L 227.961653 58.631308 
L 224.682314 58.955935 
L 221.402975 59.304182 
L 218.123636 59.678279 
L 214.844298 60.080228 
L 211.564959 60.512166 
L 208.28562 60.976337 
L 205.006281 61.475222 
L 201.726942 62.011464 
L 198.447603 62.594056 
L 195.168264 63.218987 
L 191.888926 63.892947 
L 188.609587 64.620148 
L 185.330248 65.405317 
L 182.050909 66.253498 
L 178.77157 67.170312 
L 175.492231 68.161871 
L 172.212893 69.21542 
L 168.933554 70.390344 
L 165.654215 71.660952 
L 162.374876 73.033036 
L 159.095537 74.51576 
L 155.816198 76.122394 
L 152.53686 77.868689 
L 149.257521 79.735299 
L 145.978182 81.839866 
L 142.698843 84.110154 
L 139.419504 86.584942 
L 136.140165 89.293377 
L 132.860826 92.262187 
L 129.581488 95.521184 
L 126.302149 99.104122 
L 123.02281 103.120463 
L 119.743471 107.541394 
L 116.464132 112.468124 
L 113.184793 117.984647 
L 109.905455 124.194308 
L 106.626116 131.225262 
L 103.346777 139.23619 
L 100.067438 148.466204 
L 96.788099 159.109674 
L 93.50876 171.481621 
L 90.229421 185.924865 
L 86.950083 202.781024 
L 83.670744 222.288966 
L 80.391405 244.537243 
L 77.112066 269.147023 
L 73.832727 295.240816 
" clip-path="url(#p5e6d821c4e)" style="fill: none; stroke: #9e9ac8; stroke-width: 1.5; stroke-linecap: square"/>
   </g>
   <g id="line2d_34">
    <path d="M 398.487273 53.568 
L 395.207934 53.575054 
L 391.928595 53.582497 
L 388.649256 53.590318 
L 385.369917 53.598536 
L 382.090579 53.607192 
L 378.81124 53.616308 
L 375.531901 53.625914 
L 372.252562 53.636017 
L 368.973223 53.646657 
L 365.693884 53.657885 
L 362.414545 53.669694 
L 359.135207 53.682164 
L 355.855868 53.695306 
L 352.576529 53.709135 
L 349.29719 53.723762 
L 346.017851 53.739198 
L 342.738512 53.755468 
L 339.459174 53.772648 
L 336.179835 53.790813 
L 332.900496 53.809973 
L 329.621157 53.83025 
L 326.341818 53.851657 
L 323.062479 53.874308 
L 319.78314 53.898285 
L 316.503802 53.923649 
L 313.224463 53.950483 
L 309.945124 53.978943 
L 306.665785 54.009054 
L 303.386446 54.040981 
L 300.107107 54.074823 
L 296.827769 54.110724 
L 293.54843 54.148841 
L 290.269091 54.18928 
L 286.989752 54.232267 
L 283.710413 54.27792 
L 280.431074 54.32646 
L 277.151736 54.37807 
L 273.872397 54.433014 
L 270.593058 54.491471 
L 267.313719 54.553765 
L 264.03438 54.620125 
L 260.755041 54.690897 
L 257.475702 54.766371 
L 254.196364 54.846926 
L 250.917025 54.932938 
L 247.637686 55.024823 
L 244.358347 55.123049 
L 241.079008 55.228088 
L 237.799669 55.340503 
L 234.520331 55.460825 
L 231.240992 55.58974 
L 227.961653 55.727879 
L 224.682314 55.876035 
L 221.402975 56.035026 
L 218.123636 56.205672 
L 214.844298 56.388962 
L 211.564959 56.585978 
L 208.28562 56.79786 
L 205.006281 57.025839 
L 201.726942 57.271276 
L 198.447603 57.535681 
L 195.168264 57.820669 
L 191.888926 58.128066 
L 188.609587 58.459827 
L 185.330248 58.818141 
L 182.050909 59.205346 
L 178.77157 59.624069 
L 175.492231 60.077242 
L 172.212893 60.568011 
L 168.933554 61.114711 
L 165.654215 61.688358 
L 162.374876 62.312085 
L 159.095537 62.990969 
L 155.816198 63.730677 
L 152.53686 64.537616 
L 149.257521 65.419046 
L 145.978182 66.383365 
L 142.698843 67.477256 
L 139.419504 68.633088 
L 136.140165 69.907555 
L 132.860826 71.315319 
L 129.581488 72.872931 
L 126.302149 74.608157 
L 123.02281 76.547122 
L 119.743471 78.751226 
L 116.464132 81.202478 
L 113.184793 84.054888 
L 109.905455 87.365931 
L 106.626116 91.249291 
L 103.346777 95.848927 
L 100.067438 101.425393 
L 96.788099 108.339898 
L 93.50876 117.150554 
L 90.229421 128.730947 
L 86.950083 144.535788 
L 83.670744 167.209527 
L 80.391405 200.15184 
L 77.112066 247.584506 
L 73.832727 285.722358 
" clip-path="url(#p5e6d821c4e)" style="fill: none; stroke: #6a51a3; stroke-width: 1.5; stroke-linecap: square"/>
   </g>
   <g id="patch_3">
    <path d="M 57.6 307.584 
L 57.6 41.472 
" style="fill: none; stroke: #000000; stroke-width: 0.8; stroke-linejoin: miter; stroke-linecap: square"/>
   </g>
   <g id="patch_4">
    <path d="M 414.72 307.584 
L 414.72 41.472 
" style="fill: none; stroke: #000000; stroke-width: 0.8; stroke-linejoin: miter; stroke-linecap: square"/>
   </g>
   <g id="patch_5">
    <path d="M 57.6 307.584 
L 414.72 307.584 
" style="fill: none; stroke: #000000; stroke-width: 0.8; stroke-linejoin: miter; stroke-linecap: square"/>
   </g>
   <g id="patch_6">
    <path d="M 57.6 41.472 
L 414.72 41.472 
" style="fill: none; stroke: #000000; stroke-width: 0.8; stroke-linejoin: miter; stroke-linecap: square"/>
   </g>
  </g>
  <g id="axes_2">
   <g id="patch_7">
    <path d="M 345.6 286.848 
L 359.424 286.848 
L 359.424 148.608 
L 345.6 148.608 
z
" style="fill: #ffffff"/>
   </g>
   <g id="QuadMesh_1">
    <path d="M 345.6 286.848 
L 359.424 286.848 
L 359.424 252.288 
L 345.6 252.288 
L 345.6 286.848 
" clip-path="url(#p4794e7e71e)" style="fill: #f2f0f7"/>
    <path d="M 345.6 252.288 
L 359.424 252.288 
L 359.424 217.728 
L 345.6 217.728 
L 345.6 252.288 
" clip-path="url(#p4794e7e71e)" style="fill: #cbc9e2"/>
    <path d="M 345.6 217.728 
L 359.424 217.728 
L 359.424 183.168 
L 345.6 183.168 
L 345.6 217.728 
" clip-path="url(#p4794e7e71e)" style="fill: #9e9ac8"/>
    <path d="M 345.6 183.168 
L 359.424 183.168 
L 359.424 148.608 
L 345.6 148.608 
L 345.6 183.168 
" clip-path="url(#p4794e7e71e)" style="fill: #6a51a3"/>
   </g>
   <g id="matplotlib.axis_3"/>
   <g id="matplotlib.axis_4">
    <g id="ytick_10">
     <g id="line2d_35">
      <defs>
       <path id="m5b20820b36" d="M 0 0 
L 3.5 0 
" style="stroke: #000000; stroke-width: 0.8"/>
      </defs>
      <g>
       <use xlink:href="#m5b20820b36" x="359.424" y="269.568" style="stroke: #000000; stroke-width: 0.8"/>
      </g>
     </g>
     <g id="text_15">
      <!-- 0.10 -->
      <g transform="translate(366.424 276.406594) scale(0.18 -0.18)">
       <use xlink:href="#DejaVuSans-30"/>
       <use xlink:href="#DejaVuSans-2e" x="63.623047"/>
       <use xlink:href="#DejaVuSans-31" x="95.410156"/>
       <use xlink:href="#DejaVuSans-30" x="159.033203"/>
      </g>
     </g>
    </g>
    <g id="ytick_11">
     <g id="line2d_36">
      <g>
       <use xlink:href="#m5b20820b36" x="359.424" y="235.008" style="stroke: #000000; stroke-width: 0.8"/>
      </g>
     </g>
     <g id="text_16">
      <!-- 0.25 -->
      <g transform="translate(366.424 241.846594) scale(0.18 -0.18)">
       <use xlink:href="#DejaVuSans-30"/>
       <use xlink:href="#DejaVuSans-2e" x="63.623047"/>
       <use xlink:href="#DejaVuSans-32" x="95.410156"/>
       <use xlink:href="#DejaVuSans-35" x="159.033203"/>
      </g>
     </g>
    </g>
    <g id="ytick_12">
     <g id="line2d_37">
      <g>
       <use xlink:href="#m5b20820b36" x="359.424" y="200.448" style="stroke: #000000; stroke-width: 0.8"/>
      </g>
     </g>
     <g id="text_17">
      <!-- 0.75 -->
      <g transform="translate(366.424 207.286594) scale(0.18 -0.18)">
       <use xlink:href="#DejaVuSans-30"/>
       <use xlink:href="#DejaVuSans-2e" x="63.623047"/>
       <use xlink:href="#DejaVuSans-37" x="95.410156"/>
       <use xlink:href="#DejaVuSans-35" x="159.033203"/>
      </g>
     </g>
    </g>
    <g id="ytick_13">
     <g id="line2d_38">
      <g>
       <use xlink:href="#m5b20820b36" x="359.424" y="165.888" style="stroke: #000000; stroke-width: 0.8"/>
      </g>
     </g>
     <g id="text_18">
      <!-- 1.00 -->
      <g transform="translate(366.424 172.726594) scale(0.18 -0.18)">
       <use xlink:href="#DejaVuSans-31"/>
       <use xlink:href="#DejaVuSans-2e" x="63.623047"/>
       <use xlink:href="#DejaVuSans-30" x="95.410156"/>
       <use xlink:href="#DejaVuSans-30" x="159.033203"/>
      </g>
     </g>
    </g>
   </g>
   <g id="LineCollection_1"/>
   <g id="patch_8">
    <path d="M 345.6 286.848 
L 352.512 286.848 
L 359.424 286.848 
L 359.424 148.608 
L 352.512 148.608 
L 345.6 148.608 
L 345.6 286.848 
z
" style="fill: none; stroke: #000000; stroke-width: 0.8; stroke-linejoin: miter; stroke-linecap: square"/>
   </g>
   <g id="text_19">
    <!-- $\sigma$ -->
    <g transform="translate(342.912 142.368937) scale(0.3 -0.3)">
     <defs>
      <path id="DejaVuSans-Oblique-3c3" d="M 2219 3044 
Q 1744 3044 1422 2700 
Q 1081 2341 969 1747 
Q 844 1119 1044 756 
Q 1241 397 1706 397 
Q 2166 397 2503 759 
Q 2844 1122 2966 1747 
Q 3075 2319 2881 2700 
Q 2700 3044 2219 3044 
z
M 2309 3503 
L 4219 3500 
L 4106 2925 
L 3463 2925 
Q 3706 2438 3575 1747 
Q 3406 888 2884 400 
Q 2359 -91 1609 -91 
Q 856 -91 525 400 
Q 194 888 363 1747 
Q 528 2609 1050 3097 
Q 1484 3503 2309 3503 
z
" transform="scale(0.015625)"/>
     </defs>
     <use xlink:href="#DejaVuSans-Oblique-3c3" transform="translate(0 0.265625)"/>
    </g>
   </g>
  </g>
 </g>
 <defs>
  <clipPath id="p5e6d821c4e">
   <rect x="57.6" y="41.472" width="357.12" height="266.112"/>
  </clipPath>
  <clipPath id="p4794e7e71e">
   <rect x="345.6" y="148.608" width="13.824" height="138.24"/>
  </clipPath>
 </defs>
</svg>
