<?xml version="1.0" encoding="utf-8" standalone="no"?>
<!DOCTYPE svg PUBLIC "-//W3C//DTD SVG 1.1//EN"
  "http://www.w3.org/Graphics/SVG/1.1/DTD/svg11.dtd">
<svg xmlns:xlink="http://www.w3.org/1999/xlink" width="460.8pt" height="345.6pt" viewBox="0 0 460.8 345.6" xmlns="http://www.w3.org/2000/svg" version="1.1">
 <metadata>
  <rdf:RDF xmlns:dc="http://purl.org/dc/elements/1.1/" xmlns:cc="http://creativecommons.org/ns#" xmlns:rdf="http://www.w3.org/1999/02/22-rdf-syntax-ns#">
   <cc:Work>
    <dc:type rdf:resource="http://purl.org/dc/dcmitype/StillImage"/>
    <dc:date>2023-08-06T18:13:14.693197</dc:date>
    <dc:format>image/svg+xml</dc:format>
    <dc:creator>
     <cc:Agent>
      <dc:title>Matplotlib v3.7.2, https://matplotlib.org/</dc:title>
     </cc:Agent>
    </dc:creator>
   </cc:Work>
  </rdf:RDF>
 </metadata>
 <defs>
  <style type="text/css">*{stroke-linejoin: round; stroke-linecap: butt}</style>
 </defs>
 <g id="figure_1">
  <g id="patch_1">
   <path d="M 0 345.6 
L 460.8 345.6 
L 460.8 0 
L 0 0 
z
" style="fill: #ffffff"/>
  </g>
  <g id="axes_1">
   <g id="patch_2">
    <path d="M 57.6 307.584 
L 414.72 307.584 
L 414.72 41.472 
L 57.6 41.472 
z
" style="fill: #ffffff"/>
   </g>
   <g id="matplotlib.axis_1">
    <g id="xtick_1">
     <g id="line2d_1">
      <defs>
       <path id="m68991e4a1a" d="M 0 0 
L 0 3.5 
" style="stroke: #000000; stroke-width: 0.8"/>
      </defs>
      <g>
       <use xlink:href="#m68991e4a1a" x="73.832727" y="307.584" style="stroke: #000000; stroke-width: 0.8"/>
      </g>
     </g>
     <g id="text_1">
      <!-- $\mathdefault{10^{0}}$ -->
      <g transform="translate(56.232727 329.780875) scale(0.2 -0.2)">
       <defs>
        <path id="DejaVuSans-31" d="M 794 531 
L 1825 531 
L 1825 4091 
L 703 3866 
L 703 4441 
L 1819 4666 
L 2450 4666 
L 2450 531 
L 3481 531 
L 3481 0 
L 794 0 
L 794 531 
z
" transform="scale(0.015625)"/>
        <path id="DejaVuSans-30" d="M 2034 4250 
Q 1547 4250 1301 3770 
Q 1056 3291 1056 2328 
Q 1056 1369 1301 889 
Q 1547 409 2034 409 
Q 2525 409 2770 889 
Q 3016 1369 3016 2328 
Q 3016 3291 2770 3770 
Q 2525 4250 2034 4250 
z
M 2034 4750 
Q 2819 4750 3233 4129 
Q 3647 3509 3647 2328 
Q 3647 1150 3233 529 
Q 2819 -91 2034 -91 
Q 1250 -91 836 529 
Q 422 1150 422 2328 
Q 422 3509 836 4129 
Q 1250 4750 2034 4750 
z
" transform="scale(0.015625)"/>
       </defs>
       <use xlink:href="#DejaVuSans-31" transform="translate(0 0.765625)"/>
       <use xlink:href="#DejaVuSans-30" transform="translate(63.623047 0.765625)"/>
       <use xlink:href="#DejaVuSans-30" transform="translate(128.203125 39.046875) scale(0.7)"/>
      </g>
     </g>
    </g>
    <g id="xtick_2">
     <g id="line2d_2">
      <g>
       <use xlink:href="#m68991e4a1a" x="236.16" y="307.584" style="stroke: #000000; stroke-width: 0.8"/>
      </g>
     </g>
     <g id="text_2">
      <!-- $\mathdefault{10^{1}}$ -->
      <g transform="translate(218.56 329.780875) scale(0.2 -0.2)">
       <use xlink:href="#DejaVuSans-31" transform="translate(0 0.684375)"/>
       <use xlink:href="#DejaVuSans-30" transform="translate(63.623047 0.684375)"/>
       <use xlink:href="#DejaVuSans-31" transform="translate(128.203125 38.965625) scale(0.7)"/>
      </g>
     </g>
    </g>
    <g id="xtick_3">
     <g id="line2d_3">
      <g>
       <use xlink:href="#m68991e4a1a" x="398.487273" y="307.584" style="stroke: #000000; stroke-width: 0.8"/>
      </g>
     </g>
     <g id="text_3">
      <!-- $\mathdefault{10^{2}}$ -->
      <g transform="translate(380.887273 329.780875) scale(0.2 -0.2)">
       <defs>
        <path id="DejaVuSans-32" d="M 1228 531 
L 3431 531 
L 3431 0 
L 469 0 
L 469 531 
Q 828 903 1448 1529 
Q 2069 2156 2228 2338 
Q 2531 2678 2651 2914 
Q 2772 3150 2772 3378 
Q 2772 3750 2511 3984 
Q 2250 4219 1831 4219 
Q 1534 4219 1204 4116 
Q 875 4013 500 3803 
L 500 4441 
Q 881 4594 1212 4672 
Q 1544 4750 1819 4750 
Q 2544 4750 2975 4387 
Q 3406 4025 3406 3419 
Q 3406 3131 3298 2873 
Q 3191 2616 2906 2266 
Q 2828 2175 2409 1742 
Q 1991 1309 1228 531 
z
" transform="scale(0.015625)"/>
       </defs>
       <use xlink:href="#DejaVuSans-31" transform="translate(0 0.765625)"/>
       <use xlink:href="#DejaVuSans-30" transform="translate(63.623047 0.765625)"/>
       <use xlink:href="#DejaVuSans-32" transform="translate(128.203125 39.046875) scale(0.7)"/>
      </g>
     </g>
    </g>
    <g id="xtick_4">
     <g id="line2d_4">
      <defs>
       <path id="ma41a136d39" d="M 0 0 
L 0 2 
" style="stroke: #000000; stroke-width: 0.6"/>
      </defs>
      <g>
       <use xlink:href="#ma41a136d39" x="58.101589" y="307.584" style="stroke: #000000; stroke-width: 0.6"/>
      </g>
     </g>
    </g>
    <g id="xtick_5">
     <g id="line2d_5">
      <g>
       <use xlink:href="#ma41a136d39" x="66.405039" y="307.584" style="stroke: #000000; stroke-width: 0.6"/>
      </g>
     </g>
    </g>
    <g id="xtick_6">
     <g id="line2d_6">
      <g>
       <use xlink:href="#ma41a136d39" x="122.698105" y="307.584" style="stroke: #000000; stroke-width: 0.6"/>
      </g>
     </g>
    </g>
    <g id="xtick_7">
     <g id="line2d_7">
      <g>
       <use xlink:href="#ma41a136d39" x="151.282519" y="307.584" style="stroke: #000000; stroke-width: 0.6"/>
      </g>
     </g>
    </g>
    <g id="xtick_8">
     <g id="line2d_8">
      <g>
       <use xlink:href="#ma41a136d39" x="171.563484" y="307.584" style="stroke: #000000; stroke-width: 0.6"/>
      </g>
     </g>
    </g>
    <g id="xtick_9">
     <g id="line2d_9">
      <g>
       <use xlink:href="#ma41a136d39" x="187.294622" y="307.584" style="stroke: #000000; stroke-width: 0.6"/>
      </g>
     </g>
    </g>
    <g id="xtick_10">
     <g id="line2d_10">
      <g>
       <use xlink:href="#ma41a136d39" x="200.147898" y="307.584" style="stroke: #000000; stroke-width: 0.6"/>
      </g>
     </g>
    </g>
    <g id="xtick_11">
     <g id="line2d_11">
      <g>
       <use xlink:href="#ma41a136d39" x="211.015187" y="307.584" style="stroke: #000000; stroke-width: 0.6"/>
      </g>
     </g>
    </g>
    <g id="xtick_12">
     <g id="line2d_12">
      <g>
       <use xlink:href="#ma41a136d39" x="220.428862" y="307.584" style="stroke: #000000; stroke-width: 0.6"/>
      </g>
     </g>
    </g>
    <g id="xtick_13">
     <g id="line2d_13">
      <g>
       <use xlink:href="#ma41a136d39" x="228.732311" y="307.584" style="stroke: #000000; stroke-width: 0.6"/>
      </g>
     </g>
    </g>
    <g id="xtick_14">
     <g id="line2d_14">
      <g>
       <use xlink:href="#ma41a136d39" x="285.025378" y="307.584" style="stroke: #000000; stroke-width: 0.6"/>
      </g>
     </g>
    </g>
    <g id="xtick_15">
     <g id="line2d_15">
      <g>
       <use xlink:href="#ma41a136d39" x="313.609792" y="307.584" style="stroke: #000000; stroke-width: 0.6"/>
      </g>
     </g>
    </g>
    <g id="xtick_16">
     <g id="line2d_16">
      <g>
       <use xlink:href="#ma41a136d39" x="333.890756" y="307.584" style="stroke: #000000; stroke-width: 0.6"/>
      </g>
     </g>
    </g>
    <g id="xtick_17">
     <g id="line2d_17">
      <g>
       <use xlink:href="#ma41a136d39" x="349.621895" y="307.584" style="stroke: #000000; stroke-width: 0.6"/>
      </g>
     </g>
    </g>
    <g id="xtick_18">
     <g id="line2d_18">
      <g>
       <use xlink:href="#ma41a136d39" x="362.47517" y="307.584" style="stroke: #000000; stroke-width: 0.6"/>
      </g>
     </g>
    </g>
    <g id="xtick_19">
     <g id="line2d_19">
      <g>
       <use xlink:href="#ma41a136d39" x="373.34246" y="307.584" style="stroke: #000000; stroke-width: 0.6"/>
      </g>
     </g>
    </g>
    <g id="xtick_20">
     <g id="line2d_20">
      <g>
       <use xlink:href="#ma41a136d39" x="382.756135" y="307.584" style="stroke: #000000; stroke-width: 0.6"/>
      </g>
     </g>
    </g>
    <g id="xtick_21">
     <g id="line2d_21">
      <g>
       <use xlink:href="#ma41a136d39" x="391.059584" y="307.584" style="stroke: #000000; stroke-width: 0.6"/>
      </g>
     </g>
    </g>
    <g id="text_4">
     <!-- Mode Gap -->
     <g transform="translate(160.182656 360.735562) scale(0.3 -0.3)">
      <defs>
       <path id="DejaVuSans-4d" d="M 628 4666 
L 1569 4666 
L 2759 1491 
L 3956 4666 
L 4897 4666 
L 4897 0 
L 4281 0 
L 4281 4097 
L 3078 897 
L 2444 897 
L 1241 4097 
L 1241 0 
L 628 0 
L 628 4666 
z
" transform="scale(0.015625)"/>
       <path id="DejaVuSans-6f" d="M 1959 3097 
Q 1497 3097 1228 2736 
Q 959 2375 959 1747 
Q 959 1119 1226 758 
Q 1494 397 1959 397 
Q 2419 397 2687 759 
Q 2956 1122 2956 1747 
Q 2956 2369 2687 2733 
Q 2419 3097 1959 3097 
z
M 1959 3584 
Q 2709 3584 3137 3096 
Q 3566 2609 3566 1747 
Q 3566 888 3137 398 
Q 2709 -91 1959 -91 
Q 1206 -91 779 398 
Q 353 888 353 1747 
Q 353 2609 779 3096 
Q 1206 3584 1959 3584 
z
" transform="scale(0.015625)"/>
       <path id="DejaVuSans-64" d="M 2906 2969 
L 2906 4863 
L 3481 4863 
L 3481 0 
L 2906 0 
L 2906 525 
Q 2725 213 2448 61 
Q 2172 -91 1784 -91 
Q 1150 -91 751 415 
Q 353 922 353 1747 
Q 353 2572 751 3078 
Q 1150 3584 1784 3584 
Q 2172 3584 2448 3432 
Q 2725 3281 2906 2969 
z
M 947 1747 
Q 947 1113 1208 752 
Q 1469 391 1925 391 
Q 2381 391 2643 752 
Q 2906 1113 2906 1747 
Q 2906 2381 2643 2742 
Q 2381 3103 1925 3103 
Q 1469 3103 1208 2742 
Q 947 2381 947 1747 
z
" transform="scale(0.015625)"/>
       <path id="DejaVuSans-65" d="M 3597 1894 
L 3597 1613 
L 953 1613 
Q 991 1019 1311 708 
Q 1631 397 2203 397 
Q 2534 397 2845 478 
Q 3156 559 3463 722 
L 3463 178 
Q 3153 47 2828 -22 
Q 2503 -91 2169 -91 
Q 1331 -91 842 396 
Q 353 884 353 1716 
Q 353 2575 817 3079 
Q 1281 3584 2069 3584 
Q 2775 3584 3186 3129 
Q 3597 2675 3597 1894 
z
M 3022 2063 
Q 3016 2534 2758 2815 
Q 2500 3097 2075 3097 
Q 1594 3097 1305 2825 
Q 1016 2553 972 2059 
L 3022 2063 
z
" transform="scale(0.015625)"/>
       <path id="DejaVuSans-20" transform="scale(0.015625)"/>
       <path id="DejaVuSans-47" d="M 3809 666 
L 3809 1919 
L 2778 1919 
L 2778 2438 
L 4434 2438 
L 4434 434 
Q 4069 175 3628 42 
Q 3188 -91 2688 -91 
Q 1594 -91 976 548 
Q 359 1188 359 2328 
Q 359 3472 976 4111 
Q 1594 4750 2688 4750 
Q 3144 4750 3555 4637 
Q 3966 4525 4313 4306 
L 4313 3634 
Q 3963 3931 3569 4081 
Q 3175 4231 2741 4231 
Q 1884 4231 1454 3753 
Q 1025 3275 1025 2328 
Q 1025 1384 1454 906 
Q 1884 428 2741 428 
Q 3075 428 3337 486 
Q 3600 544 3809 666 
z
" transform="scale(0.015625)"/>
       <path id="DejaVuSans-61" d="M 2194 1759 
Q 1497 1759 1228 1600 
Q 959 1441 959 1056 
Q 959 750 1161 570 
Q 1363 391 1709 391 
Q 2188 391 2477 730 
Q 2766 1069 2766 1631 
L 2766 1759 
L 2194 1759 
z
M 3341 1997 
L 3341 0 
L 2766 0 
L 2766 531 
Q 2569 213 2275 61 
Q 1981 -91 1556 -91 
Q 1019 -91 701 211 
Q 384 513 384 1019 
Q 384 1609 779 1909 
Q 1175 2209 1959 2209 
L 2766 2209 
L 2766 2266 
Q 2766 2663 2505 2880 
Q 2244 3097 1772 3097 
Q 1472 3097 1187 3025 
Q 903 2953 641 2809 
L 641 3341 
Q 956 3463 1253 3523 
Q 1550 3584 1831 3584 
Q 2591 3584 2966 3190 
Q 3341 2797 3341 1997 
z
" transform="scale(0.015625)"/>
       <path id="DejaVuSans-70" d="M 1159 525 
L 1159 -1331 
L 581 -1331 
L 581 3500 
L 1159 3500 
L 1159 2969 
Q 1341 3281 1617 3432 
Q 1894 3584 2278 3584 
Q 2916 3584 3314 3078 
Q 3713 2572 3713 1747 
Q 3713 922 3314 415 
Q 2916 -91 2278 -91 
Q 1894 -91 1617 61 
Q 1341 213 1159 525 
z
M 3116 1747 
Q 3116 2381 2855 2742 
Q 2594 3103 2138 3103 
Q 1681 3103 1420 2742 
Q 1159 2381 1159 1747 
Q 1159 1113 1420 752 
Q 1681 391 2138 391 
Q 2594 391 2855 752 
Q 3116 1113 3116 1747 
z
" transform="scale(0.015625)"/>
      </defs>
      <use xlink:href="#DejaVuSans-4d"/>
      <use xlink:href="#DejaVuSans-6f" x="86.279297"/>
      <use xlink:href="#DejaVuSans-64" x="147.460938"/>
      <use xlink:href="#DejaVuSans-65" x="210.9375"/>
      <use xlink:href="#DejaVuSans-20" x="272.460938"/>
      <use xlink:href="#DejaVuSans-47" x="304.248047"/>
      <use xlink:href="#DejaVuSans-61" x="381.738281"/>
      <use xlink:href="#DejaVuSans-70" x="443.017578"/>
     </g>
    </g>
   </g>
   <g id="matplotlib.axis_2">
    <g id="ytick_1">
     <g id="line2d_22">
      <defs>
       <path id="m79503281ff" d="M 0 0 
L -3.5 0 
" style="stroke: #000000; stroke-width: 0.8"/>
      </defs>
      <g>
       <use xlink:href="#m79503281ff" x="57.6" y="306.441593" style="stroke: #000000; stroke-width: 0.8"/>
      </g>
     </g>
     <g id="text_5">
      <!-- 0.0 -->
      <g transform="translate(18.79375 314.040031) scale(0.2 -0.2)">
       <defs>
        <path id="DejaVuSans-2e" d="M 684 794 
L 1344 794 
L 1344 0 
L 684 0 
L 684 794 
z
" transform="scale(0.015625)"/>
       </defs>
       <use xlink:href="#DejaVuSans-30"/>
       <use xlink:href="#DejaVuSans-2e" x="63.623047"/>
       <use xlink:href="#DejaVuSans-30" x="95.410156"/>
      </g>
     </g>
    </g>
    <g id="ytick_2">
     <g id="line2d_23">
      <g>
       <use xlink:href="#m79503281ff" x="57.6" y="275.543346" style="stroke: #000000; stroke-width: 0.8"/>
      </g>
     </g>
     <g id="text_6">
      <!-- 0.1 -->
      <g transform="translate(18.79375 283.141784) scale(0.2 -0.2)">
       <use xlink:href="#DejaVuSans-30"/>
       <use xlink:href="#DejaVuSans-2e" x="63.623047"/>
       <use xlink:href="#DejaVuSans-31" x="95.410156"/>
      </g>
     </g>
    </g>
    <g id="ytick_3">
     <g id="line2d_24">
      <g>
       <use xlink:href="#m79503281ff" x="57.6" y="244.6451" style="stroke: #000000; stroke-width: 0.8"/>
      </g>
     </g>
     <g id="text_7">
      <!-- 0.2 -->
      <g transform="translate(18.79375 252.243537) scale(0.2 -0.2)">
       <use xlink:href="#DejaVuSans-30"/>
       <use xlink:href="#DejaVuSans-2e" x="63.623047"/>
       <use xlink:href="#DejaVuSans-32" x="95.410156"/>
      </g>
     </g>
    </g>
    <g id="ytick_4">
     <g id="line2d_25">
      <g>
       <use xlink:href="#m79503281ff" x="57.6" y="213.746853" style="stroke: #000000; stroke-width: 0.8"/>
      </g>
     </g>
     <g id="text_8">
      <!-- 0.3 -->
      <g transform="translate(18.79375 221.34529) scale(0.2 -0.2)">
       <defs>
        <path id="DejaVuSans-33" d="M 2597 2516 
Q 3050 2419 3304 2112 
Q 3559 1806 3559 1356 
Q 3559 666 3084 287 
Q 2609 -91 1734 -91 
Q 1441 -91 1130 -33 
Q 819 25 488 141 
L 488 750 
Q 750 597 1062 519 
Q 1375 441 1716 441 
Q 2309 441 2620 675 
Q 2931 909 2931 1356 
Q 2931 1769 2642 2001 
Q 2353 2234 1838 2234 
L 1294 2234 
L 1294 2753 
L 1863 2753 
Q 2328 2753 2575 2939 
Q 2822 3125 2822 3475 
Q 2822 3834 2567 4026 
Q 2313 4219 1838 4219 
Q 1578 4219 1281 4162 
Q 984 4106 628 3988 
L 628 4550 
Q 988 4650 1302 4700 
Q 1616 4750 1894 4750 
Q 2613 4750 3031 4423 
Q 3450 4097 3450 3541 
Q 3450 3153 3228 2886 
Q 3006 2619 2597 2516 
z
" transform="scale(0.015625)"/>
       </defs>
       <use xlink:href="#DejaVuSans-30"/>
       <use xlink:href="#DejaVuSans-2e" x="63.623047"/>
       <use xlink:href="#DejaVuSans-33" x="95.410156"/>
      </g>
     </g>
    </g>
    <g id="ytick_5">
     <g id="line2d_26">
      <g>
       <use xlink:href="#m79503281ff" x="57.6" y="182.848606" style="stroke: #000000; stroke-width: 0.8"/>
      </g>
     </g>
     <g id="text_9">
      <!-- 0.4 -->
      <g transform="translate(18.79375 190.447044) scale(0.2 -0.2)">
       <defs>
        <path id="DejaVuSans-34" d="M 2419 4116 
L 825 1625 
L 2419 1625 
L 2419 4116 
z
M 2253 4666 
L 3047 4666 
L 3047 1625 
L 3713 1625 
L 3713 1100 
L 3047 1100 
L 3047 0 
L 2419 0 
L 2419 1100 
L 313 1100 
L 313 1709 
L 2253 4666 
z
" transform="scale(0.015625)"/>
       </defs>
       <use xlink:href="#DejaVuSans-30"/>
       <use xlink:href="#DejaVuSans-2e" x="63.623047"/>
       <use xlink:href="#DejaVuSans-34" x="95.410156"/>
      </g>
     </g>
    </g>
    <g id="ytick_6">
     <g id="line2d_27">
      <g>
       <use xlink:href="#m79503281ff" x="57.6" y="151.950359" style="stroke: #000000; stroke-width: 0.8"/>
      </g>
     </g>
     <g id="text_10">
      <!-- 0.5 -->
      <g transform="translate(18.79375 159.548797) scale(0.2 -0.2)">
       <defs>
        <path id="DejaVuSans-35" d="M 691 4666 
L 3169 4666 
L 3169 4134 
L 1269 4134 
L 1269 2991 
Q 1406 3038 1543 3061 
Q 1681 3084 1819 3084 
Q 2600 3084 3056 2656 
Q 3513 2228 3513 1497 
Q 3513 744 3044 326 
Q 2575 -91 1722 -91 
Q 1428 -91 1123 -41 
Q 819 9 494 109 
L 494 744 
Q 775 591 1075 516 
Q 1375 441 1709 441 
Q 2250 441 2565 725 
Q 2881 1009 2881 1497 
Q 2881 1984 2565 2268 
Q 2250 2553 1709 2553 
Q 1456 2553 1204 2497 
Q 953 2441 691 2322 
L 691 4666 
z
" transform="scale(0.015625)"/>
       </defs>
       <use xlink:href="#DejaVuSans-30"/>
       <use xlink:href="#DejaVuSans-2e" x="63.623047"/>
       <use xlink:href="#DejaVuSans-35" x="95.410156"/>
      </g>
     </g>
    </g>
    <g id="ytick_7">
     <g id="line2d_28">
      <g>
       <use xlink:href="#m79503281ff" x="57.6" y="121.052113" style="stroke: #000000; stroke-width: 0.8"/>
      </g>
     </g>
     <g id="text_11">
      <!-- 0.6 -->
      <g transform="translate(18.79375 128.65055) scale(0.2 -0.2)">
       <defs>
        <path id="DejaVuSans-36" d="M 2113 2584 
Q 1688 2584 1439 2293 
Q 1191 2003 1191 1497 
Q 1191 994 1439 701 
Q 1688 409 2113 409 
Q 2538 409 2786 701 
Q 3034 994 3034 1497 
Q 3034 2003 2786 2293 
Q 2538 2584 2113 2584 
z
M 3366 4563 
L 3366 3988 
Q 3128 4100 2886 4159 
Q 2644 4219 2406 4219 
Q 1781 4219 1451 3797 
Q 1122 3375 1075 2522 
Q 1259 2794 1537 2939 
Q 1816 3084 2150 3084 
Q 2853 3084 3261 2657 
Q 3669 2231 3669 1497 
Q 3669 778 3244 343 
Q 2819 -91 2113 -91 
Q 1303 -91 875 529 
Q 447 1150 447 2328 
Q 447 3434 972 4092 
Q 1497 4750 2381 4750 
Q 2619 4750 2861 4703 
Q 3103 4656 3366 4563 
z
" transform="scale(0.015625)"/>
       </defs>
       <use xlink:href="#DejaVuSans-30"/>
       <use xlink:href="#DejaVuSans-2e" x="63.623047"/>
       <use xlink:href="#DejaVuSans-36" x="95.410156"/>
      </g>
     </g>
    </g>
    <g id="ytick_8">
     <g id="line2d_29">
      <g>
       <use xlink:href="#m79503281ff" x="57.6" y="90.153866" style="stroke: #000000; stroke-width: 0.8"/>
      </g>
     </g>
     <g id="text_12">
      <!-- 0.7 -->
      <g transform="translate(18.79375 97.752303) scale(0.2 -0.2)">
       <defs>
        <path id="DejaVuSans-37" d="M 525 4666 
L 3525 4666 
L 3525 4397 
L 1831 0 
L 1172 0 
L 2766 4134 
L 525 4134 
L 525 4666 
z
" transform="scale(0.015625)"/>
       </defs>
       <use xlink:href="#DejaVuSans-30"/>
       <use xlink:href="#DejaVuSans-2e" x="63.623047"/>
       <use xlink:href="#DejaVuSans-37" x="95.410156"/>
      </g>
     </g>
    </g>
    <g id="ytick_9">
     <g id="line2d_30">
      <g>
       <use xlink:href="#m79503281ff" x="57.6" y="59.255619" style="stroke: #000000; stroke-width: 0.8"/>
      </g>
     </g>
     <g id="text_13">
      <!-- 0.8 -->
      <g transform="translate(18.79375 66.854057) scale(0.2 -0.2)">
       <defs>
        <path id="DejaVuSans-38" d="M 2034 2216 
Q 1584 2216 1326 1975 
Q 1069 1734 1069 1313 
Q 1069 891 1326 650 
Q 1584 409 2034 409 
Q 2484 409 2743 651 
Q 3003 894 3003 1313 
Q 3003 1734 2745 1975 
Q 2488 2216 2034 2216 
z
M 1403 2484 
Q 997 2584 770 2862 
Q 544 3141 544 3541 
Q 544 4100 942 4425 
Q 1341 4750 2034 4750 
Q 2731 4750 3128 4425 
Q 3525 4100 3525 3541 
Q 3525 3141 3298 2862 
Q 3072 2584 2669 2484 
Q 3125 2378 3379 2068 
Q 3634 1759 3634 1313 
Q 3634 634 3220 271 
Q 2806 -91 2034 -91 
Q 1263 -91 848 271 
Q 434 634 434 1313 
Q 434 1759 690 2068 
Q 947 2378 1403 2484 
z
M 1172 3481 
Q 1172 3119 1398 2916 
Q 1625 2713 2034 2713 
Q 2441 2713 2670 2916 
Q 2900 3119 2900 3481 
Q 2900 3844 2670 4047 
Q 2441 4250 2034 4250 
Q 1625 4250 1398 4047 
Q 1172 3844 1172 3481 
z
" transform="scale(0.015625)"/>
       </defs>
       <use xlink:href="#DejaVuSans-30"/>
       <use xlink:href="#DejaVuSans-2e" x="63.623047"/>
       <use xlink:href="#DejaVuSans-38" x="95.410156"/>
      </g>
     </g>
    </g>
    <g id="text_14">
     <!-- Angle between $s$ and $v_1$ -->
     <g transform="translate(10.59375 293.628) rotate(-90) scale(0.2 -0.2)">
      <defs>
       <path id="DejaVuSans-41" d="M 2188 4044 
L 1331 1722 
L 3047 1722 
L 2188 4044 
z
M 1831 4666 
L 2547 4666 
L 4325 0 
L 3669 0 
L 3244 1197 
L 1141 1197 
L 716 0 
L 50 0 
L 1831 4666 
z
" transform="scale(0.015625)"/>
       <path id="DejaVuSans-6e" d="M 3513 2113 
L 3513 0 
L 2938 0 
L 2938 2094 
Q 2938 2591 2744 2837 
Q 2550 3084 2163 3084 
Q 1697 3084 1428 2787 
Q 1159 2491 1159 1978 
L 1159 0 
L 581 0 
L 581 3500 
L 1159 3500 
L 1159 2956 
Q 1366 3272 1645 3428 
Q 1925 3584 2291 3584 
Q 2894 3584 3203 3211 
Q 3513 2838 3513 2113 
z
" transform="scale(0.015625)"/>
       <path id="DejaVuSans-67" d="M 2906 1791 
Q 2906 2416 2648 2759 
Q 2391 3103 1925 3103 
Q 1463 3103 1205 2759 
Q 947 2416 947 1791 
Q 947 1169 1205 825 
Q 1463 481 1925 481 
Q 2391 481 2648 825 
Q 2906 1169 2906 1791 
z
M 3481 434 
Q 3481 -459 3084 -895 
Q 2688 -1331 1869 -1331 
Q 1566 -1331 1297 -1286 
Q 1028 -1241 775 -1147 
L 775 -588 
Q 1028 -725 1275 -790 
Q 1522 -856 1778 -856 
Q 2344 -856 2625 -561 
Q 2906 -266 2906 331 
L 2906 616 
Q 2728 306 2450 153 
Q 2172 0 1784 0 
Q 1141 0 747 490 
Q 353 981 353 1791 
Q 353 2603 747 3093 
Q 1141 3584 1784 3584 
Q 2172 3584 2450 3431 
Q 2728 3278 2906 2969 
L 2906 3500 
L 3481 3500 
L 3481 434 
z
" transform="scale(0.015625)"/>
       <path id="DejaVuSans-6c" d="M 603 4863 
L 1178 4863 
L 1178 0 
L 603 0 
L 603 4863 
z
" transform="scale(0.015625)"/>
       <path id="DejaVuSans-62" d="M 3116 1747 
Q 3116 2381 2855 2742 
Q 2594 3103 2138 3103 
Q 1681 3103 1420 2742 
Q 1159 2381 1159 1747 
Q 1159 1113 1420 752 
Q 1681 391 2138 391 
Q 2594 391 2855 752 
Q 3116 1113 3116 1747 
z
M 1159 2969 
Q 1341 3281 1617 3432 
Q 1894 3584 2278 3584 
Q 2916 3584 3314 3078 
Q 3713 2572 3713 1747 
Q 3713 922 3314 415 
Q 2916 -91 2278 -91 
Q 1894 -91 1617 61 
Q 1341 213 1159 525 
L 1159 0 
L 581 0 
L 581 4863 
L 1159 4863 
L 1159 2969 
z
" transform="scale(0.015625)"/>
       <path id="DejaVuSans-74" d="M 1172 4494 
L 1172 3500 
L 2356 3500 
L 2356 3053 
L 1172 3053 
L 1172 1153 
Q 1172 725 1289 603 
Q 1406 481 1766 481 
L 2356 481 
L 2356 0 
L 1766 0 
Q 1100 0 847 248 
Q 594 497 594 1153 
L 594 3053 
L 172 3053 
L 172 3500 
L 594 3500 
L 594 4494 
L 1172 4494 
z
" transform="scale(0.015625)"/>
       <path id="DejaVuSans-77" d="M 269 3500 
L 844 3500 
L 1563 769 
L 2278 3500 
L 2956 3500 
L 3675 769 
L 4391 3500 
L 4966 3500 
L 4050 0 
L 3372 0 
L 2619 2869 
L 1863 0 
L 1184 0 
L 269 3500 
z
" transform="scale(0.015625)"/>
       <path id="DejaVuSans-Oblique-73" d="M 3200 3397 
L 3091 2853 
Q 2863 2978 2609 3040 
Q 2356 3103 2088 3103 
Q 1634 3103 1373 2948 
Q 1113 2794 1113 2528 
Q 1113 2219 1719 2053 
Q 1766 2041 1788 2034 
L 1972 1978 
Q 2547 1819 2739 1644 
Q 2931 1469 2931 1166 
Q 2931 609 2489 259 
Q 2047 -91 1331 -91 
Q 1053 -91 747 -37 
Q 441 16 72 128 
L 184 722 
Q 500 559 806 475 
Q 1113 391 1394 391 
Q 1816 391 2080 572 
Q 2344 753 2344 1031 
Q 2344 1331 1650 1516 
L 1591 1531 
L 1394 1581 
Q 956 1697 753 1886 
Q 550 2075 550 2369 
Q 550 2928 970 3256 
Q 1391 3584 2113 3584 
Q 2397 3584 2667 3537 
Q 2938 3491 3200 3397 
z
" transform="scale(0.015625)"/>
       <path id="DejaVuSans-Oblique-76" d="M 459 3500 
L 1069 3500 
L 1581 525 
L 3256 3500 
L 3866 3500 
L 1875 0 
L 1100 0 
L 459 3500 
z
" transform="scale(0.015625)"/>
      </defs>
      <use xlink:href="#DejaVuSans-41" transform="translate(0 0.015625)"/>
      <use xlink:href="#DejaVuSans-6e" transform="translate(68.408203 0.015625)"/>
      <use xlink:href="#DejaVuSans-67" transform="translate(131.787109 0.015625)"/>
      <use xlink:href="#DejaVuSans-6c" transform="translate(195.263672 0.015625)"/>
      <use xlink:href="#DejaVuSans-65" transform="translate(223.046875 0.015625)"/>
      <use xlink:href="#DejaVuSans-20" transform="translate(284.570312 0.015625)"/>
      <use xlink:href="#DejaVuSans-62" transform="translate(316.357422 0.015625)"/>
      <use xlink:href="#DejaVuSans-65" transform="translate(379.833984 0.015625)"/>
      <use xlink:href="#DejaVuSans-74" transform="translate(441.357422 0.015625)"/>
      <use xlink:href="#DejaVuSans-77" transform="translate(480.566406 0.015625)"/>
      <use xlink:href="#DejaVuSans-65" transform="translate(562.353516 0.015625)"/>
      <use xlink:href="#DejaVuSans-65" transform="translate(623.876953 0.015625)"/>
      <use xlink:href="#DejaVuSans-6e" transform="translate(685.400391 0.015625)"/>
      <use xlink:href="#DejaVuSans-20" transform="translate(748.779297 0.015625)"/>
      <use xlink:href="#DejaVuSans-Oblique-73" transform="translate(780.566406 0.015625)"/>
      <use xlink:href="#DejaVuSans-20" transform="translate(832.666016 0.015625)"/>
      <use xlink:href="#DejaVuSans-61" transform="translate(864.453125 0.015625)"/>
      <use xlink:href="#DejaVuSans-6e" transform="translate(925.732422 0.015625)"/>
      <use xlink:href="#DejaVuSans-64" transform="translate(989.111328 0.015625)"/>
      <use xlink:href="#DejaVuSans-20" transform="translate(1052.587891 0.015625)"/>
      <use xlink:href="#DejaVuSans-Oblique-76" transform="translate(1084.375 0.015625)"/>
      <use xlink:href="#DejaVuSans-31" transform="translate(1143.554688 -16.390625) scale(0.7)"/>
     </g>
    </g>
   </g>
   <g id="line2d_31">
    <path d="M 398.487273 241.224802 
L 395.207934 241.085251 
L 391.928595 240.939113 
L 388.649256 240.786087 
L 385.369917 240.625802 
L 382.090579 240.457992 
L 378.81124 240.282271 
L 375.531901 240.098304 
L 372.252562 239.905731 
L 368.973223 239.704172 
L 365.693884 239.492508 
L 362.414545 239.269262 
L 359.135207 239.044018 
L 355.855868 238.797062 
L 352.576529 238.546704 
L 349.29719 238.279624 
L 346.017851 238.000851 
L 342.738512 237.709392 
L 339.459174 237.404458 
L 336.179835 237.085333 
L 332.900496 236.751346 
L 329.621157 236.401811 
L 326.341818 236.036004 
L 323.062479 235.653178 
L 319.78314 235.252572 
L 316.503802 234.833354 
L 313.224463 234.394715 
L 309.945124 233.935761 
L 306.665785 233.455599 
L 303.386446 232.953247 
L 300.107107 232.427765 
L 296.827769 231.87809 
L 293.54843 231.303164 
L 290.269091 230.701893 
L 286.989752 230.073094 
L 283.710413 229.415598 
L 280.431074 228.728148 
L 277.151736 228.009462 
L 273.872397 227.258202 
L 270.593058 226.472995 
L 267.313719 225.652411 
L 264.03438 224.794954 
L 260.755041 223.899134 
L 257.475702 222.963375 
L 254.196364 221.986045 
L 250.917025 220.96552 
L 247.637686 219.900048 
L 244.358347 218.787943 
L 241.079008 217.627396 
L 237.799669 216.41661 
L 234.520331 215.153749 
L 231.240992 213.836936 
L 227.961653 212.46427 
L 224.682314 211.022972 
L 221.402975 209.531666 
L 218.123636 207.978435 
L 214.844298 206.368618 
L 211.564959 204.679904 
L 208.28562 202.926992 
L 205.006281 201.105894 
L 201.726942 199.211678 
L 198.447603 197.244978 
L 195.168264 195.203835 
L 191.888926 193.085617 
L 188.609587 190.888404 
L 185.330248 188.610672 
L 182.050909 186.251158 
L 178.77157 183.808807 
L 175.492231 181.282837 
L 172.212893 178.672823 
L 168.933554 175.97869 
L 165.654215 173.200847 
L 162.374876 170.340417 
L 159.095537 167.36225 
L 155.816198 164.320675 
L 152.53686 161.193789 
L 149.257521 157.982498 
L 145.978182 154.687857 
L 142.698843 151.311232 
L 139.419504 147.854186 
L 136.140165 144.318676 
L 132.860826 140.70839 
L 129.581488 137.028368 
L 126.302149 133.256746 
L 123.02281 129.423633 
L 119.743471 125.52012 
L 116.464132 121.547324 
L 113.184793 117.506093 
L 109.905455 113.396774 
L 106.626116 109.21923 
L 103.346777 104.972832 
L 100.067438 100.655627 
L 96.788099 96.292515 
L 93.50876 91.817378 
L 90.229421 87.265405 
L 86.950083 82.732473 
L 83.670744 77.911731 
L 80.391405 73.100806 
L 77.112066 68.287286 
L 73.832727 63.334097 
" clip-path="url(#p43352ce498)" style="fill: none; stroke: #fee5d9; stroke-width: 1.5; stroke-linecap: square"/>
   </g>
   <g id="line2d_32">
    <path d="M 398.487273 243.741983 
L 395.207934 243.612829 
L 391.928595 243.477615 
L 388.649256 243.336048 
L 385.369917 243.187826 
L 382.090579 243.03264 
L 378.81124 242.870174 
L 375.531901 242.700087 
L 372.252562 242.522019 
L 368.973223 242.33565 
L 365.693884 242.140529 
L 362.414545 241.936305 
L 359.135207 241.722532 
L 355.855868 241.498793 
L 352.576529 241.264632 
L 349.29719 241.019605 
L 346.017851 240.763292 
L 342.738512 240.494897 
L 339.459174 240.215749 
L 336.179835 239.924652 
L 332.900496 239.614589 
L 329.621157 239.292073 
L 326.341818 238.955357 
L 323.062479 238.603332 
L 319.78314 238.235196 
L 316.503802 237.850212 
L 313.224463 237.447596 
L 309.945124 237.026588 
L 306.665785 236.586372 
L 303.386446 236.126137 
L 300.107107 235.644995 
L 296.827769 235.142044 
L 293.54843 234.616367 
L 290.269091 234.067002 
L 286.989752 233.492924 
L 283.710413 232.893108 
L 280.431074 232.266492 
L 277.151736 231.611975 
L 273.872397 230.928346 
L 270.593058 230.214528 
L 267.313719 229.469228 
L 264.03438 228.691223 
L 260.755041 227.879212 
L 257.475702 227.031891 
L 254.196364 226.147872 
L 250.917025 225.22579 
L 247.637686 224.264169 
L 244.358347 223.26163 
L 241.079008 222.216649 
L 237.799669 221.12773 
L 234.520331 219.993326 
L 231.240992 218.811922 
L 227.961653 217.58192 
L 224.682314 216.301809 
L 221.402975 214.969902 
L 218.123636 213.584604 
L 214.844298 212.143889 
L 211.564959 210.644857 
L 208.28562 209.084677 
L 205.006281 207.465744 
L 201.726942 205.78729 
L 198.447603 204.0444 
L 195.168264 202.237592 
L 191.888926 200.364608 
L 188.609587 198.423136 
L 185.330248 196.411496 
L 182.050909 194.328175 
L 178.77157 192.171583 
L 175.492231 189.940269 
L 172.212893 187.632724 
L 168.933554 185.247458 
L 165.654215 182.783182 
L 162.374876 180.238523 
L 159.095537 177.612224 
L 155.816198 174.902766 
L 152.53686 172.072114 
L 149.257521 169.173534 
L 145.978182 166.180409 
L 142.698843 163.089284 
L 139.419504 159.896163 
L 136.140165 156.596539 
L 132.860826 153.185826 
L 129.581488 149.659497 
L 126.302149 146.012058 
L 123.02281 142.23606 
L 119.743471 138.322614 
L 116.464132 134.26218 
L 113.184793 130.045165 
L 109.905455 125.662287 
L 106.626116 121.104779 
L 103.346777 116.3646 
L 100.067438 111.435077 
L 96.788099 106.31184 
L 93.50876 100.99622 
L 90.229421 95.562481 
L 86.950083 89.871806 
L 83.670744 83.960477 
L 80.391405 78.100676 
L 77.112066 72.024309 
L 73.832727 65.800132 
" clip-path="url(#p43352ce498)" style="fill: none; stroke: #fcae91; stroke-width: 1.5; stroke-linecap: square"/>
   </g>
   <g id="line2d_33">
    <path d="M 398.487273 282.28401 
L 395.207934 282.237266 
L 391.928595 282.18833 
L 388.649256 282.137111 
L 385.369917 282.083512 
L 382.090579 282.0274 
L 378.81124 281.968668 
L 375.531901 281.907186 
L 372.252562 281.842858 
L 368.973223 281.775532 
L 365.693884 281.705082 
L 362.414545 281.631339 
L 359.135207 281.554199 
L 355.855868 281.473464 
L 352.576529 281.389025 
L 349.29719 281.30066 
L 346.017851 281.208238 
L 342.738512 281.111574 
L 339.459174 281.010426 
L 336.179835 280.904661 
L 332.900496 280.794042 
L 329.621157 280.678374 
L 326.341818 280.557409 
L 323.062479 280.430939 
L 319.78314 280.298731 
L 316.503802 280.160496 
L 313.224463 280.016018 
L 309.945124 279.86501 
L 306.665785 279.707177 
L 303.386446 279.542261 
L 300.107107 279.369982 
L 296.827769 279.189952 
L 293.54843 279.001922 
L 290.269091 278.805528 
L 286.989752 278.60043 
L 283.710413 278.386245 
L 280.431074 278.162647 
L 277.151736 277.929225 
L 273.872397 277.685587 
L 270.593058 277.431313 
L 267.313719 277.166009 
L 264.03438 276.889198 
L 260.755041 276.600453 
L 257.475702 276.299325 
L 254.196364 275.985263 
L 250.917025 275.657831 
L 247.637686 275.316477 
L 244.358347 274.960685 
L 241.079008 274.589894 
L 237.799669 274.203484 
L 234.520331 273.80092 
L 231.240992 273.381538 
L 227.961653 272.944712 
L 224.682314 272.496037 
L 221.402975 272.017581 
L 218.123636 271.520973 
L 214.844298 271.005756 
L 211.564959 270.471371 
L 208.28562 269.917174 
L 205.006281 269.342246 
L 201.726942 268.74549 
L 198.447603 268.099562 
L 195.168264 267.442282 
L 191.888926 266.7568 
L 188.609587 266.041446 
L 185.330248 265.2944 
L 182.050909 264.513572 
L 178.77157 263.696544 
L 175.492231 262.840595 
L 172.212893 261.964568 
L 168.933554 261.004985 
L 165.654215 260.000701 
L 162.374876 258.947664 
L 159.095537 257.837863 
L 155.816198 256.660891 
L 152.53686 255.405879 
L 149.257521 254.037281 
L 145.978182 252.583178 
L 142.698843 251.057594 
L 139.419504 249.364838 
L 136.140165 247.517222 
L 132.860826 245.487959 
L 129.581488 243.24359 
L 126.302149 240.741763 
L 123.02281 237.957318 
L 119.743471 234.802288 
L 116.464132 231.214182 
L 113.184793 227.102402 
L 109.905455 222.355066 
L 106.626116 216.834285 
L 103.346777 210.37446 
L 100.067438 202.604421 
L 96.788099 193.455468 
L 93.50876 182.51854 
L 90.229421 169.408325 
L 86.950083 153.751587 
L 83.670744 135.277765 
L 80.391405 113.852256 
L 77.112066 89.924253 
L 73.832727 64.448313 
" clip-path="url(#p43352ce498)" style="fill: none; stroke: #fb6a4a; stroke-width: 1.5; stroke-linecap: square"/>
   </g>
   <g id="line2d_34">
    <path d="M 398.487273 295.488 
L 395.207934 295.46732 
L 391.928595 295.445675 
L 388.649256 295.422988 
L 385.369917 295.399293 
L 382.090579 295.374468 
L 378.81124 295.34849 
L 375.531901 295.321291 
L 372.252562 295.292856 
L 368.973223 295.263083 
L 365.693884 295.231946 
L 362.414545 295.199339 
L 359.135207 295.165246 
L 355.855868 295.129588 
L 352.576529 295.09228 
L 349.29719 295.053252 
L 346.017851 295.012432 
L 342.738512 294.969733 
L 339.459174 294.925091 
L 336.179835 294.878389 
L 332.900496 294.829587 
L 329.621157 294.778541 
L 326.341818 294.725174 
L 323.062479 294.669396 
L 319.78314 294.611067 
L 316.503802 294.550148 
L 313.224463 294.48647 
L 309.945124 294.419939 
L 306.665785 294.350399 
L 303.386446 294.27778 
L 300.107107 294.201913 
L 296.827769 294.122681 
L 293.54843 294.039931 
L 290.269091 293.953561 
L 286.989752 293.863367 
L 283.710413 293.76921 
L 280.431074 293.670981 
L 277.151736 293.568414 
L 273.872397 293.461433 
L 270.593058 293.34985 
L 267.313719 293.233436 
L 264.03438 293.112036 
L 260.755041 292.985479 
L 257.475702 292.853539 
L 254.196364 292.715988 
L 250.917025 292.572652 
L 247.637686 292.423305 
L 244.358347 292.267702 
L 241.079008 292.105621 
L 237.799669 291.936768 
L 234.520331 291.760986 
L 231.240992 291.577901 
L 227.961653 291.387274 
L 224.682314 291.188852 
L 221.402975 290.982209 
L 218.123636 290.767122 
L 214.844298 290.543182 
L 211.564959 290.310036 
L 208.28562 290.067172 
L 205.006281 289.814226 
L 201.726942 289.550722 
L 198.447603 289.276045 
L 195.168264 288.989603 
L 191.888926 288.690708 
L 188.609587 288.378561 
L 185.330248 288.052308 
L 182.050909 287.710937 
L 178.77157 287.353192 
L 175.492231 286.977784 
L 172.212893 286.583015 
L 168.933554 286.193883 
L 165.654215 285.748333 
L 162.374876 285.277284 
L 159.095537 284.777643 
L 155.816198 284.24583 
L 152.53686 283.677322 
L 149.257521 283.066397 
L 145.978182 282.406498 
L 142.698843 281.689963 
L 139.419504 280.903696 
L 136.140165 280.043657 
L 132.860826 279.089961 
L 129.581488 278.01636 
L 126.302149 276.778502 
L 123.02281 275.397787 
L 119.743471 273.789842 
L 116.464132 271.986043 
L 113.184793 269.787986 
L 109.905455 267.184317 
L 106.626116 264.055477 
L 103.346777 260.211291 
L 100.067438 255.40557 
L 96.788099 249.266954 
L 93.50876 241.223306 
L 90.229421 230.405285 
L 86.950083 215.22663 
L 83.670744 193.078251 
L 80.391405 160.446672 
L 77.112066 112.575837 
L 73.832727 53.568 
" clip-path="url(#p43352ce498)" style="fill: none; stroke: #cb181d; stroke-width: 1.5; stroke-linecap: square"/>
   </g>
   <g id="patch_3">
    <path d="M 57.6 307.584 
L 57.6 41.472 
" style="fill: none; stroke: #000000; stroke-width: 0.8; stroke-linejoin: miter; stroke-linecap: square"/>
   </g>
   <g id="patch_4">
    <path d="M 414.72 307.584 
L 414.72 41.472 
" style="fill: none; stroke: #000000; stroke-width: 0.8; stroke-linejoin: miter; stroke-linecap: square"/>
   </g>
   <g id="patch_5">
    <path d="M 57.6 307.584 
L 414.72 307.584 
" style="fill: none; stroke: #000000; stroke-width: 0.8; stroke-linejoin: miter; stroke-linecap: square"/>
   </g>
   <g id="patch_6">
    <path d="M 57.6 41.472 
L 414.72 41.472 
" style="fill: none; stroke: #000000; stroke-width: 0.8; stroke-linejoin: miter; stroke-linecap: square"/>
   </g>
  </g>
  <g id="axes_2">
   <g id="patch_7">
    <path d="M 345.6 207.36 
L 359.424 207.36 
L 359.424 69.12 
L 345.6 69.12 
z
" style="fill: #ffffff"/>
   </g>
   <g id="QuadMesh_1">
    <path d="M 345.6 207.36 
L 359.424 207.36 
L 359.424 172.8 
L 345.6 172.8 
L 345.6 207.36 
" clip-path="url(#pb88a23627d)" style="fill: #fee5d9"/>
    <path d="M 345.6 172.8 
L 359.424 172.8 
L 359.424 138.24 
L 345.6 138.24 
L 345.6 172.8 
" clip-path="url(#pb88a23627d)" style="fill: #fcae91"/>
    <path d="M 345.6 138.24 
L 359.424 138.24 
L 359.424 103.68 
L 345.6 103.68 
L 345.6 138.24 
" clip-path="url(#pb88a23627d)" style="fill: #fb6a4a"/>
    <path d="M 345.6 103.68 
L 359.424 103.68 
L 359.424 69.12 
L 345.6 69.12 
L 345.6 103.68 
" clip-path="url(#pb88a23627d)" style="fill: #cb181d"/>
   </g>
   <g id="matplotlib.axis_3"/>
   <g id="matplotlib.axis_4">
    <g id="ytick_10">
     <g id="line2d_35">
      <defs>
       <path id="m5bed457344" d="M 0 0 
L 3.5 0 
" style="stroke: #000000; stroke-width: 0.8"/>
      </defs>
      <g>
       <use xlink:href="#m5bed457344" x="359.424" y="190.08" style="stroke: #000000; stroke-width: 0.8"/>
      </g>
     </g>
     <g id="text_15">
      <!-- 0.10 -->
      <g transform="translate(366.424 196.918594) scale(0.18 -0.18)">
       <use xlink:href="#DejaVuSans-30"/>
       <use xlink:href="#DejaVuSans-2e" x="63.623047"/>
       <use xlink:href="#DejaVuSans-31" x="95.410156"/>
       <use xlink:href="#DejaVuSans-30" x="159.033203"/>
      </g>
     </g>
    </g>
    <g id="ytick_11">
     <g id="line2d_36">
      <g>
       <use xlink:href="#m5bed457344" x="359.424" y="155.52" style="stroke: #000000; stroke-width: 0.8"/>
      </g>
     </g>
     <g id="text_16">
      <!-- 0.25 -->
      <g transform="translate(366.424 162.358594) scale(0.18 -0.18)">
       <use xlink:href="#DejaVuSans-30"/>
       <use xlink:href="#DejaVuSans-2e" x="63.623047"/>
       <use xlink:href="#DejaVuSans-32" x="95.410156"/>
       <use xlink:href="#DejaVuSans-35" x="159.033203"/>
      </g>
     </g>
    </g>
    <g id="ytick_12">
     <g id="line2d_37">
      <g>
       <use xlink:href="#m5bed457344" x="359.424" y="120.96" style="stroke: #000000; stroke-width: 0.8"/>
      </g>
     </g>
     <g id="text_17">
      <!-- 0.75 -->
      <g transform="translate(366.424 127.798594) scale(0.18 -0.18)">
       <use xlink:href="#DejaVuSans-30"/>
       <use xlink:href="#DejaVuSans-2e" x="63.623047"/>
       <use xlink:href="#DejaVuSans-37" x="95.410156"/>
       <use xlink:href="#DejaVuSans-35" x="159.033203"/>
      </g>
     </g>
    </g>
    <g id="ytick_13">
     <g id="line2d_38">
      <g>
       <use xlink:href="#m5bed457344" x="359.424" y="86.4" style="stroke: #000000; stroke-width: 0.8"/>
      </g>
     </g>
     <g id="text_18">
      <!-- 1.00 -->
      <g transform="translate(366.424 93.238594) scale(0.18 -0.18)">
       <use xlink:href="#DejaVuSans-31"/>
       <use xlink:href="#DejaVuSans-2e" x="63.623047"/>
       <use xlink:href="#DejaVuSans-30" x="95.410156"/>
       <use xlink:href="#DejaVuSans-30" x="159.033203"/>
      </g>
     </g>
    </g>
   </g>
   <g id="LineCollection_1"/>
   <g id="patch_8">
    <path d="M 345.6 207.36 
L 352.512 207.36 
L 359.424 207.36 
L 359.424 69.12 
L 352.512 69.12 
L 345.6 69.12 
L 345.6 207.36 
z
" style="fill: none; stroke: #000000; stroke-width: 0.8; stroke-linejoin: miter; stroke-linecap: square"/>
   </g>
   <g id="text_19">
    <!-- $\sigma$ -->
    <g transform="translate(342.912 62.880938) scale(0.3 -0.3)">
     <defs>
      <path id="DejaVuSans-Oblique-3c3" d="M 2219 3044 
Q 1744 3044 1422 2700 
Q 1081 2341 969 1747 
Q 844 1119 1044 756 
Q 1241 397 1706 397 
Q 2166 397 2503 759 
Q 2844 1122 2966 1747 
Q 3075 2319 2881 2700 
Q 2700 3044 2219 3044 
z
M 2309 3503 
L 4219 3500 
L 4106 2925 
L 3463 2925 
Q 3706 2438 3575 1747 
Q 3406 888 2884 400 
Q 2359 -91 1609 -91 
Q 856 -91 525 400 
Q 194 888 363 1747 
Q 528 2609 1050 3097 
Q 1484 3503 2309 3503 
z
" transform="scale(0.015625)"/>
     </defs>
     <use xlink:href="#DejaVuSans-Oblique-3c3" transform="translate(0 0.265625)"/>
    </g>
   </g>
  </g>
 </g>
 <defs>
  <clipPath id="p43352ce498">
   <rect x="57.6" y="41.472" width="357.12" height="266.112"/>
  </clipPath>
  <clipPath id="pb88a23627d">
   <rect x="345.6" y="69.12" width="13.824" height="138.24"/>
  </clipPath>
 </defs>
</svg>
