<?xml version="1.0" encoding="utf-8" standalone="no"?>
<!DOCTYPE svg PUBLIC "-//W3C//DTD SVG 1.1//EN"
  "http://www.w3.org/Graphics/SVG/1.1/DTD/svg11.dtd">
<svg xmlns:xlink="http://www.w3.org/1999/xlink" width="460.8pt" height="345.6pt" viewBox="0 0 460.8 345.6" xmlns="http://www.w3.org/2000/svg" version="1.1">
 <metadata>
  <rdf:RDF xmlns:dc="http://purl.org/dc/elements/1.1/" xmlns:cc="http://creativecommons.org/ns#" xmlns:rdf="http://www.w3.org/1999/02/22-rdf-syntax-ns#">
   <cc:Work>
    <dc:type rdf:resource="http://purl.org/dc/dcmitype/StillImage"/>
    <dc:date>2023-08-06T18:14:34.372692</dc:date>
    <dc:format>image/svg+xml</dc:format>
    <dc:creator>
     <cc:Agent>
      <dc:title>Matplotlib v3.7.2, https://matplotlib.org/</dc:title>
     </cc:Agent>
    </dc:creator>
   </cc:Work>
  </rdf:RDF>
 </metadata>
 <defs>
  <style type="text/css">*{stroke-linejoin: round; stroke-linecap: butt}</style>
 </defs>
 <g id="figure_1">
  <g id="patch_1">
   <path d="M 0 345.6 
L 460.8 345.6 
L 460.8 0 
L 0 0 
z
" style="fill: #ffffff"/>
  </g>
  <g id="axes_1">
   <g id="patch_2">
    <path d="M 57.6 307.584 
L 414.72 307.584 
L 414.72 41.472 
L 57.6 41.472 
z
" style="fill: #ffffff"/>
   </g>
   <g id="matplotlib.axis_1">
    <g id="xtick_1">
     <g id="line2d_1">
      <defs>
       <path id="maeffcaea2f" d="M 0 0 
L 0 3.5 
" style="stroke: #000000; stroke-width: 0.8"/>
      </defs>
      <g>
       <use xlink:href="#maeffcaea2f" x="73.832727" y="307.584" style="stroke: #000000; stroke-width: 0.8"/>
      </g>
     </g>
     <g id="text_1">
      <!-- $\mathdefault{10^{0}}$ -->
      <g transform="translate(56.232727 329.780875) scale(0.2 -0.2)">
       <defs>
        <path id="DejaVuSans-31" d="M 794 531 
L 1825 531 
L 1825 4091 
L 703 3866 
L 703 4441 
L 1819 4666 
L 2450 4666 
L 2450 531 
L 3481 531 
L 3481 0 
L 794 0 
L 794 531 
z
" transform="scale(0.015625)"/>
        <path id="DejaVuSans-30" d="M 2034 4250 
Q 1547 4250 1301 3770 
Q 1056 3291 1056 2328 
Q 1056 1369 1301 889 
Q 1547 409 2034 409 
Q 2525 409 2770 889 
Q 3016 1369 3016 2328 
Q 3016 3291 2770 3770 
Q 2525 4250 2034 4250 
z
M 2034 4750 
Q 2819 4750 3233 4129 
Q 3647 3509 3647 2328 
Q 3647 1150 3233 529 
Q 2819 -91 2034 -91 
Q 1250 -91 836 529 
Q 422 1150 422 2328 
Q 422 3509 836 4129 
Q 1250 4750 2034 4750 
z
" transform="scale(0.015625)"/>
       </defs>
       <use xlink:href="#DejaVuSans-31" transform="translate(0 0.765625)"/>
       <use xlink:href="#DejaVuSans-30" transform="translate(63.623047 0.765625)"/>
       <use xlink:href="#DejaVuSans-30" transform="translate(128.203125 39.046875) scale(0.7)"/>
      </g>
     </g>
    </g>
    <g id="xtick_2">
     <g id="line2d_2">
      <g>
       <use xlink:href="#maeffcaea2f" x="236.16" y="307.584" style="stroke: #000000; stroke-width: 0.8"/>
      </g>
     </g>
     <g id="text_2">
      <!-- $\mathdefault{10^{1}}$ -->
      <g transform="translate(218.56 329.780875) scale(0.2 -0.2)">
       <use xlink:href="#DejaVuSans-31" transform="translate(0 0.684375)"/>
       <use xlink:href="#DejaVuSans-30" transform="translate(63.623047 0.684375)"/>
       <use xlink:href="#DejaVuSans-31" transform="translate(128.203125 38.965625) scale(0.7)"/>
      </g>
     </g>
    </g>
    <g id="xtick_3">
     <g id="line2d_3">
      <g>
       <use xlink:href="#maeffcaea2f" x="398.487273" y="307.584" style="stroke: #000000; stroke-width: 0.8"/>
      </g>
     </g>
     <g id="text_3">
      <!-- $\mathdefault{10^{2}}$ -->
      <g transform="translate(380.887273 329.780875) scale(0.2 -0.2)">
       <defs>
        <path id="DejaVuSans-32" d="M 1228 531 
L 3431 531 
L 3431 0 
L 469 0 
L 469 531 
Q 828 903 1448 1529 
Q 2069 2156 2228 2338 
Q 2531 2678 2651 2914 
Q 2772 3150 2772 3378 
Q 2772 3750 2511 3984 
Q 2250 4219 1831 4219 
Q 1534 4219 1204 4116 
Q 875 4013 500 3803 
L 500 4441 
Q 881 4594 1212 4672 
Q 1544 4750 1819 4750 
Q 2544 4750 2975 4387 
Q 3406 4025 3406 3419 
Q 3406 3131 3298 2873 
Q 3191 2616 2906 2266 
Q 2828 2175 2409 1742 
Q 1991 1309 1228 531 
z
" transform="scale(0.015625)"/>
       </defs>
       <use xlink:href="#DejaVuSans-31" transform="translate(0 0.765625)"/>
       <use xlink:href="#DejaVuSans-30" transform="translate(63.623047 0.765625)"/>
       <use xlink:href="#DejaVuSans-32" transform="translate(128.203125 39.046875) scale(0.7)"/>
      </g>
     </g>
    </g>
    <g id="xtick_4">
     <g id="line2d_4">
      <defs>
       <path id="m914e0b1afa" d="M 0 0 
L 0 2 
" style="stroke: #000000; stroke-width: 0.6"/>
      </defs>
      <g>
       <use xlink:href="#m914e0b1afa" x="58.101589" y="307.584" style="stroke: #000000; stroke-width: 0.6"/>
      </g>
     </g>
    </g>
    <g id="xtick_5">
     <g id="line2d_5">
      <g>
       <use xlink:href="#m914e0b1afa" x="66.405039" y="307.584" style="stroke: #000000; stroke-width: 0.6"/>
      </g>
     </g>
    </g>
    <g id="xtick_6">
     <g id="line2d_6">
      <g>
       <use xlink:href="#m914e0b1afa" x="122.698105" y="307.584" style="stroke: #000000; stroke-width: 0.6"/>
      </g>
     </g>
    </g>
    <g id="xtick_7">
     <g id="line2d_7">
      <g>
       <use xlink:href="#m914e0b1afa" x="151.282519" y="307.584" style="stroke: #000000; stroke-width: 0.6"/>
      </g>
     </g>
    </g>
    <g id="xtick_8">
     <g id="line2d_8">
      <g>
       <use xlink:href="#m914e0b1afa" x="171.563484" y="307.584" style="stroke: #000000; stroke-width: 0.6"/>
      </g>
     </g>
    </g>
    <g id="xtick_9">
     <g id="line2d_9">
      <g>
       <use xlink:href="#m914e0b1afa" x="187.294622" y="307.584" style="stroke: #000000; stroke-width: 0.6"/>
      </g>
     </g>
    </g>
    <g id="xtick_10">
     <g id="line2d_10">
      <g>
       <use xlink:href="#m914e0b1afa" x="200.147898" y="307.584" style="stroke: #000000; stroke-width: 0.6"/>
      </g>
     </g>
    </g>
    <g id="xtick_11">
     <g id="line2d_11">
      <g>
       <use xlink:href="#m914e0b1afa" x="211.015187" y="307.584" style="stroke: #000000; stroke-width: 0.6"/>
      </g>
     </g>
    </g>
    <g id="xtick_12">
     <g id="line2d_12">
      <g>
       <use xlink:href="#m914e0b1afa" x="220.428862" y="307.584" style="stroke: #000000; stroke-width: 0.6"/>
      </g>
     </g>
    </g>
    <g id="xtick_13">
     <g id="line2d_13">
      <g>
       <use xlink:href="#m914e0b1afa" x="228.732311" y="307.584" style="stroke: #000000; stroke-width: 0.6"/>
      </g>
     </g>
    </g>
    <g id="xtick_14">
     <g id="line2d_14">
      <g>
       <use xlink:href="#m914e0b1afa" x="285.025378" y="307.584" style="stroke: #000000; stroke-width: 0.6"/>
      </g>
     </g>
    </g>
    <g id="xtick_15">
     <g id="line2d_15">
      <g>
       <use xlink:href="#m914e0b1afa" x="313.609792" y="307.584" style="stroke: #000000; stroke-width: 0.6"/>
      </g>
     </g>
    </g>
    <g id="xtick_16">
     <g id="line2d_16">
      <g>
       <use xlink:href="#m914e0b1afa" x="333.890756" y="307.584" style="stroke: #000000; stroke-width: 0.6"/>
      </g>
     </g>
    </g>
    <g id="xtick_17">
     <g id="line2d_17">
      <g>
       <use xlink:href="#m914e0b1afa" x="349.621895" y="307.584" style="stroke: #000000; stroke-width: 0.6"/>
      </g>
     </g>
    </g>
    <g id="xtick_18">
     <g id="line2d_18">
      <g>
       <use xlink:href="#m914e0b1afa" x="362.47517" y="307.584" style="stroke: #000000; stroke-width: 0.6"/>
      </g>
     </g>
    </g>
    <g id="xtick_19">
     <g id="line2d_19">
      <g>
       <use xlink:href="#m914e0b1afa" x="373.34246" y="307.584" style="stroke: #000000; stroke-width: 0.6"/>
      </g>
     </g>
    </g>
    <g id="xtick_20">
     <g id="line2d_20">
      <g>
       <use xlink:href="#m914e0b1afa" x="382.756135" y="307.584" style="stroke: #000000; stroke-width: 0.6"/>
      </g>
     </g>
    </g>
    <g id="xtick_21">
     <g id="line2d_21">
      <g>
       <use xlink:href="#m914e0b1afa" x="391.059584" y="307.584" style="stroke: #000000; stroke-width: 0.6"/>
      </g>
     </g>
    </g>
    <g id="text_4">
     <!-- Mode Gap -->
     <g transform="translate(160.182656 360.735562) scale(0.3 -0.3)">
      <defs>
       <path id="DejaVuSans-4d" d="M 628 4666 
L 1569 4666 
L 2759 1491 
L 3956 4666 
L 4897 4666 
L 4897 0 
L 4281 0 
L 4281 4097 
L 3078 897 
L 2444 897 
L 1241 4097 
L 1241 0 
L 628 0 
L 628 4666 
z
" transform="scale(0.015625)"/>
       <path id="DejaVuSans-6f" d="M 1959 3097 
Q 1497 3097 1228 2736 
Q 959 2375 959 1747 
Q 959 1119 1226 758 
Q 1494 397 1959 397 
Q 2419 397 2687 759 
Q 2956 1122 2956 1747 
Q 2956 2369 2687 2733 
Q 2419 3097 1959 3097 
z
M 1959 3584 
Q 2709 3584 3137 3096 
Q 3566 2609 3566 1747 
Q 3566 888 3137 398 
Q 2709 -91 1959 -91 
Q 1206 -91 779 398 
Q 353 888 353 1747 
Q 353 2609 779 3096 
Q 1206 3584 1959 3584 
z
" transform="scale(0.015625)"/>
       <path id="DejaVuSans-64" d="M 2906 2969 
L 2906 4863 
L 3481 4863 
L 3481 0 
L 2906 0 
L 2906 525 
Q 2725 213 2448 61 
Q 2172 -91 1784 -91 
Q 1150 -91 751 415 
Q 353 922 353 1747 
Q 353 2572 751 3078 
Q 1150 3584 1784 3584 
Q 2172 3584 2448 3432 
Q 2725 3281 2906 2969 
z
M 947 1747 
Q 947 1113 1208 752 
Q 1469 391 1925 391 
Q 2381 391 2643 752 
Q 2906 1113 2906 1747 
Q 2906 2381 2643 2742 
Q 2381 3103 1925 3103 
Q 1469 3103 1208 2742 
Q 947 2381 947 1747 
z
" transform="scale(0.015625)"/>
       <path id="DejaVuSans-65" d="M 3597 1894 
L 3597 1613 
L 953 1613 
Q 991 1019 1311 708 
Q 1631 397 2203 397 
Q 2534 397 2845 478 
Q 3156 559 3463 722 
L 3463 178 
Q 3153 47 2828 -22 
Q 2503 -91 2169 -91 
Q 1331 -91 842 396 
Q 353 884 353 1716 
Q 353 2575 817 3079 
Q 1281 3584 2069 3584 
Q 2775 3584 3186 3129 
Q 3597 2675 3597 1894 
z
M 3022 2063 
Q 3016 2534 2758 2815 
Q 2500 3097 2075 3097 
Q 1594 3097 1305 2825 
Q 1016 2553 972 2059 
L 3022 2063 
z
" transform="scale(0.015625)"/>
       <path id="DejaVuSans-20" transform="scale(0.015625)"/>
       <path id="DejaVuSans-47" d="M 3809 666 
L 3809 1919 
L 2778 1919 
L 2778 2438 
L 4434 2438 
L 4434 434 
Q 4069 175 3628 42 
Q 3188 -91 2688 -91 
Q 1594 -91 976 548 
Q 359 1188 359 2328 
Q 359 3472 976 4111 
Q 1594 4750 2688 4750 
Q 3144 4750 3555 4637 
Q 3966 4525 4313 4306 
L 4313 3634 
Q 3963 3931 3569 4081 
Q 3175 4231 2741 4231 
Q 1884 4231 1454 3753 
Q 1025 3275 1025 2328 
Q 1025 1384 1454 906 
Q 1884 428 2741 428 
Q 3075 428 3337 486 
Q 3600 544 3809 666 
z
" transform="scale(0.015625)"/>
       <path id="DejaVuSans-61" d="M 2194 1759 
Q 1497 1759 1228 1600 
Q 959 1441 959 1056 
Q 959 750 1161 570 
Q 1363 391 1709 391 
Q 2188 391 2477 730 
Q 2766 1069 2766 1631 
L 2766 1759 
L 2194 1759 
z
M 3341 1997 
L 3341 0 
L 2766 0 
L 2766 531 
Q 2569 213 2275 61 
Q 1981 -91 1556 -91 
Q 1019 -91 701 211 
Q 384 513 384 1019 
Q 384 1609 779 1909 
Q 1175 2209 1959 2209 
L 2766 2209 
L 2766 2266 
Q 2766 2663 2505 2880 
Q 2244 3097 1772 3097 
Q 1472 3097 1187 3025 
Q 903 2953 641 2809 
L 641 3341 
Q 956 3463 1253 3523 
Q 1550 3584 1831 3584 
Q 2591 3584 2966 3190 
Q 3341 2797 3341 1997 
z
" transform="scale(0.015625)"/>
       <path id="DejaVuSans-70" d="M 1159 525 
L 1159 -1331 
L 581 -1331 
L 581 3500 
L 1159 3500 
L 1159 2969 
Q 1341 3281 1617 3432 
Q 1894 3584 2278 3584 
Q 2916 3584 3314 3078 
Q 3713 2572 3713 1747 
Q 3713 922 3314 415 
Q 2916 -91 2278 -91 
Q 1894 -91 1617 61 
Q 1341 213 1159 525 
z
M 3116 1747 
Q 3116 2381 2855 2742 
Q 2594 3103 2138 3103 
Q 1681 3103 1420 2742 
Q 1159 2381 1159 1747 
Q 1159 1113 1420 752 
Q 1681 391 2138 391 
Q 2594 391 2855 752 
Q 3116 1113 3116 1747 
z
" transform="scale(0.015625)"/>
      </defs>
      <use xlink:href="#DejaVuSans-4d"/>
      <use xlink:href="#DejaVuSans-6f" x="86.279297"/>
      <use xlink:href="#DejaVuSans-64" x="147.460938"/>
      <use xlink:href="#DejaVuSans-65" x="210.9375"/>
      <use xlink:href="#DejaVuSans-20" x="272.460938"/>
      <use xlink:href="#DejaVuSans-47" x="304.248047"/>
      <use xlink:href="#DejaVuSans-61" x="381.738281"/>
      <use xlink:href="#DejaVuSans-70" x="443.017578"/>
     </g>
    </g>
   </g>
   <g id="matplotlib.axis_2">
    <g id="ytick_1">
     <g id="line2d_22">
      <defs>
       <path id="m9f3408b0ac" d="M 0 0 
L -3.5 0 
" style="stroke: #000000; stroke-width: 0.8"/>
      </defs>
      <g>
       <use xlink:href="#m9f3408b0ac" x="57.6" y="295.94115" style="stroke: #000000; stroke-width: 0.8"/>
      </g>
     </g>
     <g id="text_5">
      <!-- 0.0 -->
      <g transform="translate(18.79375 303.539588) scale(0.2 -0.2)">
       <defs>
        <path id="DejaVuSans-2e" d="M 684 794 
L 1344 794 
L 1344 0 
L 684 0 
L 684 794 
z
" transform="scale(0.015625)"/>
       </defs>
       <use xlink:href="#DejaVuSans-30"/>
       <use xlink:href="#DejaVuSans-2e" x="63.623047"/>
       <use xlink:href="#DejaVuSans-30" x="95.410156"/>
      </g>
     </g>
    </g>
    <g id="ytick_2">
     <g id="line2d_23">
      <g>
       <use xlink:href="#m9f3408b0ac" x="57.6" y="263.622473" style="stroke: #000000; stroke-width: 0.8"/>
      </g>
     </g>
     <g id="text_6">
      <!-- 0.1 -->
      <g transform="translate(18.79375 271.220911) scale(0.2 -0.2)">
       <use xlink:href="#DejaVuSans-30"/>
       <use xlink:href="#DejaVuSans-2e" x="63.623047"/>
       <use xlink:href="#DejaVuSans-31" x="95.410156"/>
      </g>
     </g>
    </g>
    <g id="ytick_3">
     <g id="line2d_24">
      <g>
       <use xlink:href="#m9f3408b0ac" x="57.6" y="231.303797" style="stroke: #000000; stroke-width: 0.8"/>
      </g>
     </g>
     <g id="text_7">
      <!-- 0.2 -->
      <g transform="translate(18.79375 238.902234) scale(0.2 -0.2)">
       <use xlink:href="#DejaVuSans-30"/>
       <use xlink:href="#DejaVuSans-2e" x="63.623047"/>
       <use xlink:href="#DejaVuSans-32" x="95.410156"/>
      </g>
     </g>
    </g>
    <g id="ytick_4">
     <g id="line2d_25">
      <g>
       <use xlink:href="#m9f3408b0ac" x="57.6" y="198.98512" style="stroke: #000000; stroke-width: 0.8"/>
      </g>
     </g>
     <g id="text_8">
      <!-- 0.3 -->
      <g transform="translate(18.79375 206.583557) scale(0.2 -0.2)">
       <defs>
        <path id="DejaVuSans-33" d="M 2597 2516 
Q 3050 2419 3304 2112 
Q 3559 1806 3559 1356 
Q 3559 666 3084 287 
Q 2609 -91 1734 -91 
Q 1441 -91 1130 -33 
Q 819 25 488 141 
L 488 750 
Q 750 597 1062 519 
Q 1375 441 1716 441 
Q 2309 441 2620 675 
Q 2931 909 2931 1356 
Q 2931 1769 2642 2001 
Q 2353 2234 1838 2234 
L 1294 2234 
L 1294 2753 
L 1863 2753 
Q 2328 2753 2575 2939 
Q 2822 3125 2822 3475 
Q 2822 3834 2567 4026 
Q 2313 4219 1838 4219 
Q 1578 4219 1281 4162 
Q 984 4106 628 3988 
L 628 4550 
Q 988 4650 1302 4700 
Q 1616 4750 1894 4750 
Q 2613 4750 3031 4423 
Q 3450 4097 3450 3541 
Q 3450 3153 3228 2886 
Q 3006 2619 2597 2516 
z
" transform="scale(0.015625)"/>
       </defs>
       <use xlink:href="#DejaVuSans-30"/>
       <use xlink:href="#DejaVuSans-2e" x="63.623047"/>
       <use xlink:href="#DejaVuSans-33" x="95.410156"/>
      </g>
     </g>
    </g>
    <g id="ytick_5">
     <g id="line2d_26">
      <g>
       <use xlink:href="#m9f3408b0ac" x="57.6" y="166.666443" style="stroke: #000000; stroke-width: 0.8"/>
      </g>
     </g>
     <g id="text_9">
      <!-- 0.4 -->
      <g transform="translate(18.79375 174.264881) scale(0.2 -0.2)">
       <defs>
        <path id="DejaVuSans-34" d="M 2419 4116 
L 825 1625 
L 2419 1625 
L 2419 4116 
z
M 2253 4666 
L 3047 4666 
L 3047 1625 
L 3713 1625 
L 3713 1100 
L 3047 1100 
L 3047 0 
L 2419 0 
L 2419 1100 
L 313 1100 
L 313 1709 
L 2253 4666 
z
" transform="scale(0.015625)"/>
       </defs>
       <use xlink:href="#DejaVuSans-30"/>
       <use xlink:href="#DejaVuSans-2e" x="63.623047"/>
       <use xlink:href="#DejaVuSans-34" x="95.410156"/>
      </g>
     </g>
    </g>
    <g id="ytick_6">
     <g id="line2d_27">
      <g>
       <use xlink:href="#m9f3408b0ac" x="57.6" y="134.347767" style="stroke: #000000; stroke-width: 0.8"/>
      </g>
     </g>
     <g id="text_10">
      <!-- 0.5 -->
      <g transform="translate(18.79375 141.946204) scale(0.2 -0.2)">
       <defs>
        <path id="DejaVuSans-35" d="M 691 4666 
L 3169 4666 
L 3169 4134 
L 1269 4134 
L 1269 2991 
Q 1406 3038 1543 3061 
Q 1681 3084 1819 3084 
Q 2600 3084 3056 2656 
Q 3513 2228 3513 1497 
Q 3513 744 3044 326 
Q 2575 -91 1722 -91 
Q 1428 -91 1123 -41 
Q 819 9 494 109 
L 494 744 
Q 775 591 1075 516 
Q 1375 441 1709 441 
Q 2250 441 2565 725 
Q 2881 1009 2881 1497 
Q 2881 1984 2565 2268 
Q 2250 2553 1709 2553 
Q 1456 2553 1204 2497 
Q 953 2441 691 2322 
L 691 4666 
z
" transform="scale(0.015625)"/>
       </defs>
       <use xlink:href="#DejaVuSans-30"/>
       <use xlink:href="#DejaVuSans-2e" x="63.623047"/>
       <use xlink:href="#DejaVuSans-35" x="95.410156"/>
      </g>
     </g>
    </g>
    <g id="ytick_7">
     <g id="line2d_28">
      <g>
       <use xlink:href="#m9f3408b0ac" x="57.6" y="102.02909" style="stroke: #000000; stroke-width: 0.8"/>
      </g>
     </g>
     <g id="text_11">
      <!-- 0.6 -->
      <g transform="translate(18.79375 109.627527) scale(0.2 -0.2)">
       <defs>
        <path id="DejaVuSans-36" d="M 2113 2584 
Q 1688 2584 1439 2293 
Q 1191 2003 1191 1497 
Q 1191 994 1439 701 
Q 1688 409 2113 409 
Q 2538 409 2786 701 
Q 3034 994 3034 1497 
Q 3034 2003 2786 2293 
Q 2538 2584 2113 2584 
z
M 3366 4563 
L 3366 3988 
Q 3128 4100 2886 4159 
Q 2644 4219 2406 4219 
Q 1781 4219 1451 3797 
Q 1122 3375 1075 2522 
Q 1259 2794 1537 2939 
Q 1816 3084 2150 3084 
Q 2853 3084 3261 2657 
Q 3669 2231 3669 1497 
Q 3669 778 3244 343 
Q 2819 -91 2113 -91 
Q 1303 -91 875 529 
Q 447 1150 447 2328 
Q 447 3434 972 4092 
Q 1497 4750 2381 4750 
Q 2619 4750 2861 4703 
Q 3103 4656 3366 4563 
z
" transform="scale(0.015625)"/>
       </defs>
       <use xlink:href="#DejaVuSans-30"/>
       <use xlink:href="#DejaVuSans-2e" x="63.623047"/>
       <use xlink:href="#DejaVuSans-36" x="95.410156"/>
      </g>
     </g>
    </g>
    <g id="ytick_8">
     <g id="line2d_29">
      <g>
       <use xlink:href="#m9f3408b0ac" x="57.6" y="69.710413" style="stroke: #000000; stroke-width: 0.8"/>
      </g>
     </g>
     <g id="text_12">
      <!-- 0.7 -->
      <g transform="translate(18.79375 77.308851) scale(0.2 -0.2)">
       <defs>
        <path id="DejaVuSans-37" d="M 525 4666 
L 3525 4666 
L 3525 4397 
L 1831 0 
L 1172 0 
L 2766 4134 
L 525 4134 
L 525 4666 
z
" transform="scale(0.015625)"/>
       </defs>
       <use xlink:href="#DejaVuSans-30"/>
       <use xlink:href="#DejaVuSans-2e" x="63.623047"/>
       <use xlink:href="#DejaVuSans-37" x="95.410156"/>
      </g>
     </g>
    </g>
    <g id="text_13">
     <!-- Angle between $s$ and $\delta f$ -->
     <g transform="translate(10.59375 292.628) rotate(-90) scale(0.2 -0.2)">
      <defs>
       <path id="DejaVuSans-41" d="M 2188 4044 
L 1331 1722 
L 3047 1722 
L 2188 4044 
z
M 1831 4666 
L 2547 4666 
L 4325 0 
L 3669 0 
L 3244 1197 
L 1141 1197 
L 716 0 
L 50 0 
L 1831 4666 
z
" transform="scale(0.015625)"/>
       <path id="DejaVuSans-6e" d="M 3513 2113 
L 3513 0 
L 2938 0 
L 2938 2094 
Q 2938 2591 2744 2837 
Q 2550 3084 2163 3084 
Q 1697 3084 1428 2787 
Q 1159 2491 1159 1978 
L 1159 0 
L 581 0 
L 581 3500 
L 1159 3500 
L 1159 2956 
Q 1366 3272 1645 3428 
Q 1925 3584 2291 3584 
Q 2894 3584 3203 3211 
Q 3513 2838 3513 2113 
z
" transform="scale(0.015625)"/>
       <path id="DejaVuSans-67" d="M 2906 1791 
Q 2906 2416 2648 2759 
Q 2391 3103 1925 3103 
Q 1463 3103 1205 2759 
Q 947 2416 947 1791 
Q 947 1169 1205 825 
Q 1463 481 1925 481 
Q 2391 481 2648 825 
Q 2906 1169 2906 1791 
z
M 3481 434 
Q 3481 -459 3084 -895 
Q 2688 -1331 1869 -1331 
Q 1566 -1331 1297 -1286 
Q 1028 -1241 775 -1147 
L 775 -588 
Q 1028 -725 1275 -790 
Q 1522 -856 1778 -856 
Q 2344 -856 2625 -561 
Q 2906 -266 2906 331 
L 2906 616 
Q 2728 306 2450 153 
Q 2172 0 1784 0 
Q 1141 0 747 490 
Q 353 981 353 1791 
Q 353 2603 747 3093 
Q 1141 3584 1784 3584 
Q 2172 3584 2450 3431 
Q 2728 3278 2906 2969 
L 2906 3500 
L 3481 3500 
L 3481 434 
z
" transform="scale(0.015625)"/>
       <path id="DejaVuSans-6c" d="M 603 4863 
L 1178 4863 
L 1178 0 
L 603 0 
L 603 4863 
z
" transform="scale(0.015625)"/>
       <path id="DejaVuSans-62" d="M 3116 1747 
Q 3116 2381 2855 2742 
Q 2594 3103 2138 3103 
Q 1681 3103 1420 2742 
Q 1159 2381 1159 1747 
Q 1159 1113 1420 752 
Q 1681 391 2138 391 
Q 2594 391 2855 752 
Q 3116 1113 3116 1747 
z
M 1159 2969 
Q 1341 3281 1617 3432 
Q 1894 3584 2278 3584 
Q 2916 3584 3314 3078 
Q 3713 2572 3713 1747 
Q 3713 922 3314 415 
Q 2916 -91 2278 -91 
Q 1894 -91 1617 61 
Q 1341 213 1159 525 
L 1159 0 
L 581 0 
L 581 4863 
L 1159 4863 
L 1159 2969 
z
" transform="scale(0.015625)"/>
       <path id="DejaVuSans-74" d="M 1172 4494 
L 1172 3500 
L 2356 3500 
L 2356 3053 
L 1172 3053 
L 1172 1153 
Q 1172 725 1289 603 
Q 1406 481 1766 481 
L 2356 481 
L 2356 0 
L 1766 0 
Q 1100 0 847 248 
Q 594 497 594 1153 
L 594 3053 
L 172 3053 
L 172 3500 
L 594 3500 
L 594 4494 
L 1172 4494 
z
" transform="scale(0.015625)"/>
       <path id="DejaVuSans-77" d="M 269 3500 
L 844 3500 
L 1563 769 
L 2278 3500 
L 2956 3500 
L 3675 769 
L 4391 3500 
L 4966 3500 
L 4050 0 
L 3372 0 
L 2619 2869 
L 1863 0 
L 1184 0 
L 269 3500 
z
" transform="scale(0.015625)"/>
       <path id="DejaVuSans-Oblique-73" d="M 3200 3397 
L 3091 2853 
Q 2863 2978 2609 3040 
Q 2356 3103 2088 3103 
Q 1634 3103 1373 2948 
Q 1113 2794 1113 2528 
Q 1113 2219 1719 2053 
Q 1766 2041 1788 2034 
L 1972 1978 
Q 2547 1819 2739 1644 
Q 2931 1469 2931 1166 
Q 2931 609 2489 259 
Q 2047 -91 1331 -91 
Q 1053 -91 747 -37 
Q 441 16 72 128 
L 184 722 
Q 500 559 806 475 
Q 1113 391 1394 391 
Q 1816 391 2080 572 
Q 2344 753 2344 1031 
Q 2344 1331 1650 1516 
L 1591 1531 
L 1394 1581 
Q 956 1697 753 1886 
Q 550 2075 550 2369 
Q 550 2928 970 3256 
Q 1391 3584 2113 3584 
Q 2397 3584 2667 3537 
Q 2938 3491 3200 3397 
z
" transform="scale(0.015625)"/>
       <path id="DejaVuSans-Oblique-3b4" d="M 3472 4053 
Q 3197 4272 2450 4272 
Q 1659 4272 1588 3906 
Q 1531 3619 2328 3469 
Q 2953 3353 3253 3003 
Q 3616 2581 3447 1716 
Q 3284 888 2763 400 
Q 2238 -91 1488 -91 
Q 741 -91 406 400 
Q 72 888 241 1747 
Q 363 2384 891 2900 
Q 1097 3100 1353 3213 
Q 913 3459 1000 3900 
Q 1166 4750 2544 4750 
Q 3234 4750 3566 4531 
L 3472 4053 
z
M 1753 3056 
Q 1525 2966 1306 2738 
Q 969 2384 847 1747 
Q 722 1113 919 756 
Q 1119 397 1584 397 
Q 2044 397 2381 759 
Q 2722 1122 2838 1716 
Q 2956 2338 2731 2638 
Q 2491 2959 2103 2994 
Q 1906 3013 1753 3056 
z
" transform="scale(0.015625)"/>
       <path id="DejaVuSans-Oblique-66" d="M 3059 4863 
L 2969 4384 
L 2419 4384 
Q 2106 4384 1964 4261 
Q 1822 4138 1753 3809 
L 1691 3500 
L 2638 3500 
L 2553 3053 
L 1606 3053 
L 1013 0 
L 434 0 
L 1031 3053 
L 481 3053 
L 563 3500 
L 1113 3500 
L 1159 3744 
Q 1278 4363 1576 4613 
Q 1875 4863 2516 4863 
L 3059 4863 
z
" transform="scale(0.015625)"/>
      </defs>
      <use xlink:href="#DejaVuSans-41" transform="translate(0 0.015625)"/>
      <use xlink:href="#DejaVuSans-6e" transform="translate(68.408203 0.015625)"/>
      <use xlink:href="#DejaVuSans-67" transform="translate(131.787109 0.015625)"/>
      <use xlink:href="#DejaVuSans-6c" transform="translate(195.263672 0.015625)"/>
      <use xlink:href="#DejaVuSans-65" transform="translate(223.046875 0.015625)"/>
      <use xlink:href="#DejaVuSans-20" transform="translate(284.570312 0.015625)"/>
      <use xlink:href="#DejaVuSans-62" transform="translate(316.357422 0.015625)"/>
      <use xlink:href="#DejaVuSans-65" transform="translate(379.833984 0.015625)"/>
      <use xlink:href="#DejaVuSans-74" transform="translate(441.357422 0.015625)"/>
      <use xlink:href="#DejaVuSans-77" transform="translate(480.566406 0.015625)"/>
      <use xlink:href="#DejaVuSans-65" transform="translate(562.353516 0.015625)"/>
      <use xlink:href="#DejaVuSans-65" transform="translate(623.876953 0.015625)"/>
      <use xlink:href="#DejaVuSans-6e" transform="translate(685.400391 0.015625)"/>
      <use xlink:href="#DejaVuSans-20" transform="translate(748.779297 0.015625)"/>
      <use xlink:href="#DejaVuSans-Oblique-73" transform="translate(780.566406 0.015625)"/>
      <use xlink:href="#DejaVuSans-20" transform="translate(832.666016 0.015625)"/>
      <use xlink:href="#DejaVuSans-61" transform="translate(864.453125 0.015625)"/>
      <use xlink:href="#DejaVuSans-6e" transform="translate(925.732422 0.015625)"/>
      <use xlink:href="#DejaVuSans-64" transform="translate(989.111328 0.015625)"/>
      <use xlink:href="#DejaVuSans-20" transform="translate(1052.587891 0.015625)"/>
      <use xlink:href="#DejaVuSans-Oblique-3b4" transform="translate(1084.375 0.015625)"/>
      <use xlink:href="#DejaVuSans-Oblique-66" transform="translate(1145.556641 0.015625)"/>
     </g>
    </g>
   </g>
   <g id="line2d_30">
    <path d="M 398.487273 110.325743 
L 395.207934 110.471709 
L 391.928595 110.624565 
L 388.649256 110.784627 
L 385.369917 110.95228 
L 382.090579 111.127805 
L 378.81124 111.311604 
L 375.531901 111.504027 
L 372.252562 111.705453 
L 368.973223 111.916278 
L 365.693884 112.137672 
L 362.414545 112.371182 
L 359.135207 112.60678 
L 355.855868 112.865089 
L 352.576529 113.126956 
L 349.29719 113.406315 
L 346.017851 113.697904 
L 342.738512 114.00276 
L 339.459174 114.321713 
L 336.179835 114.655509 
L 332.900496 115.004849 
L 329.621157 115.370453 
L 326.341818 115.753077 
L 323.062479 116.153501 
L 319.78314 116.572524 
L 316.503802 117.011013 
L 313.224463 117.469817 
L 309.945124 117.94987 
L 306.665785 118.452106 
L 303.386446 118.977551 
L 300.107107 119.52719 
L 296.827769 120.102134 
L 293.54843 120.703491 
L 290.269091 121.332403 
L 286.989752 121.990109 
L 283.710413 122.67783 
L 280.431074 123.396883 
L 277.151736 124.148608 
L 273.872397 124.934404 
L 270.593058 125.755709 
L 267.313719 126.614015 
L 264.03438 127.510891 
L 260.755041 128.447894 
L 257.475702 129.42667 
L 254.196364 130.448929 
L 250.917025 131.516369 
L 247.637686 132.630822 
L 244.358347 133.794052 
L 241.079008 135.007951 
L 237.799669 136.274398 
L 234.520331 137.595315 
L 231.240992 138.972663 
L 227.961653 140.408432 
L 224.682314 141.915988 
L 221.402975 143.475851 
L 218.123636 145.100486 
L 214.844298 146.784308 
L 211.564959 148.550655 
L 208.28562 150.38415 
L 205.006281 152.288966 
L 201.726942 154.270261 
L 198.447603 156.327373 
L 195.168264 158.46235 
L 191.888926 160.677945 
L 188.609587 162.976166 
L 185.330248 165.358608 
L 182.050909 167.826593 
L 178.77157 170.381221 
L 175.492231 173.023313 
L 172.212893 175.753313 
L 168.933554 178.571298 
L 165.654215 181.476842 
L 162.374876 184.46877 
L 159.095537 187.583846 
L 155.816198 190.765246 
L 152.53686 194.035879 
L 149.257521 197.394798 
L 145.978182 200.840897 
L 142.698843 204.372749 
L 139.419504 207.988719 
L 136.140165 211.686761 
L 132.860826 215.463017 
L 129.581488 219.312214 
L 126.302149 223.257222 
L 123.02281 227.266548 
L 119.743471 231.34951 
L 116.464132 235.50494 
L 113.184793 239.731951 
L 109.905455 244.03018 
L 106.626116 248.399772 
L 103.346777 252.841382 
L 100.067438 257.357054 
L 96.788099 261.920743 
L 93.50876 266.601608 
L 90.229421 271.362841 
L 86.950083 276.104157 
L 83.670744 281.146515 
L 80.391405 286.178604 
L 77.112066 291.213407 
L 73.832727 295.488 
" clip-path="url(#pf6dfac1367)" style="fill: none; stroke: #edf8e9; stroke-width: 1.5; stroke-linecap: square"/>
   </g>
   <g id="line2d_31">
    <path d="M 398.487273 107.692844 
L 395.207934 107.827936 
L 391.928595 107.969365 
L 388.649256 108.117441 
L 385.369917 108.272477 
L 382.090579 108.434797 
L 378.81124 108.604732 
L 375.531901 108.782638 
L 372.252562 108.968891 
L 368.973223 109.163828 
L 365.693884 109.367919 
L 362.414545 109.581532 
L 359.135207 109.805132 
L 355.855868 110.039157 
L 352.576529 110.284082 
L 349.29719 110.540374 
L 346.017851 110.808469 
L 342.738512 111.089203 
L 339.459174 111.381184 
L 336.179835 111.685662 
L 332.900496 112.00998 
L 329.621157 112.347322 
L 326.341818 112.699518 
L 323.062479 113.067726 
L 319.78314 113.452785 
L 316.503802 113.855467 
L 313.224463 114.276592 
L 309.945124 114.716954 
L 306.665785 115.177407 
L 303.386446 115.6588 
L 300.107107 116.162061 
L 296.827769 116.688133 
L 293.54843 117.237976 
L 290.269091 117.812596 
L 286.989752 118.413065 
L 283.710413 119.040455 
L 280.431074 119.695877 
L 277.151736 120.380483 
L 273.872397 121.09554 
L 270.593058 121.842173 
L 267.313719 122.621735 
L 264.03438 123.435506 
L 260.755041 124.284847 
L 257.475702 125.171119 
L 254.196364 126.095778 
L 250.917025 127.060249 
L 247.637686 128.066077 
L 244.358347 129.114704 
L 241.079008 130.207724 
L 237.799669 131.346702 
L 234.520331 132.533256 
L 231.240992 133.768971 
L 227.961653 135.055517 
L 224.682314 136.394477 
L 221.402975 137.787613 
L 218.123636 139.236594 
L 214.844298 140.743541 
L 211.564959 142.311485 
L 208.28562 143.943388 
L 205.006281 145.636747 
L 201.726942 147.392361 
L 198.447603 149.215374 
L 195.168264 151.105243 
L 191.888926 153.06433 
L 188.609587 155.095053 
L 185.330248 157.199171 
L 182.050909 159.378265 
L 178.77157 161.633999 
L 175.492231 163.967888 
L 172.212893 166.381514 
L 168.933554 168.876434 
L 165.654215 171.453995 
L 162.374876 174.115636 
L 159.095537 176.862668 
L 155.816198 179.696684 
L 152.53686 182.657465 
L 149.257521 185.689296 
L 145.978182 188.820018 
L 142.698843 192.053245 
L 139.419504 195.393159 
L 136.140165 198.844471 
L 132.860826 202.411978 
L 129.581488 206.100417 
L 126.302149 209.915532 
L 123.02281 213.865118 
L 119.743471 217.958469 
L 116.464132 222.205567 
L 113.184793 226.616443 
L 109.905455 231.200808 
L 106.626116 235.967829 
L 103.346777 240.925921 
L 100.067438 246.08206 
L 96.788099 251.440818 
L 93.50876 257.000803 
L 90.229421 262.684338 
L 86.950083 268.63662 
L 83.670744 274.8197 
L 80.391405 280.948884 
L 77.112066 287.304589 
L 73.832727 293.814898 
" clip-path="url(#pf6dfac1367)" style="fill: none; stroke: #bae4b3; stroke-width: 1.5; stroke-linecap: square"/>
   </g>
   <g id="line2d_32">
    <path d="M 398.487273 67.378993 
L 395.207934 67.427886 
L 391.928595 67.479071 
L 388.649256 67.532645 
L 385.369917 67.588708 
L 382.090579 67.6474 
L 378.81124 67.708832 
L 375.531901 67.773141 
L 372.252562 67.840426 
L 368.973223 67.910847 
L 365.693884 67.984536 
L 362.414545 68.061668 
L 359.135207 68.142355 
L 355.855868 68.226801 
L 352.576529 68.315122 
L 349.29719 68.407549 
L 346.017851 68.50422 
L 342.738512 68.605327 
L 339.459174 68.711125 
L 336.179835 68.821753 
L 332.900496 68.937457 
L 329.621157 69.058442 
L 326.341818 69.184969 
L 323.062479 69.317252 
L 319.78314 69.455538 
L 316.503802 69.600128 
L 313.224463 69.751248 
L 309.945124 69.909198 
L 306.665785 70.074287 
L 303.386446 70.246784 
L 300.107107 70.426983 
L 296.827769 70.615289 
L 293.54843 70.811963 
L 290.269091 71.017385 
L 286.989752 71.231912 
L 283.710413 71.455943 
L 280.431074 71.689821 
L 277.151736 71.933973 
L 273.872397 72.188811 
L 270.593058 72.454775 
L 267.313719 72.732275 
L 264.03438 73.021811 
L 260.755041 73.32383 
L 257.475702 73.638802 
L 254.196364 73.967301 
L 250.917025 74.309786 
L 247.637686 74.666833 
L 244.358347 75.038981 
L 241.079008 75.426817 
L 237.799669 75.830991 
L 234.520331 76.252061 
L 231.240992 76.690723 
L 227.961653 77.14763 
L 224.682314 77.616931 
L 221.402975 78.117383 
L 218.123636 78.636821 
L 214.844298 79.175723 
L 211.564959 79.734673 
L 208.28562 80.314348 
L 205.006281 80.915706 
L 201.726942 81.539896 
L 198.447603 82.215518 
L 195.168264 82.903013 
L 191.888926 83.620008 
L 188.609587 84.368248 
L 185.330248 85.149637 
L 182.050909 85.96636 
L 178.77157 86.820948 
L 175.492231 87.716246 
L 172.212893 88.632545 
L 168.933554 89.636241 
L 165.654215 90.686693 
L 162.374876 91.78814 
L 159.095537 92.94896 
L 155.816198 94.180038 
L 152.53686 95.492745 
L 149.257521 96.924259 
L 145.978182 98.445209 
L 142.698843 100.040926 
L 139.419504 101.811499 
L 136.140165 103.744053 
L 132.860826 105.866603 
L 129.581488 108.214149 
L 126.302149 110.830988 
L 123.02281 113.743437 
L 119.743471 117.043508 
L 116.464132 120.796564 
L 113.184793 125.097367 
L 109.905455 130.062944 
L 106.626116 135.837522 
L 103.346777 142.594313 
L 100.067438 150.72155 
L 96.788099 160.291092 
L 93.50876 171.730803 
L 90.229421 185.443711 
L 86.950083 201.820208 
L 83.670744 221.143294 
L 80.391405 243.55376 
L 77.112066 268.581762 
L 73.832727 295.228863 
" clip-path="url(#pf6dfac1367)" style="fill: none; stroke: #74c476; stroke-width: 1.5; stroke-linecap: square"/>
   </g>
   <g id="line2d_33">
    <path d="M 398.487273 53.568 
L 395.207934 53.58963 
L 391.928595 53.612271 
L 388.649256 53.636001 
L 385.369917 53.660785 
L 382.090579 53.686752 
L 378.81124 53.713924 
L 375.531901 53.742372 
L 372.252562 53.772115 
L 368.973223 53.803256 
L 365.693884 53.835825 
L 362.414545 53.869931 
L 359.135207 53.905592 
L 355.855868 53.942889 
L 352.576529 53.981912 
L 349.29719 54.022734 
L 346.017851 54.065431 
L 342.738512 54.110092 
L 339.459174 54.156786 
L 336.179835 54.205636 
L 332.900496 54.256681 
L 329.621157 54.310073 
L 326.341818 54.365894 
L 323.062479 54.424236 
L 319.78314 54.485246 
L 316.503802 54.548966 
L 313.224463 54.615572 
L 309.945124 54.685161 
L 306.665785 54.757898 
L 303.386446 54.833856 
L 300.107107 54.91321 
L 296.827769 54.996084 
L 293.54843 55.082638 
L 290.269091 55.172979 
L 286.989752 55.267319 
L 283.710413 55.365805 
L 280.431074 55.468549 
L 277.151736 55.575832 
L 273.872397 55.687731 
L 270.593058 55.804443 
L 267.313719 55.926209 
L 264.03438 56.05319 
L 260.755041 56.185565 
L 257.475702 56.323571 
L 254.196364 56.467445 
L 250.917025 56.61737 
L 247.637686 56.773583 
L 244.358347 56.936339 
L 241.079008 57.105871 
L 237.799669 57.282487 
L 234.520331 57.466349 
L 231.240992 57.657851 
L 227.961653 57.857242 
L 224.682314 58.064785 
L 221.402975 58.280928 
L 218.123636 58.505902 
L 214.844298 58.740137 
L 211.564959 58.984001 
L 208.28562 59.23803 
L 205.006281 59.502604 
L 201.726942 59.778222 
L 198.447603 60.065526 
L 195.168264 60.365136 
L 191.888926 60.677772 
L 188.609587 61.004268 
L 185.330248 61.345519 
L 182.050909 61.702584 
L 178.77157 62.076775 
L 175.492231 62.469441 
L 172.212893 62.882358 
L 168.933554 63.289379 
L 165.654215 63.755412 
L 162.374876 64.248115 
L 159.095537 64.770725 
L 155.816198 65.326986 
L 152.53686 65.921629 
L 149.257521 66.56064 
L 145.978182 67.250874 
L 142.698843 68.000349 
L 139.419504 68.822762 
L 136.140165 69.722338 
L 132.860826 70.719877 
L 129.581488 71.842832 
L 126.302149 73.137597 
L 123.02281 74.581784 
L 119.743471 76.263649 
L 116.464132 78.150371 
L 113.184793 80.449475 
L 109.905455 83.172837 
L 106.626116 86.445514 
L 103.346777 90.466422 
L 100.067438 95.493068 
L 96.788099 101.913884 
L 93.50876 110.327308 
L 90.229421 121.642647 
L 86.950083 137.519083 
L 83.670744 160.68565 
L 80.391405 194.817342 
L 77.112066 244.888857 
L 73.832727 285.272944 
" clip-path="url(#pf6dfac1367)" style="fill: none; stroke: #238b45; stroke-width: 1.5; stroke-linecap: square"/>
   </g>
   <g id="patch_3">
    <path d="M 57.6 307.584 
L 57.6 41.472 
" style="fill: none; stroke: #000000; stroke-width: 0.8; stroke-linejoin: miter; stroke-linecap: square"/>
   </g>
   <g id="patch_4">
    <path d="M 414.72 307.584 
L 414.72 41.472 
" style="fill: none; stroke: #000000; stroke-width: 0.8; stroke-linejoin: miter; stroke-linecap: square"/>
   </g>
   <g id="patch_5">
    <path d="M 57.6 307.584 
L 414.72 307.584 
" style="fill: none; stroke: #000000; stroke-width: 0.8; stroke-linejoin: miter; stroke-linecap: square"/>
   </g>
   <g id="patch_6">
    <path d="M 57.6 41.472 
L 414.72 41.472 
" style="fill: none; stroke: #000000; stroke-width: 0.8; stroke-linejoin: miter; stroke-linecap: square"/>
   </g>
  </g>
  <g id="axes_2">
   <g id="patch_7">
    <path d="M 345.6 286.848 
L 359.424 286.848 
L 359.424 148.608 
L 345.6 148.608 
z
" style="fill: #ffffff"/>
   </g>
   <g id="QuadMesh_1">
    <path d="M 345.6 286.848 
L 359.424 286.848 
L 359.424 252.288 
L 345.6 252.288 
L 345.6 286.848 
" clip-path="url(#pa4c0c08dc0)" style="fill: #edf8e9"/>
    <path d="M 345.6 252.288 
L 359.424 252.288 
L 359.424 217.728 
L 345.6 217.728 
L 345.6 252.288 
" clip-path="url(#pa4c0c08dc0)" style="fill: #bae4b3"/>
    <path d="M 345.6 217.728 
L 359.424 217.728 
L 359.424 183.168 
L 345.6 183.168 
L 345.6 217.728 
" clip-path="url(#pa4c0c08dc0)" style="fill: #74c476"/>
    <path d="M 345.6 183.168 
L 359.424 183.168 
L 359.424 148.608 
L 345.6 148.608 
L 345.6 183.168 
" clip-path="url(#pa4c0c08dc0)" style="fill: #238b45"/>
   </g>
   <g id="matplotlib.axis_3"/>
   <g id="matplotlib.axis_4">
    <g id="ytick_9">
     <g id="line2d_34">
      <defs>
       <path id="maee09bb5fe" d="M 0 0 
L 3.5 0 
" style="stroke: #000000; stroke-width: 0.8"/>
      </defs>
      <g>
       <use xlink:href="#maee09bb5fe" x="359.424" y="269.568" style="stroke: #000000; stroke-width: 0.8"/>
      </g>
     </g>
     <g id="text_14">
      <!-- 0.10 -->
      <g transform="translate(366.424 276.406594) scale(0.18 -0.18)">
       <use xlink:href="#DejaVuSans-30"/>
       <use xlink:href="#DejaVuSans-2e" x="63.623047"/>
       <use xlink:href="#DejaVuSans-31" x="95.410156"/>
       <use xlink:href="#DejaVuSans-30" x="159.033203"/>
      </g>
     </g>
    </g>
    <g id="ytick_10">
     <g id="line2d_35">
      <g>
       <use xlink:href="#maee09bb5fe" x="359.424" y="235.008" style="stroke: #000000; stroke-width: 0.8"/>
      </g>
     </g>
     <g id="text_15">
      <!-- 0.25 -->
      <g transform="translate(366.424 241.846594) scale(0.18 -0.18)">
       <use xlink:href="#DejaVuSans-30"/>
       <use xlink:href="#DejaVuSans-2e" x="63.623047"/>
       <use xlink:href="#DejaVuSans-32" x="95.410156"/>
       <use xlink:href="#DejaVuSans-35" x="159.033203"/>
      </g>
     </g>
    </g>
    <g id="ytick_11">
     <g id="line2d_36">
      <g>
       <use xlink:href="#maee09bb5fe" x="359.424" y="200.448" style="stroke: #000000; stroke-width: 0.8"/>
      </g>
     </g>
     <g id="text_16">
      <!-- 0.75 -->
      <g transform="translate(366.424 207.286594) scale(0.18 -0.18)">
       <use xlink:href="#DejaVuSans-30"/>
       <use xlink:href="#DejaVuSans-2e" x="63.623047"/>
       <use xlink:href="#DejaVuSans-37" x="95.410156"/>
       <use xlink:href="#DejaVuSans-35" x="159.033203"/>
      </g>
     </g>
    </g>
    <g id="ytick_12">
     <g id="line2d_37">
      <g>
       <use xlink:href="#maee09bb5fe" x="359.424" y="165.888" style="stroke: #000000; stroke-width: 0.8"/>
      </g>
     </g>
     <g id="text_17">
      <!-- 1.00 -->
      <g transform="translate(366.424 172.726594) scale(0.18 -0.18)">
       <use xlink:href="#DejaVuSans-31"/>
       <use xlink:href="#DejaVuSans-2e" x="63.623047"/>
       <use xlink:href="#DejaVuSans-30" x="95.410156"/>
       <use xlink:href="#DejaVuSans-30" x="159.033203"/>
      </g>
     </g>
    </g>
   </g>
   <g id="LineCollection_1"/>
   <g id="patch_8">
    <path d="M 345.6 286.848 
L 352.512 286.848 
L 359.424 286.848 
L 359.424 148.608 
L 352.512 148.608 
L 345.6 148.608 
L 345.6 286.848 
z
" style="fill: none; stroke: #000000; stroke-width: 0.8; stroke-linejoin: miter; stroke-linecap: square"/>
   </g>
   <g id="text_18">
    <!-- $\sigma$ -->
    <g transform="translate(342.912 142.368937) scale(0.3 -0.3)">
     <defs>
      <path id="DejaVuSans-Oblique-3c3" d="M 2219 3044 
Q 1744 3044 1422 2700 
Q 1081 2341 969 1747 
Q 844 1119 1044 756 
Q 1241 397 1706 397 
Q 2166 397 2503 759 
Q 2844 1122 2966 1747 
Q 3075 2319 2881 2700 
Q 2700 3044 2219 3044 
z
M 2309 3503 
L 4219 3500 
L 4106 2925 
L 3463 2925 
Q 3706 2438 3575 1747 
Q 3406 888 2884 400 
Q 2359 -91 1609 -91 
Q 856 -91 525 400 
Q 194 888 363 1747 
Q 528 2609 1050 3097 
Q 1484 3503 2309 3503 
z
" transform="scale(0.015625)"/>
     </defs>
     <use xlink:href="#DejaVuSans-Oblique-3c3" transform="translate(0 0.265625)"/>
    </g>
   </g>
  </g>
 </g>
 <defs>
  <clipPath id="pf6dfac1367">
   <rect x="57.6" y="41.472" width="357.12" height="266.112"/>
  </clipPath>
  <clipPath id="pa4c0c08dc0">
   <rect x="345.6" y="148.608" width="13.824" height="138.24"/>
  </clipPath>
 </defs>
</svg>
