<?xml version="1.0" encoding="utf-8" standalone="no"?>
<!DOCTYPE svg PUBLIC "-//W3C//DTD SVG 1.1//EN"
  "http://www.w3.org/Graphics/SVG/1.1/DTD/svg11.dtd">
<svg xmlns:xlink="http://www.w3.org/1999/xlink" width="432pt" height="216pt" viewBox="0 0 432 216" xmlns="http://www.w3.org/2000/svg" version="1.1">
 <metadata>
  <rdf:RDF xmlns:dc="http://purl.org/dc/elements/1.1/" xmlns:cc="http://creativecommons.org/ns#" xmlns:rdf="http://www.w3.org/1999/02/22-rdf-syntax-ns#">
   <cc:Work>
    <dc:type rdf:resource="http://purl.org/dc/dcmitype/StillImage"/>
    <dc:date>2023-09-22T03:32:15.809276</dc:date>
    <dc:format>image/svg+xml</dc:format>
    <dc:creator>
     <cc:Agent>
      <dc:title>Matplotlib v3.7.2, https://matplotlib.org/</dc:title>
     </cc:Agent>
    </dc:creator>
   </cc:Work>
  </rdf:RDF>
 </metadata>
 <defs>
  <style type="text/css">*{stroke-linejoin: round; stroke-linecap: butt}</style>
 </defs>
 <g id="figure_1">
  <g id="patch_1">
   <path d="M 0 216 
L 432 216 
L 432 0 
L 0 0 
z
" style="fill: #ffffff"/>
  </g>
  <g id="axes_1">
   <g id="patch_2">
    <path d="M 54 192.24 
L 388.8 192.24 
L 388.8 25.92 
L 54 25.92 
z
" style="fill: #ffffff"/>
   </g>
   <g id="matplotlib.axis_1">
    <g id="xtick_1">
     <g id="line2d_1">
      <defs>
       <path id="mdeb41ecec4" d="M 0 0 
L 0 3.5 
" style="stroke: #000000; stroke-width: 0.8"/>
      </defs>
      <g>
       <use xlink:href="#mdeb41ecec4" x="54" y="192.24" style="stroke: #000000; stroke-width: 0.8"/>
      </g>
     </g>
     <g id="text_1">
      <!-- $\mathdefault{10^{-3}}$ -->
      <g transform="translate(34.025 212.157344) scale(0.17 -0.17)">
       <defs>
        <path id="DejaVuSans-31" d="M 794 531 
L 1825 531 
L 1825 4091 
L 703 3866 
L 703 4441 
L 1819 4666 
L 2450 4666 
L 2450 531 
L 3481 531 
L 3481 0 
L 794 0 
L 794 531 
z
" transform="scale(0.015625)"/>
        <path id="DejaVuSans-30" d="M 2034 4250 
Q 1547 4250 1301 3770 
Q 1056 3291 1056 2328 
Q 1056 1369 1301 889 
Q 1547 409 2034 409 
Q 2525 409 2770 889 
Q 3016 1369 3016 2328 
Q 3016 3291 2770 3770 
Q 2525 4250 2034 4250 
z
M 2034 4750 
Q 2819 4750 3233 4129 
Q 3647 3509 3647 2328 
Q 3647 1150 3233 529 
Q 2819 -91 2034 -91 
Q 1250 -91 836 529 
Q 422 1150 422 2328 
Q 422 3509 836 4129 
Q 1250 4750 2034 4750 
z
" transform="scale(0.015625)"/>
        <path id="DejaVuSans-2212" d="M 678 2272 
L 4684 2272 
L 4684 1741 
L 678 1741 
L 678 2272 
z
" transform="scale(0.015625)"/>
        <path id="DejaVuSans-33" d="M 2597 2516 
Q 3050 2419 3304 2112 
Q 3559 1806 3559 1356 
Q 3559 666 3084 287 
Q 2609 -91 1734 -91 
Q 1441 -91 1130 -33 
Q 819 25 488 141 
L 488 750 
Q 750 597 1062 519 
Q 1375 441 1716 441 
Q 2309 441 2620 675 
Q 2931 909 2931 1356 
Q 2931 1769 2642 2001 
Q 2353 2234 1838 2234 
L 1294 2234 
L 1294 2753 
L 1863 2753 
Q 2328 2753 2575 2939 
Q 2822 3125 2822 3475 
Q 2822 3834 2567 4026 
Q 2313 4219 1838 4219 
Q 1578 4219 1281 4162 
Q 984 4106 628 3988 
L 628 4550 
Q 988 4650 1302 4700 
Q 1616 4750 1894 4750 
Q 2613 4750 3031 4423 
Q 3450 4097 3450 3541 
Q 3450 3153 3228 2886 
Q 3006 2619 2597 2516 
z
" transform="scale(0.015625)"/>
       </defs>
       <use xlink:href="#DejaVuSans-31" transform="translate(0 0.765625)"/>
       <use xlink:href="#DejaVuSans-30" transform="translate(63.623047 0.765625)"/>
       <use xlink:href="#DejaVuSans-2212" transform="translate(128.203125 39.046875) scale(0.7)"/>
       <use xlink:href="#DejaVuSans-33" transform="translate(186.855469 39.046875) scale(0.7)"/>
      </g>
     </g>
    </g>
    <g id="xtick_2">
     <g id="line2d_2">
      <g>
       <use xlink:href="#mdeb41ecec4" x="109.8" y="192.24" style="stroke: #000000; stroke-width: 0.8"/>
      </g>
     </g>
     <g id="text_2">
      <!-- $\mathdefault{10^{-2}}$ -->
      <g transform="translate(89.825 212.157344) scale(0.17 -0.17)">
       <defs>
        <path id="DejaVuSans-32" d="M 1228 531 
L 3431 531 
L 3431 0 
L 469 0 
L 469 531 
Q 828 903 1448 1529 
Q 2069 2156 2228 2338 
Q 2531 2678 2651 2914 
Q 2772 3150 2772 3378 
Q 2772 3750 2511 3984 
Q 2250 4219 1831 4219 
Q 1534 4219 1204 4116 
Q 875 4013 500 3803 
L 500 4441 
Q 881 4594 1212 4672 
Q 1544 4750 1819 4750 
Q 2544 4750 2975 4387 
Q 3406 4025 3406 3419 
Q 3406 3131 3298 2873 
Q 3191 2616 2906 2266 
Q 2828 2175 2409 1742 
Q 1991 1309 1228 531 
z
" transform="scale(0.015625)"/>
       </defs>
       <use xlink:href="#DejaVuSans-31" transform="translate(0 0.765625)"/>
       <use xlink:href="#DejaVuSans-30" transform="translate(63.623047 0.765625)"/>
       <use xlink:href="#DejaVuSans-2212" transform="translate(128.203125 39.046875) scale(0.7)"/>
       <use xlink:href="#DejaVuSans-32" transform="translate(186.855469 39.046875) scale(0.7)"/>
      </g>
     </g>
    </g>
    <g id="xtick_3">
     <g id="line2d_3">
      <g>
       <use xlink:href="#mdeb41ecec4" x="165.6" y="192.24" style="stroke: #000000; stroke-width: 0.8"/>
      </g>
     </g>
     <g id="text_3">
      <!-- $\mathdefault{10^{-1}}$ -->
      <g transform="translate(145.625 212.157344) scale(0.17 -0.17)">
       <use xlink:href="#DejaVuSans-31" transform="translate(0 0.684375)"/>
       <use xlink:href="#DejaVuSans-30" transform="translate(63.623047 0.684375)"/>
       <use xlink:href="#DejaVuSans-2212" transform="translate(128.203125 38.965625) scale(0.7)"/>
       <use xlink:href="#DejaVuSans-31" transform="translate(186.855469 38.965625) scale(0.7)"/>
      </g>
     </g>
    </g>
    <g id="xtick_4">
     <g id="line2d_4">
      <g>
       <use xlink:href="#mdeb41ecec4" x="221.4" y="192.24" style="stroke: #000000; stroke-width: 0.8"/>
      </g>
     </g>
     <g id="text_4">
      <!-- $\mathdefault{10^{0}}$ -->
      <g transform="translate(206.44 212.157344) scale(0.17 -0.17)">
       <use xlink:href="#DejaVuSans-31" transform="translate(0 0.765625)"/>
       <use xlink:href="#DejaVuSans-30" transform="translate(63.623047 0.765625)"/>
       <use xlink:href="#DejaVuSans-30" transform="translate(128.203125 39.046875) scale(0.7)"/>
      </g>
     </g>
    </g>
    <g id="xtick_5">
     <g id="line2d_5">
      <g>
       <use xlink:href="#mdeb41ecec4" x="277.2" y="192.24" style="stroke: #000000; stroke-width: 0.8"/>
      </g>
     </g>
     <g id="text_5">
      <!-- $\mathdefault{10^{1}}$ -->
      <g transform="translate(262.24 212.157344) scale(0.17 -0.17)">
       <use xlink:href="#DejaVuSans-31" transform="translate(0 0.684375)"/>
       <use xlink:href="#DejaVuSans-30" transform="translate(63.623047 0.684375)"/>
       <use xlink:href="#DejaVuSans-31" transform="translate(128.203125 38.965625) scale(0.7)"/>
      </g>
     </g>
    </g>
    <g id="xtick_6">
     <g id="line2d_6">
      <g>
       <use xlink:href="#mdeb41ecec4" x="333" y="192.24" style="stroke: #000000; stroke-width: 0.8"/>
      </g>
     </g>
     <g id="text_6">
      <!-- $\mathdefault{10^{2}}$ -->
      <g transform="translate(318.04 212.157344) scale(0.17 -0.17)">
       <use xlink:href="#DejaVuSans-31" transform="translate(0 0.765625)"/>
       <use xlink:href="#DejaVuSans-30" transform="translate(63.623047 0.765625)"/>
       <use xlink:href="#DejaVuSans-32" transform="translate(128.203125 39.046875) scale(0.7)"/>
      </g>
     </g>
    </g>
    <g id="xtick_7">
     <g id="line2d_7">
      <g>
       <use xlink:href="#mdeb41ecec4" x="388.8" y="192.24" style="stroke: #000000; stroke-width: 0.8"/>
      </g>
     </g>
     <g id="text_7">
      <!-- $\mathdefault{10^{3}}$ -->
      <g transform="translate(373.84 212.157344) scale(0.17 -0.17)">
       <use xlink:href="#DejaVuSans-31" transform="translate(0 0.765625)"/>
       <use xlink:href="#DejaVuSans-30" transform="translate(63.623047 0.765625)"/>
       <use xlink:href="#DejaVuSans-33" transform="translate(128.203125 39.046875) scale(0.7)"/>
      </g>
     </g>
    </g>
    <g id="xtick_8">
     <g id="line2d_8">
      <defs>
       <path id="me7b92f4b3f" d="M 0 0 
L 0 2 
" style="stroke: #000000; stroke-width: 0.6"/>
      </defs>
      <g>
       <use xlink:href="#me7b92f4b3f" x="70.797474" y="192.24" style="stroke: #000000; stroke-width: 0.6"/>
      </g>
     </g>
    </g>
    <g id="xtick_9">
     <g id="line2d_9">
      <g>
       <use xlink:href="#me7b92f4b3f" x="80.623366" y="192.24" style="stroke: #000000; stroke-width: 0.6"/>
      </g>
     </g>
    </g>
    <g id="xtick_10">
     <g id="line2d_10">
      <g>
       <use xlink:href="#me7b92f4b3f" x="87.594948" y="192.24" style="stroke: #000000; stroke-width: 0.6"/>
      </g>
     </g>
    </g>
    <g id="xtick_11">
     <g id="line2d_11">
      <g>
       <use xlink:href="#me7b92f4b3f" x="93.002526" y="192.24" style="stroke: #000000; stroke-width: 0.6"/>
      </g>
     </g>
    </g>
    <g id="xtick_12">
     <g id="line2d_12">
      <g>
       <use xlink:href="#me7b92f4b3f" x="97.42084" y="192.24" style="stroke: #000000; stroke-width: 0.6"/>
      </g>
     </g>
    </g>
    <g id="xtick_13">
     <g id="line2d_13">
      <g>
       <use xlink:href="#me7b92f4b3f" x="101.156471" y="192.24" style="stroke: #000000; stroke-width: 0.6"/>
      </g>
     </g>
    </g>
    <g id="xtick_14">
     <g id="line2d_14">
      <g>
       <use xlink:href="#me7b92f4b3f" x="104.392421" y="192.24" style="stroke: #000000; stroke-width: 0.6"/>
      </g>
     </g>
    </g>
    <g id="xtick_15">
     <g id="line2d_15">
      <g>
       <use xlink:href="#me7b92f4b3f" x="107.246732" y="192.24" style="stroke: #000000; stroke-width: 0.6"/>
      </g>
     </g>
    </g>
    <g id="xtick_16">
     <g id="line2d_16">
      <g>
       <use xlink:href="#me7b92f4b3f" x="126.597474" y="192.24" style="stroke: #000000; stroke-width: 0.6"/>
      </g>
     </g>
    </g>
    <g id="xtick_17">
     <g id="line2d_17">
      <g>
       <use xlink:href="#me7b92f4b3f" x="136.423366" y="192.24" style="stroke: #000000; stroke-width: 0.6"/>
      </g>
     </g>
    </g>
    <g id="xtick_18">
     <g id="line2d_18">
      <g>
       <use xlink:href="#me7b92f4b3f" x="143.394948" y="192.24" style="stroke: #000000; stroke-width: 0.6"/>
      </g>
     </g>
    </g>
    <g id="xtick_19">
     <g id="line2d_19">
      <g>
       <use xlink:href="#me7b92f4b3f" x="148.802526" y="192.24" style="stroke: #000000; stroke-width: 0.6"/>
      </g>
     </g>
    </g>
    <g id="xtick_20">
     <g id="line2d_20">
      <g>
       <use xlink:href="#me7b92f4b3f" x="153.22084" y="192.24" style="stroke: #000000; stroke-width: 0.6"/>
      </g>
     </g>
    </g>
    <g id="xtick_21">
     <g id="line2d_21">
      <g>
       <use xlink:href="#me7b92f4b3f" x="156.956471" y="192.24" style="stroke: #000000; stroke-width: 0.6"/>
      </g>
     </g>
    </g>
    <g id="xtick_22">
     <g id="line2d_22">
      <g>
       <use xlink:href="#me7b92f4b3f" x="160.192421" y="192.24" style="stroke: #000000; stroke-width: 0.6"/>
      </g>
     </g>
    </g>
    <g id="xtick_23">
     <g id="line2d_23">
      <g>
       <use xlink:href="#me7b92f4b3f" x="163.046732" y="192.24" style="stroke: #000000; stroke-width: 0.6"/>
      </g>
     </g>
    </g>
    <g id="xtick_24">
     <g id="line2d_24">
      <g>
       <use xlink:href="#me7b92f4b3f" x="182.397474" y="192.24" style="stroke: #000000; stroke-width: 0.6"/>
      </g>
     </g>
    </g>
    <g id="xtick_25">
     <g id="line2d_25">
      <g>
       <use xlink:href="#me7b92f4b3f" x="192.223366" y="192.24" style="stroke: #000000; stroke-width: 0.6"/>
      </g>
     </g>
    </g>
    <g id="xtick_26">
     <g id="line2d_26">
      <g>
       <use xlink:href="#me7b92f4b3f" x="199.194948" y="192.24" style="stroke: #000000; stroke-width: 0.6"/>
      </g>
     </g>
    </g>
    <g id="xtick_27">
     <g id="line2d_27">
      <g>
       <use xlink:href="#me7b92f4b3f" x="204.602526" y="192.24" style="stroke: #000000; stroke-width: 0.6"/>
      </g>
     </g>
    </g>
    <g id="xtick_28">
     <g id="line2d_28">
      <g>
       <use xlink:href="#me7b92f4b3f" x="209.02084" y="192.24" style="stroke: #000000; stroke-width: 0.6"/>
      </g>
     </g>
    </g>
    <g id="xtick_29">
     <g id="line2d_29">
      <g>
       <use xlink:href="#me7b92f4b3f" x="212.756471" y="192.24" style="stroke: #000000; stroke-width: 0.6"/>
      </g>
     </g>
    </g>
    <g id="xtick_30">
     <g id="line2d_30">
      <g>
       <use xlink:href="#me7b92f4b3f" x="215.992421" y="192.24" style="stroke: #000000; stroke-width: 0.6"/>
      </g>
     </g>
    </g>
    <g id="xtick_31">
     <g id="line2d_31">
      <g>
       <use xlink:href="#me7b92f4b3f" x="218.846732" y="192.24" style="stroke: #000000; stroke-width: 0.6"/>
      </g>
     </g>
    </g>
    <g id="xtick_32">
     <g id="line2d_32">
      <g>
       <use xlink:href="#me7b92f4b3f" x="238.197474" y="192.24" style="stroke: #000000; stroke-width: 0.6"/>
      </g>
     </g>
    </g>
    <g id="xtick_33">
     <g id="line2d_33">
      <g>
       <use xlink:href="#me7b92f4b3f" x="248.023366" y="192.24" style="stroke: #000000; stroke-width: 0.6"/>
      </g>
     </g>
    </g>
    <g id="xtick_34">
     <g id="line2d_34">
      <g>
       <use xlink:href="#me7b92f4b3f" x="254.994948" y="192.24" style="stroke: #000000; stroke-width: 0.6"/>
      </g>
     </g>
    </g>
    <g id="xtick_35">
     <g id="line2d_35">
      <g>
       <use xlink:href="#me7b92f4b3f" x="260.402526" y="192.24" style="stroke: #000000; stroke-width: 0.6"/>
      </g>
     </g>
    </g>
    <g id="xtick_36">
     <g id="line2d_36">
      <g>
       <use xlink:href="#me7b92f4b3f" x="264.82084" y="192.24" style="stroke: #000000; stroke-width: 0.6"/>
      </g>
     </g>
    </g>
    <g id="xtick_37">
     <g id="line2d_37">
      <g>
       <use xlink:href="#me7b92f4b3f" x="268.556471" y="192.24" style="stroke: #000000; stroke-width: 0.6"/>
      </g>
     </g>
    </g>
    <g id="xtick_38">
     <g id="line2d_38">
      <g>
       <use xlink:href="#me7b92f4b3f" x="271.792421" y="192.24" style="stroke: #000000; stroke-width: 0.6"/>
      </g>
     </g>
    </g>
    <g id="xtick_39">
     <g id="line2d_39">
      <g>
       <use xlink:href="#me7b92f4b3f" x="274.646732" y="192.24" style="stroke: #000000; stroke-width: 0.6"/>
      </g>
     </g>
    </g>
    <g id="xtick_40">
     <g id="line2d_40">
      <g>
       <use xlink:href="#me7b92f4b3f" x="293.997474" y="192.24" style="stroke: #000000; stroke-width: 0.6"/>
      </g>
     </g>
    </g>
    <g id="xtick_41">
     <g id="line2d_41">
      <g>
       <use xlink:href="#me7b92f4b3f" x="303.823366" y="192.24" style="stroke: #000000; stroke-width: 0.6"/>
      </g>
     </g>
    </g>
    <g id="xtick_42">
     <g id="line2d_42">
      <g>
       <use xlink:href="#me7b92f4b3f" x="310.794948" y="192.24" style="stroke: #000000; stroke-width: 0.6"/>
      </g>
     </g>
    </g>
    <g id="xtick_43">
     <g id="line2d_43">
      <g>
       <use xlink:href="#me7b92f4b3f" x="316.202526" y="192.24" style="stroke: #000000; stroke-width: 0.6"/>
      </g>
     </g>
    </g>
    <g id="xtick_44">
     <g id="line2d_44">
      <g>
       <use xlink:href="#me7b92f4b3f" x="320.62084" y="192.24" style="stroke: #000000; stroke-width: 0.6"/>
      </g>
     </g>
    </g>
    <g id="xtick_45">
     <g id="line2d_45">
      <g>
       <use xlink:href="#me7b92f4b3f" x="324.356471" y="192.24" style="stroke: #000000; stroke-width: 0.6"/>
      </g>
     </g>
    </g>
    <g id="xtick_46">
     <g id="line2d_46">
      <g>
       <use xlink:href="#me7b92f4b3f" x="327.592421" y="192.24" style="stroke: #000000; stroke-width: 0.6"/>
      </g>
     </g>
    </g>
    <g id="xtick_47">
     <g id="line2d_47">
      <g>
       <use xlink:href="#me7b92f4b3f" x="330.446732" y="192.24" style="stroke: #000000; stroke-width: 0.6"/>
      </g>
     </g>
    </g>
    <g id="xtick_48">
     <g id="line2d_48">
      <g>
       <use xlink:href="#me7b92f4b3f" x="349.797474" y="192.24" style="stroke: #000000; stroke-width: 0.6"/>
      </g>
     </g>
    </g>
    <g id="xtick_49">
     <g id="line2d_49">
      <g>
       <use xlink:href="#me7b92f4b3f" x="359.623366" y="192.24" style="stroke: #000000; stroke-width: 0.6"/>
      </g>
     </g>
    </g>
    <g id="xtick_50">
     <g id="line2d_50">
      <g>
       <use xlink:href="#me7b92f4b3f" x="366.594948" y="192.24" style="stroke: #000000; stroke-width: 0.6"/>
      </g>
     </g>
    </g>
    <g id="xtick_51">
     <g id="line2d_51">
      <g>
       <use xlink:href="#me7b92f4b3f" x="372.002526" y="192.24" style="stroke: #000000; stroke-width: 0.6"/>
      </g>
     </g>
    </g>
    <g id="xtick_52">
     <g id="line2d_52">
      <g>
       <use xlink:href="#me7b92f4b3f" x="376.42084" y="192.24" style="stroke: #000000; stroke-width: 0.6"/>
      </g>
     </g>
    </g>
    <g id="xtick_53">
     <g id="line2d_53">
      <g>
       <use xlink:href="#me7b92f4b3f" x="380.156471" y="192.24" style="stroke: #000000; stroke-width: 0.6"/>
      </g>
     </g>
    </g>
    <g id="xtick_54">
     <g id="line2d_54">
      <g>
       <use xlink:href="#me7b92f4b3f" x="383.392421" y="192.24" style="stroke: #000000; stroke-width: 0.6"/>
      </g>
     </g>
    </g>
    <g id="xtick_55">
     <g id="line2d_55">
      <g>
       <use xlink:href="#me7b92f4b3f" x="386.246732" y="192.24" style="stroke: #000000; stroke-width: 0.6"/>
      </g>
     </g>
    </g>
    <g id="text_8">
     <!-- $\frac{(\delta f \cdot v_2) / \lambda_2}{(\delta f \cdot v_1) / \lambda_1}$ -->
     <g transform="translate(176.775 246.942813) scale(0.25 -0.25)">
      <defs>
       <path id="DejaVuSans-28" d="M 1984 4856 
Q 1566 4138 1362 3434 
Q 1159 2731 1159 2009 
Q 1159 1288 1364 580 
Q 1569 -128 1984 -844 
L 1484 -844 
Q 1016 -109 783 600 
Q 550 1309 550 2009 
Q 550 2706 781 3412 
Q 1013 4119 1484 4856 
L 1984 4856 
z
" transform="scale(0.015625)"/>
       <path id="DejaVuSans-Oblique-3b4" d="M 3472 4053 
Q 3197 4272 2450 4272 
Q 1659 4272 1588 3906 
Q 1531 3619 2328 3469 
Q 2953 3353 3253 3003 
Q 3616 2581 3447 1716 
Q 3284 888 2763 400 
Q 2238 -91 1488 -91 
Q 741 -91 406 400 
Q 72 888 241 1747 
Q 363 2384 891 2900 
Q 1097 3100 1353 3213 
Q 913 3459 1000 3900 
Q 1166 4750 2544 4750 
Q 3234 4750 3566 4531 
L 3472 4053 
z
M 1753 3056 
Q 1525 2966 1306 2738 
Q 969 2384 847 1747 
Q 722 1113 919 756 
Q 1119 397 1584 397 
Q 2044 397 2381 759 
Q 2722 1122 2838 1716 
Q 2956 2338 2731 2638 
Q 2491 2959 2103 2994 
Q 1906 3013 1753 3056 
z
" transform="scale(0.015625)"/>
       <path id="DejaVuSans-Oblique-66" d="M 3059 4863 
L 2969 4384 
L 2419 4384 
Q 2106 4384 1964 4261 
Q 1822 4138 1753 3809 
L 1691 3500 
L 2638 3500 
L 2553 3053 
L 1606 3053 
L 1013 0 
L 434 0 
L 1031 3053 
L 481 3053 
L 563 3500 
L 1113 3500 
L 1159 3744 
Q 1278 4363 1576 4613 
Q 1875 4863 2516 4863 
L 3059 4863 
z
" transform="scale(0.015625)"/>
       <path id="DejaVuSans-22c5" d="M 684 2619 
L 1344 2619 
L 1344 1825 
L 684 1825 
L 684 2619 
z
" transform="scale(0.015625)"/>
       <path id="DejaVuSans-Oblique-76" d="M 459 3500 
L 1069 3500 
L 1581 525 
L 3256 3500 
L 3866 3500 
L 1875 0 
L 1100 0 
L 459 3500 
z
" transform="scale(0.015625)"/>
       <path id="DejaVuSans-29" d="M 513 4856 
L 1013 4856 
Q 1481 4119 1714 3412 
Q 1947 2706 1947 2009 
Q 1947 1309 1714 600 
Q 1481 -109 1013 -844 
L 513 -844 
Q 928 -128 1133 580 
Q 1338 1288 1338 2009 
Q 1338 2731 1133 3434 
Q 928 4138 513 4856 
z
" transform="scale(0.015625)"/>
       <path id="DejaVuSans-2f" d="M 1625 4666 
L 2156 4666 
L 531 -594 
L 0 -594 
L 1625 4666 
z
" transform="scale(0.015625)"/>
       <path id="DejaVuSans-Oblique-3bb" d="M 2350 4316 
L 3125 0 
L 2516 0 
L 2038 2588 
L 328 0 
L -281 0 
L 1903 3356 
L 1794 3975 
Q 1725 4369 1391 4369 
L 1091 4369 
L 1184 4863 
L 1550 4856 
Q 2253 4847 2350 4316 
z
" transform="scale(0.015625)"/>
      </defs>
      <use xlink:href="#DejaVuSans-28" transform="translate(0 55.810938) scale(0.7)"/>
      <use xlink:href="#DejaVuSans-Oblique-3b4" transform="translate(27.30957 55.810938) scale(0.7)"/>
      <use xlink:href="#DejaVuSans-Oblique-66" transform="translate(70.136719 55.810938) scale(0.7)"/>
      <use xlink:href="#DejaVuSans-22c5" transform="translate(108.417969 55.810938) scale(0.7)"/>
      <use xlink:href="#DejaVuSans-Oblique-76" transform="translate(144.306641 55.810938) scale(0.7)"/>
      <use xlink:href="#DejaVuSans-32" transform="translate(185.732422 44.326562) scale(0.49)"/>
      <use xlink:href="#DejaVuSans-29" transform="translate(218.821777 55.810938) scale(0.7)"/>
      <use xlink:href="#DejaVuSans-2f" transform="translate(246.131348 55.810938) scale(0.7)"/>
      <use xlink:href="#DejaVuSans-Oblique-3bb" transform="translate(269.715332 55.810938) scale(0.7)"/>
      <use xlink:href="#DejaVuSans-32" transform="translate(311.141113 44.326562) scale(0.49)"/>
      <use xlink:href="#DejaVuSans-28" transform="translate(0 -40.1125) scale(0.7)"/>
      <use xlink:href="#DejaVuSans-Oblique-3b4" transform="translate(27.30957 -40.1125) scale(0.7)"/>
      <use xlink:href="#DejaVuSans-Oblique-66" transform="translate(70.136719 -40.1125) scale(0.7)"/>
      <use xlink:href="#DejaVuSans-22c5" transform="translate(108.417969 -40.1125) scale(0.7)"/>
      <use xlink:href="#DejaVuSans-Oblique-76" transform="translate(144.306641 -40.1125) scale(0.7)"/>
      <use xlink:href="#DejaVuSans-31" transform="translate(185.732422 -51.596875) scale(0.49)"/>
      <use xlink:href="#DejaVuSans-29" transform="translate(218.821777 -40.1125) scale(0.7)"/>
      <use xlink:href="#DejaVuSans-2f" transform="translate(246.131348 -40.1125) scale(0.7)"/>
      <use xlink:href="#DejaVuSans-Oblique-3bb" transform="translate(269.715332 -40.1125) scale(0.7)"/>
      <use xlink:href="#DejaVuSans-31" transform="translate(311.141113 -51.596875) scale(0.49)"/>
      <path d="M 0 19.326562 
L 0 25.576562 
L 344.230469 25.576562 
L 344.230469 19.326562 
L 0 19.326562 
z
"/>
     </g>
    </g>
   </g>
   <g id="matplotlib.axis_2">
    <g id="ytick_1">
     <g id="line2d_56">
      <defs>
       <path id="mbcbfeb8fdd" d="M 0 0 
L -3.5 0 
" style="stroke: #000000; stroke-width: 0.8"/>
      </defs>
      <g>
       <use xlink:href="#mbcbfeb8fdd" x="54" y="184.680033" style="stroke: #000000; stroke-width: 0.8"/>
      </g>
     </g>
     <g id="text_9">
      <!-- $0$ -->
      <g transform="translate(36.12 191.138705) scale(0.17 -0.17)">
       <use xlink:href="#DejaVuSans-30" transform="translate(0 0.78125)"/>
      </g>
     </g>
    </g>
    <g id="ytick_2">
     <g id="line2d_57">
      <g>
       <use xlink:href="#mbcbfeb8fdd" x="54" y="109.031857" style="stroke: #000000; stroke-width: 0.8"/>
      </g>
     </g>
     <g id="text_10">
      <!-- $\pi/4$ -->
      <g transform="translate(20.14 115.490529) scale(0.17 -0.17)">
       <defs>
        <path id="DejaVuSans-Oblique-3c0" d="M 584 3500 
L 3938 3500 
L 3825 2925 
L 3384 2925 
L 2966 775 
Q 2922 550 2981 450 
Q 3038 353 3209 353 
Q 3256 353 3325 363 
Q 3397 369 3419 372 
L 3338 -44 
Q 3222 -84 3103 -103 
Q 2981 -122 2866 -122 
Q 2491 -122 2388 81 
Q 2284 288 2391 838 
L 2797 2925 
L 1506 2925 
L 938 0 
L 350 0 
L 919 2925 
L 472 2925 
L 584 3500 
z
" transform="scale(0.015625)"/>
        <path id="DejaVuSans-34" d="M 2419 4116 
L 825 1625 
L 2419 1625 
L 2419 4116 
z
M 2253 4666 
L 3047 4666 
L 3047 1625 
L 3713 1625 
L 3713 1100 
L 3047 1100 
L 3047 0 
L 2419 0 
L 2419 1100 
L 313 1100 
L 313 1709 
L 2253 4666 
z
" transform="scale(0.015625)"/>
       </defs>
       <use xlink:href="#DejaVuSans-Oblique-3c0" transform="translate(0 0.09375)"/>
       <use xlink:href="#DejaVuSans-2f" transform="translate(60.205078 0.09375)"/>
       <use xlink:href="#DejaVuSans-34" transform="translate(93.896484 0.09375)"/>
      </g>
     </g>
    </g>
    <g id="ytick_3">
     <g id="line2d_58">
      <g>
       <use xlink:href="#mbcbfeb8fdd" x="54" y="33.383682" style="stroke: #000000; stroke-width: 0.8"/>
      </g>
     </g>
     <g id="text_11">
      <!-- $\pi/2$ -->
      <g transform="translate(20.82 39.842354) scale(0.17 -0.17)">
       <use xlink:href="#DejaVuSans-Oblique-3c0" transform="translate(0 0.78125)"/>
       <use xlink:href="#DejaVuSans-2f" transform="translate(60.205078 0.78125)"/>
       <use xlink:href="#DejaVuSans-32" transform="translate(90.271484 0.78125)"/>
      </g>
     </g>
    </g>
    <g id="text_12">
     <!-- $\theta_{g,v_1}$ in Radians -->
     <g transform="translate(9.94 186.38) rotate(-90) scale(0.2 -0.2)">
      <defs>
       <path id="DejaVuSans-Oblique-3b8" d="M 2913 2219 
L 925 2219 
Q 791 1284 928 888 
Q 1100 400 1566 400 
Q 2034 400 2391 891 
Q 2703 1322 2913 2219 
z
M 3009 2750 
Q 3094 3638 2984 3950 
Q 2813 4444 2353 4444 
Q 1875 4444 1525 3956 
Q 1250 3563 1034 2750 
L 3009 2750 
z
M 2444 4913 
Q 3194 4913 3494 4250 
Q 3794 3591 3566 2422 
Q 3341 1256 2781 594 
Q 2225 -72 1475 -72 
Q 722 -72 425 594 
Q 128 1256 353 2422 
Q 581 3591 1134 4250 
Q 1691 4913 2444 4913 
z
" transform="scale(0.015625)"/>
       <path id="DejaVuSans-Oblique-67" d="M 3816 3500 
L 3219 434 
Q 3047 -456 2561 -893 
Q 2075 -1331 1253 -1331 
Q 950 -1331 690 -1286 
Q 431 -1241 206 -1147 
L 313 -588 
Q 525 -725 762 -790 
Q 1000 -856 1269 -856 
Q 1816 -856 2167 -557 
Q 2519 -259 2631 300 
L 2681 563 
Q 2441 288 2122 144 
Q 1803 0 1434 0 
Q 903 0 598 351 
Q 294 703 294 1319 
Q 294 1803 478 2267 
Q 663 2731 997 3091 
Q 1219 3328 1514 3456 
Q 1809 3584 2131 3584 
Q 2484 3584 2746 3420 
Q 3009 3256 3138 2956 
L 3238 3500 
L 3816 3500 
z
M 2950 2216 
Q 2950 2641 2750 2872 
Q 2550 3103 2181 3103 
Q 1953 3103 1747 3012 
Q 1541 2922 1394 2759 
Q 1156 2491 1023 2127 
Q 891 1763 891 1375 
Q 891 944 1092 712 
Q 1294 481 1672 481 
Q 2219 481 2584 976 
Q 2950 1472 2950 2216 
z
" transform="scale(0.015625)"/>
       <path id="DejaVuSans-2c" d="M 750 794 
L 1409 794 
L 1409 256 
L 897 -744 
L 494 -744 
L 750 256 
L 750 794 
z
" transform="scale(0.015625)"/>
       <path id="DejaVuSans-20" transform="scale(0.015625)"/>
       <path id="DejaVuSans-69" d="M 603 3500 
L 1178 3500 
L 1178 0 
L 603 0 
L 603 3500 
z
M 603 4863 
L 1178 4863 
L 1178 4134 
L 603 4134 
L 603 4863 
z
" transform="scale(0.015625)"/>
       <path id="DejaVuSans-6e" d="M 3513 2113 
L 3513 0 
L 2938 0 
L 2938 2094 
Q 2938 2591 2744 2837 
Q 2550 3084 2163 3084 
Q 1697 3084 1428 2787 
Q 1159 2491 1159 1978 
L 1159 0 
L 581 0 
L 581 3500 
L 1159 3500 
L 1159 2956 
Q 1366 3272 1645 3428 
Q 1925 3584 2291 3584 
Q 2894 3584 3203 3211 
Q 3513 2838 3513 2113 
z
" transform="scale(0.015625)"/>
       <path id="DejaVuSans-52" d="M 2841 2188 
Q 3044 2119 3236 1894 
Q 3428 1669 3622 1275 
L 4263 0 
L 3584 0 
L 2988 1197 
Q 2756 1666 2539 1819 
Q 2322 1972 1947 1972 
L 1259 1972 
L 1259 0 
L 628 0 
L 628 4666 
L 2053 4666 
Q 2853 4666 3247 4331 
Q 3641 3997 3641 3322 
Q 3641 2881 3436 2590 
Q 3231 2300 2841 2188 
z
M 1259 4147 
L 1259 2491 
L 2053 2491 
Q 2509 2491 2742 2702 
Q 2975 2913 2975 3322 
Q 2975 3731 2742 3939 
Q 2509 4147 2053 4147 
L 1259 4147 
z
" transform="scale(0.015625)"/>
       <path id="DejaVuSans-61" d="M 2194 1759 
Q 1497 1759 1228 1600 
Q 959 1441 959 1056 
Q 959 750 1161 570 
Q 1363 391 1709 391 
Q 2188 391 2477 730 
Q 2766 1069 2766 1631 
L 2766 1759 
L 2194 1759 
z
M 3341 1997 
L 3341 0 
L 2766 0 
L 2766 531 
Q 2569 213 2275 61 
Q 1981 -91 1556 -91 
Q 1019 -91 701 211 
Q 384 513 384 1019 
Q 384 1609 779 1909 
Q 1175 2209 1959 2209 
L 2766 2209 
L 2766 2266 
Q 2766 2663 2505 2880 
Q 2244 3097 1772 3097 
Q 1472 3097 1187 3025 
Q 903 2953 641 2809 
L 641 3341 
Q 956 3463 1253 3523 
Q 1550 3584 1831 3584 
Q 2591 3584 2966 3190 
Q 3341 2797 3341 1997 
z
" transform="scale(0.015625)"/>
       <path id="DejaVuSans-64" d="M 2906 2969 
L 2906 4863 
L 3481 4863 
L 3481 0 
L 2906 0 
L 2906 525 
Q 2725 213 2448 61 
Q 2172 -91 1784 -91 
Q 1150 -91 751 415 
Q 353 922 353 1747 
Q 353 2572 751 3078 
Q 1150 3584 1784 3584 
Q 2172 3584 2448 3432 
Q 2725 3281 2906 2969 
z
M 947 1747 
Q 947 1113 1208 752 
Q 1469 391 1925 391 
Q 2381 391 2643 752 
Q 2906 1113 2906 1747 
Q 2906 2381 2643 2742 
Q 2381 3103 1925 3103 
Q 1469 3103 1208 2742 
Q 947 2381 947 1747 
z
" transform="scale(0.015625)"/>
       <path id="DejaVuSans-73" d="M 2834 3397 
L 2834 2853 
Q 2591 2978 2328 3040 
Q 2066 3103 1784 3103 
Q 1356 3103 1142 2972 
Q 928 2841 928 2578 
Q 928 2378 1081 2264 
Q 1234 2150 1697 2047 
L 1894 2003 
Q 2506 1872 2764 1633 
Q 3022 1394 3022 966 
Q 3022 478 2636 193 
Q 2250 -91 1575 -91 
Q 1294 -91 989 -36 
Q 684 19 347 128 
L 347 722 
Q 666 556 975 473 
Q 1284 391 1588 391 
Q 1994 391 2212 530 
Q 2431 669 2431 922 
Q 2431 1156 2273 1281 
Q 2116 1406 1581 1522 
L 1381 1569 
Q 847 1681 609 1914 
Q 372 2147 372 2553 
Q 372 3047 722 3315 
Q 1072 3584 1716 3584 
Q 2034 3584 2315 3537 
Q 2597 3491 2834 3397 
z
" transform="scale(0.015625)"/>
      </defs>
      <use xlink:href="#DejaVuSans-Oblique-3b8" transform="translate(0 0.234375)"/>
      <use xlink:href="#DejaVuSans-Oblique-67" transform="translate(61.181641 -16.171875) scale(0.7)"/>
      <use xlink:href="#DejaVuSans-2c" transform="translate(105.615234 -16.171875) scale(0.7)"/>
      <use xlink:href="#DejaVuSans-Oblique-76" transform="translate(141.503906 -16.171875) scale(0.7)"/>
      <use xlink:href="#DejaVuSans-31" transform="translate(182.929688 -27.65625) scale(0.49)"/>
      <use xlink:href="#DejaVuSans-20" transform="translate(218.753418 0.234375)"/>
      <use xlink:href="#DejaVuSans-69" transform="translate(250.540527 0.234375)"/>
      <use xlink:href="#DejaVuSans-6e" transform="translate(278.32373 0.234375)"/>
      <use xlink:href="#DejaVuSans-20" transform="translate(341.702637 0.234375)"/>
      <use xlink:href="#DejaVuSans-52" transform="translate(373.489746 0.234375)"/>
      <use xlink:href="#DejaVuSans-61" transform="translate(442.972168 0.234375)"/>
      <use xlink:href="#DejaVuSans-64" transform="translate(504.251465 0.234375)"/>
      <use xlink:href="#DejaVuSans-69" transform="translate(567.728027 0.234375)"/>
      <use xlink:href="#DejaVuSans-61" transform="translate(595.51123 0.234375)"/>
      <use xlink:href="#DejaVuSans-6e" transform="translate(656.790527 0.234375)"/>
      <use xlink:href="#DejaVuSans-73" transform="translate(720.169434 0.234375)"/>
     </g>
    </g>
   </g>
   <g id="line2d_59">
    <path d="M 54.000008 184.631874 
L 102.13318 184.329061 
L 122.257976 183.872828 
L 133.101412 183.417473 
L 135.853948 181.858397 
L 142.62302 180.949958 
L 147.911747 180.041519 
L 153.545212 178.830267 
L 158.119327 177.619014 
L 162.847907 176.104949 
L 166.813004 174.590884 
L 170.860723 172.774006 
L 174.343307 170.957127 
L 177.879304 168.837436 
L 180.985678 166.717744 
L 184.134003 164.29524 
L 187.280597 161.569922 
L 190.398406 158.541792 
L 193.472931 155.210848 
L 196.498963 151.577092 
L 199.478164 147.640522 
L 202.618435 143.098326 
L 205.885493 137.950504 
L 209.265894 132.197056 
L 213.089674 125.232356 
L 217.806079 116.147964 
L 231.013759 90.408854 
L 234.92811 83.444154 
L 238.418671 77.690706 
L 241.612451 72.845697 
L 244.663003 68.606314 
L 247.776453 64.669745 
L 250.684235 61.338801 
L 253.607117 58.310671 
L 256.528025 55.585353 
L 259.4185 53.162849 
L 262.664409 50.740344 
L 265.881854 48.620653 
L 269.00465 46.803774 
L 272.569841 44.986896 
L 275.986996 43.472831 
L 279.952093 41.958766 
L 283.659264 40.747513 
L 288.028554 39.536261 
L 293.353192 38.325009 
L 298.28339 37.41657 
L 304.47408 36.508131 
L 312.803764 35.599691 
L 320.542024 34.994065 
L 331.975043 34.388439 
L 340.66682 34.085626 
L 354.348539 33.782813 
L 388.799992 33.48 
L 388.799992 33.48 
" clip-path="url(#paab02db63d)" style="fill: none; stroke: #49006a; stroke-width: 2; stroke-linecap: square"/>
   </g>
   <g id="line2d_60">
    <path d="M 36.562508 184.631874 
L 84.69568 184.330583 
L 104.820476 183.878332 
L 108.996934 183.727582 
L 112.558736 184.111311 
L 127.07911 183.651537 
L 138.501568 183.031324 
L 146.256029 182.411069 
L 154.638566 181.469915 
L 161.368186 180.443573 
L 169.174859 178.836546 
L 176.56127 176.757404 
L 179.773798 175.642564 
L 184.370201 173.763951 
L 189.180511 171.390652 
L 194.018839 168.500359 
L 199.130985 164.737341 
L 202.055845 162.243298 
L 204.953215 159.484612 
L 207.864826 156.39816 
L 210.83345 152.896638 
L 213.740995 149.094527 
L 216.788748 144.704998 
L 220.034699 139.587649 
L 223.554799 133.565484 
L 227.45445 126.385649 
L 232.424917 116.704448 
L 232.970213 115.353881 
L 244.376822 92.325753 
L 248.444354 84.714917 
L 251.019193 80.308982 
L 254.501777 74.739404 
L 257.827427 69.905094 
L 260.851398 65.920093 
L 261.668971 65.143091 
L 264.298323 62.00637 
L 267.243173 58.834389 
L 270.591054 55.62988 
L 273.108385 53.477994 
L 275.915692 51.314166 
L 279.089152 49.140156 
L 282.73948 46.956714 
L 287.03658 44.765579 
L 289.508552 43.667347 
L 292.261088 42.567774 
L 295.366264 41.466815 
L 298.928066 40.364527 
L 303.104524 39.261314 
L 308.153197 38.157306 
L 314.537543 37.052715 
L 323.22932 35.947116 
L 336.911039 34.841517 
L 371.362492 33.48 
L 371.362492 33.48 
" clip-path="url(#paab02db63d)" style="fill: none; stroke: #7a0177; stroke-width: 2; stroke-linecap: square"/>
   </g>
   <g id="line2d_61">
    <path d="M 19.125008 184.633188 
L 87.382976 184.570293 
L 114.571808 184.345503 
L 131.938004 183.99526 
L 144.824857 183.518048 
L 155.523406 182.873881 
L 163.489344 182.168924 
L 170.265245 181.355241 
L 176.249682 180.418246 
L 181.537972 179.371278 
L 186.296434 178.209928 
L 191.046071 176.817324 
L 194.996928 175.403034 
L 198.316462 173.99726 
L 201.671713 172.375349 
L 204.907745 170.561522 
L 207.795852 168.698413 
L 210.713702 166.544264 
L 213.409487 164.278856 
L 216.088421 161.74032 
L 218.732117 158.956955 
L 221.312641 155.843365 
L 223.790997 152.486081 
L 226.116128 148.979205 
L 228.668351 144.707854 
L 231.50136 139.451641 
L 234.12965 134.139747 
L 237.064277 127.736793 
L 241.855743 116.686354 
L 250.871532 95.68976 
L 253.153554 90.752331 
L 257.034151 83.164696 
L 258.478192 80.681881 
L 260.013253 77.6054 
L 265.30198 69.524223 
L 267.355649 66.620648 
L 269.59908 63.775957 
L 272.071052 60.905404 
L 274.823588 58.055595 
L 277.928764 55.066316 
L 281.490566 52.13715 
L 285.667024 49.193453 
L 290.715697 46.237116 
L 297.100043 43.27058 
L 305.79182 40.296073 
L 319.473539 37.31603 
L 353.924992 34.332858 
L 353.924992 34.332858 
" clip-path="url(#paab02db63d)" style="fill: none; stroke: #ae017e; stroke-width: 2; stroke-linecap: square"/>
   </g>
   <g id="line2d_62">
    <path d="M 1.687508 184.678306 
L 103.626568 184.554365 
L 130.684566 184.30347 
L 146.945859 183.94001 
L 159.638055 183.438728 
L 169.163688 182.837045 
L 176.915119 182.133687 
L 183.507727 181.320908 
L 189.092038 180.420167 
L 193.988537 179.414773 
L 198.371735 178.288829 
L 202.234198 177.065011 
L 205.621713 175.759803 
L 208.678628 174.342718 
L 211.230851 172.939831 
L 213.569354 171.435515 
L 215.607875 169.914371 
L 217.825173 167.986306 
L 219.626777 166.166657 
L 221.568408 163.906038 
L 223.674496 161.006047 
L 225.185041 158.590276 
L 226.793971 155.681312 
L 228.515291 152.142211 
L 230.366206 147.800154 
L 232.368173 142.474794 
L 234.548432 136.040654 
L 238.233385 124.231059 
L 242.575753 110.491468 
L 245.97089 100.669696 
L 247.86448 95.660013 
L 249.918149 90.596297 
L 252.16158 85.520944 
L 254.633552 80.4378 
L 257.386088 75.356135 
L 260.491264 70.253486 
L 264.053066 65.209041 
L 268.229524 60.155578 
L 273.278197 55.114848 
L 279.662543 50.076371 
L 288.35432 45.026585 
L 302.036039 39.97892 
L 336.487492 34.975329 
L 336.487492 34.975329 
" clip-path="url(#paab02db63d)" style="fill: none; stroke: #dd3497; stroke-width: 2; stroke-linecap: square"/>
   </g>
   <g id="line2d_63">
    <path d="M -1 184.678604 
L 113.247066 184.561377 
L 140.705814 184.313629 
L 157.10481 183.955 
L 169.442265 183.470646 
L 178.534487 182.897384 
L 185.769403 182.228381 
L 191.649478 181.464686 
L 196.131854 180.677311 
L 199.814785 179.828734 
L 202.819841 178.937158 
L 205.514927 177.914652 
L 207.747541 176.836749 
L 209.356471 175.87808 
L 211.077791 174.620523 
L 212.928706 172.897395 
L 213.909264 171.773612 
L 214.930673 170.399413 
L 215.996532 168.687918 
L 217.110932 166.515814 
L 218.278554 163.71321 
L 219.504788 160.067328 
L 220.795885 155.374473 
L 222.159151 149.571128 
L 226.776652 127.586775 
L 228.53339 119.956874 
L 230.42698 112.468235 
L 232.480649 105.210128 
L 234.72408 98.188168 
L 237.196052 91.376344 
L 239.948588 84.716763 
L 243.053764 78.227857 
L 246.615566 71.850847 
L 250.792024 65.580786 
L 255.840697 59.420713 
L 262.225043 53.32723 
L 270.91682 47.27642 
L 284.598539 41.275961 
L 319.049992 35.282219 
L 319.049992 35.282219 
" clip-path="url(#paab02db63d)" style="fill: none; stroke: #f768a1; stroke-width: 2; stroke-linecap: square"/>
   </g>
   <g id="line2d_64">
    <path d="M -1 184.679144 
L 120.151176 184.565568 
L 147.564194 184.324158 
L 163.775921 183.973708 
L 174.626822 183.536282 
L 182.377285 183.019613 
L 187.375781 182.504445 
L 191.101398 181.943945 
L 193.640291 181.410586 
L 195.491206 180.894813 
L 197.493173 180.137944 
L 198.559032 179.602976 
L 199.673432 178.894243 
L 200.841054 177.910588 
L 202.067288 176.455974 
L 203.358385 174.07073 
L 204.721651 169.677896 
L 206.165692 161.614954 
L 209.339152 139.23112 
L 211.09589 128.92604 
L 212.98948 119.547522 
L 215.043149 110.886665 
L 217.28658 102.778707 
L 219.758552 95.127389 
L 222.511088 87.801305 
L 225.616264 80.752074 
L 229.178066 73.915585 
L 233.354524 67.256062 
L 238.403197 60.721079 
L 244.787543 54.29451 
L 253.47932 47.948411 
L 267.161039 41.645414 
L 301.612492 35.375873 
L 301.612492 35.375873 
" clip-path="url(#paab02db63d)" style="fill: none; stroke: #fa9fb5; stroke-width: 2; stroke-linecap: square"/>
   </g>
   <g id="line2d_65">
    <path d="M -1 184.679243 
L 125.408892 184.563633 
L 151.562641 184.329136 
L 166.098934 183.994422 
L 173.663898 183.641533 
L 178.053706 183.274784 
L 181.121532 182.84443 
L 183.403554 182.309783 
L 184.629788 181.84409 
L 185.920885 181.066957 
L 187.284151 179.388744 
L 188.728192 173.975351 
L 190.263253 158.425111 
L 191.901652 143.699405 
L 193.65839 131.859933 
L 195.55198 121.654338 
L 197.605649 112.491561 
L 199.84908 104.054008 
L 202.321052 96.138652 
L 205.073588 88.624902 
L 208.178764 81.419926 
L 211.740566 74.456628 
L 215.917024 67.682984 
L 220.965697 61.057686 
L 227.350043 54.544585 
L 236.04182 48.113449 
L 249.723539 41.741715 
L 284.174992 35.399321 
L 284.174992 35.399321 
" clip-path="url(#paab02db63d)" style="fill: none; stroke: #fcc5c0; stroke-width: 2; stroke-linecap: square"/>
   </g>
   <g id="line2d_66">
    <path d="M -1 184.679175 
L 127.799917 184.564331 
L 151.154252 184.345225 
L 160.616206 184.092167 
L 164.798432 183.840605 
L 167.192288 183.557258 
L 168.483385 183.265943 
L 169.846651 182.737672 
L 171.290692 180.457784 
L 172.825753 161.506389 
L 174.464152 145.087221 
L 176.22089 132.706804 
L 178.11448 122.243654 
L 180.168149 112.930363 
L 182.41158 104.390694 
L 184.883552 96.407161 
L 187.636088 88.840185 
L 190.741264 81.59361 
L 194.303066 74.595859 
L 198.479524 67.794015 
L 203.528197 61.143341 
L 209.912543 54.608789 
L 218.60432 48.163237 
L 232.286039 41.76534 
L 266.737492 35.404285 
L 266.737492 35.404285 
" clip-path="url(#paab02db63d)" style="fill: none; stroke: #fde0dd; stroke-width: 2; stroke-linecap: square"/>
   </g>
   <g id="line2d_67">
    <path d="M -1 184.678917 
L 128.420375 184.565726 
L 148.528554 184.25858 
L 151.045885 184.07971 
L 152.409151 183.871803 
L 153.853192 182.998921 
L 155.388253 162.589382 
L 157.026652 145.506155 
L 158.78339 132.952797 
L 160.67698 122.411182 
L 162.730649 113.053093 
L 164.97408 104.484774 
L 167.446052 96.480897 
L 170.198588 88.899065 
L 173.303764 81.640918 
L 176.865566 74.633831 
L 181.042024 67.82367 
L 186.090697 61.166476 
L 192.475043 54.625524 
L 201.16682 48.169784 
L 214.848539 41.771766 
L 249.299992 35.405849 
L 249.299992 35.405849 
" clip-path="url(#paab02db63d)" style="fill: none; stroke: #fff7f3; stroke-width: 2; stroke-linecap: square"/>
   </g>
   <g id="patch_3">
    <path d="M 54 192.24 
L 54 25.92 
" style="fill: none; stroke: #000000; stroke-width: 0.8; stroke-linejoin: miter; stroke-linecap: square"/>
   </g>
   <g id="patch_4">
    <path d="M 388.8 192.24 
L 388.8 25.92 
" style="fill: none; stroke: #000000; stroke-width: 0.8; stroke-linejoin: miter; stroke-linecap: square"/>
   </g>
   <g id="patch_5">
    <path d="M 54 192.24 
L 388.8 192.24 
" style="fill: none; stroke: #000000; stroke-width: 0.8; stroke-linejoin: miter; stroke-linecap: square"/>
   </g>
   <g id="patch_6">
    <path d="M 54 25.92 
L 388.8 25.92 
" style="fill: none; stroke: #000000; stroke-width: 0.8; stroke-linejoin: miter; stroke-linecap: square"/>
   </g>
  </g>
 </g>
 <defs>
  <clipPath id="paab02db63d">
   <rect x="54" y="25.92" width="334.8" height="166.32"/>
  </clipPath>
 </defs>
</svg>
